G04 EAGLE Gerber RS-274X export*
G75*
%MOMM*%
%FSLAX25Y25*%
%LPD*%
%INBottom_layer*%
%IPPOS*%
%AMOC8*
5,1,8,0,0,1.08239X$1,22.5*%
G01*
%ADD10C,1.879600*%
%ADD11C,0.254000*%

G36*
X3939932Y604628D02*
X3939932Y604628D01*
X3941260Y604637D01*
X3942385Y604828D01*
X3943523Y604920D01*
X3944814Y605240D01*
X3946124Y605463D01*
X3947205Y605833D01*
X3948312Y606108D01*
X3949533Y606631D01*
X3950792Y607063D01*
X3951799Y607603D01*
X3952847Y608052D01*
X3953966Y608765D01*
X3955139Y609395D01*
X3956046Y610091D01*
X3957008Y610703D01*
X3957998Y611588D01*
X3959054Y612398D01*
X3959837Y613231D01*
X3960687Y613991D01*
X3961523Y615025D01*
X3962433Y615993D01*
X3963070Y616940D01*
X3963788Y617828D01*
X3964445Y618983D01*
X3965188Y620087D01*
X3965664Y621126D01*
X3966228Y622117D01*
X3966690Y623362D01*
X3967245Y624571D01*
X3967548Y625673D01*
X3967945Y626742D01*
X3968200Y628047D01*
X3968553Y629329D01*
X3968674Y630463D01*
X3968893Y631584D01*
X3968935Y632914D01*
X3969075Y634235D01*
X3969012Y635374D01*
X3969047Y636516D01*
X3968874Y637832D01*
X3968800Y639161D01*
X3968553Y640278D01*
X3968404Y641408D01*
X3968021Y642678D01*
X3967733Y643978D01*
X3967396Y644750D01*
X3966980Y646131D01*
X3965258Y649650D01*
X3965001Y650240D01*
X3956546Y664885D01*
X3939399Y728876D01*
X3939399Y795124D01*
X3956546Y859114D01*
X3989669Y916486D01*
X4036513Y963330D01*
X4093885Y996454D01*
X4157876Y1013600D01*
X4191000Y1013600D01*
X4191757Y1013662D01*
X4192516Y1013638D01*
X4194210Y1013861D01*
X4195918Y1014000D01*
X4196656Y1014183D01*
X4197408Y1014282D01*
X4199044Y1014775D01*
X4200707Y1015187D01*
X4201405Y1015487D01*
X4202131Y1015706D01*
X4203668Y1016457D01*
X4205241Y1017132D01*
X4205881Y1017540D01*
X4206563Y1017873D01*
X4207959Y1018863D01*
X4209403Y1019783D01*
X4209968Y1020288D01*
X4210588Y1020728D01*
X4211806Y1021931D01*
X4213082Y1023070D01*
X4213558Y1023661D01*
X4214099Y1024194D01*
X4215108Y1025578D01*
X4216182Y1026908D01*
X4216557Y1027567D01*
X4217005Y1028182D01*
X4217777Y1029711D01*
X4218623Y1031196D01*
X4218886Y1031907D01*
X4219229Y1032586D01*
X4219744Y1034219D01*
X4220339Y1035822D01*
X4220485Y1036567D01*
X4220714Y1037291D01*
X4220832Y1038335D01*
X4221288Y1040664D01*
X4221362Y1043035D01*
X4221479Y1044080D01*
X4221479Y2638920D01*
X4221418Y2639677D01*
X4221442Y2640436D01*
X4221219Y2642130D01*
X4221080Y2643838D01*
X4220897Y2644576D01*
X4220798Y2645328D01*
X4220305Y2646964D01*
X4219893Y2648627D01*
X4219593Y2649325D01*
X4219374Y2650051D01*
X4218622Y2651588D01*
X4217948Y2653161D01*
X4217540Y2653801D01*
X4217206Y2654483D01*
X4216216Y2655879D01*
X4215297Y2657323D01*
X4214791Y2657888D01*
X4214352Y2658508D01*
X4213149Y2659726D01*
X4212009Y2661002D01*
X4211419Y2661478D01*
X4210885Y2662019D01*
X4209502Y2663028D01*
X4208172Y2664102D01*
X4207513Y2664477D01*
X4206898Y2664925D01*
X4205368Y2665697D01*
X4203883Y2666543D01*
X4203173Y2666806D01*
X4202494Y2667149D01*
X4200861Y2667664D01*
X4199258Y2668259D01*
X4198513Y2668405D01*
X4197789Y2668634D01*
X4196745Y2668752D01*
X4194416Y2669208D01*
X4192044Y2669282D01*
X4191000Y2669399D01*
X4157876Y2669399D01*
X4093885Y2686546D01*
X4036513Y2719669D01*
X3989669Y2766513D01*
X3956546Y2823885D01*
X3939399Y2887876D01*
X3939399Y2954124D01*
X3956546Y3018114D01*
X3989669Y3075486D01*
X4036513Y3122330D01*
X4082021Y3148604D01*
X4083585Y3149685D01*
X4085183Y3150703D01*
X4085609Y3151083D01*
X4086080Y3151409D01*
X4087449Y3152728D01*
X4088863Y3153991D01*
X4089222Y3154435D01*
X4089633Y3154832D01*
X4090771Y3156353D01*
X4091963Y3157828D01*
X4092245Y3158324D01*
X4092588Y3158783D01*
X4093468Y3160472D01*
X4094403Y3162117D01*
X4094602Y3162650D01*
X4094867Y3163159D01*
X4095461Y3164966D01*
X4096120Y3166742D01*
X4096230Y3167303D01*
X4096409Y3167846D01*
X4096703Y3169718D01*
X4097068Y3171584D01*
X4097086Y3172156D01*
X4097175Y3172720D01*
X4097163Y3174621D01*
X4097223Y3176516D01*
X4097148Y3177080D01*
X4097145Y3177654D01*
X4096826Y3179530D01*
X4096579Y3181408D01*
X4096414Y3181954D01*
X4096318Y3182518D01*
X4095703Y3184313D01*
X4095155Y3186131D01*
X4094904Y3186645D01*
X4094718Y3187186D01*
X4093821Y3188859D01*
X4092987Y3190563D01*
X4092656Y3191030D01*
X4092386Y3191533D01*
X4091232Y3193038D01*
X4090133Y3194588D01*
X4089731Y3194995D01*
X4089383Y3195448D01*
X4088001Y3196747D01*
X4086666Y3198099D01*
X4086204Y3198436D01*
X4085788Y3198827D01*
X4084213Y3199887D01*
X4082679Y3201005D01*
X4082168Y3201263D01*
X4081694Y3201582D01*
X4079971Y3202373D01*
X4078275Y3203229D01*
X4077729Y3203401D01*
X4077210Y3203639D01*
X4075383Y3204142D01*
X4073570Y3204714D01*
X4073114Y3204765D01*
X4072453Y3204947D01*
X4067547Y3205470D01*
X4067092Y3205444D01*
X4066781Y3205479D01*
X505218Y3205479D01*
X503330Y3205326D01*
X501430Y3205243D01*
X500869Y3205126D01*
X500301Y3205080D01*
X498461Y3204624D01*
X496600Y3204236D01*
X496066Y3204030D01*
X495512Y3203893D01*
X493768Y3203144D01*
X491996Y3202462D01*
X491503Y3202173D01*
X490978Y3201948D01*
X489379Y3200929D01*
X487738Y3199969D01*
X487297Y3199603D01*
X486816Y3199297D01*
X485402Y3198034D01*
X483939Y3196821D01*
X483563Y3196390D01*
X483137Y3196009D01*
X481943Y3194532D01*
X480697Y3193102D01*
X480396Y3192617D01*
X480037Y3192172D01*
X479097Y3190520D01*
X478098Y3188908D01*
X477879Y3188381D01*
X477596Y3187883D01*
X476935Y3186102D01*
X476209Y3184350D01*
X476078Y3183794D01*
X475879Y3183258D01*
X475514Y3181394D01*
X475080Y3179547D01*
X475041Y3178977D01*
X474931Y3178416D01*
X474872Y3176521D01*
X474741Y3174625D01*
X474795Y3174054D01*
X474777Y3173484D01*
X475024Y3171607D01*
X475201Y3169712D01*
X475346Y3169158D01*
X475420Y3168593D01*
X475968Y3166775D01*
X476448Y3164938D01*
X476679Y3164417D01*
X476844Y3163869D01*
X477679Y3162162D01*
X478448Y3160428D01*
X478761Y3159950D01*
X479012Y3159437D01*
X480110Y3157888D01*
X481150Y3156300D01*
X481536Y3155878D01*
X481867Y3155412D01*
X483202Y3154060D01*
X484483Y3152662D01*
X484850Y3152390D01*
X485333Y3151901D01*
X489320Y3148995D01*
X489727Y3148790D01*
X489979Y3148604D01*
X535486Y3122330D01*
X582330Y3075486D01*
X615454Y3018114D01*
X632600Y2954124D01*
X632600Y2887876D01*
X615454Y2823885D01*
X582330Y2766513D01*
X535486Y2719669D01*
X478114Y2686546D01*
X414124Y2669399D01*
X381000Y2669399D01*
X380243Y2669338D01*
X379484Y2669362D01*
X377790Y2669139D01*
X376082Y2669000D01*
X375344Y2668817D01*
X374593Y2668718D01*
X372956Y2668225D01*
X371293Y2667813D01*
X370595Y2667513D01*
X369869Y2667294D01*
X368332Y2666542D01*
X366759Y2665868D01*
X366119Y2665460D01*
X365437Y2665126D01*
X364041Y2664136D01*
X362598Y2663217D01*
X362032Y2662711D01*
X361412Y2662272D01*
X360194Y2661069D01*
X358918Y2659929D01*
X358442Y2659339D01*
X357901Y2658805D01*
X356893Y2657422D01*
X355818Y2656092D01*
X355443Y2655433D01*
X354995Y2654818D01*
X354223Y2653288D01*
X353378Y2651803D01*
X353114Y2651093D01*
X352771Y2650414D01*
X352256Y2648781D01*
X351661Y2647178D01*
X351515Y2646433D01*
X351286Y2645709D01*
X351168Y2644665D01*
X350713Y2642336D01*
X350638Y2639964D01*
X350521Y2638920D01*
X350521Y1044080D01*
X350582Y1043323D01*
X350558Y1042564D01*
X350781Y1040870D01*
X350920Y1039162D01*
X351103Y1038424D01*
X351202Y1037672D01*
X351695Y1036036D01*
X352108Y1034373D01*
X352407Y1033675D01*
X352626Y1032948D01*
X353378Y1031411D01*
X354052Y1029839D01*
X354460Y1029198D01*
X354794Y1028516D01*
X355784Y1027120D01*
X356703Y1025677D01*
X357209Y1025111D01*
X357648Y1024492D01*
X358851Y1023273D01*
X359991Y1021998D01*
X360581Y1021521D01*
X361115Y1020981D01*
X362498Y1019972D01*
X363828Y1018898D01*
X364488Y1018523D01*
X365102Y1018075D01*
X366632Y1017303D01*
X368117Y1016457D01*
X368827Y1016193D01*
X369506Y1015851D01*
X371139Y1015335D01*
X372742Y1014740D01*
X373487Y1014594D01*
X374211Y1014366D01*
X375255Y1014248D01*
X377584Y1013792D01*
X379956Y1013718D01*
X381000Y1013600D01*
X414124Y1013600D01*
X478114Y996454D01*
X535486Y963330D01*
X582330Y916486D01*
X615454Y859114D01*
X632600Y795124D01*
X632600Y728876D01*
X615454Y664885D01*
X606998Y650240D01*
X606429Y649038D01*
X605772Y647883D01*
X605375Y646814D01*
X604885Y645782D01*
X604517Y644504D01*
X604055Y643258D01*
X603835Y642137D01*
X603519Y641041D01*
X603363Y639723D01*
X603107Y638416D01*
X603071Y637275D01*
X602936Y636141D01*
X602994Y634811D01*
X602953Y633484D01*
X603101Y632355D01*
X603151Y631212D01*
X603423Y629908D01*
X603596Y628593D01*
X603925Y627501D01*
X604158Y626382D01*
X604637Y625140D01*
X605020Y623869D01*
X605521Y622844D01*
X605932Y621778D01*
X606604Y620629D01*
X607188Y619437D01*
X607848Y618506D01*
X608425Y617520D01*
X609273Y616496D01*
X610042Y615412D01*
X610844Y614600D01*
X611573Y613721D01*
X612575Y612847D01*
X613509Y611901D01*
X614431Y611229D01*
X615292Y610478D01*
X616422Y609778D01*
X617496Y608995D01*
X618514Y608481D01*
X619485Y607879D01*
X620714Y607370D01*
X621900Y606771D01*
X622988Y606428D01*
X624043Y605990D01*
X625338Y605686D01*
X626605Y605286D01*
X627442Y605192D01*
X628847Y604862D01*
X632756Y604593D01*
X633394Y604521D01*
X3938606Y604521D01*
X3939932Y604628D01*
G37*
%LPC*%
G36*
X992254Y2801619D02*
X992254Y2801619D01*
X948376Y2819794D01*
X914794Y2853376D01*
X896619Y2897254D01*
X896619Y2944746D01*
X914794Y2988624D01*
X948376Y3022206D01*
X992254Y3040380D01*
X1039746Y3040380D01*
X1083624Y3022206D01*
X1121448Y2984382D01*
X1122027Y2983889D01*
X1122546Y2983337D01*
X1123901Y2982296D01*
X1125207Y2981187D01*
X1125859Y2980794D01*
X1126460Y2980333D01*
X1127964Y2979525D01*
X1129433Y2978640D01*
X1130140Y2978358D01*
X1130807Y2977999D01*
X1132423Y2977445D01*
X1134015Y2976809D01*
X1134757Y2976644D01*
X1135474Y2976398D01*
X1137158Y2976112D01*
X1138832Y2975741D01*
X1139592Y2975698D01*
X1140338Y2975571D01*
X1142047Y2975560D01*
X1143758Y2975464D01*
X1144512Y2975544D01*
X1145272Y2975539D01*
X1146963Y2975804D01*
X1148664Y2975985D01*
X1149397Y2976186D01*
X1150146Y2976304D01*
X1151770Y2976838D01*
X1153422Y2977292D01*
X1154113Y2977608D01*
X1154833Y2977845D01*
X1156351Y2978635D01*
X1157907Y2979348D01*
X1158536Y2979772D01*
X1159210Y2980123D01*
X1160034Y2980779D01*
X1162001Y2982102D01*
X1163729Y2983726D01*
X1164552Y2984382D01*
X1202376Y3022206D01*
X1246254Y3040380D01*
X1293746Y3040380D01*
X1337624Y3022206D01*
X1375448Y2984382D01*
X1376027Y2983889D01*
X1376546Y2983337D01*
X1377901Y2982296D01*
X1379207Y2981187D01*
X1379859Y2980794D01*
X1380460Y2980333D01*
X1381964Y2979525D01*
X1383433Y2978640D01*
X1384140Y2978358D01*
X1384807Y2977999D01*
X1386423Y2977445D01*
X1388015Y2976809D01*
X1388757Y2976644D01*
X1389474Y2976398D01*
X1391158Y2976112D01*
X1392832Y2975741D01*
X1393592Y2975698D01*
X1394338Y2975571D01*
X1396047Y2975560D01*
X1397758Y2975464D01*
X1398512Y2975544D01*
X1399272Y2975539D01*
X1400963Y2975804D01*
X1402664Y2975985D01*
X1403397Y2976186D01*
X1404146Y2976304D01*
X1405770Y2976838D01*
X1407422Y2977292D01*
X1408113Y2977608D01*
X1408833Y2977845D01*
X1410351Y2978635D01*
X1411907Y2979348D01*
X1412536Y2979772D01*
X1413210Y2980123D01*
X1414034Y2980779D01*
X1416001Y2982102D01*
X1417729Y2983726D01*
X1418552Y2984382D01*
X1456376Y3022206D01*
X1500254Y3040380D01*
X1547746Y3040380D01*
X1591624Y3022206D01*
X1629448Y2984382D01*
X1630027Y2983889D01*
X1630546Y2983337D01*
X1631901Y2982296D01*
X1633207Y2981187D01*
X1633859Y2980794D01*
X1634460Y2980333D01*
X1635964Y2979525D01*
X1637433Y2978640D01*
X1638140Y2978358D01*
X1638807Y2977999D01*
X1640423Y2977445D01*
X1642015Y2976809D01*
X1642757Y2976644D01*
X1643474Y2976398D01*
X1645158Y2976112D01*
X1646832Y2975741D01*
X1647592Y2975698D01*
X1648338Y2975571D01*
X1650047Y2975560D01*
X1651758Y2975464D01*
X1652512Y2975544D01*
X1653272Y2975539D01*
X1654963Y2975804D01*
X1656664Y2975985D01*
X1657397Y2976186D01*
X1658146Y2976304D01*
X1659770Y2976838D01*
X1661422Y2977292D01*
X1662113Y2977608D01*
X1662833Y2977845D01*
X1664351Y2978635D01*
X1665907Y2979348D01*
X1666536Y2979772D01*
X1667210Y2980123D01*
X1668034Y2980779D01*
X1670001Y2982102D01*
X1671729Y2983726D01*
X1672552Y2984382D01*
X1710376Y3022206D01*
X1754254Y3040380D01*
X1801746Y3040380D01*
X1845624Y3022206D01*
X1883448Y2984382D01*
X1884027Y2983889D01*
X1884546Y2983337D01*
X1885901Y2982296D01*
X1887207Y2981187D01*
X1887859Y2980794D01*
X1888460Y2980333D01*
X1889964Y2979525D01*
X1891433Y2978640D01*
X1892140Y2978358D01*
X1892807Y2977999D01*
X1894423Y2977445D01*
X1896015Y2976809D01*
X1896757Y2976644D01*
X1897474Y2976398D01*
X1899158Y2976112D01*
X1900832Y2975741D01*
X1901592Y2975698D01*
X1902338Y2975571D01*
X1904047Y2975560D01*
X1905758Y2975464D01*
X1906512Y2975544D01*
X1907272Y2975539D01*
X1908963Y2975804D01*
X1910664Y2975985D01*
X1911397Y2976186D01*
X1912146Y2976304D01*
X1913770Y2976838D01*
X1915422Y2977292D01*
X1916113Y2977608D01*
X1916833Y2977845D01*
X1918351Y2978635D01*
X1919907Y2979348D01*
X1920536Y2979772D01*
X1921210Y2980123D01*
X1922034Y2980779D01*
X1924001Y2982102D01*
X1925729Y2983726D01*
X1926552Y2984382D01*
X1964376Y3022206D01*
X2008254Y3040380D01*
X2055746Y3040380D01*
X2099624Y3022206D01*
X2137448Y2984382D01*
X2138027Y2983889D01*
X2138546Y2983337D01*
X2139901Y2982296D01*
X2141207Y2981187D01*
X2141859Y2980794D01*
X2142460Y2980333D01*
X2143964Y2979525D01*
X2145433Y2978640D01*
X2146140Y2978358D01*
X2146807Y2977999D01*
X2148423Y2977445D01*
X2150015Y2976809D01*
X2150757Y2976644D01*
X2151474Y2976398D01*
X2153158Y2976112D01*
X2154832Y2975741D01*
X2155592Y2975698D01*
X2156338Y2975571D01*
X2158047Y2975560D01*
X2159758Y2975464D01*
X2160512Y2975544D01*
X2161272Y2975539D01*
X2162963Y2975804D01*
X2164664Y2975985D01*
X2165397Y2976186D01*
X2166146Y2976304D01*
X2167770Y2976838D01*
X2169422Y2977292D01*
X2170113Y2977608D01*
X2170833Y2977845D01*
X2172351Y2978635D01*
X2173907Y2979348D01*
X2174536Y2979772D01*
X2175210Y2980123D01*
X2176034Y2980779D01*
X2178001Y2982102D01*
X2179729Y2983726D01*
X2180552Y2984382D01*
X2218376Y3022206D01*
X2262254Y3040380D01*
X2309746Y3040380D01*
X2353624Y3022206D01*
X2391448Y2984382D01*
X2392027Y2983889D01*
X2392546Y2983337D01*
X2393901Y2982296D01*
X2395207Y2981187D01*
X2395859Y2980794D01*
X2396460Y2980333D01*
X2397964Y2979525D01*
X2399433Y2978640D01*
X2400140Y2978358D01*
X2400807Y2977999D01*
X2402423Y2977445D01*
X2404015Y2976809D01*
X2404757Y2976644D01*
X2405474Y2976398D01*
X2407158Y2976112D01*
X2408832Y2975741D01*
X2409592Y2975698D01*
X2410338Y2975571D01*
X2412047Y2975560D01*
X2413758Y2975464D01*
X2414512Y2975544D01*
X2415272Y2975539D01*
X2416963Y2975804D01*
X2418664Y2975985D01*
X2419397Y2976186D01*
X2420146Y2976304D01*
X2421770Y2976838D01*
X2423422Y2977292D01*
X2424113Y2977608D01*
X2424833Y2977845D01*
X2426351Y2978635D01*
X2427907Y2979348D01*
X2428536Y2979772D01*
X2429210Y2980123D01*
X2430034Y2980779D01*
X2432001Y2982102D01*
X2433729Y2983726D01*
X2434552Y2984382D01*
X2472376Y3022206D01*
X2516254Y3040380D01*
X2563746Y3040380D01*
X2607624Y3022206D01*
X2645448Y2984382D01*
X2646027Y2983889D01*
X2646546Y2983337D01*
X2647901Y2982296D01*
X2649207Y2981187D01*
X2649859Y2980794D01*
X2650460Y2980333D01*
X2651964Y2979525D01*
X2653433Y2978640D01*
X2654140Y2978358D01*
X2654807Y2977999D01*
X2656423Y2977445D01*
X2658015Y2976809D01*
X2658757Y2976644D01*
X2659474Y2976398D01*
X2661158Y2976112D01*
X2662832Y2975741D01*
X2663592Y2975698D01*
X2664338Y2975571D01*
X2666047Y2975560D01*
X2667758Y2975464D01*
X2668512Y2975544D01*
X2669272Y2975539D01*
X2670963Y2975804D01*
X2672664Y2975985D01*
X2673397Y2976186D01*
X2674146Y2976304D01*
X2675770Y2976838D01*
X2677422Y2977292D01*
X2678113Y2977608D01*
X2678833Y2977845D01*
X2680351Y2978635D01*
X2681907Y2979348D01*
X2682536Y2979772D01*
X2683210Y2980123D01*
X2684034Y2980779D01*
X2686001Y2982102D01*
X2687729Y2983726D01*
X2688552Y2984382D01*
X2726376Y3022206D01*
X2770254Y3040380D01*
X2817746Y3040380D01*
X2861624Y3022206D01*
X2899448Y2984382D01*
X2900027Y2983889D01*
X2900546Y2983337D01*
X2901901Y2982296D01*
X2903207Y2981187D01*
X2903859Y2980794D01*
X2904460Y2980333D01*
X2905964Y2979525D01*
X2907433Y2978640D01*
X2908140Y2978358D01*
X2908807Y2977999D01*
X2910423Y2977445D01*
X2912015Y2976809D01*
X2912757Y2976644D01*
X2913474Y2976398D01*
X2915158Y2976112D01*
X2916832Y2975741D01*
X2917592Y2975698D01*
X2918338Y2975571D01*
X2920047Y2975560D01*
X2921758Y2975464D01*
X2922512Y2975544D01*
X2923272Y2975539D01*
X2924963Y2975804D01*
X2926664Y2975985D01*
X2927397Y2976186D01*
X2928146Y2976304D01*
X2929770Y2976838D01*
X2931422Y2977292D01*
X2932113Y2977608D01*
X2932833Y2977845D01*
X2934351Y2978635D01*
X2935907Y2979348D01*
X2936536Y2979772D01*
X2937210Y2980123D01*
X2938034Y2980779D01*
X2940001Y2982102D01*
X2941729Y2983726D01*
X2942552Y2984382D01*
X2980376Y3022206D01*
X3024254Y3040380D01*
X3071746Y3040380D01*
X3115624Y3022206D01*
X3153448Y2984382D01*
X3154027Y2983889D01*
X3154546Y2983337D01*
X3155901Y2982296D01*
X3157207Y2981187D01*
X3157859Y2980794D01*
X3158460Y2980333D01*
X3159964Y2979525D01*
X3161433Y2978640D01*
X3162140Y2978358D01*
X3162807Y2977999D01*
X3164423Y2977445D01*
X3166015Y2976809D01*
X3166757Y2976644D01*
X3167474Y2976398D01*
X3169158Y2976112D01*
X3170832Y2975741D01*
X3171592Y2975698D01*
X3172338Y2975571D01*
X3174047Y2975560D01*
X3175758Y2975464D01*
X3176512Y2975544D01*
X3177272Y2975539D01*
X3178963Y2975804D01*
X3180664Y2975985D01*
X3181397Y2976186D01*
X3182146Y2976304D01*
X3183770Y2976838D01*
X3185422Y2977292D01*
X3186113Y2977608D01*
X3186833Y2977845D01*
X3188351Y2978635D01*
X3189907Y2979348D01*
X3190536Y2979772D01*
X3191210Y2980123D01*
X3192034Y2980779D01*
X3194001Y2982102D01*
X3195729Y2983726D01*
X3196552Y2984382D01*
X3234376Y3022206D01*
X3278254Y3040380D01*
X3325746Y3040380D01*
X3369624Y3022206D01*
X3407448Y2984382D01*
X3408027Y2983889D01*
X3408546Y2983337D01*
X3409901Y2982296D01*
X3411207Y2981187D01*
X3411859Y2980794D01*
X3412460Y2980333D01*
X3413964Y2979525D01*
X3415433Y2978640D01*
X3416140Y2978358D01*
X3416807Y2977999D01*
X3418423Y2977445D01*
X3420015Y2976809D01*
X3420757Y2976644D01*
X3421474Y2976398D01*
X3423158Y2976112D01*
X3424832Y2975741D01*
X3425592Y2975698D01*
X3426338Y2975571D01*
X3428047Y2975560D01*
X3429758Y2975464D01*
X3430512Y2975544D01*
X3431272Y2975539D01*
X3432963Y2975804D01*
X3434664Y2975985D01*
X3435397Y2976186D01*
X3436146Y2976304D01*
X3437770Y2976838D01*
X3439422Y2977292D01*
X3440113Y2977608D01*
X3440833Y2977845D01*
X3442351Y2978635D01*
X3443907Y2979348D01*
X3444536Y2979772D01*
X3445210Y2980123D01*
X3446034Y2980779D01*
X3448001Y2982102D01*
X3449729Y2983726D01*
X3450552Y2984382D01*
X3488376Y3022206D01*
X3532254Y3040380D01*
X3579746Y3040380D01*
X3623624Y3022206D01*
X3657206Y2988624D01*
X3675380Y2944746D01*
X3675380Y2897254D01*
X3657206Y2853376D01*
X3623624Y2819794D01*
X3579746Y2801619D01*
X3532254Y2801619D01*
X3488376Y2819794D01*
X3450552Y2857618D01*
X3449973Y2858110D01*
X3449453Y2858663D01*
X3448098Y2859703D01*
X3446792Y2860813D01*
X3446140Y2861206D01*
X3445539Y2861667D01*
X3444034Y2862475D01*
X3442566Y2863360D01*
X3441861Y2863642D01*
X3441192Y2864001D01*
X3439573Y2864556D01*
X3437985Y2865191D01*
X3437243Y2865356D01*
X3436525Y2865602D01*
X3434842Y2865888D01*
X3433168Y2866259D01*
X3432408Y2866302D01*
X3431661Y2866429D01*
X3429952Y2866440D01*
X3428242Y2866536D01*
X3427487Y2866456D01*
X3426727Y2866461D01*
X3425036Y2866195D01*
X3423335Y2866014D01*
X3422603Y2865813D01*
X3421853Y2865696D01*
X3420228Y2865161D01*
X3418578Y2864708D01*
X3417888Y2864392D01*
X3417166Y2864154D01*
X3415648Y2863365D01*
X3414093Y2862651D01*
X3413462Y2862227D01*
X3412789Y2861877D01*
X3411968Y2861222D01*
X3409999Y2859898D01*
X3408270Y2858274D01*
X3407448Y2857618D01*
X3369624Y2819794D01*
X3325746Y2801619D01*
X3278254Y2801619D01*
X3234376Y2819794D01*
X3196552Y2857618D01*
X3195973Y2858110D01*
X3195453Y2858663D01*
X3194098Y2859703D01*
X3192792Y2860813D01*
X3192140Y2861206D01*
X3191539Y2861667D01*
X3190034Y2862475D01*
X3188566Y2863360D01*
X3187861Y2863642D01*
X3187192Y2864001D01*
X3185573Y2864556D01*
X3183985Y2865191D01*
X3183243Y2865356D01*
X3182525Y2865602D01*
X3180842Y2865888D01*
X3179168Y2866259D01*
X3178408Y2866302D01*
X3177661Y2866429D01*
X3175952Y2866440D01*
X3174242Y2866536D01*
X3173487Y2866456D01*
X3172727Y2866461D01*
X3171036Y2866195D01*
X3169335Y2866014D01*
X3168603Y2865813D01*
X3167853Y2865696D01*
X3166228Y2865161D01*
X3164578Y2864708D01*
X3163888Y2864392D01*
X3163166Y2864154D01*
X3161648Y2863365D01*
X3160093Y2862651D01*
X3159462Y2862227D01*
X3158789Y2861877D01*
X3157968Y2861222D01*
X3155999Y2859898D01*
X3154270Y2858274D01*
X3153448Y2857618D01*
X3115624Y2819794D01*
X3071746Y2801619D01*
X3024254Y2801619D01*
X2980376Y2819794D01*
X2942552Y2857618D01*
X2941973Y2858110D01*
X2941453Y2858663D01*
X2940098Y2859703D01*
X2938792Y2860813D01*
X2938140Y2861206D01*
X2937539Y2861667D01*
X2936034Y2862475D01*
X2934566Y2863360D01*
X2933861Y2863642D01*
X2933192Y2864001D01*
X2931573Y2864556D01*
X2929985Y2865191D01*
X2929243Y2865356D01*
X2928525Y2865602D01*
X2926842Y2865888D01*
X2925168Y2866259D01*
X2924408Y2866302D01*
X2923661Y2866429D01*
X2921952Y2866440D01*
X2920242Y2866536D01*
X2919487Y2866456D01*
X2918727Y2866461D01*
X2917036Y2866195D01*
X2915335Y2866014D01*
X2914603Y2865813D01*
X2913853Y2865696D01*
X2912228Y2865161D01*
X2910578Y2864708D01*
X2909888Y2864392D01*
X2909166Y2864154D01*
X2907648Y2863365D01*
X2906093Y2862651D01*
X2905462Y2862227D01*
X2904789Y2861877D01*
X2903968Y2861222D01*
X2901999Y2859898D01*
X2900270Y2858274D01*
X2899448Y2857618D01*
X2861624Y2819794D01*
X2817746Y2801619D01*
X2770254Y2801619D01*
X2726376Y2819794D01*
X2688552Y2857618D01*
X2687973Y2858110D01*
X2687453Y2858663D01*
X2686098Y2859703D01*
X2684792Y2860813D01*
X2684140Y2861206D01*
X2683539Y2861667D01*
X2682034Y2862475D01*
X2680566Y2863360D01*
X2679861Y2863642D01*
X2679192Y2864001D01*
X2677573Y2864556D01*
X2675985Y2865191D01*
X2675243Y2865356D01*
X2674525Y2865602D01*
X2672842Y2865888D01*
X2671168Y2866259D01*
X2670408Y2866302D01*
X2669661Y2866429D01*
X2667952Y2866440D01*
X2666242Y2866536D01*
X2665487Y2866456D01*
X2664727Y2866461D01*
X2663036Y2866195D01*
X2661335Y2866014D01*
X2660603Y2865813D01*
X2659853Y2865696D01*
X2658228Y2865161D01*
X2656578Y2864708D01*
X2655888Y2864392D01*
X2655166Y2864154D01*
X2653648Y2863365D01*
X2652093Y2862651D01*
X2651462Y2862227D01*
X2650789Y2861877D01*
X2649968Y2861222D01*
X2647999Y2859898D01*
X2646270Y2858274D01*
X2645448Y2857618D01*
X2607624Y2819794D01*
X2563746Y2801619D01*
X2516254Y2801619D01*
X2472376Y2819794D01*
X2434552Y2857618D01*
X2433973Y2858110D01*
X2433453Y2858663D01*
X2432098Y2859703D01*
X2430792Y2860813D01*
X2430140Y2861206D01*
X2429539Y2861667D01*
X2428034Y2862475D01*
X2426566Y2863360D01*
X2425861Y2863642D01*
X2425192Y2864001D01*
X2423573Y2864556D01*
X2421985Y2865191D01*
X2421243Y2865356D01*
X2420525Y2865602D01*
X2418842Y2865888D01*
X2417168Y2866259D01*
X2416408Y2866302D01*
X2415661Y2866429D01*
X2413952Y2866440D01*
X2412242Y2866536D01*
X2411487Y2866456D01*
X2410727Y2866461D01*
X2409036Y2866195D01*
X2407335Y2866014D01*
X2406603Y2865813D01*
X2405853Y2865696D01*
X2404228Y2865161D01*
X2402578Y2864708D01*
X2401888Y2864392D01*
X2401166Y2864154D01*
X2399648Y2863365D01*
X2398093Y2862651D01*
X2397462Y2862227D01*
X2396789Y2861877D01*
X2395968Y2861222D01*
X2393999Y2859898D01*
X2392270Y2858274D01*
X2391448Y2857618D01*
X2353624Y2819794D01*
X2309746Y2801619D01*
X2262254Y2801619D01*
X2218376Y2819794D01*
X2180552Y2857618D01*
X2179973Y2858110D01*
X2179453Y2858663D01*
X2178098Y2859703D01*
X2176792Y2860813D01*
X2176140Y2861206D01*
X2175539Y2861667D01*
X2174034Y2862475D01*
X2172566Y2863360D01*
X2171861Y2863642D01*
X2171192Y2864001D01*
X2169573Y2864556D01*
X2167985Y2865191D01*
X2167243Y2865356D01*
X2166525Y2865602D01*
X2164842Y2865888D01*
X2163168Y2866259D01*
X2162408Y2866302D01*
X2161661Y2866429D01*
X2159952Y2866440D01*
X2158242Y2866536D01*
X2157487Y2866456D01*
X2156727Y2866461D01*
X2155036Y2866195D01*
X2153335Y2866014D01*
X2152603Y2865813D01*
X2151853Y2865696D01*
X2150228Y2865161D01*
X2148578Y2864708D01*
X2147888Y2864392D01*
X2147166Y2864154D01*
X2145648Y2863365D01*
X2144093Y2862651D01*
X2143462Y2862227D01*
X2142789Y2861877D01*
X2141968Y2861222D01*
X2139999Y2859898D01*
X2138270Y2858274D01*
X2137448Y2857618D01*
X2099624Y2819794D01*
X2055746Y2801619D01*
X2008254Y2801619D01*
X1964376Y2819794D01*
X1926552Y2857618D01*
X1925973Y2858110D01*
X1925453Y2858663D01*
X1924098Y2859703D01*
X1922792Y2860813D01*
X1922140Y2861206D01*
X1921539Y2861667D01*
X1920034Y2862475D01*
X1918566Y2863360D01*
X1917861Y2863642D01*
X1917192Y2864001D01*
X1915573Y2864556D01*
X1913985Y2865191D01*
X1913243Y2865356D01*
X1912525Y2865602D01*
X1910842Y2865888D01*
X1909168Y2866259D01*
X1908408Y2866302D01*
X1907661Y2866429D01*
X1905952Y2866440D01*
X1904242Y2866536D01*
X1903487Y2866456D01*
X1902727Y2866461D01*
X1901036Y2866195D01*
X1899335Y2866014D01*
X1898603Y2865813D01*
X1897853Y2865696D01*
X1896228Y2865161D01*
X1894578Y2864708D01*
X1893888Y2864392D01*
X1893166Y2864154D01*
X1891648Y2863365D01*
X1890093Y2862651D01*
X1889462Y2862227D01*
X1888789Y2861877D01*
X1887968Y2861222D01*
X1885999Y2859898D01*
X1884270Y2858274D01*
X1883448Y2857618D01*
X1845624Y2819794D01*
X1801746Y2801619D01*
X1754254Y2801619D01*
X1710376Y2819794D01*
X1672552Y2857618D01*
X1671973Y2858110D01*
X1671453Y2858663D01*
X1670098Y2859703D01*
X1668792Y2860813D01*
X1668140Y2861206D01*
X1667539Y2861667D01*
X1666034Y2862475D01*
X1664566Y2863360D01*
X1663861Y2863642D01*
X1663192Y2864001D01*
X1661573Y2864556D01*
X1659985Y2865191D01*
X1659243Y2865356D01*
X1658525Y2865602D01*
X1656842Y2865888D01*
X1655168Y2866259D01*
X1654408Y2866302D01*
X1653661Y2866429D01*
X1651952Y2866440D01*
X1650242Y2866536D01*
X1649487Y2866456D01*
X1648727Y2866461D01*
X1647036Y2866195D01*
X1645335Y2866014D01*
X1644603Y2865813D01*
X1643853Y2865696D01*
X1642228Y2865161D01*
X1640578Y2864708D01*
X1639888Y2864392D01*
X1639166Y2864154D01*
X1637648Y2863365D01*
X1636093Y2862651D01*
X1635462Y2862227D01*
X1634789Y2861877D01*
X1633968Y2861222D01*
X1631999Y2859898D01*
X1630270Y2858274D01*
X1629448Y2857618D01*
X1591624Y2819794D01*
X1547746Y2801619D01*
X1500254Y2801619D01*
X1456376Y2819794D01*
X1418552Y2857618D01*
X1417973Y2858110D01*
X1417453Y2858663D01*
X1416098Y2859703D01*
X1414792Y2860813D01*
X1414140Y2861206D01*
X1413539Y2861667D01*
X1412034Y2862475D01*
X1410566Y2863360D01*
X1409861Y2863642D01*
X1409192Y2864001D01*
X1407573Y2864556D01*
X1405985Y2865191D01*
X1405243Y2865356D01*
X1404525Y2865602D01*
X1402842Y2865888D01*
X1401168Y2866259D01*
X1400408Y2866302D01*
X1399661Y2866429D01*
X1397952Y2866440D01*
X1396242Y2866536D01*
X1395487Y2866456D01*
X1394727Y2866461D01*
X1393036Y2866195D01*
X1391335Y2866014D01*
X1390603Y2865813D01*
X1389853Y2865696D01*
X1388228Y2865161D01*
X1386578Y2864708D01*
X1385888Y2864392D01*
X1385166Y2864154D01*
X1383648Y2863365D01*
X1382093Y2862651D01*
X1381462Y2862227D01*
X1380789Y2861877D01*
X1379968Y2861222D01*
X1377999Y2859898D01*
X1376270Y2858274D01*
X1375448Y2857618D01*
X1337624Y2819794D01*
X1293746Y2801619D01*
X1246254Y2801619D01*
X1202376Y2819794D01*
X1164552Y2857618D01*
X1163973Y2858110D01*
X1163453Y2858663D01*
X1162098Y2859703D01*
X1160792Y2860813D01*
X1160140Y2861206D01*
X1159539Y2861667D01*
X1158034Y2862475D01*
X1156566Y2863360D01*
X1155861Y2863642D01*
X1155192Y2864001D01*
X1153573Y2864556D01*
X1151985Y2865191D01*
X1151243Y2865356D01*
X1150525Y2865602D01*
X1148842Y2865888D01*
X1147168Y2866259D01*
X1146408Y2866302D01*
X1145661Y2866429D01*
X1143952Y2866440D01*
X1142242Y2866536D01*
X1141487Y2866456D01*
X1140727Y2866461D01*
X1139036Y2866195D01*
X1137335Y2866014D01*
X1136603Y2865813D01*
X1135853Y2865696D01*
X1134228Y2865161D01*
X1132578Y2864708D01*
X1131888Y2864392D01*
X1131166Y2864154D01*
X1129648Y2863365D01*
X1128093Y2862651D01*
X1127462Y2862227D01*
X1126789Y2861877D01*
X1125968Y2861222D01*
X1123999Y2859898D01*
X1122270Y2858274D01*
X1121448Y2857618D01*
X1083624Y2819794D01*
X1039746Y2801619D01*
X992254Y2801619D01*
G37*
%LPD*%
D10*
X1016000Y2921000D03*
X1270000Y2921000D03*
X1524000Y2921000D03*
X1778000Y2921000D03*
X2032000Y2921000D03*
X2286000Y2921000D03*
X2540000Y2921000D03*
X2794000Y2921000D03*
X3048000Y2921000D03*
X3302000Y2921000D03*
X3556000Y2921000D03*
D11*
X0Y381000D02*
X4697000Y381000D01*
X4697000Y3396000D01*
X0Y3396000D01*
X0Y381000D01*
M02*
