G04 EAGLE Gerber RS-274X export*
G75*
%MOMM*%
%FSLAX25Y25*%
%LPD*%
%INOutline*%
%IPPOS*%
%AMOC8*
5,1,8,0,0,1.08239X$1,22.5*%
G01*
%ADD10C,0.000000*%
%ADD11C,0.254000*%


D10*
X0Y381000D02*
X4697000Y381000D01*
X4697000Y3396000D01*
X0Y3396000D01*
X0Y381000D01*
X231000Y762000D02*
X231045Y765681D01*
X231181Y769360D01*
X231406Y773035D01*
X231722Y776703D01*
X232128Y780362D01*
X232624Y784010D01*
X233208Y787644D01*
X233882Y791264D01*
X234645Y794865D01*
X235495Y798447D01*
X236434Y802007D01*
X237459Y805543D01*
X238571Y809052D01*
X239768Y812533D01*
X241051Y815984D01*
X242418Y819403D01*
X243869Y822786D01*
X245402Y826133D01*
X247016Y829442D01*
X248712Y832710D01*
X250487Y835935D01*
X252341Y839115D01*
X254272Y842250D01*
X256280Y845336D01*
X258362Y848371D01*
X260519Y851355D01*
X262748Y854285D01*
X265048Y857159D01*
X267419Y859976D01*
X269857Y862734D01*
X272363Y865431D01*
X274934Y868066D01*
X277569Y870637D01*
X280266Y873143D01*
X283024Y875581D01*
X285841Y877952D01*
X288715Y880252D01*
X291645Y882481D01*
X294629Y884638D01*
X297664Y886720D01*
X300750Y888728D01*
X303885Y890659D01*
X307065Y892513D01*
X310290Y894288D01*
X313558Y895984D01*
X316867Y897598D01*
X320214Y899131D01*
X323597Y900582D01*
X327016Y901949D01*
X330467Y903232D01*
X333948Y904429D01*
X337457Y905541D01*
X340993Y906566D01*
X344553Y907505D01*
X348135Y908355D01*
X351736Y909118D01*
X355356Y909792D01*
X358990Y910376D01*
X362638Y910872D01*
X366297Y911278D01*
X369965Y911594D01*
X373640Y911819D01*
X377319Y911955D01*
X381000Y912000D01*
X384681Y911955D01*
X388360Y911819D01*
X392035Y911594D01*
X395703Y911278D01*
X399362Y910872D01*
X403010Y910376D01*
X406644Y909792D01*
X410264Y909118D01*
X413865Y908355D01*
X417447Y907505D01*
X421007Y906566D01*
X424543Y905541D01*
X428052Y904429D01*
X431533Y903232D01*
X434984Y901949D01*
X438403Y900582D01*
X441786Y899131D01*
X445133Y897598D01*
X448442Y895984D01*
X451710Y894288D01*
X454935Y892513D01*
X458115Y890659D01*
X461250Y888728D01*
X464336Y886720D01*
X467371Y884638D01*
X470355Y882481D01*
X473285Y880252D01*
X476159Y877952D01*
X478976Y875581D01*
X481734Y873143D01*
X484431Y870637D01*
X487066Y868066D01*
X489637Y865431D01*
X492143Y862734D01*
X494581Y859976D01*
X496952Y857159D01*
X499252Y854285D01*
X501481Y851355D01*
X503638Y848371D01*
X505720Y845336D01*
X507728Y842250D01*
X509659Y839115D01*
X511513Y835935D01*
X513288Y832710D01*
X514984Y829442D01*
X516598Y826133D01*
X518131Y822786D01*
X519582Y819403D01*
X520949Y815984D01*
X522232Y812533D01*
X523429Y809052D01*
X524541Y805543D01*
X525566Y802007D01*
X526505Y798447D01*
X527355Y794865D01*
X528118Y791264D01*
X528792Y787644D01*
X529376Y784010D01*
X529872Y780362D01*
X530278Y776703D01*
X530594Y773035D01*
X530819Y769360D01*
X530955Y765681D01*
X531000Y762000D01*
X530955Y758319D01*
X530819Y754640D01*
X530594Y750965D01*
X530278Y747297D01*
X529872Y743638D01*
X529376Y739990D01*
X528792Y736356D01*
X528118Y732736D01*
X527355Y729135D01*
X526505Y725553D01*
X525566Y721993D01*
X524541Y718457D01*
X523429Y714948D01*
X522232Y711467D01*
X520949Y708016D01*
X519582Y704597D01*
X518131Y701214D01*
X516598Y697867D01*
X514984Y694558D01*
X513288Y691290D01*
X511513Y688065D01*
X509659Y684885D01*
X507728Y681750D01*
X505720Y678664D01*
X503638Y675629D01*
X501481Y672645D01*
X499252Y669715D01*
X496952Y666841D01*
X494581Y664024D01*
X492143Y661266D01*
X489637Y658569D01*
X487066Y655934D01*
X484431Y653363D01*
X481734Y650857D01*
X478976Y648419D01*
X476159Y646048D01*
X473285Y643748D01*
X470355Y641519D01*
X467371Y639362D01*
X464336Y637280D01*
X461250Y635272D01*
X458115Y633341D01*
X454935Y631487D01*
X451710Y629712D01*
X448442Y628016D01*
X445133Y626402D01*
X441786Y624869D01*
X438403Y623418D01*
X434984Y622051D01*
X431533Y620768D01*
X428052Y619571D01*
X424543Y618459D01*
X421007Y617434D01*
X417447Y616495D01*
X413865Y615645D01*
X410264Y614882D01*
X406644Y614208D01*
X403010Y613624D01*
X399362Y613128D01*
X395703Y612722D01*
X392035Y612406D01*
X388360Y612181D01*
X384681Y612045D01*
X381000Y612000D01*
X377319Y612045D01*
X373640Y612181D01*
X369965Y612406D01*
X366297Y612722D01*
X362638Y613128D01*
X358990Y613624D01*
X355356Y614208D01*
X351736Y614882D01*
X348135Y615645D01*
X344553Y616495D01*
X340993Y617434D01*
X337457Y618459D01*
X333948Y619571D01*
X330467Y620768D01*
X327016Y622051D01*
X323597Y623418D01*
X320214Y624869D01*
X316867Y626402D01*
X313558Y628016D01*
X310290Y629712D01*
X307065Y631487D01*
X303885Y633341D01*
X300750Y635272D01*
X297664Y637280D01*
X294629Y639362D01*
X291645Y641519D01*
X288715Y643748D01*
X285841Y646048D01*
X283024Y648419D01*
X280266Y650857D01*
X277569Y653363D01*
X274934Y655934D01*
X272363Y658569D01*
X269857Y661266D01*
X267419Y664024D01*
X265048Y666841D01*
X262748Y669715D01*
X260519Y672645D01*
X258362Y675629D01*
X256280Y678664D01*
X254272Y681750D01*
X252341Y684885D01*
X250487Y688065D01*
X248712Y691290D01*
X247016Y694558D01*
X245402Y697867D01*
X243869Y701214D01*
X242418Y704597D01*
X241051Y708016D01*
X239768Y711467D01*
X238571Y714948D01*
X237459Y718457D01*
X236434Y721993D01*
X235495Y725553D01*
X234645Y729135D01*
X233882Y732736D01*
X233208Y736356D01*
X232624Y739990D01*
X232128Y743638D01*
X231722Y747297D01*
X231406Y750965D01*
X231181Y754640D01*
X231045Y758319D01*
X231000Y762000D01*
X231000Y2921000D02*
X231045Y2924681D01*
X231181Y2928360D01*
X231406Y2932035D01*
X231722Y2935703D01*
X232128Y2939362D01*
X232624Y2943010D01*
X233208Y2946644D01*
X233882Y2950264D01*
X234645Y2953865D01*
X235495Y2957447D01*
X236434Y2961007D01*
X237459Y2964543D01*
X238571Y2968052D01*
X239768Y2971533D01*
X241051Y2974984D01*
X242418Y2978403D01*
X243869Y2981786D01*
X245402Y2985133D01*
X247016Y2988442D01*
X248712Y2991710D01*
X250487Y2994935D01*
X252341Y2998115D01*
X254272Y3001250D01*
X256280Y3004336D01*
X258362Y3007371D01*
X260519Y3010355D01*
X262748Y3013285D01*
X265048Y3016159D01*
X267419Y3018976D01*
X269857Y3021734D01*
X272363Y3024431D01*
X274934Y3027066D01*
X277569Y3029637D01*
X280266Y3032143D01*
X283024Y3034581D01*
X285841Y3036952D01*
X288715Y3039252D01*
X291645Y3041481D01*
X294629Y3043638D01*
X297664Y3045720D01*
X300750Y3047728D01*
X303885Y3049659D01*
X307065Y3051513D01*
X310290Y3053288D01*
X313558Y3054984D01*
X316867Y3056598D01*
X320214Y3058131D01*
X323597Y3059582D01*
X327016Y3060949D01*
X330467Y3062232D01*
X333948Y3063429D01*
X337457Y3064541D01*
X340993Y3065566D01*
X344553Y3066505D01*
X348135Y3067355D01*
X351736Y3068118D01*
X355356Y3068792D01*
X358990Y3069376D01*
X362638Y3069872D01*
X366297Y3070278D01*
X369965Y3070594D01*
X373640Y3070819D01*
X377319Y3070955D01*
X381000Y3071000D01*
X384681Y3070955D01*
X388360Y3070819D01*
X392035Y3070594D01*
X395703Y3070278D01*
X399362Y3069872D01*
X403010Y3069376D01*
X406644Y3068792D01*
X410264Y3068118D01*
X413865Y3067355D01*
X417447Y3066505D01*
X421007Y3065566D01*
X424543Y3064541D01*
X428052Y3063429D01*
X431533Y3062232D01*
X434984Y3060949D01*
X438403Y3059582D01*
X441786Y3058131D01*
X445133Y3056598D01*
X448442Y3054984D01*
X451710Y3053288D01*
X454935Y3051513D01*
X458115Y3049659D01*
X461250Y3047728D01*
X464336Y3045720D01*
X467371Y3043638D01*
X470355Y3041481D01*
X473285Y3039252D01*
X476159Y3036952D01*
X478976Y3034581D01*
X481734Y3032143D01*
X484431Y3029637D01*
X487066Y3027066D01*
X489637Y3024431D01*
X492143Y3021734D01*
X494581Y3018976D01*
X496952Y3016159D01*
X499252Y3013285D01*
X501481Y3010355D01*
X503638Y3007371D01*
X505720Y3004336D01*
X507728Y3001250D01*
X509659Y2998115D01*
X511513Y2994935D01*
X513288Y2991710D01*
X514984Y2988442D01*
X516598Y2985133D01*
X518131Y2981786D01*
X519582Y2978403D01*
X520949Y2974984D01*
X522232Y2971533D01*
X523429Y2968052D01*
X524541Y2964543D01*
X525566Y2961007D01*
X526505Y2957447D01*
X527355Y2953865D01*
X528118Y2950264D01*
X528792Y2946644D01*
X529376Y2943010D01*
X529872Y2939362D01*
X530278Y2935703D01*
X530594Y2932035D01*
X530819Y2928360D01*
X530955Y2924681D01*
X531000Y2921000D01*
X530955Y2917319D01*
X530819Y2913640D01*
X530594Y2909965D01*
X530278Y2906297D01*
X529872Y2902638D01*
X529376Y2898990D01*
X528792Y2895356D01*
X528118Y2891736D01*
X527355Y2888135D01*
X526505Y2884553D01*
X525566Y2880993D01*
X524541Y2877457D01*
X523429Y2873948D01*
X522232Y2870467D01*
X520949Y2867016D01*
X519582Y2863597D01*
X518131Y2860214D01*
X516598Y2856867D01*
X514984Y2853558D01*
X513288Y2850290D01*
X511513Y2847065D01*
X509659Y2843885D01*
X507728Y2840750D01*
X505720Y2837664D01*
X503638Y2834629D01*
X501481Y2831645D01*
X499252Y2828715D01*
X496952Y2825841D01*
X494581Y2823024D01*
X492143Y2820266D01*
X489637Y2817569D01*
X487066Y2814934D01*
X484431Y2812363D01*
X481734Y2809857D01*
X478976Y2807419D01*
X476159Y2805048D01*
X473285Y2802748D01*
X470355Y2800519D01*
X467371Y2798362D01*
X464336Y2796280D01*
X461250Y2794272D01*
X458115Y2792341D01*
X454935Y2790487D01*
X451710Y2788712D01*
X448442Y2787016D01*
X445133Y2785402D01*
X441786Y2783869D01*
X438403Y2782418D01*
X434984Y2781051D01*
X431533Y2779768D01*
X428052Y2778571D01*
X424543Y2777459D01*
X421007Y2776434D01*
X417447Y2775495D01*
X413865Y2774645D01*
X410264Y2773882D01*
X406644Y2773208D01*
X403010Y2772624D01*
X399362Y2772128D01*
X395703Y2771722D01*
X392035Y2771406D01*
X388360Y2771181D01*
X384681Y2771045D01*
X381000Y2771000D01*
X377319Y2771045D01*
X373640Y2771181D01*
X369965Y2771406D01*
X366297Y2771722D01*
X362638Y2772128D01*
X358990Y2772624D01*
X355356Y2773208D01*
X351736Y2773882D01*
X348135Y2774645D01*
X344553Y2775495D01*
X340993Y2776434D01*
X337457Y2777459D01*
X333948Y2778571D01*
X330467Y2779768D01*
X327016Y2781051D01*
X323597Y2782418D01*
X320214Y2783869D01*
X316867Y2785402D01*
X313558Y2787016D01*
X310290Y2788712D01*
X307065Y2790487D01*
X303885Y2792341D01*
X300750Y2794272D01*
X297664Y2796280D01*
X294629Y2798362D01*
X291645Y2800519D01*
X288715Y2802748D01*
X285841Y2805048D01*
X283024Y2807419D01*
X280266Y2809857D01*
X277569Y2812363D01*
X274934Y2814934D01*
X272363Y2817569D01*
X269857Y2820266D01*
X267419Y2823024D01*
X265048Y2825841D01*
X262748Y2828715D01*
X260519Y2831645D01*
X258362Y2834629D01*
X256280Y2837664D01*
X254272Y2840750D01*
X252341Y2843885D01*
X250487Y2847065D01*
X248712Y2850290D01*
X247016Y2853558D01*
X245402Y2856867D01*
X243869Y2860214D01*
X242418Y2863597D01*
X241051Y2867016D01*
X239768Y2870467D01*
X238571Y2873948D01*
X237459Y2877457D01*
X236434Y2880993D01*
X235495Y2884553D01*
X234645Y2888135D01*
X233882Y2891736D01*
X233208Y2895356D01*
X232624Y2898990D01*
X232128Y2902638D01*
X231722Y2906297D01*
X231406Y2909965D01*
X231181Y2913640D01*
X231045Y2917319D01*
X231000Y2921000D01*
X4041000Y2921000D02*
X4041045Y2924681D01*
X4041181Y2928360D01*
X4041406Y2932035D01*
X4041722Y2935703D01*
X4042128Y2939362D01*
X4042624Y2943010D01*
X4043208Y2946644D01*
X4043882Y2950264D01*
X4044645Y2953865D01*
X4045495Y2957447D01*
X4046434Y2961007D01*
X4047459Y2964543D01*
X4048571Y2968052D01*
X4049768Y2971533D01*
X4051051Y2974984D01*
X4052418Y2978403D01*
X4053869Y2981786D01*
X4055402Y2985133D01*
X4057016Y2988442D01*
X4058712Y2991710D01*
X4060487Y2994935D01*
X4062341Y2998115D01*
X4064272Y3001250D01*
X4066280Y3004336D01*
X4068362Y3007371D01*
X4070519Y3010355D01*
X4072748Y3013285D01*
X4075048Y3016159D01*
X4077419Y3018976D01*
X4079857Y3021734D01*
X4082363Y3024431D01*
X4084934Y3027066D01*
X4087569Y3029637D01*
X4090266Y3032143D01*
X4093024Y3034581D01*
X4095841Y3036952D01*
X4098715Y3039252D01*
X4101645Y3041481D01*
X4104629Y3043638D01*
X4107664Y3045720D01*
X4110750Y3047728D01*
X4113885Y3049659D01*
X4117065Y3051513D01*
X4120290Y3053288D01*
X4123558Y3054984D01*
X4126867Y3056598D01*
X4130214Y3058131D01*
X4133597Y3059582D01*
X4137016Y3060949D01*
X4140467Y3062232D01*
X4143948Y3063429D01*
X4147457Y3064541D01*
X4150993Y3065566D01*
X4154553Y3066505D01*
X4158135Y3067355D01*
X4161736Y3068118D01*
X4165356Y3068792D01*
X4168990Y3069376D01*
X4172638Y3069872D01*
X4176297Y3070278D01*
X4179965Y3070594D01*
X4183640Y3070819D01*
X4187319Y3070955D01*
X4191000Y3071000D01*
X4194681Y3070955D01*
X4198360Y3070819D01*
X4202035Y3070594D01*
X4205703Y3070278D01*
X4209362Y3069872D01*
X4213010Y3069376D01*
X4216644Y3068792D01*
X4220264Y3068118D01*
X4223865Y3067355D01*
X4227447Y3066505D01*
X4231007Y3065566D01*
X4234543Y3064541D01*
X4238052Y3063429D01*
X4241533Y3062232D01*
X4244984Y3060949D01*
X4248403Y3059582D01*
X4251786Y3058131D01*
X4255133Y3056598D01*
X4258442Y3054984D01*
X4261710Y3053288D01*
X4264935Y3051513D01*
X4268115Y3049659D01*
X4271250Y3047728D01*
X4274336Y3045720D01*
X4277371Y3043638D01*
X4280355Y3041481D01*
X4283285Y3039252D01*
X4286159Y3036952D01*
X4288976Y3034581D01*
X4291734Y3032143D01*
X4294431Y3029637D01*
X4297066Y3027066D01*
X4299637Y3024431D01*
X4302143Y3021734D01*
X4304581Y3018976D01*
X4306952Y3016159D01*
X4309252Y3013285D01*
X4311481Y3010355D01*
X4313638Y3007371D01*
X4315720Y3004336D01*
X4317728Y3001250D01*
X4319659Y2998115D01*
X4321513Y2994935D01*
X4323288Y2991710D01*
X4324984Y2988442D01*
X4326598Y2985133D01*
X4328131Y2981786D01*
X4329582Y2978403D01*
X4330949Y2974984D01*
X4332232Y2971533D01*
X4333429Y2968052D01*
X4334541Y2964543D01*
X4335566Y2961007D01*
X4336505Y2957447D01*
X4337355Y2953865D01*
X4338118Y2950264D01*
X4338792Y2946644D01*
X4339376Y2943010D01*
X4339872Y2939362D01*
X4340278Y2935703D01*
X4340594Y2932035D01*
X4340819Y2928360D01*
X4340955Y2924681D01*
X4341000Y2921000D01*
X4340955Y2917319D01*
X4340819Y2913640D01*
X4340594Y2909965D01*
X4340278Y2906297D01*
X4339872Y2902638D01*
X4339376Y2898990D01*
X4338792Y2895356D01*
X4338118Y2891736D01*
X4337355Y2888135D01*
X4336505Y2884553D01*
X4335566Y2880993D01*
X4334541Y2877457D01*
X4333429Y2873948D01*
X4332232Y2870467D01*
X4330949Y2867016D01*
X4329582Y2863597D01*
X4328131Y2860214D01*
X4326598Y2856867D01*
X4324984Y2853558D01*
X4323288Y2850290D01*
X4321513Y2847065D01*
X4319659Y2843885D01*
X4317728Y2840750D01*
X4315720Y2837664D01*
X4313638Y2834629D01*
X4311481Y2831645D01*
X4309252Y2828715D01*
X4306952Y2825841D01*
X4304581Y2823024D01*
X4302143Y2820266D01*
X4299637Y2817569D01*
X4297066Y2814934D01*
X4294431Y2812363D01*
X4291734Y2809857D01*
X4288976Y2807419D01*
X4286159Y2805048D01*
X4283285Y2802748D01*
X4280355Y2800519D01*
X4277371Y2798362D01*
X4274336Y2796280D01*
X4271250Y2794272D01*
X4268115Y2792341D01*
X4264935Y2790487D01*
X4261710Y2788712D01*
X4258442Y2787016D01*
X4255133Y2785402D01*
X4251786Y2783869D01*
X4248403Y2782418D01*
X4244984Y2781051D01*
X4241533Y2779768D01*
X4238052Y2778571D01*
X4234543Y2777459D01*
X4231007Y2776434D01*
X4227447Y2775495D01*
X4223865Y2774645D01*
X4220264Y2773882D01*
X4216644Y2773208D01*
X4213010Y2772624D01*
X4209362Y2772128D01*
X4205703Y2771722D01*
X4202035Y2771406D01*
X4198360Y2771181D01*
X4194681Y2771045D01*
X4191000Y2771000D01*
X4187319Y2771045D01*
X4183640Y2771181D01*
X4179965Y2771406D01*
X4176297Y2771722D01*
X4172638Y2772128D01*
X4168990Y2772624D01*
X4165356Y2773208D01*
X4161736Y2773882D01*
X4158135Y2774645D01*
X4154553Y2775495D01*
X4150993Y2776434D01*
X4147457Y2777459D01*
X4143948Y2778571D01*
X4140467Y2779768D01*
X4137016Y2781051D01*
X4133597Y2782418D01*
X4130214Y2783869D01*
X4126867Y2785402D01*
X4123558Y2787016D01*
X4120290Y2788712D01*
X4117065Y2790487D01*
X4113885Y2792341D01*
X4110750Y2794272D01*
X4107664Y2796280D01*
X4104629Y2798362D01*
X4101645Y2800519D01*
X4098715Y2802748D01*
X4095841Y2805048D01*
X4093024Y2807419D01*
X4090266Y2809857D01*
X4087569Y2812363D01*
X4084934Y2814934D01*
X4082363Y2817569D01*
X4079857Y2820266D01*
X4077419Y2823024D01*
X4075048Y2825841D01*
X4072748Y2828715D01*
X4070519Y2831645D01*
X4068362Y2834629D01*
X4066280Y2837664D01*
X4064272Y2840750D01*
X4062341Y2843885D01*
X4060487Y2847065D01*
X4058712Y2850290D01*
X4057016Y2853558D01*
X4055402Y2856867D01*
X4053869Y2860214D01*
X4052418Y2863597D01*
X4051051Y2867016D01*
X4049768Y2870467D01*
X4048571Y2873948D01*
X4047459Y2877457D01*
X4046434Y2880993D01*
X4045495Y2884553D01*
X4044645Y2888135D01*
X4043882Y2891736D01*
X4043208Y2895356D01*
X4042624Y2898990D01*
X4042128Y2902638D01*
X4041722Y2906297D01*
X4041406Y2909965D01*
X4041181Y2913640D01*
X4041045Y2917319D01*
X4041000Y2921000D01*
X4041000Y762000D02*
X4041045Y765681D01*
X4041181Y769360D01*
X4041406Y773035D01*
X4041722Y776703D01*
X4042128Y780362D01*
X4042624Y784010D01*
X4043208Y787644D01*
X4043882Y791264D01*
X4044645Y794865D01*
X4045495Y798447D01*
X4046434Y802007D01*
X4047459Y805543D01*
X4048571Y809052D01*
X4049768Y812533D01*
X4051051Y815984D01*
X4052418Y819403D01*
X4053869Y822786D01*
X4055402Y826133D01*
X4057016Y829442D01*
X4058712Y832710D01*
X4060487Y835935D01*
X4062341Y839115D01*
X4064272Y842250D01*
X4066280Y845336D01*
X4068362Y848371D01*
X4070519Y851355D01*
X4072748Y854285D01*
X4075048Y857159D01*
X4077419Y859976D01*
X4079857Y862734D01*
X4082363Y865431D01*
X4084934Y868066D01*
X4087569Y870637D01*
X4090266Y873143D01*
X4093024Y875581D01*
X4095841Y877952D01*
X4098715Y880252D01*
X4101645Y882481D01*
X4104629Y884638D01*
X4107664Y886720D01*
X4110750Y888728D01*
X4113885Y890659D01*
X4117065Y892513D01*
X4120290Y894288D01*
X4123558Y895984D01*
X4126867Y897598D01*
X4130214Y899131D01*
X4133597Y900582D01*
X4137016Y901949D01*
X4140467Y903232D01*
X4143948Y904429D01*
X4147457Y905541D01*
X4150993Y906566D01*
X4154553Y907505D01*
X4158135Y908355D01*
X4161736Y909118D01*
X4165356Y909792D01*
X4168990Y910376D01*
X4172638Y910872D01*
X4176297Y911278D01*
X4179965Y911594D01*
X4183640Y911819D01*
X4187319Y911955D01*
X4191000Y912000D01*
X4194681Y911955D01*
X4198360Y911819D01*
X4202035Y911594D01*
X4205703Y911278D01*
X4209362Y910872D01*
X4213010Y910376D01*
X4216644Y909792D01*
X4220264Y909118D01*
X4223865Y908355D01*
X4227447Y907505D01*
X4231007Y906566D01*
X4234543Y905541D01*
X4238052Y904429D01*
X4241533Y903232D01*
X4244984Y901949D01*
X4248403Y900582D01*
X4251786Y899131D01*
X4255133Y897598D01*
X4258442Y895984D01*
X4261710Y894288D01*
X4264935Y892513D01*
X4268115Y890659D01*
X4271250Y888728D01*
X4274336Y886720D01*
X4277371Y884638D01*
X4280355Y882481D01*
X4283285Y880252D01*
X4286159Y877952D01*
X4288976Y875581D01*
X4291734Y873143D01*
X4294431Y870637D01*
X4297066Y868066D01*
X4299637Y865431D01*
X4302143Y862734D01*
X4304581Y859976D01*
X4306952Y857159D01*
X4309252Y854285D01*
X4311481Y851355D01*
X4313638Y848371D01*
X4315720Y845336D01*
X4317728Y842250D01*
X4319659Y839115D01*
X4321513Y835935D01*
X4323288Y832710D01*
X4324984Y829442D01*
X4326598Y826133D01*
X4328131Y822786D01*
X4329582Y819403D01*
X4330949Y815984D01*
X4332232Y812533D01*
X4333429Y809052D01*
X4334541Y805543D01*
X4335566Y802007D01*
X4336505Y798447D01*
X4337355Y794865D01*
X4338118Y791264D01*
X4338792Y787644D01*
X4339376Y784010D01*
X4339872Y780362D01*
X4340278Y776703D01*
X4340594Y773035D01*
X4340819Y769360D01*
X4340955Y765681D01*
X4341000Y762000D01*
X4340955Y758319D01*
X4340819Y754640D01*
X4340594Y750965D01*
X4340278Y747297D01*
X4339872Y743638D01*
X4339376Y739990D01*
X4338792Y736356D01*
X4338118Y732736D01*
X4337355Y729135D01*
X4336505Y725553D01*
X4335566Y721993D01*
X4334541Y718457D01*
X4333429Y714948D01*
X4332232Y711467D01*
X4330949Y708016D01*
X4329582Y704597D01*
X4328131Y701214D01*
X4326598Y697867D01*
X4324984Y694558D01*
X4323288Y691290D01*
X4321513Y688065D01*
X4319659Y684885D01*
X4317728Y681750D01*
X4315720Y678664D01*
X4313638Y675629D01*
X4311481Y672645D01*
X4309252Y669715D01*
X4306952Y666841D01*
X4304581Y664024D01*
X4302143Y661266D01*
X4299637Y658569D01*
X4297066Y655934D01*
X4294431Y653363D01*
X4291734Y650857D01*
X4288976Y648419D01*
X4286159Y646048D01*
X4283285Y643748D01*
X4280355Y641519D01*
X4277371Y639362D01*
X4274336Y637280D01*
X4271250Y635272D01*
X4268115Y633341D01*
X4264935Y631487D01*
X4261710Y629712D01*
X4258442Y628016D01*
X4255133Y626402D01*
X4251786Y624869D01*
X4248403Y623418D01*
X4244984Y622051D01*
X4241533Y620768D01*
X4238052Y619571D01*
X4234543Y618459D01*
X4231007Y617434D01*
X4227447Y616495D01*
X4223865Y615645D01*
X4220264Y614882D01*
X4216644Y614208D01*
X4213010Y613624D01*
X4209362Y613128D01*
X4205703Y612722D01*
X4202035Y612406D01*
X4198360Y612181D01*
X4194681Y612045D01*
X4191000Y612000D01*
X4187319Y612045D01*
X4183640Y612181D01*
X4179965Y612406D01*
X4176297Y612722D01*
X4172638Y613128D01*
X4168990Y613624D01*
X4165356Y614208D01*
X4161736Y614882D01*
X4158135Y615645D01*
X4154553Y616495D01*
X4150993Y617434D01*
X4147457Y618459D01*
X4143948Y619571D01*
X4140467Y620768D01*
X4137016Y622051D01*
X4133597Y623418D01*
X4130214Y624869D01*
X4126867Y626402D01*
X4123558Y628016D01*
X4120290Y629712D01*
X4117065Y631487D01*
X4113885Y633341D01*
X4110750Y635272D01*
X4107664Y637280D01*
X4104629Y639362D01*
X4101645Y641519D01*
X4098715Y643748D01*
X4095841Y646048D01*
X4093024Y648419D01*
X4090266Y650857D01*
X4087569Y653363D01*
X4084934Y655934D01*
X4082363Y658569D01*
X4079857Y661266D01*
X4077419Y664024D01*
X4075048Y666841D01*
X4072748Y669715D01*
X4070519Y672645D01*
X4068362Y675629D01*
X4066280Y678664D01*
X4064272Y681750D01*
X4062341Y684885D01*
X4060487Y688065D01*
X4058712Y691290D01*
X4057016Y694558D01*
X4055402Y697867D01*
X4053869Y701214D01*
X4052418Y704597D01*
X4051051Y708016D01*
X4049768Y711467D01*
X4048571Y714948D01*
X4047459Y718457D01*
X4046434Y721993D01*
X4045495Y725553D01*
X4044645Y729135D01*
X4043882Y732736D01*
X4043208Y736356D01*
X4042624Y739990D01*
X4042128Y743638D01*
X4041722Y747297D01*
X4041406Y750965D01*
X4041181Y754640D01*
X4041045Y758319D01*
X4041000Y762000D01*
D11*
X0Y381000D02*
X4697000Y381000D01*
X4697000Y3396000D01*
X0Y3396000D01*
X0Y381000D01*
M02*
