G04 EAGLE Gerber RS-274X export*
G75*
%MOMM*%
%FSLAX25Y25*%
%LPD*%
%INBottom_layer*%
%IPPOS*%
%AMOC8*
5,1,8,0,0,1.08239X$1,22.5*%
G01*
%ADD10C,1.879600*%

G36*
X884114Y373413D02*
X884114Y373413D01*
X884309Y373391D01*
X885325Y373611D01*
X886348Y373778D01*
X886522Y373870D01*
X886714Y373912D01*
X887607Y374444D01*
X888524Y374929D01*
X888659Y375071D01*
X888828Y375172D01*
X889503Y375959D01*
X890219Y376713D01*
X890302Y376891D01*
X890430Y377040D01*
X890819Y378004D01*
X891257Y378944D01*
X891278Y379139D01*
X891352Y379322D01*
X891539Y381000D01*
X891539Y405757D01*
X910487Y451501D01*
X945499Y486513D01*
X991243Y505460D01*
X1040757Y505460D01*
X1086501Y486513D01*
X1121513Y451501D01*
X1135961Y416620D01*
X1136338Y416011D01*
X1136629Y415357D01*
X1136982Y414973D01*
X1137257Y414528D01*
X1137809Y414071D01*
X1138293Y413544D01*
X1138750Y413293D01*
X1139153Y412959D01*
X1139820Y412702D01*
X1140448Y412356D01*
X1140962Y412263D01*
X1141449Y412076D01*
X1142165Y412045D01*
X1142869Y411918D01*
X1143386Y411993D01*
X1143908Y411971D01*
X1144596Y412170D01*
X1145304Y412273D01*
X1145769Y412509D01*
X1146272Y412654D01*
X1146861Y413063D01*
X1147499Y413386D01*
X1147865Y413758D01*
X1148294Y414056D01*
X1148722Y414630D01*
X1149224Y415141D01*
X1149570Y415768D01*
X1149765Y416029D01*
X1149839Y416256D01*
X1150039Y416620D01*
X1164487Y451501D01*
X1199499Y486513D01*
X1245243Y505460D01*
X1294757Y505460D01*
X1340501Y486513D01*
X1375513Y451501D01*
X1389961Y416620D01*
X1390338Y416011D01*
X1390629Y415357D01*
X1390982Y414973D01*
X1391257Y414528D01*
X1391809Y414071D01*
X1392293Y413544D01*
X1392750Y413293D01*
X1393153Y412959D01*
X1393820Y412702D01*
X1394448Y412356D01*
X1394962Y412263D01*
X1395449Y412076D01*
X1396165Y412045D01*
X1396869Y411918D01*
X1397386Y411993D01*
X1397908Y411971D01*
X1398596Y412170D01*
X1399304Y412273D01*
X1399769Y412509D01*
X1400272Y412654D01*
X1400861Y413063D01*
X1401499Y413386D01*
X1401865Y413758D01*
X1402294Y414056D01*
X1402722Y414630D01*
X1403224Y415141D01*
X1403570Y415768D01*
X1403765Y416029D01*
X1403839Y416256D01*
X1404039Y416620D01*
X1418487Y451501D01*
X1453499Y486513D01*
X1499243Y505460D01*
X1548757Y505460D01*
X1594501Y486513D01*
X1629513Y451501D01*
X1643961Y416620D01*
X1644338Y416011D01*
X1644629Y415357D01*
X1644982Y414973D01*
X1645257Y414528D01*
X1645809Y414071D01*
X1646293Y413544D01*
X1646750Y413293D01*
X1647153Y412959D01*
X1647820Y412702D01*
X1648448Y412356D01*
X1648962Y412263D01*
X1649449Y412076D01*
X1650165Y412045D01*
X1650869Y411918D01*
X1651386Y411993D01*
X1651908Y411971D01*
X1652596Y412170D01*
X1653304Y412273D01*
X1653769Y412509D01*
X1654272Y412654D01*
X1654861Y413063D01*
X1655499Y413386D01*
X1655865Y413758D01*
X1656294Y414056D01*
X1656722Y414630D01*
X1657224Y415141D01*
X1657570Y415768D01*
X1657765Y416029D01*
X1657839Y416256D01*
X1658039Y416620D01*
X1672487Y451501D01*
X1707499Y486513D01*
X1753243Y505460D01*
X1802757Y505460D01*
X1848501Y486513D01*
X1883513Y451501D01*
X1897961Y416620D01*
X1898338Y416011D01*
X1898629Y415357D01*
X1898982Y414973D01*
X1899257Y414528D01*
X1899809Y414071D01*
X1900293Y413544D01*
X1900750Y413293D01*
X1901153Y412959D01*
X1901820Y412702D01*
X1902448Y412356D01*
X1902962Y412263D01*
X1903449Y412076D01*
X1904165Y412045D01*
X1904869Y411918D01*
X1905386Y411993D01*
X1905908Y411971D01*
X1906596Y412170D01*
X1907304Y412273D01*
X1907769Y412509D01*
X1908272Y412654D01*
X1908861Y413063D01*
X1909499Y413386D01*
X1909865Y413758D01*
X1910294Y414056D01*
X1910722Y414630D01*
X1911224Y415141D01*
X1911570Y415768D01*
X1911765Y416029D01*
X1911839Y416256D01*
X1912039Y416620D01*
X1926487Y451501D01*
X1961499Y486513D01*
X2007243Y505460D01*
X2056757Y505460D01*
X2102501Y486513D01*
X2137513Y451501D01*
X2151961Y416620D01*
X2152338Y416011D01*
X2152629Y415357D01*
X2152982Y414973D01*
X2153257Y414528D01*
X2153809Y414071D01*
X2154293Y413544D01*
X2154750Y413293D01*
X2155153Y412959D01*
X2155820Y412702D01*
X2156448Y412356D01*
X2156962Y412263D01*
X2157449Y412076D01*
X2158165Y412045D01*
X2158869Y411918D01*
X2159386Y411993D01*
X2159908Y411971D01*
X2160596Y412170D01*
X2161304Y412273D01*
X2161769Y412509D01*
X2162272Y412654D01*
X2162861Y413063D01*
X2163499Y413386D01*
X2163865Y413758D01*
X2164294Y414056D01*
X2164722Y414630D01*
X2165224Y415141D01*
X2165570Y415768D01*
X2165765Y416029D01*
X2165839Y416256D01*
X2166039Y416620D01*
X2180487Y451501D01*
X2215499Y486513D01*
X2261243Y505460D01*
X2310757Y505460D01*
X2356501Y486513D01*
X2391513Y451501D01*
X2405961Y416620D01*
X2406338Y416011D01*
X2406629Y415357D01*
X2406982Y414973D01*
X2407257Y414528D01*
X2407809Y414071D01*
X2408293Y413544D01*
X2408750Y413293D01*
X2409153Y412959D01*
X2409820Y412702D01*
X2410448Y412356D01*
X2410962Y412263D01*
X2411449Y412076D01*
X2412165Y412045D01*
X2412869Y411918D01*
X2413386Y411993D01*
X2413908Y411971D01*
X2414596Y412170D01*
X2415304Y412273D01*
X2415769Y412509D01*
X2416272Y412654D01*
X2416861Y413063D01*
X2417499Y413386D01*
X2417865Y413758D01*
X2418294Y414056D01*
X2418722Y414630D01*
X2419224Y415141D01*
X2419570Y415768D01*
X2419765Y416029D01*
X2419839Y416256D01*
X2420039Y416620D01*
X2434487Y451501D01*
X2469499Y486513D01*
X2515243Y505460D01*
X2564757Y505460D01*
X2610501Y486513D01*
X2645513Y451501D01*
X2664460Y405757D01*
X2664460Y381000D01*
X2664492Y380806D01*
X2664470Y380611D01*
X2664690Y379595D01*
X2664858Y378572D01*
X2664950Y378398D01*
X2664991Y378206D01*
X2665523Y377313D01*
X2666008Y376396D01*
X2666151Y376261D01*
X2666252Y376092D01*
X2667039Y375417D01*
X2667792Y374701D01*
X2667970Y374618D01*
X2668120Y374490D01*
X2669084Y374101D01*
X2670023Y373663D01*
X2670218Y373642D01*
X2670401Y373568D01*
X2672080Y373381D01*
X2859900Y373381D01*
X2860094Y373413D01*
X2860289Y373391D01*
X2861305Y373611D01*
X2862328Y373778D01*
X2862502Y373870D01*
X2862694Y373912D01*
X2863587Y374444D01*
X2864504Y374929D01*
X2864639Y375071D01*
X2864808Y375172D01*
X2865483Y375959D01*
X2866199Y376713D01*
X2866282Y376891D01*
X2866410Y377040D01*
X2866799Y378004D01*
X2867237Y378944D01*
X2867258Y379139D01*
X2867332Y379322D01*
X2867519Y381000D01*
X2867519Y416900D01*
X2894996Y483234D01*
X2945766Y534004D01*
X3012100Y561480D01*
X3083900Y561480D01*
X3150234Y534004D01*
X3169612Y514625D01*
X3170193Y514208D01*
X3170713Y513714D01*
X3171186Y513494D01*
X3171611Y513189D01*
X3172295Y512978D01*
X3172944Y512677D01*
X3173462Y512619D01*
X3173962Y512465D01*
X3174678Y512483D01*
X3175389Y512404D01*
X3175900Y512514D01*
X3176422Y512528D01*
X3177094Y512773D01*
X3177794Y512925D01*
X3178243Y513192D01*
X3178734Y513371D01*
X3179293Y513818D01*
X3179908Y514185D01*
X3180248Y514582D01*
X3180656Y514908D01*
X3181043Y515508D01*
X3181510Y516053D01*
X3181706Y516539D01*
X3181988Y516977D01*
X3182163Y517670D01*
X3182432Y518335D01*
X3182512Y519046D01*
X3182592Y519363D01*
X3182573Y519600D01*
X3182619Y520013D01*
X3182619Y2654987D01*
X3182504Y2655693D01*
X3182485Y2656409D01*
X3182306Y2656899D01*
X3182222Y2657415D01*
X3181888Y2658047D01*
X3181642Y2658720D01*
X3181315Y2659129D01*
X3181071Y2659590D01*
X3180552Y2660084D01*
X3180105Y2660643D01*
X3179667Y2660925D01*
X3179288Y2661285D01*
X3178637Y2661588D01*
X3178036Y2661975D01*
X3177530Y2662103D01*
X3177056Y2662323D01*
X3176345Y2662403D01*
X3175651Y2662578D01*
X3175129Y2662538D01*
X3174611Y2662596D01*
X3173912Y2662445D01*
X3173197Y2662390D01*
X3172716Y2662186D01*
X3172206Y2662075D01*
X3171591Y2661708D01*
X3170932Y2661429D01*
X3170372Y2660982D01*
X3170092Y2660815D01*
X3169938Y2660634D01*
X3169612Y2660374D01*
X3150234Y2640996D01*
X3083900Y2613519D01*
X3012100Y2613519D01*
X2945766Y2640996D01*
X2894996Y2691766D01*
X2867519Y2758100D01*
X2867519Y2794000D01*
X2867488Y2794194D01*
X2867509Y2794389D01*
X2867289Y2795405D01*
X2867122Y2796428D01*
X2867030Y2796602D01*
X2866988Y2796794D01*
X2866456Y2797687D01*
X2865971Y2798604D01*
X2865829Y2798739D01*
X2865728Y2798908D01*
X2864941Y2799583D01*
X2864188Y2800299D01*
X2864009Y2800382D01*
X2863860Y2800510D01*
X2862896Y2800899D01*
X2861956Y2801337D01*
X2861761Y2801358D01*
X2861578Y2801432D01*
X2859900Y2801619D01*
X696100Y2801619D01*
X695906Y2801588D01*
X695710Y2801609D01*
X694695Y2801389D01*
X693671Y2801222D01*
X693498Y2801130D01*
X693305Y2801088D01*
X692413Y2800556D01*
X691496Y2800071D01*
X691360Y2799929D01*
X691192Y2799828D01*
X690517Y2799041D01*
X689801Y2798288D01*
X689718Y2798109D01*
X689590Y2797960D01*
X689200Y2796996D01*
X688763Y2796056D01*
X688741Y2795861D01*
X688668Y2795678D01*
X688480Y2794000D01*
X688480Y2758100D01*
X661004Y2691766D01*
X610234Y2640996D01*
X543900Y2613519D01*
X472100Y2613519D01*
X405766Y2640996D01*
X386388Y2660374D01*
X385807Y2660792D01*
X385288Y2661285D01*
X384813Y2661506D01*
X384390Y2661810D01*
X383706Y2662021D01*
X383056Y2662323D01*
X382538Y2662381D01*
X382038Y2662535D01*
X381321Y2662517D01*
X380611Y2662596D01*
X380101Y2662486D01*
X379578Y2662472D01*
X378904Y2662226D01*
X378206Y2662075D01*
X377758Y2661808D01*
X377266Y2661628D01*
X376707Y2661181D01*
X376092Y2660815D01*
X375752Y2660418D01*
X375344Y2660092D01*
X374957Y2659491D01*
X374490Y2658947D01*
X374294Y2658461D01*
X374012Y2658023D01*
X373837Y2657330D01*
X373568Y2656665D01*
X373488Y2655954D01*
X373408Y2655637D01*
X373427Y2655400D01*
X373381Y2654987D01*
X373381Y520013D01*
X373496Y519306D01*
X373515Y518591D01*
X373694Y518100D01*
X373778Y517585D01*
X374113Y516953D01*
X374358Y516279D01*
X374685Y515871D01*
X374929Y515409D01*
X375448Y514916D01*
X375895Y514357D01*
X376333Y514075D01*
X376713Y513714D01*
X377363Y513412D01*
X377964Y513025D01*
X378470Y512897D01*
X378944Y512677D01*
X379655Y512597D01*
X380349Y512422D01*
X380871Y512462D01*
X381389Y512404D01*
X382088Y512555D01*
X382803Y512610D01*
X383285Y512814D01*
X383794Y512925D01*
X384409Y513291D01*
X385068Y513571D01*
X385628Y514018D01*
X385908Y514185D01*
X386062Y514365D01*
X386388Y514625D01*
X405766Y534004D01*
X472100Y561480D01*
X543900Y561480D01*
X610234Y534004D01*
X661004Y483234D01*
X688480Y416900D01*
X688480Y381000D01*
X688512Y380806D01*
X688490Y380611D01*
X688710Y379595D01*
X688878Y378572D01*
X688970Y378398D01*
X689011Y378206D01*
X689543Y377313D01*
X690028Y376396D01*
X690171Y376261D01*
X690272Y376092D01*
X691059Y375417D01*
X691812Y374701D01*
X691990Y374618D01*
X692140Y374490D01*
X693104Y374101D01*
X694043Y373663D01*
X694238Y373642D01*
X694421Y373568D01*
X696100Y373381D01*
X883920Y373381D01*
X884114Y373413D01*
G37*
D10*
X2540000Y381000D03*
X2286000Y381000D03*
X2032000Y381000D03*
X1778000Y381000D03*
X1524000Y381000D03*
X1270000Y381000D03*
X1016000Y381000D03*
M02*
