G04 EAGLE Gerber RS-274X export*
G75*
%MOMM*%
%FSLAX25Y25*%
%LPD*%
%INTop_layer*%
%IPPOS*%
%AMOC8*
5,1,8,0,0,1.08239X$1,22.5*%
G01*
%ADD10R,0.600000X1.900000*%
%ADD11R,2.100000X2.800000*%
%ADD12C,1.879600*%
%ADD13R,0.508000X0.025400*%
%ADD14R,0.863600X0.025400*%
%ADD15R,1.117600X0.025400*%
%ADD16R,1.219200X0.025400*%
%ADD17R,1.371600X0.025400*%
%ADD18R,0.889000X0.025400*%
%ADD19R,1.473200X0.025400*%
%ADD20R,1.524000X0.025400*%
%ADD21R,1.625600X0.025400*%
%ADD22R,1.752600X0.025400*%
%ADD23R,1.803400X0.025400*%
%ADD24R,1.854200X0.025400*%
%ADD25R,1.930400X0.025400*%
%ADD26R,1.955800X0.025400*%
%ADD27R,2.057400X0.025400*%
%ADD28R,2.133600X0.025400*%
%ADD29R,2.235200X0.025400*%
%ADD30R,2.260600X0.025400*%
%ADD31R,2.336800X0.025400*%
%ADD32R,2.387600X0.025400*%
%ADD33R,2.438400X0.025400*%
%ADD34R,2.489200X0.025400*%
%ADD35R,2.540000X0.025400*%
%ADD36R,3.454400X0.025400*%
%ADD37R,3.479800X0.025400*%
%ADD38R,1.320800X0.025400*%
%ADD39R,1.600200X0.025400*%
%ADD40R,1.270000X0.025400*%
%ADD41R,1.549400X0.025400*%
%ADD42R,1.244600X0.025400*%
%ADD43R,1.498600X0.025400*%
%ADD44R,1.168400X0.025400*%
%ADD45R,1.422400X0.025400*%
%ADD46R,1.346200X0.025400*%
%ADD47R,1.092200X0.025400*%
%ADD48R,1.066800X0.025400*%
%ADD49R,1.041400X0.025400*%
%ADD50R,1.193800X0.025400*%
%ADD51R,1.016000X0.025400*%
%ADD52R,1.143000X0.025400*%
%ADD53R,0.990600X0.025400*%
%ADD54R,0.965200X0.025400*%
%ADD55R,0.939800X0.025400*%
%ADD56R,0.914400X0.025400*%
%ADD57R,2.565400X0.025400*%
%ADD58R,0.304800X0.025400*%
%ADD59R,0.330200X0.025400*%
%ADD60R,0.482600X0.025400*%
%ADD61R,0.558800X0.025400*%
%ADD62R,0.635000X0.025400*%
%ADD63R,0.660400X0.025400*%
%ADD64R,0.711200X0.025400*%
%ADD65R,0.685800X0.025400*%
%ADD66R,0.736600X0.025400*%
%ADD67R,0.812800X0.025400*%
%ADD68R,0.787400X0.025400*%
%ADD69R,0.838200X0.025400*%
%ADD70R,0.762000X0.025400*%
%ADD71R,0.533400X0.025400*%
%ADD72R,0.457200X0.025400*%
%ADD73R,0.254000X0.025400*%
%ADD74R,0.177800X0.025400*%
%ADD75R,0.279400X0.025400*%
%ADD76R,0.431800X0.025400*%
%ADD77R,0.584200X0.025400*%
%ADD78R,0.381000X0.025400*%
%ADD79R,0.101600X0.025400*%
%ADD80C,0.127000*%
%ADD81R,0.027941X2.263141*%
%ADD82R,0.027941X0.391159*%
%ADD83R,0.027941X0.447041*%
%ADD84R,0.027941X1.955800*%
%ADD85R,0.027941X0.391163*%
%ADD86R,0.027941X2.402841*%
%ADD87R,0.027938X2.291081*%
%ADD88R,0.027938X0.391159*%
%ADD89R,0.027938X0.447041*%
%ADD90R,0.027938X2.179319*%
%ADD91R,0.027938X0.391163*%
%ADD92R,0.027938X2.402841*%
%ADD93R,0.027941X2.291081*%
%ADD94R,0.027941X2.319019*%
%ADD95R,0.027941X2.374900*%
%ADD96R,0.027938X2.430778*%
%ADD97R,0.027941X0.419100*%
%ADD98R,0.027941X2.458719*%
%ADD99R,0.027941X0.447038*%
%ADD100R,0.027941X2.486659*%
%ADD101R,0.027938X0.419100*%
%ADD102R,0.027938X2.514600*%
%ADD103R,0.027941X0.558800*%
%ADD104R,0.027941X0.474981*%
%ADD105R,0.027941X2.430778*%
%ADD106R,0.027938X2.346959*%
%ADD107R,0.027941X2.319022*%
%ADD108R,0.027941X2.235200*%
%ADD109R,0.027938X2.207259*%
%ADD110R,0.027941X2.151378*%
%ADD111R,0.027941X0.363222*%
%ADD112R,0.027941X0.363219*%
%ADD113R,0.027938X0.363219*%
%ADD114R,0.027938X1.620522*%
%ADD115R,0.027941X1.592581*%
%ADD116R,0.027941X2.346959*%
%ADD117R,0.027941X2.291078*%
%ADD118R,0.027941X2.179319*%
%ADD119R,0.027938X2.151378*%
%ADD120R,0.027938X1.592581*%
%ADD121R,0.027941X0.530859*%
%ADD122R,0.027938X0.363222*%
%ADD123R,0.027941X0.335278*%
%ADD124R,0.027938X0.530859*%
%ADD125R,0.027941X2.514600*%
%ADD126R,0.027941X2.682238*%
%ADD127R,0.027941X0.754378*%
%ADD128R,0.027941X0.698500*%
%ADD129R,0.027938X0.642622*%
%ADD130R,0.027938X2.458719*%
%ADD131R,0.027938X2.682238*%
%ADD132R,0.027938X2.374900*%
%ADD133R,0.027941X0.642622*%
%ADD134R,0.027941X0.586741*%
%ADD135R,0.027938X0.474978*%
%ADD136R,0.027938X2.319019*%
%ADD137R,0.027941X0.474978*%
%ADD138R,0.027941X2.011678*%
%ADD139R,0.027941X2.654300*%
%ADD140R,0.027941X1.089662*%
%ADD141R,0.027941X0.027938*%
%ADD142R,0.027938X0.251463*%
%ADD143R,0.027938X0.251459*%
%ADD144R,0.027941X0.335281*%
%ADD145R,0.027941X0.502922*%
%ADD146R,0.027941X0.502919*%
%ADD147R,0.027938X0.530863*%
%ADD148R,0.027941X0.586738*%
%ADD149R,0.027938X0.586738*%
%ADD150R,0.027938X0.586741*%
%ADD151R,0.027941X0.530863*%
%ADD152R,0.027941X0.307338*%
%ADD153R,0.027941X0.307341*%
%ADD154R,0.027938X0.167641*%
%ADD155R,0.027938X0.167637*%
%ADD156R,0.027938X0.139700*%
%ADD157R,0.027941X0.251459*%
%ADD158R,0.027941X0.279400*%
%ADD159R,0.027941X0.223519*%
%ADD160C,0.609600*%

G36*
X884114Y373413D02*
X884114Y373413D01*
X884309Y373391D01*
X885325Y373611D01*
X886348Y373778D01*
X886522Y373870D01*
X886714Y373912D01*
X887607Y374444D01*
X888524Y374929D01*
X888659Y375071D01*
X888828Y375172D01*
X889503Y375959D01*
X890219Y376713D01*
X890302Y376891D01*
X890430Y377040D01*
X890819Y378004D01*
X891257Y378944D01*
X891278Y379139D01*
X891352Y379322D01*
X891539Y381000D01*
X891539Y405757D01*
X910487Y451501D01*
X945499Y486513D01*
X950336Y488516D01*
X951328Y489131D01*
X952328Y489727D01*
X952371Y489777D01*
X952427Y489812D01*
X953168Y490708D01*
X953930Y491595D01*
X953955Y491657D01*
X953997Y491708D01*
X954415Y492796D01*
X954852Y493877D01*
X954861Y493955D01*
X954880Y494004D01*
X954888Y494202D01*
X955039Y495555D01*
X955039Y1028126D01*
X964320Y1050531D01*
X1414808Y1501019D01*
X1415338Y1501757D01*
X1415930Y1502447D01*
X1416053Y1502751D01*
X1416244Y1503017D01*
X1416512Y1503886D01*
X1416852Y1504728D01*
X1416898Y1505141D01*
X1416968Y1505369D01*
X1416960Y1505695D01*
X1417039Y1506407D01*
X1417039Y1883810D01*
X1417088Y1884018D01*
X1417332Y1884622D01*
X1417425Y1885453D01*
X1417502Y1885780D01*
X1417483Y1885975D01*
X1417519Y1886300D01*
X1417519Y1979125D01*
X1435374Y1996980D01*
X1520625Y1996980D01*
X1522612Y1994993D01*
X1522773Y1994878D01*
X1522895Y1994725D01*
X1523766Y1994164D01*
X1524611Y1993557D01*
X1524799Y1993499D01*
X1524964Y1993393D01*
X1525969Y1993139D01*
X1526962Y1992833D01*
X1527159Y1992838D01*
X1527350Y1992790D01*
X1528385Y1992869D01*
X1529422Y1992896D01*
X1529607Y1992963D01*
X1529803Y1992978D01*
X1530759Y1993384D01*
X1531734Y1993739D01*
X1531887Y1993862D01*
X1532069Y1993939D01*
X1533388Y1994994D01*
X1535374Y1996980D01*
X1620625Y1996980D01*
X1622612Y1994993D01*
X1622773Y1994878D01*
X1622895Y1994725D01*
X1623766Y1994164D01*
X1624611Y1993557D01*
X1624799Y1993499D01*
X1624964Y1993393D01*
X1625969Y1993139D01*
X1626962Y1992833D01*
X1627159Y1992838D01*
X1627350Y1992790D01*
X1628385Y1992869D01*
X1629422Y1992896D01*
X1629607Y1992963D01*
X1629803Y1992978D01*
X1630759Y1993384D01*
X1631734Y1993739D01*
X1631887Y1993862D01*
X1632069Y1993939D01*
X1633388Y1994994D01*
X1635374Y1996980D01*
X1720625Y1996980D01*
X1722612Y1994993D01*
X1722773Y1994878D01*
X1722895Y1994725D01*
X1723766Y1994164D01*
X1724611Y1993557D01*
X1724799Y1993499D01*
X1724964Y1993393D01*
X1725969Y1993139D01*
X1726962Y1992833D01*
X1727159Y1992838D01*
X1727350Y1992790D01*
X1728385Y1992869D01*
X1729422Y1992896D01*
X1729607Y1992963D01*
X1729803Y1992978D01*
X1730759Y1993384D01*
X1731734Y1993739D01*
X1731887Y1993862D01*
X1732069Y1993939D01*
X1733388Y1994994D01*
X1735374Y1996980D01*
X1820625Y1996980D01*
X1822612Y1994993D01*
X1822773Y1994878D01*
X1822895Y1994725D01*
X1823766Y1994164D01*
X1824611Y1993557D01*
X1824799Y1993499D01*
X1824964Y1993393D01*
X1825969Y1993139D01*
X1826962Y1992833D01*
X1827159Y1992838D01*
X1827350Y1992790D01*
X1828385Y1992869D01*
X1829422Y1992896D01*
X1829607Y1992963D01*
X1829803Y1992978D01*
X1830759Y1993384D01*
X1831734Y1993739D01*
X1831887Y1993862D01*
X1832069Y1993939D01*
X1833388Y1994994D01*
X1835374Y1996980D01*
X1920625Y1996980D01*
X1922612Y1994993D01*
X1922773Y1994878D01*
X1922895Y1994725D01*
X1923766Y1994164D01*
X1924611Y1993557D01*
X1924799Y1993499D01*
X1924964Y1993393D01*
X1925969Y1993139D01*
X1926962Y1992833D01*
X1927159Y1992838D01*
X1927350Y1992790D01*
X1928385Y1992869D01*
X1929422Y1992896D01*
X1929607Y1992963D01*
X1929803Y1992978D01*
X1930759Y1993384D01*
X1931734Y1993739D01*
X1931887Y1993862D01*
X1932069Y1993939D01*
X1933388Y1994994D01*
X1935374Y1996980D01*
X2020625Y1996980D01*
X2022612Y1994993D01*
X2022773Y1994878D01*
X2022895Y1994725D01*
X2023766Y1994164D01*
X2024611Y1993557D01*
X2024799Y1993499D01*
X2024964Y1993393D01*
X2025969Y1993139D01*
X2026962Y1992833D01*
X2027159Y1992838D01*
X2027350Y1992790D01*
X2028385Y1992869D01*
X2029422Y1992896D01*
X2029607Y1992963D01*
X2029803Y1992978D01*
X2030759Y1993384D01*
X2031734Y1993739D01*
X2031887Y1993862D01*
X2032069Y1993939D01*
X2033388Y1994994D01*
X2035374Y1996980D01*
X2120625Y1996980D01*
X2138480Y1979125D01*
X2138480Y1886300D01*
X2138586Y1885658D01*
X2138591Y1885007D01*
X2138824Y1884202D01*
X2138878Y1883872D01*
X2138960Y1883716D01*
X2138960Y1506407D01*
X2139107Y1505511D01*
X2139177Y1504604D01*
X2139305Y1504301D01*
X2139358Y1503978D01*
X2139782Y1503176D01*
X2140138Y1502338D01*
X2140397Y1502013D01*
X2140508Y1501803D01*
X2140745Y1501578D01*
X2141192Y1501019D01*
X2591680Y1050531D01*
X2600960Y1028126D01*
X2600960Y495555D01*
X2601150Y494394D01*
X2601317Y493251D01*
X2601347Y493192D01*
X2601358Y493127D01*
X2601902Y492098D01*
X2602430Y491057D01*
X2602478Y491010D01*
X2602508Y490952D01*
X2603362Y490140D01*
X2604185Y489331D01*
X2604253Y489294D01*
X2604292Y489257D01*
X2604473Y489172D01*
X2605664Y488516D01*
X2610501Y486513D01*
X2645513Y451501D01*
X2664460Y405757D01*
X2664460Y381000D01*
X2664492Y380806D01*
X2664470Y380611D01*
X2664690Y379595D01*
X2664858Y378572D01*
X2664950Y378398D01*
X2664991Y378206D01*
X2665523Y377313D01*
X2666008Y376396D01*
X2666151Y376261D01*
X2666252Y376092D01*
X2667039Y375417D01*
X2667792Y374701D01*
X2667970Y374618D01*
X2668120Y374490D01*
X2669084Y374101D01*
X2670023Y373663D01*
X2670218Y373642D01*
X2670401Y373568D01*
X2672080Y373381D01*
X2859900Y373381D01*
X2860094Y373413D01*
X2860289Y373391D01*
X2861305Y373611D01*
X2862328Y373778D01*
X2862502Y373870D01*
X2862694Y373912D01*
X2863587Y374444D01*
X2864504Y374929D01*
X2864639Y375071D01*
X2864808Y375172D01*
X2865483Y375959D01*
X2866199Y376713D01*
X2866282Y376891D01*
X2866410Y377040D01*
X2866799Y378004D01*
X2867237Y378944D01*
X2867258Y379139D01*
X2867332Y379322D01*
X2867519Y381000D01*
X2867519Y416900D01*
X2894996Y483234D01*
X2945766Y534004D01*
X3012100Y561480D01*
X3083900Y561480D01*
X3150234Y534004D01*
X3169612Y514625D01*
X3170193Y514208D01*
X3170713Y513714D01*
X3171186Y513494D01*
X3171611Y513189D01*
X3172295Y512978D01*
X3172944Y512677D01*
X3173462Y512619D01*
X3173962Y512465D01*
X3174678Y512483D01*
X3175389Y512404D01*
X3175900Y512514D01*
X3176422Y512528D01*
X3177094Y512773D01*
X3177794Y512925D01*
X3178243Y513192D01*
X3178734Y513371D01*
X3179293Y513818D01*
X3179908Y514185D01*
X3180248Y514582D01*
X3180656Y514908D01*
X3181043Y515508D01*
X3181510Y516053D01*
X3181706Y516539D01*
X3181988Y516977D01*
X3182163Y517670D01*
X3182432Y518335D01*
X3182512Y519046D01*
X3182592Y519363D01*
X3182573Y519600D01*
X3182619Y520013D01*
X3182619Y2654987D01*
X3182504Y2655693D01*
X3182485Y2656409D01*
X3182306Y2656899D01*
X3182222Y2657415D01*
X3181888Y2658047D01*
X3181642Y2658720D01*
X3181315Y2659129D01*
X3181071Y2659590D01*
X3180552Y2660084D01*
X3180105Y2660643D01*
X3179667Y2660925D01*
X3179288Y2661285D01*
X3178637Y2661588D01*
X3178036Y2661975D01*
X3177530Y2662103D01*
X3177056Y2662323D01*
X3176345Y2662403D01*
X3175651Y2662578D01*
X3175129Y2662538D01*
X3174611Y2662596D01*
X3173912Y2662445D01*
X3173197Y2662390D01*
X3172716Y2662186D01*
X3172206Y2662075D01*
X3171591Y2661708D01*
X3170932Y2661429D01*
X3170372Y2660982D01*
X3170092Y2660815D01*
X3169938Y2660634D01*
X3169612Y2660374D01*
X3150234Y2640996D01*
X3083900Y2613519D01*
X3012100Y2613519D01*
X2945766Y2640996D01*
X2894996Y2691766D01*
X2867519Y2758100D01*
X2867519Y2794000D01*
X2867488Y2794194D01*
X2867509Y2794389D01*
X2867289Y2795405D01*
X2867122Y2796428D01*
X2867030Y2796602D01*
X2866988Y2796794D01*
X2866456Y2797687D01*
X2865971Y2798604D01*
X2865829Y2798739D01*
X2865728Y2798908D01*
X2864941Y2799583D01*
X2864188Y2800299D01*
X2864009Y2800382D01*
X2863860Y2800510D01*
X2862896Y2800899D01*
X2861956Y2801337D01*
X2861761Y2801358D01*
X2861578Y2801432D01*
X2859900Y2801619D01*
X696100Y2801619D01*
X695906Y2801588D01*
X695710Y2801609D01*
X694695Y2801389D01*
X693671Y2801222D01*
X693498Y2801130D01*
X693305Y2801088D01*
X692413Y2800556D01*
X691496Y2800071D01*
X691360Y2799929D01*
X691192Y2799828D01*
X690517Y2799041D01*
X689801Y2798288D01*
X689718Y2798109D01*
X689590Y2797960D01*
X689200Y2796996D01*
X688763Y2796056D01*
X688741Y2795861D01*
X688668Y2795678D01*
X688480Y2794000D01*
X688480Y2758100D01*
X661004Y2691766D01*
X610234Y2640996D01*
X543900Y2613519D01*
X472100Y2613519D01*
X405766Y2640996D01*
X386388Y2660374D01*
X385807Y2660792D01*
X385288Y2661285D01*
X384813Y2661506D01*
X384390Y2661810D01*
X383706Y2662021D01*
X383056Y2662323D01*
X382538Y2662381D01*
X382038Y2662535D01*
X381321Y2662517D01*
X380611Y2662596D01*
X380101Y2662486D01*
X379578Y2662472D01*
X378904Y2662226D01*
X378206Y2662075D01*
X377758Y2661808D01*
X377266Y2661628D01*
X376707Y2661181D01*
X376092Y2660815D01*
X375752Y2660418D01*
X375344Y2660092D01*
X374957Y2659491D01*
X374490Y2658947D01*
X374294Y2658461D01*
X374012Y2658023D01*
X373837Y2657330D01*
X373568Y2656665D01*
X373488Y2655954D01*
X373408Y2655637D01*
X373427Y2655400D01*
X373381Y2654987D01*
X373381Y2177669D01*
X373413Y2177475D01*
X373391Y2177279D01*
X373611Y2176264D01*
X373778Y2175240D01*
X373870Y2175067D01*
X373912Y2174874D01*
X374444Y2173982D01*
X374929Y2173065D01*
X375071Y2172929D01*
X375172Y2172761D01*
X375959Y2172086D01*
X376713Y2171370D01*
X376891Y2171287D01*
X377040Y2171159D01*
X378004Y2170769D01*
X378944Y2170332D01*
X379139Y2170310D01*
X379322Y2170237D01*
X381000Y2170049D01*
X382871Y2170049D01*
X383767Y2170196D01*
X384674Y2170266D01*
X384977Y2170394D01*
X385300Y2170447D01*
X386102Y2170871D01*
X386940Y2171227D01*
X387265Y2171486D01*
X387475Y2171598D01*
X387700Y2171834D01*
X388259Y2172281D01*
X388822Y2172843D01*
X396562Y2172843D01*
X397684Y2173027D01*
X398825Y2173187D01*
X398922Y2173230D01*
X398990Y2173241D01*
X399066Y2173281D01*
X400892Y2172959D01*
X401214Y2172955D01*
X402215Y2172843D01*
X402463Y2172843D01*
X402657Y2172875D01*
X402853Y2172853D01*
X403208Y2172931D01*
X403353Y2172929D01*
X403664Y2173029D01*
X403868Y2173073D01*
X404892Y2173241D01*
X405065Y2173333D01*
X405258Y2173374D01*
X406150Y2173907D01*
X407067Y2174392D01*
X407203Y2174534D01*
X407371Y2174635D01*
X408046Y2175422D01*
X408762Y2176175D01*
X408845Y2176353D01*
X408973Y2176503D01*
X409363Y2177467D01*
X409800Y2178407D01*
X409822Y2178602D01*
X409895Y2178784D01*
X410083Y2180463D01*
X410083Y2192023D01*
X410004Y2192503D01*
X410021Y2192988D01*
X409724Y2194213D01*
X409685Y2194452D01*
X409650Y2194518D01*
X409623Y2194629D01*
X407799Y2199640D01*
X409623Y2204650D01*
X409713Y2205127D01*
X409895Y2205578D01*
X410035Y2206826D01*
X410080Y2207068D01*
X410070Y2207143D01*
X410083Y2207256D01*
X410083Y2219250D01*
X410645Y2219813D01*
X411111Y2220461D01*
X411244Y2220601D01*
X411274Y2220666D01*
X411767Y2221241D01*
X411890Y2221545D01*
X412081Y2221811D01*
X412349Y2222680D01*
X412689Y2223522D01*
X412735Y2223935D01*
X412806Y2224163D01*
X412797Y2224489D01*
X412877Y2225201D01*
X412877Y2227633D01*
X416233Y2230988D01*
X416234Y2230990D01*
X419718Y2234474D01*
X420194Y2235137D01*
X420741Y2235743D01*
X420986Y2236237D01*
X421154Y2236472D01*
X421241Y2236751D01*
X421491Y2237256D01*
X422328Y2239557D01*
X427311Y2242434D01*
X427430Y2242531D01*
X427570Y2242591D01*
X428889Y2243645D01*
X441978Y2256734D01*
X442441Y2256810D01*
X443348Y2256880D01*
X443651Y2257008D01*
X443974Y2257061D01*
X444777Y2257485D01*
X445614Y2257841D01*
X445939Y2258100D01*
X446149Y2258212D01*
X446374Y2258448D01*
X446933Y2258895D01*
X447496Y2259457D01*
X454754Y2259457D01*
X455880Y2259642D01*
X457017Y2259801D01*
X457114Y2259843D01*
X457183Y2259855D01*
X457389Y2259964D01*
X458564Y2260478D01*
X459116Y2260797D01*
X466058Y2259573D01*
X466380Y2259569D01*
X467381Y2259457D01*
X495098Y2259457D01*
X495246Y2259309D01*
X495406Y2259194D01*
X495529Y2259041D01*
X496398Y2258481D01*
X497244Y2257873D01*
X497433Y2257815D01*
X497598Y2257709D01*
X498601Y2257455D01*
X499596Y2257148D01*
X499793Y2257153D01*
X499983Y2257105D01*
X501018Y2257185D01*
X502056Y2257211D01*
X502241Y2257279D01*
X502437Y2257294D01*
X503395Y2257700D01*
X504368Y2258055D01*
X504521Y2258178D01*
X504703Y2258255D01*
X506022Y2259309D01*
X520140Y2273427D01*
X578918Y2273427D01*
X596773Y2255572D01*
X596773Y2186846D01*
X596889Y2186139D01*
X596908Y2185424D01*
X597087Y2184933D01*
X597171Y2184418D01*
X597505Y2183786D01*
X597751Y2183112D01*
X598078Y2182703D01*
X598322Y2182242D01*
X598841Y2181749D01*
X599288Y2181190D01*
X599726Y2180908D01*
X600105Y2180547D01*
X600756Y2180245D01*
X601357Y2179858D01*
X601863Y2179730D01*
X602337Y2179509D01*
X603048Y2179430D01*
X603742Y2179254D01*
X604263Y2179294D01*
X604782Y2179237D01*
X605481Y2179388D01*
X606196Y2179443D01*
X606678Y2179647D01*
X607187Y2179758D01*
X607802Y2180124D01*
X608461Y2180404D01*
X609021Y2180851D01*
X609301Y2181018D01*
X609455Y2181198D01*
X609781Y2181458D01*
X623518Y2195195D01*
X645508Y2195195D01*
X646403Y2195342D01*
X647310Y2195412D01*
X647613Y2195540D01*
X647936Y2195593D01*
X648738Y2196017D01*
X649576Y2196373D01*
X649901Y2196632D01*
X650111Y2196743D01*
X650336Y2196980D01*
X650895Y2197427D01*
X651458Y2197989D01*
X679502Y2197989D01*
X697357Y2180134D01*
X697357Y2082673D01*
X697389Y2082479D01*
X697367Y2082283D01*
X697587Y2081268D01*
X697755Y2080244D01*
X697847Y2080071D01*
X697888Y2079878D01*
X698420Y2078986D01*
X698905Y2078069D01*
X699048Y2077933D01*
X699148Y2077765D01*
X699936Y2077090D01*
X700689Y2076374D01*
X700867Y2076291D01*
X701017Y2076163D01*
X701981Y2075773D01*
X702920Y2075336D01*
X703115Y2075314D01*
X703298Y2075241D01*
X704977Y2075053D01*
X709803Y2075053D01*
X709997Y2075085D01*
X710193Y2075063D01*
X711208Y2075283D01*
X712232Y2075451D01*
X712405Y2075543D01*
X712598Y2075584D01*
X713490Y2076117D01*
X714407Y2076602D01*
X714543Y2076744D01*
X714711Y2076845D01*
X715386Y2077632D01*
X716102Y2078385D01*
X716185Y2078563D01*
X716313Y2078713D01*
X716703Y2079677D01*
X717140Y2080617D01*
X717162Y2080812D01*
X717235Y2080994D01*
X717423Y2082673D01*
X717423Y2258366D01*
X735278Y2276221D01*
X794056Y2276221D01*
X811911Y2258366D01*
X811911Y1992831D01*
X794056Y1974976D01*
X588424Y1974976D01*
X587717Y1974861D01*
X587002Y1974842D01*
X586511Y1974663D01*
X585996Y1974579D01*
X585364Y1974245D01*
X584690Y1973999D01*
X584281Y1973672D01*
X583820Y1973428D01*
X583327Y1972909D01*
X582768Y1972462D01*
X582486Y1972023D01*
X582125Y1971644D01*
X581823Y1970994D01*
X581436Y1970393D01*
X581308Y1969887D01*
X581088Y1969413D01*
X581008Y1968702D01*
X580833Y1968008D01*
X580873Y1967486D01*
X580815Y1966968D01*
X580966Y1966269D01*
X581021Y1965554D01*
X581225Y1965072D01*
X581336Y1964563D01*
X581702Y1963948D01*
X581982Y1963288D01*
X582429Y1962729D01*
X582596Y1962449D01*
X582776Y1962295D01*
X583036Y1961969D01*
X596773Y1948232D01*
X596773Y1859153D01*
X596805Y1858961D01*
X596783Y1858769D01*
X596784Y1858768D01*
X596783Y1858763D01*
X597003Y1857748D01*
X597171Y1856724D01*
X597263Y1856551D01*
X597304Y1856358D01*
X597837Y1855466D01*
X598322Y1854549D01*
X598464Y1854413D01*
X598565Y1854245D01*
X599352Y1853570D01*
X600105Y1852854D01*
X600283Y1852771D01*
X600433Y1852643D01*
X601397Y1852253D01*
X602337Y1851816D01*
X602532Y1851794D01*
X602714Y1851721D01*
X604393Y1851533D01*
X794056Y1851533D01*
X811911Y1833678D01*
X811911Y1769311D01*
X794056Y1751456D01*
X604393Y1751456D01*
X604199Y1751424D01*
X604003Y1751446D01*
X602988Y1751226D01*
X601964Y1751059D01*
X601791Y1750967D01*
X601598Y1750925D01*
X600706Y1750393D01*
X599789Y1749908D01*
X599653Y1749766D01*
X599485Y1749665D01*
X598810Y1748878D01*
X598094Y1748124D01*
X598011Y1747946D01*
X597883Y1747797D01*
X597493Y1746833D01*
X597056Y1745893D01*
X597034Y1745698D01*
X596961Y1745515D01*
X596773Y1743837D01*
X596773Y1654757D01*
X594213Y1652197D01*
X593795Y1651616D01*
X593301Y1651096D01*
X593081Y1650622D01*
X592776Y1650198D01*
X592565Y1649514D01*
X592263Y1648865D01*
X592206Y1648347D01*
X592052Y1647847D01*
X592070Y1647130D01*
X591991Y1646419D01*
X592101Y1645910D01*
X592114Y1645387D01*
X592360Y1644713D01*
X592512Y1644014D01*
X592779Y1643566D01*
X592958Y1643075D01*
X593406Y1642515D01*
X593772Y1641901D01*
X594168Y1641562D01*
X594494Y1641153D01*
X595096Y1640765D01*
X595640Y1640299D01*
X596125Y1640103D01*
X596563Y1639821D01*
X597258Y1639645D01*
X597922Y1639377D01*
X598633Y1639297D01*
X598949Y1639217D01*
X599187Y1639235D01*
X599600Y1639189D01*
X637592Y1639189D01*
X638155Y1638627D01*
X638893Y1638096D01*
X639583Y1637505D01*
X639887Y1637382D01*
X640153Y1637190D01*
X641022Y1636923D01*
X641864Y1636582D01*
X642277Y1636536D01*
X642505Y1636466D01*
X642832Y1636474D01*
X643135Y1636441D01*
X643742Y1635833D01*
X644481Y1635302D01*
X645170Y1634711D01*
X645474Y1634588D01*
X645740Y1634397D01*
X646609Y1634129D01*
X647452Y1633788D01*
X647864Y1633742D01*
X648092Y1633672D01*
X648419Y1633680D01*
X649130Y1633601D01*
X649257Y1633601D01*
X649516Y1633414D01*
X649705Y1633356D01*
X649872Y1633249D01*
X650877Y1632995D01*
X651868Y1632690D01*
X652066Y1632695D01*
X652258Y1632646D01*
X653293Y1632726D01*
X654328Y1632752D01*
X654513Y1632820D01*
X654711Y1632835D01*
X655665Y1633240D01*
X656640Y1633595D01*
X656795Y1633719D01*
X656976Y1633796D01*
X658295Y1634851D01*
X659275Y1635831D01*
X659278Y1635833D01*
X659840Y1636395D01*
X661153Y1636395D01*
X662275Y1636579D01*
X663414Y1636739D01*
X663512Y1636782D01*
X663581Y1636793D01*
X663788Y1636902D01*
X664962Y1637416D01*
X667609Y1638944D01*
X667727Y1639041D01*
X667870Y1639101D01*
X668588Y1639675D01*
X668627Y1639696D01*
X669801Y1640210D01*
X671773Y1641348D01*
X675606Y1641348D01*
X676502Y1641495D01*
X677409Y1641565D01*
X677712Y1641693D01*
X678035Y1641746D01*
X678484Y1641983D01*
X749712Y1641983D01*
X749715Y1641983D01*
X753070Y1641983D01*
X753415Y1641877D01*
X754258Y1641536D01*
X754670Y1641490D01*
X754897Y1641420D01*
X755224Y1641428D01*
X755937Y1641348D01*
X759770Y1641348D01*
X761742Y1640210D01*
X762714Y1639843D01*
X763935Y1638944D01*
X766582Y1637416D01*
X767650Y1637012D01*
X768713Y1636582D01*
X768724Y1636581D01*
X768966Y1636339D01*
X769090Y1636250D01*
X769184Y1636130D01*
X770544Y1635128D01*
X771420Y1634622D01*
X772491Y1634217D01*
X773552Y1633788D01*
X773656Y1633777D01*
X773722Y1633752D01*
X773958Y1633743D01*
X774407Y1633693D01*
X775578Y1632522D01*
X775702Y1632433D01*
X775796Y1632312D01*
X777156Y1631311D01*
X792424Y1622496D01*
X801239Y1607228D01*
X801336Y1607109D01*
X801396Y1606968D01*
X801577Y1606742D01*
X801756Y1606332D01*
X811276Y1589843D01*
X811276Y1572039D01*
X811423Y1571141D01*
X811493Y1570235D01*
X811621Y1569933D01*
X811674Y1569611D01*
X811911Y1569162D01*
X811911Y1347418D01*
X811349Y1346856D01*
X811348Y1346854D01*
X791262Y1326768D01*
X771158Y1326768D01*
X770972Y1326738D01*
X770784Y1326759D01*
X769758Y1326539D01*
X769508Y1326498D01*
X769302Y1326581D01*
X768190Y1326705D01*
X767901Y1326763D01*
X767792Y1326750D01*
X767624Y1326768D01*
X522934Y1326768D01*
X522372Y1327331D01*
X522371Y1327332D01*
X502285Y1347418D01*
X502285Y1574759D01*
X502391Y1575105D01*
X502732Y1575948D01*
X502778Y1576360D01*
X502848Y1576587D01*
X502840Y1576914D01*
X502919Y1577627D01*
X502919Y1593185D01*
X506852Y1599996D01*
X507255Y1601062D01*
X507334Y1601259D01*
X507390Y1601303D01*
X508392Y1602663D01*
X509646Y1604835D01*
X510051Y1605907D01*
X510479Y1606966D01*
X510491Y1607071D01*
X510516Y1607137D01*
X510519Y1607217D01*
X510998Y1607696D01*
X511087Y1607820D01*
X511207Y1607914D01*
X512208Y1609274D01*
X519526Y1621948D01*
X520826Y1622698D01*
X521709Y1623421D01*
X522218Y1623818D01*
X522367Y1623904D01*
X523288Y1624658D01*
X524214Y1625398D01*
X524238Y1625435D01*
X524272Y1625463D01*
X524909Y1626478D01*
X525546Y1627467D01*
X525557Y1627509D01*
X525580Y1627547D01*
X525809Y1628498D01*
X525820Y1628521D01*
X525824Y1628561D01*
X525859Y1628704D01*
X526149Y1629853D01*
X526146Y1629897D01*
X526156Y1629939D01*
X526078Y1630830D01*
X526093Y1630967D01*
X526048Y1631174D01*
X525961Y1632306D01*
X525943Y1632347D01*
X525940Y1632391D01*
X525632Y1633093D01*
X525572Y1633372D01*
X525353Y1633738D01*
X525000Y1634572D01*
X524968Y1634612D01*
X524953Y1634645D01*
X524854Y1634754D01*
X524434Y1635279D01*
X524312Y1635485D01*
X524179Y1635599D01*
X523946Y1635891D01*
X522372Y1637465D01*
X522370Y1637466D01*
X502285Y1657551D01*
X502285Y1948232D01*
X519197Y1965144D01*
X519312Y1965304D01*
X519465Y1965426D01*
X520026Y1966298D01*
X520633Y1967142D01*
X520690Y1967330D01*
X520797Y1967495D01*
X521051Y1968501D01*
X521357Y1969494D01*
X521352Y1969691D01*
X521400Y1969881D01*
X521321Y1970914D01*
X521294Y1971954D01*
X521227Y1972138D01*
X521212Y1972334D01*
X520807Y1973289D01*
X520451Y1974265D01*
X520328Y1974419D01*
X520251Y1974600D01*
X519197Y1975919D01*
X508402Y1986714D01*
X507665Y1987244D01*
X506974Y1987837D01*
X506669Y1987960D01*
X506403Y1988151D01*
X505536Y1988418D01*
X504692Y1988759D01*
X504279Y1988805D01*
X504052Y1988875D01*
X503725Y1988867D01*
X503014Y1988946D01*
X501048Y1988946D01*
X500153Y1988800D01*
X499246Y1988730D01*
X498943Y1988602D01*
X498620Y1988549D01*
X497818Y1988124D01*
X496980Y1987769D01*
X496655Y1987509D01*
X496445Y1987398D01*
X496220Y1987162D01*
X496205Y1987150D01*
X496187Y1987140D01*
X496167Y1987119D01*
X495661Y1986715D01*
X495098Y1986153D01*
X464900Y1986153D01*
X464584Y1986101D01*
X463577Y1986037D01*
X459113Y1985250D01*
X458353Y1985537D01*
X457294Y1985965D01*
X457189Y1985977D01*
X457123Y1986002D01*
X456888Y1986011D01*
X455616Y1986153D01*
X444702Y1986153D01*
X444139Y1986715D01*
X444138Y1986716D01*
X441345Y1989509D01*
X440607Y1990039D01*
X439917Y1990631D01*
X439613Y1990754D01*
X439347Y1990945D01*
X438478Y1991213D01*
X437636Y1991553D01*
X437223Y1991599D01*
X436995Y1991669D01*
X436668Y1991661D01*
X436365Y1991695D01*
X415600Y2012460D01*
X415524Y2012925D01*
X415454Y2013831D01*
X415326Y2014133D01*
X415273Y2014456D01*
X414849Y2015258D01*
X414493Y2016096D01*
X414233Y2016422D01*
X414123Y2016631D01*
X413887Y2016856D01*
X413439Y2017416D01*
X412806Y2018049D01*
X412730Y2018510D01*
X412660Y2019418D01*
X412532Y2019721D01*
X412479Y2020043D01*
X412055Y2020846D01*
X411699Y2021683D01*
X411440Y2022008D01*
X411328Y2022219D01*
X411092Y2022443D01*
X410645Y2023003D01*
X410083Y2023565D01*
X410083Y2039613D01*
X410004Y2040092D01*
X410021Y2040577D01*
X409724Y2041802D01*
X409685Y2042041D01*
X409650Y2042107D01*
X409623Y2042218D01*
X408258Y2045970D01*
X409623Y2049721D01*
X409713Y2050199D01*
X409895Y2050649D01*
X410035Y2051898D01*
X410080Y2052139D01*
X410070Y2052214D01*
X410083Y2052327D01*
X410083Y2062353D01*
X410051Y2062547D01*
X410073Y2062743D01*
X409853Y2063758D01*
X409685Y2064782D01*
X409593Y2064955D01*
X409552Y2065148D01*
X409019Y2066040D01*
X408534Y2066957D01*
X408392Y2067093D01*
X408291Y2067261D01*
X407504Y2067936D01*
X406751Y2068652D01*
X406573Y2068735D01*
X406423Y2068863D01*
X405459Y2069253D01*
X404519Y2069690D01*
X404324Y2069712D01*
X404142Y2069785D01*
X402618Y2069955D01*
X402578Y2069964D01*
X402555Y2069962D01*
X402463Y2069973D01*
X402215Y2069973D01*
X402122Y2069957D01*
X402074Y2069963D01*
X401873Y2069919D01*
X400892Y2069857D01*
X398922Y2069509D01*
X398240Y2069785D01*
X398135Y2069797D01*
X398070Y2069822D01*
X397837Y2069830D01*
X396562Y2069973D01*
X391616Y2069973D01*
X391053Y2070535D01*
X390315Y2071065D01*
X389626Y2071657D01*
X389321Y2071780D01*
X389055Y2071971D01*
X388186Y2072238D01*
X387344Y2072579D01*
X386932Y2072625D01*
X386703Y2072695D01*
X386377Y2072687D01*
X385927Y2072737D01*
X385808Y2072823D01*
X385288Y2073317D01*
X384814Y2073538D01*
X384390Y2073842D01*
X383705Y2074053D01*
X383056Y2074355D01*
X382538Y2074413D01*
X382038Y2074567D01*
X381321Y2074548D01*
X380611Y2074628D01*
X380101Y2074518D01*
X379578Y2074504D01*
X378905Y2074258D01*
X378206Y2074107D01*
X377758Y2073840D01*
X377267Y2073661D01*
X376706Y2073213D01*
X376092Y2072847D01*
X375753Y2072451D01*
X375344Y2072124D01*
X374957Y2071522D01*
X374490Y2070978D01*
X374294Y2070494D01*
X374012Y2070055D01*
X373836Y2069360D01*
X373568Y2068697D01*
X373489Y2067987D01*
X373408Y2067670D01*
X373427Y2067432D01*
X373381Y2067018D01*
X373381Y520013D01*
X373496Y519306D01*
X373515Y518591D01*
X373694Y518100D01*
X373778Y517585D01*
X374113Y516953D01*
X374358Y516279D01*
X374685Y515871D01*
X374929Y515409D01*
X375448Y514916D01*
X375895Y514357D01*
X376333Y514075D01*
X376713Y513714D01*
X377363Y513412D01*
X377964Y513025D01*
X378470Y512897D01*
X378944Y512677D01*
X379655Y512597D01*
X380349Y512422D01*
X380871Y512462D01*
X381389Y512404D01*
X382088Y512555D01*
X382803Y512610D01*
X383285Y512814D01*
X383794Y512925D01*
X384409Y513291D01*
X385068Y513571D01*
X385628Y514018D01*
X385908Y514185D01*
X386062Y514365D01*
X386388Y514625D01*
X405766Y534004D01*
X472100Y561480D01*
X543900Y561480D01*
X610234Y534004D01*
X661004Y483234D01*
X688480Y416900D01*
X688480Y381000D01*
X688512Y380806D01*
X688490Y380611D01*
X688710Y379595D01*
X688878Y378572D01*
X688970Y378398D01*
X689011Y378206D01*
X689543Y377313D01*
X690028Y376396D01*
X690171Y376261D01*
X690272Y376092D01*
X691059Y375417D01*
X691812Y374701D01*
X691990Y374618D01*
X692140Y374490D01*
X693104Y374101D01*
X694043Y373663D01*
X694238Y373642D01*
X694421Y373568D01*
X696100Y373381D01*
X883920Y373381D01*
X884114Y373413D01*
G37*
%LPC*%
G36*
X2777564Y1111249D02*
X2777564Y1111249D01*
X2777256Y1111558D01*
X2776518Y1112088D01*
X2775828Y1112680D01*
X2775524Y1112803D01*
X2775258Y1112994D01*
X2774389Y1113262D01*
X2773547Y1113602D01*
X2773134Y1113648D01*
X2772906Y1113718D01*
X2772579Y1113710D01*
X2771868Y1113789D01*
X2757244Y1113789D01*
X2756936Y1114098D01*
X2756198Y1114628D01*
X2755508Y1115220D01*
X2755204Y1115343D01*
X2754938Y1115534D01*
X2754069Y1115802D01*
X2753227Y1116142D01*
X2752814Y1116188D01*
X2752586Y1116258D01*
X2752259Y1116250D01*
X2751548Y1116329D01*
X2742004Y1116329D01*
X2741696Y1116638D01*
X2740958Y1117168D01*
X2740268Y1117760D01*
X2739964Y1117883D01*
X2739698Y1118074D01*
X2738829Y1118342D01*
X2737987Y1118682D01*
X2737574Y1118728D01*
X2737346Y1118798D01*
X2737019Y1118790D01*
X2737002Y1118792D01*
X2736616Y1119178D01*
X2735878Y1119708D01*
X2735188Y1120300D01*
X2734884Y1120423D01*
X2734618Y1120614D01*
X2733749Y1120882D01*
X2732907Y1121222D01*
X2732494Y1121268D01*
X2732266Y1121338D01*
X2731939Y1121330D01*
X2731228Y1121409D01*
X2729304Y1121409D01*
X2728996Y1121718D01*
X2728258Y1122248D01*
X2727568Y1122840D01*
X2727264Y1122963D01*
X2726998Y1123154D01*
X2726129Y1123422D01*
X2725287Y1123762D01*
X2724874Y1123808D01*
X2724646Y1123878D01*
X2724319Y1123870D01*
X2724302Y1123872D01*
X2721376Y1126798D01*
X2720638Y1127328D01*
X2719948Y1127920D01*
X2719644Y1128043D01*
X2719378Y1128234D01*
X2718509Y1128502D01*
X2717667Y1128842D01*
X2717254Y1128888D01*
X2717026Y1128958D01*
X2716699Y1128950D01*
X2716682Y1128952D01*
X2716296Y1129338D01*
X2715558Y1129868D01*
X2714868Y1130460D01*
X2714564Y1130583D01*
X2714298Y1130774D01*
X2713429Y1131042D01*
X2712587Y1131382D01*
X2712174Y1131428D01*
X2711946Y1131498D01*
X2711619Y1131490D01*
X2710908Y1131569D01*
X2708984Y1131569D01*
X2698516Y1142038D01*
X2697778Y1142568D01*
X2697088Y1143160D01*
X2696784Y1143283D01*
X2696518Y1143474D01*
X2695649Y1143742D01*
X2694807Y1144082D01*
X2694394Y1144128D01*
X2694166Y1144198D01*
X2693839Y1144190D01*
X2693822Y1144192D01*
X2668149Y1169865D01*
X2668123Y1170023D01*
X2668053Y1170931D01*
X2667925Y1171234D01*
X2667872Y1171557D01*
X2667448Y1172359D01*
X2667092Y1173197D01*
X2666833Y1173522D01*
X2666721Y1173732D01*
X2666485Y1173957D01*
X2666038Y1174516D01*
X2660529Y1180025D01*
X2660503Y1180183D01*
X2660433Y1181091D01*
X2660305Y1181394D01*
X2660252Y1181717D01*
X2659828Y1182519D01*
X2659472Y1183357D01*
X2659213Y1183682D01*
X2659101Y1183892D01*
X2658865Y1184117D01*
X2658418Y1184676D01*
X2657989Y1185105D01*
X2657963Y1185263D01*
X2657893Y1186171D01*
X2657765Y1186474D01*
X2657712Y1186797D01*
X2657288Y1187599D01*
X2656932Y1188437D01*
X2656673Y1188762D01*
X2656561Y1188972D01*
X2656325Y1189197D01*
X2655878Y1189756D01*
X2653029Y1192604D01*
X2653029Y1194528D01*
X2652883Y1195426D01*
X2652813Y1196332D01*
X2652685Y1196633D01*
X2652632Y1196957D01*
X2652208Y1197759D01*
X2651852Y1198597D01*
X2651592Y1198922D01*
X2651481Y1199132D01*
X2651245Y1199357D01*
X2650798Y1199916D01*
X2647829Y1202885D01*
X2647803Y1203043D01*
X2647733Y1203951D01*
X2647605Y1204254D01*
X2647552Y1204577D01*
X2647128Y1205379D01*
X2646772Y1206217D01*
X2646513Y1206542D01*
X2646401Y1206752D01*
X2646165Y1206977D01*
X2645718Y1207536D01*
X2645409Y1207844D01*
X2645409Y1212308D01*
X2645263Y1213203D01*
X2645193Y1214111D01*
X2645065Y1214414D01*
X2645012Y1214737D01*
X2644588Y1215539D01*
X2644232Y1216377D01*
X2643973Y1216702D01*
X2643861Y1216912D01*
X2643625Y1217137D01*
X2643178Y1217696D01*
X2642869Y1218004D01*
X2642869Y1225008D01*
X2642723Y1225903D01*
X2642653Y1226811D01*
X2642525Y1227114D01*
X2642472Y1227437D01*
X2642048Y1228239D01*
X2641692Y1229077D01*
X2641433Y1229402D01*
X2641321Y1229612D01*
X2641085Y1229837D01*
X2640638Y1230396D01*
X2640329Y1230704D01*
X2640329Y1232628D01*
X2640183Y1233523D01*
X2640113Y1234431D01*
X2639985Y1234734D01*
X2639932Y1235057D01*
X2639508Y1235859D01*
X2639152Y1236697D01*
X2638893Y1237022D01*
X2638781Y1237232D01*
X2638545Y1237457D01*
X2638098Y1238016D01*
X2637789Y1238324D01*
X2637789Y1258028D01*
X2637643Y1258926D01*
X2637573Y1259832D01*
X2637445Y1260134D01*
X2637392Y1260457D01*
X2636967Y1261261D01*
X2636612Y1262097D01*
X2636353Y1262422D01*
X2636241Y1262632D01*
X2636005Y1262857D01*
X2635558Y1263417D01*
X2635249Y1263725D01*
X2635249Y1575995D01*
X2653104Y1593850D01*
X2695669Y1593850D01*
X2696376Y1593966D01*
X2697091Y1593984D01*
X2697582Y1594163D01*
X2698097Y1594248D01*
X2698729Y1594582D01*
X2699403Y1594828D01*
X2699812Y1595155D01*
X2700273Y1595398D01*
X2700766Y1595918D01*
X2701325Y1596364D01*
X2701607Y1596803D01*
X2701968Y1597182D01*
X2702270Y1597833D01*
X2702657Y1598433D01*
X2702785Y1598940D01*
X2703005Y1599413D01*
X2703085Y1600125D01*
X2703260Y1600819D01*
X2703220Y1601340D01*
X2703278Y1601859D01*
X2703127Y1602558D01*
X2703072Y1603273D01*
X2702868Y1603754D01*
X2702757Y1604264D01*
X2702391Y1604879D01*
X2702111Y1605538D01*
X2701664Y1606097D01*
X2701497Y1606378D01*
X2701316Y1606533D01*
X2701056Y1606858D01*
X2688589Y1619324D01*
X2688589Y1672590D01*
X2688558Y1672784D01*
X2688579Y1672979D01*
X2688359Y1673995D01*
X2688192Y1675018D01*
X2688100Y1675192D01*
X2688058Y1675384D01*
X2687526Y1676277D01*
X2687041Y1677194D01*
X2686899Y1677329D01*
X2686798Y1677498D01*
X2686011Y1678173D01*
X2685258Y1678889D01*
X2685079Y1678972D01*
X2684930Y1679100D01*
X2683966Y1679489D01*
X2683026Y1679927D01*
X2682831Y1679948D01*
X2682648Y1680022D01*
X2681054Y1680200D01*
X2675656Y1685598D01*
X2674918Y1686128D01*
X2674228Y1686720D01*
X2673924Y1686843D01*
X2673658Y1687034D01*
X2672789Y1687302D01*
X2671947Y1687642D01*
X2671534Y1687688D01*
X2671306Y1687758D01*
X2670979Y1687750D01*
X2670962Y1687752D01*
X2656145Y1702568D01*
X2655872Y1702765D01*
X2655236Y1703345D01*
X2647377Y1709055D01*
X2646844Y1710695D01*
X2646409Y1711538D01*
X2646040Y1712410D01*
X2645814Y1712692D01*
X2645716Y1712882D01*
X2645476Y1713114D01*
X2645304Y1713329D01*
X2645263Y1713583D01*
X2645193Y1714491D01*
X2645065Y1714794D01*
X2645012Y1715117D01*
X2644588Y1715919D01*
X2644232Y1716757D01*
X2643973Y1717082D01*
X2643861Y1717292D01*
X2643625Y1717517D01*
X2643178Y1718076D01*
X2642749Y1718505D01*
X2642723Y1718666D01*
X2642653Y1719572D01*
X2642525Y1719874D01*
X2642472Y1720197D01*
X2642047Y1721001D01*
X2641692Y1721837D01*
X2641433Y1722162D01*
X2641321Y1722372D01*
X2641085Y1722597D01*
X2640638Y1723157D01*
X2640209Y1723585D01*
X2640183Y1723743D01*
X2640113Y1724651D01*
X2639985Y1724954D01*
X2639932Y1725277D01*
X2639508Y1726079D01*
X2639152Y1726917D01*
X2638893Y1727242D01*
X2638781Y1727452D01*
X2638545Y1727677D01*
X2638098Y1728236D01*
X2637789Y1728544D01*
X2637789Y1735548D01*
X2637643Y1736443D01*
X2637573Y1737351D01*
X2637445Y1737654D01*
X2637392Y1737977D01*
X2636968Y1738779D01*
X2636612Y1739617D01*
X2636353Y1739942D01*
X2636241Y1740152D01*
X2636005Y1740377D01*
X2635558Y1740936D01*
X2635249Y1741244D01*
X2635249Y1745173D01*
X2635238Y1745244D01*
X2635239Y1745258D01*
X2635224Y1745329D01*
X2635193Y1745521D01*
X2635217Y1745873D01*
X2634877Y1747528D01*
X2630753Y1760220D01*
X2634877Y1772912D01*
X2634918Y1773186D01*
X2634967Y1773289D01*
X2634976Y1773375D01*
X2635062Y1773588D01*
X2635249Y1775267D01*
X2635249Y1779195D01*
X2635558Y1779503D01*
X2636088Y1780242D01*
X2636680Y1780931D01*
X2636803Y1781235D01*
X2636994Y1781501D01*
X2637262Y1782370D01*
X2637602Y1783213D01*
X2637648Y1783625D01*
X2637718Y1783853D01*
X2637710Y1784180D01*
X2637789Y1784891D01*
X2637789Y1791895D01*
X2638098Y1792204D01*
X2638628Y1792942D01*
X2639220Y1793632D01*
X2639343Y1793936D01*
X2639534Y1794202D01*
X2639802Y1795071D01*
X2640142Y1795913D01*
X2640188Y1796326D01*
X2640258Y1796554D01*
X2640250Y1796880D01*
X2640252Y1796898D01*
X2640638Y1797284D01*
X2641168Y1798022D01*
X2641760Y1798712D01*
X2641883Y1799016D01*
X2642074Y1799282D01*
X2642342Y1800151D01*
X2642682Y1800993D01*
X2642728Y1801406D01*
X2642798Y1801634D01*
X2642790Y1801960D01*
X2642792Y1801978D01*
X2643178Y1802364D01*
X2643708Y1803102D01*
X2644300Y1803792D01*
X2644423Y1804096D01*
X2644614Y1804362D01*
X2644882Y1805231D01*
X2645222Y1806073D01*
X2645268Y1806486D01*
X2645338Y1806714D01*
X2645330Y1807040D01*
X2645350Y1807218D01*
X2645538Y1807479D01*
X2646148Y1808206D01*
X2646297Y1808536D01*
X2646422Y1808709D01*
X2646520Y1809028D01*
X2646844Y1809745D01*
X2647377Y1811385D01*
X2655236Y1817095D01*
X2655472Y1817333D01*
X2656145Y1817871D01*
X2665496Y1827222D01*
X2671005Y1832731D01*
X2671163Y1832757D01*
X2672071Y1832827D01*
X2672374Y1832955D01*
X2672697Y1833008D01*
X2673499Y1833432D01*
X2674337Y1833788D01*
X2674662Y1834047D01*
X2674872Y1834158D01*
X2675097Y1834395D01*
X2675656Y1834842D01*
X2678625Y1837811D01*
X2678783Y1837837D01*
X2679691Y1837907D01*
X2679994Y1838035D01*
X2680317Y1838088D01*
X2681119Y1838512D01*
X2681957Y1838868D01*
X2682282Y1839127D01*
X2682492Y1839238D01*
X2682717Y1839475D01*
X2683276Y1839922D01*
X2683584Y1840230D01*
X2684603Y1840230D01*
X2684914Y1840281D01*
X2685226Y1840256D01*
X2686122Y1840479D01*
X2687032Y1840628D01*
X2687309Y1840774D01*
X2687614Y1840850D01*
X2689082Y1841686D01*
X2690900Y1843007D01*
X2744699Y1843007D01*
X2746518Y1841685D01*
X2746798Y1841545D01*
X2747036Y1841340D01*
X2747893Y1840994D01*
X2748716Y1840579D01*
X2749027Y1840535D01*
X2749318Y1840418D01*
X2750996Y1840230D01*
X2754555Y1840230D01*
X2754864Y1839922D01*
X2755602Y1839392D01*
X2756292Y1838800D01*
X2756596Y1838677D01*
X2756862Y1838486D01*
X2757731Y1838218D01*
X2758573Y1837878D01*
X2758986Y1837832D01*
X2759214Y1837761D01*
X2759540Y1837770D01*
X2759558Y1837768D01*
X2759944Y1837382D01*
X2760682Y1836852D01*
X2761372Y1836260D01*
X2761676Y1836137D01*
X2761942Y1835946D01*
X2762811Y1835678D01*
X2763653Y1835338D01*
X2764066Y1835292D01*
X2764294Y1835221D01*
X2764620Y1835230D01*
X2764638Y1835228D01*
X2772643Y1827222D01*
X2772645Y1827221D01*
X2778452Y1821414D01*
X2778612Y1821299D01*
X2778734Y1821145D01*
X2779607Y1820584D01*
X2780450Y1819978D01*
X2780638Y1819919D01*
X2780803Y1819813D01*
X2781808Y1819559D01*
X2782802Y1819253D01*
X2782999Y1819258D01*
X2783189Y1819210D01*
X2784223Y1819289D01*
X2785262Y1819316D01*
X2785446Y1819383D01*
X2785643Y1819398D01*
X2786598Y1819803D01*
X2787573Y1820159D01*
X2787727Y1820283D01*
X2787908Y1820359D01*
X2789228Y1821413D01*
X2793766Y1825952D01*
X2793881Y1826112D01*
X2794035Y1826235D01*
X2794598Y1827109D01*
X2795203Y1827951D01*
X2795260Y1828138D01*
X2795367Y1828304D01*
X2795621Y1829310D01*
X2795927Y1830302D01*
X2795922Y1830499D01*
X2795970Y1830690D01*
X2795890Y1831725D01*
X2795864Y1832762D01*
X2795796Y1832947D01*
X2795781Y1833143D01*
X2795376Y1834099D01*
X2795020Y1835074D01*
X2794898Y1835227D01*
X2794821Y1835409D01*
X2793766Y1836728D01*
X2790189Y1840304D01*
X2790189Y1842228D01*
X2790043Y1843123D01*
X2789973Y1844031D01*
X2789845Y1844334D01*
X2789792Y1844657D01*
X2789368Y1845459D01*
X2789012Y1846297D01*
X2788753Y1846622D01*
X2788641Y1846832D01*
X2788405Y1847057D01*
X2787958Y1847616D01*
X2787529Y1848045D01*
X2787503Y1848203D01*
X2787433Y1849111D01*
X2787305Y1849414D01*
X2787252Y1849737D01*
X2786828Y1850539D01*
X2786472Y1851377D01*
X2786213Y1851702D01*
X2786101Y1851912D01*
X2785865Y1852137D01*
X2785418Y1852696D01*
X2785109Y1853004D01*
X2785109Y1870722D01*
X2785031Y1871201D01*
X2785048Y1871687D01*
X2784972Y1872002D01*
X2785061Y1872806D01*
X2785107Y1873049D01*
X2785097Y1873124D01*
X2785109Y1873238D01*
X2785109Y1890955D01*
X2785418Y1891263D01*
X2785418Y1891264D01*
X2787958Y1893803D01*
X2788488Y1894542D01*
X2789080Y1895231D01*
X2789203Y1895535D01*
X2789394Y1895801D01*
X2789662Y1896670D01*
X2790002Y1897513D01*
X2790048Y1897925D01*
X2790118Y1898153D01*
X2790110Y1898480D01*
X2790189Y1899191D01*
X2790189Y1901115D01*
X2790498Y1901424D01*
X2791028Y1902162D01*
X2791620Y1902852D01*
X2791743Y1903156D01*
X2791934Y1903422D01*
X2792202Y1904291D01*
X2792542Y1905133D01*
X2792588Y1905546D01*
X2792658Y1905774D01*
X2792650Y1906100D01*
X2792652Y1906118D01*
X2799183Y1912649D01*
X2799659Y1913312D01*
X2799680Y1913334D01*
X2800620Y1914086D01*
X2813245Y1926711D01*
X2813403Y1926737D01*
X2814311Y1926807D01*
X2814614Y1926935D01*
X2814937Y1926988D01*
X2815739Y1927412D01*
X2816577Y1927768D01*
X2816902Y1928027D01*
X2817112Y1928138D01*
X2817337Y1928375D01*
X2817896Y1928822D01*
X2820744Y1931670D01*
X2825208Y1931670D01*
X2826103Y1931817D01*
X2827011Y1931887D01*
X2827314Y1932015D01*
X2827637Y1932068D01*
X2828439Y1932492D01*
X2829277Y1932848D01*
X2829602Y1933107D01*
X2829812Y1933218D01*
X2830037Y1933455D01*
X2830596Y1933902D01*
X2830904Y1934210D01*
X2833954Y1934210D01*
X2835080Y1934395D01*
X2836217Y1934554D01*
X2836314Y1934597D01*
X2836383Y1934608D01*
X2836590Y1934717D01*
X2837764Y1935231D01*
X2838638Y1935736D01*
X2846633Y1934326D01*
X2846954Y1934322D01*
X2847956Y1934210D01*
X2866315Y1934210D01*
X2866624Y1933902D01*
X2867362Y1933372D01*
X2868052Y1932780D01*
X2868356Y1932657D01*
X2868622Y1932466D01*
X2869491Y1932198D01*
X2870333Y1931858D01*
X2870746Y1931812D01*
X2870974Y1931741D01*
X2871300Y1931750D01*
X2872012Y1931670D01*
X2876475Y1931670D01*
X2876784Y1931362D01*
X2877522Y1930832D01*
X2878212Y1930240D01*
X2878516Y1930117D01*
X2878782Y1929926D01*
X2879651Y1929658D01*
X2880493Y1929318D01*
X2880906Y1929272D01*
X2881134Y1929201D01*
X2881460Y1929210D01*
X2881478Y1929208D01*
X2907151Y1903535D01*
X2907177Y1903374D01*
X2907247Y1902468D01*
X2907375Y1902166D01*
X2907428Y1901843D01*
X2907853Y1901039D01*
X2908208Y1900203D01*
X2908467Y1899878D01*
X2908578Y1899668D01*
X2908815Y1899443D01*
X2909262Y1898883D01*
X2909691Y1898454D01*
X2909717Y1898294D01*
X2909787Y1897388D01*
X2909915Y1897086D01*
X2909968Y1896763D01*
X2910393Y1895959D01*
X2910748Y1895123D01*
X2911007Y1894798D01*
X2911118Y1894588D01*
X2911355Y1894363D01*
X2911802Y1893803D01*
X2912110Y1893495D01*
X2912110Y1847924D01*
X2911802Y1847616D01*
X2911272Y1846878D01*
X2910680Y1846188D01*
X2910557Y1845884D01*
X2910366Y1845618D01*
X2910098Y1844749D01*
X2909758Y1843907D01*
X2909712Y1843494D01*
X2909641Y1843266D01*
X2909650Y1842939D01*
X2909648Y1842922D01*
X2909262Y1842536D01*
X2908732Y1841798D01*
X2908140Y1841108D01*
X2908017Y1840804D01*
X2907826Y1840538D01*
X2907558Y1839669D01*
X2907218Y1838827D01*
X2907172Y1838414D01*
X2907101Y1838186D01*
X2907110Y1837859D01*
X2907108Y1837842D01*
X2904723Y1835458D01*
X2904608Y1835297D01*
X2904455Y1835175D01*
X2903895Y1834305D01*
X2903287Y1833459D01*
X2903229Y1833271D01*
X2903123Y1833106D01*
X2902869Y1832103D01*
X2902563Y1831108D01*
X2902568Y1830911D01*
X2902520Y1830720D01*
X2902599Y1829683D01*
X2902626Y1828648D01*
X2902693Y1828464D01*
X2902708Y1828267D01*
X2903114Y1827310D01*
X2903469Y1826336D01*
X2903593Y1826182D01*
X2903669Y1826001D01*
X2904723Y1824682D01*
X2907992Y1821413D01*
X2908152Y1821298D01*
X2908274Y1821145D01*
X2909144Y1820585D01*
X2909990Y1819977D01*
X2910179Y1819919D01*
X2910343Y1819813D01*
X2911347Y1819559D01*
X2912342Y1819253D01*
X2912539Y1819258D01*
X2912729Y1819210D01*
X2913767Y1819289D01*
X2914802Y1819316D01*
X2914986Y1819383D01*
X2915183Y1819398D01*
X2916139Y1819804D01*
X2917113Y1820159D01*
X2917267Y1820283D01*
X2917448Y1820359D01*
X2918768Y1821413D01*
X2924576Y1827222D01*
X2932625Y1835271D01*
X2932783Y1835297D01*
X2933691Y1835367D01*
X2933994Y1835495D01*
X2934317Y1835548D01*
X2935119Y1835972D01*
X2935957Y1836328D01*
X2936282Y1836587D01*
X2936492Y1836698D01*
X2936717Y1836935D01*
X2937276Y1837382D01*
X2940124Y1840230D01*
X2945773Y1840230D01*
X2946083Y1840281D01*
X2946396Y1840256D01*
X2947291Y1840479D01*
X2948202Y1840628D01*
X2948479Y1840775D01*
X2948784Y1840851D01*
X2950252Y1841686D01*
X2950875Y1842139D01*
X2951105Y1842176D01*
X2951908Y1842601D01*
X2952308Y1842770D01*
X3003475Y1842770D01*
X3003784Y1842462D01*
X3004522Y1841932D01*
X3005212Y1841340D01*
X3005516Y1841217D01*
X3005782Y1841026D01*
X3006651Y1840758D01*
X3007493Y1840418D01*
X3007906Y1840372D01*
X3008134Y1840301D01*
X3008460Y1840310D01*
X3009172Y1840230D01*
X3011095Y1840230D01*
X3011404Y1839922D01*
X3012142Y1839392D01*
X3012832Y1838800D01*
X3013136Y1838677D01*
X3013402Y1838486D01*
X3014271Y1838218D01*
X3015113Y1837878D01*
X3015526Y1837832D01*
X3015754Y1837761D01*
X3016080Y1837770D01*
X3016098Y1837768D01*
X3016484Y1837382D01*
X3017222Y1836852D01*
X3017912Y1836260D01*
X3018216Y1836137D01*
X3018482Y1835946D01*
X3019351Y1835678D01*
X3020193Y1835338D01*
X3020606Y1835292D01*
X3020834Y1835221D01*
X3021160Y1835230D01*
X3021178Y1835228D01*
X3021564Y1834842D01*
X3022302Y1834312D01*
X3022992Y1833720D01*
X3023296Y1833597D01*
X3023562Y1833406D01*
X3024431Y1833138D01*
X3025273Y1832798D01*
X3025686Y1832752D01*
X3025914Y1832681D01*
X3026240Y1832690D01*
X3026258Y1832688D01*
X3044436Y1814510D01*
X3044588Y1813582D01*
X3044716Y1813340D01*
X3044780Y1813072D01*
X3045290Y1812255D01*
X3045738Y1811407D01*
X3045937Y1811218D01*
X3046083Y1810984D01*
X3046413Y1810683D01*
X3046727Y1809944D01*
X3046953Y1809661D01*
X3047051Y1809471D01*
X3047290Y1809239D01*
X3047781Y1808624D01*
X3054350Y1802055D01*
X3054350Y1800131D01*
X3054497Y1799234D01*
X3054567Y1798328D01*
X3054695Y1798026D01*
X3054748Y1797703D01*
X3055173Y1796899D01*
X3055528Y1796063D01*
X3055787Y1795738D01*
X3055898Y1795528D01*
X3056135Y1795303D01*
X3056582Y1794743D01*
X3057011Y1794314D01*
X3057037Y1794156D01*
X3057107Y1793249D01*
X3057235Y1792946D01*
X3057288Y1792623D01*
X3057712Y1791821D01*
X3058068Y1790983D01*
X3058327Y1790658D01*
X3058438Y1790448D01*
X3058675Y1790223D01*
X3059122Y1789664D01*
X3059430Y1789355D01*
X3059430Y1771292D01*
X3059487Y1770944D01*
X3059463Y1770592D01*
X3059803Y1768938D01*
X3062636Y1760220D01*
X3059803Y1751502D01*
X3059750Y1751152D01*
X3059618Y1750826D01*
X3059430Y1749147D01*
X3059430Y1731084D01*
X3059122Y1730776D01*
X3058592Y1730038D01*
X3058000Y1729348D01*
X3057877Y1729044D01*
X3057686Y1728778D01*
X3057418Y1727909D01*
X3057078Y1727067D01*
X3057032Y1726654D01*
X3056961Y1726426D01*
X3056970Y1726099D01*
X3056968Y1726082D01*
X3056582Y1725697D01*
X3056052Y1724958D01*
X3055460Y1724268D01*
X3055337Y1723964D01*
X3055146Y1723698D01*
X3054878Y1722829D01*
X3054538Y1721987D01*
X3054492Y1721575D01*
X3054421Y1721347D01*
X3054430Y1721019D01*
X3054350Y1720308D01*
X3054350Y1718384D01*
X3054042Y1718076D01*
X3053512Y1717338D01*
X3052920Y1716648D01*
X3052797Y1716344D01*
X3052606Y1716078D01*
X3052338Y1715209D01*
X3051998Y1714367D01*
X3051952Y1713954D01*
X3051881Y1713726D01*
X3051890Y1713399D01*
X3051888Y1713382D01*
X3033835Y1695329D01*
X3033676Y1695303D01*
X3032769Y1695233D01*
X3032466Y1695105D01*
X3032143Y1695052D01*
X3031341Y1694628D01*
X3030503Y1694272D01*
X3030178Y1694013D01*
X3029968Y1693901D01*
X3029743Y1693665D01*
X3029184Y1693218D01*
X3018595Y1682629D01*
X3018436Y1682603D01*
X3017529Y1682533D01*
X3017226Y1682405D01*
X3016903Y1682352D01*
X3016101Y1681928D01*
X3015263Y1681572D01*
X3014938Y1681313D01*
X3014728Y1681201D01*
X3014503Y1680965D01*
X3013944Y1680518D01*
X3013621Y1680195D01*
X3013516Y1680178D01*
X3013320Y1680199D01*
X3012305Y1679979D01*
X3011281Y1679812D01*
X3011108Y1679720D01*
X3010915Y1679678D01*
X3010023Y1679146D01*
X3009106Y1678661D01*
X3008970Y1678519D01*
X3008802Y1678418D01*
X3008127Y1677631D01*
X3007411Y1676878D01*
X3007328Y1676699D01*
X3007200Y1676550D01*
X3006810Y1675586D01*
X3006373Y1674646D01*
X3006351Y1674451D01*
X3006278Y1674268D01*
X3006090Y1672590D01*
X3006090Y1619324D01*
X2993623Y1606858D01*
X2993206Y1606277D01*
X2992712Y1605757D01*
X2992492Y1605283D01*
X2992187Y1604859D01*
X2991976Y1604175D01*
X2991674Y1603526D01*
X2991617Y1603008D01*
X2991463Y1602508D01*
X2991481Y1601791D01*
X2991402Y1601080D01*
X2991512Y1600571D01*
X2991525Y1600048D01*
X2991771Y1599374D01*
X2991923Y1598675D01*
X2992190Y1598227D01*
X2992369Y1597736D01*
X2992816Y1597176D01*
X2993183Y1596562D01*
X2993579Y1596222D01*
X2993906Y1595814D01*
X2994506Y1595427D01*
X2995051Y1594960D01*
X2995537Y1594764D01*
X2995975Y1594482D01*
X2996668Y1594306D01*
X2997333Y1594038D01*
X2998044Y1593958D01*
X2998360Y1593878D01*
X2998598Y1593896D01*
X2999011Y1593850D01*
X3041575Y1593850D01*
X3059430Y1575995D01*
X3059430Y1139264D01*
X3041575Y1121409D01*
X2927424Y1121409D01*
X2918768Y1130066D01*
X2918608Y1130181D01*
X2918485Y1130334D01*
X2917613Y1130896D01*
X2916770Y1131502D01*
X2916582Y1131560D01*
X2916416Y1131667D01*
X2915411Y1131921D01*
X2914418Y1132227D01*
X2914221Y1132222D01*
X2914031Y1132270D01*
X2912997Y1132191D01*
X2911958Y1132164D01*
X2911773Y1132097D01*
X2911577Y1132082D01*
X2910623Y1131677D01*
X2910328Y1131569D01*
X2910112Y1131569D01*
X2909216Y1131423D01*
X2908309Y1131353D01*
X2908006Y1131225D01*
X2907683Y1131172D01*
X2906881Y1130748D01*
X2906043Y1130392D01*
X2905718Y1130133D01*
X2905508Y1130021D01*
X2905283Y1129785D01*
X2904724Y1129338D01*
X2904295Y1128909D01*
X2904136Y1128883D01*
X2903229Y1128813D01*
X2902926Y1128685D01*
X2902603Y1128632D01*
X2901801Y1128208D01*
X2900963Y1127852D01*
X2900638Y1127593D01*
X2900428Y1127481D01*
X2900203Y1127245D01*
X2899644Y1126798D01*
X2896675Y1123829D01*
X2896516Y1123803D01*
X2895609Y1123733D01*
X2895306Y1123605D01*
X2894983Y1123552D01*
X2894181Y1123128D01*
X2893343Y1122772D01*
X2893018Y1122513D01*
X2892808Y1122401D01*
X2892583Y1122165D01*
X2892024Y1121718D01*
X2891715Y1121409D01*
X2889792Y1121409D01*
X2888896Y1121263D01*
X2887989Y1121193D01*
X2887686Y1121065D01*
X2887363Y1121012D01*
X2886561Y1120588D01*
X2885723Y1120232D01*
X2885398Y1119973D01*
X2885188Y1119861D01*
X2884963Y1119625D01*
X2884404Y1119178D01*
X2883975Y1118749D01*
X2883816Y1118723D01*
X2882909Y1118653D01*
X2882606Y1118525D01*
X2882283Y1118472D01*
X2881481Y1118048D01*
X2880643Y1117692D01*
X2880318Y1117433D01*
X2880108Y1117321D01*
X2879883Y1117085D01*
X2879324Y1116638D01*
X2879015Y1116329D01*
X2874552Y1116329D01*
X2873656Y1116183D01*
X2872749Y1116113D01*
X2872446Y1115985D01*
X2872123Y1115932D01*
X2871321Y1115508D01*
X2870483Y1115152D01*
X2870158Y1114893D01*
X2869948Y1114781D01*
X2869723Y1114545D01*
X2869164Y1114098D01*
X2868855Y1113789D01*
X2859312Y1113789D01*
X2858416Y1113643D01*
X2857509Y1113573D01*
X2857206Y1113445D01*
X2856883Y1113392D01*
X2856081Y1112968D01*
X2855243Y1112612D01*
X2854918Y1112353D01*
X2854708Y1112241D01*
X2854483Y1112005D01*
X2853924Y1111558D01*
X2853615Y1111249D01*
X2777564Y1111249D01*
G37*
%LPD*%
%LPC*%
G36*
X522934Y664590D02*
X522934Y664590D01*
X522372Y665153D01*
X522371Y665153D01*
X502285Y685239D01*
X502285Y749606D01*
X520140Y767461D01*
X709803Y767461D01*
X709997Y767493D01*
X710193Y767471D01*
X711208Y767691D01*
X712232Y767859D01*
X712405Y767951D01*
X712598Y767992D01*
X713490Y768524D01*
X714407Y769009D01*
X714543Y769152D01*
X714711Y769253D01*
X715386Y770040D01*
X716102Y770793D01*
X716185Y770971D01*
X716313Y771121D01*
X716703Y772085D01*
X717140Y773024D01*
X717162Y773219D01*
X717235Y773402D01*
X717423Y775081D01*
X717423Y936805D01*
X723158Y942540D01*
X723273Y942700D01*
X723427Y942823D01*
X723988Y943695D01*
X724594Y944538D01*
X724653Y944726D01*
X724759Y944892D01*
X725013Y945897D01*
X725319Y946890D01*
X725314Y947087D01*
X725362Y947277D01*
X725283Y948310D01*
X725256Y949350D01*
X725189Y949535D01*
X725174Y949731D01*
X724769Y950685D01*
X724413Y951662D01*
X724289Y951815D01*
X724213Y951996D01*
X723158Y953316D01*
X720745Y955729D01*
X720007Y956259D01*
X719318Y956851D01*
X719013Y956974D01*
X718747Y957165D01*
X717878Y957433D01*
X717036Y957773D01*
X716623Y957819D01*
X716395Y957889D01*
X716069Y957881D01*
X715765Y957915D01*
X715157Y958523D01*
X714419Y959053D01*
X713729Y959645D01*
X713425Y959768D01*
X713159Y959959D01*
X712290Y960227D01*
X711448Y960567D01*
X711035Y960613D01*
X710807Y960683D01*
X710481Y960675D01*
X710177Y960709D01*
X709570Y961317D01*
X708831Y961847D01*
X708142Y962439D01*
X707838Y962562D01*
X707572Y962753D01*
X706703Y963021D01*
X705860Y963361D01*
X705448Y963407D01*
X705220Y963478D01*
X704893Y963469D01*
X704589Y963503D01*
X701188Y966905D01*
X700449Y967435D01*
X699760Y968027D01*
X699455Y968150D01*
X699189Y968341D01*
X698320Y968608D01*
X697478Y968949D01*
X697066Y968995D01*
X696838Y969065D01*
X696511Y969057D01*
X696207Y969091D01*
X695600Y969698D01*
X694861Y970229D01*
X694172Y970821D01*
X693868Y970944D01*
X693602Y971135D01*
X692733Y971403D01*
X691890Y971743D01*
X691478Y971789D01*
X691250Y971859D01*
X690923Y971851D01*
X690619Y971885D01*
X690011Y972493D01*
X689273Y973023D01*
X688583Y973615D01*
X688279Y973738D01*
X688013Y973929D01*
X687144Y974197D01*
X686302Y974537D01*
X685889Y974583D01*
X685661Y974653D01*
X685335Y974645D01*
X685031Y974679D01*
X684424Y975287D01*
X683685Y975817D01*
X682996Y976409D01*
X682692Y976532D01*
X682426Y976723D01*
X681557Y976991D01*
X680714Y977331D01*
X680302Y977377D01*
X680074Y977448D01*
X679747Y977439D01*
X679443Y977473D01*
X678836Y978081D01*
X678097Y978611D01*
X677408Y979203D01*
X677103Y979326D01*
X676838Y979517D01*
X675968Y979785D01*
X675126Y980125D01*
X674714Y980171D01*
X674486Y980242D01*
X674158Y980233D01*
X673855Y980267D01*
X673248Y980875D01*
X673246Y980876D01*
X670454Y983668D01*
X669715Y984199D01*
X669026Y984791D01*
X668722Y984914D01*
X668456Y985105D01*
X667587Y985373D01*
X666744Y985713D01*
X666332Y985759D01*
X666104Y985829D01*
X665777Y985821D01*
X665473Y985855D01*
X664865Y986463D01*
X664127Y986993D01*
X663437Y987585D01*
X663133Y987708D01*
X662867Y987899D01*
X661998Y988167D01*
X661156Y988507D01*
X660743Y988553D01*
X660515Y988623D01*
X660188Y988615D01*
X659885Y988649D01*
X659278Y989257D01*
X658539Y989787D01*
X657850Y990379D01*
X657546Y990502D01*
X657280Y990693D01*
X656411Y990961D01*
X655568Y991301D01*
X655156Y991347D01*
X654928Y991418D01*
X654601Y991409D01*
X654297Y991443D01*
X653690Y992051D01*
X652951Y992581D01*
X652262Y993173D01*
X651958Y993296D01*
X651692Y993487D01*
X650823Y993755D01*
X649980Y994095D01*
X649568Y994141D01*
X649340Y994212D01*
X649013Y994203D01*
X648709Y994237D01*
X648102Y994845D01*
X648100Y994846D01*
X645308Y997638D01*
X644569Y998169D01*
X643880Y998761D01*
X643576Y998884D01*
X643310Y999075D01*
X642441Y999343D01*
X641598Y999683D01*
X641186Y999729D01*
X640958Y999799D01*
X640631Y999791D01*
X640327Y999825D01*
X639720Y1000433D01*
X638981Y1000963D01*
X638292Y1001555D01*
X637988Y1001678D01*
X637722Y1001869D01*
X636853Y1002137D01*
X636010Y1002477D01*
X635598Y1002523D01*
X635370Y1002593D01*
X635043Y1002585D01*
X634739Y1002619D01*
X634131Y1003227D01*
X633393Y1003757D01*
X632703Y1004349D01*
X632399Y1004472D01*
X632133Y1004663D01*
X631264Y1004931D01*
X630422Y1005271D01*
X630009Y1005317D01*
X629781Y1005388D01*
X629455Y1005379D01*
X629151Y1005413D01*
X628544Y1006021D01*
X627805Y1006551D01*
X627116Y1007143D01*
X626812Y1007266D01*
X626546Y1007457D01*
X625677Y1007725D01*
X624834Y1008065D01*
X624422Y1008111D01*
X624194Y1008182D01*
X623867Y1008173D01*
X623563Y1008207D01*
X622955Y1008815D01*
X622217Y1009345D01*
X621528Y1009937D01*
X621223Y1010060D01*
X620957Y1010251D01*
X620088Y1010518D01*
X619246Y1010859D01*
X618833Y1010905D01*
X618605Y1010975D01*
X618279Y1010967D01*
X617975Y1011001D01*
X617368Y1011608D01*
X617367Y1011609D01*
X614574Y1014403D01*
X613835Y1014933D01*
X613146Y1015525D01*
X612842Y1015648D01*
X612576Y1015839D01*
X611707Y1016107D01*
X610864Y1016447D01*
X610452Y1016493D01*
X610224Y1016563D01*
X609897Y1016555D01*
X609593Y1016589D01*
X608985Y1017197D01*
X608247Y1017727D01*
X607557Y1018319D01*
X607253Y1018442D01*
X606987Y1018633D01*
X606118Y1018901D01*
X605276Y1019241D01*
X604863Y1019287D01*
X604635Y1019358D01*
X604308Y1019349D01*
X604005Y1019383D01*
X603398Y1019991D01*
X602659Y1020521D01*
X601970Y1021113D01*
X601666Y1021236D01*
X601400Y1021427D01*
X600531Y1021695D01*
X599688Y1022035D01*
X599276Y1022081D01*
X599048Y1022152D01*
X598721Y1022143D01*
X598417Y1022177D01*
X597809Y1022785D01*
X597071Y1023315D01*
X596382Y1023907D01*
X596077Y1024030D01*
X595811Y1024221D01*
X594942Y1024488D01*
X594100Y1024829D01*
X593688Y1024875D01*
X593459Y1024945D01*
X593133Y1024937D01*
X592829Y1024971D01*
X592222Y1025578D01*
X591483Y1026109D01*
X590794Y1026701D01*
X590490Y1026824D01*
X590224Y1027015D01*
X589355Y1027283D01*
X588512Y1027623D01*
X588100Y1027669D01*
X587872Y1027739D01*
X587545Y1027731D01*
X587241Y1027765D01*
X583839Y1031167D01*
X583101Y1031697D01*
X582411Y1032289D01*
X582107Y1032412D01*
X581841Y1032603D01*
X580972Y1032871D01*
X580130Y1033211D01*
X579717Y1033257D01*
X579489Y1033328D01*
X579163Y1033319D01*
X578859Y1033353D01*
X578252Y1033961D01*
X577513Y1034491D01*
X576824Y1035083D01*
X576520Y1035206D01*
X576254Y1035397D01*
X575385Y1035665D01*
X574542Y1036005D01*
X574130Y1036051D01*
X573902Y1036122D01*
X573575Y1036113D01*
X573271Y1036147D01*
X572663Y1036755D01*
X571925Y1037285D01*
X571236Y1037877D01*
X570931Y1038000D01*
X570665Y1038191D01*
X569796Y1038458D01*
X568954Y1038799D01*
X568542Y1038845D01*
X568313Y1038915D01*
X567987Y1038907D01*
X567683Y1038941D01*
X567076Y1039548D01*
X566337Y1040079D01*
X565648Y1040671D01*
X565343Y1040794D01*
X565078Y1040985D01*
X564208Y1041253D01*
X563366Y1041593D01*
X562954Y1041639D01*
X562726Y1041709D01*
X562398Y1041701D01*
X562095Y1041735D01*
X561488Y1042343D01*
X558991Y1044839D01*
X558783Y1044989D01*
X558620Y1045187D01*
X557233Y1046151D01*
X556684Y1046448D01*
X555701Y1046790D01*
X554733Y1047181D01*
X554499Y1047207D01*
X554359Y1047256D01*
X554034Y1047259D01*
X553745Y1047291D01*
X553106Y1047931D01*
X552367Y1048461D01*
X551678Y1049053D01*
X551373Y1049176D01*
X551108Y1049367D01*
X550238Y1049635D01*
X549396Y1049975D01*
X548984Y1050021D01*
X548756Y1050092D01*
X548428Y1050083D01*
X548125Y1050117D01*
X547518Y1050724D01*
X546780Y1051255D01*
X546090Y1051847D01*
X545786Y1051970D01*
X545520Y1052161D01*
X544651Y1052428D01*
X543808Y1052769D01*
X543396Y1052815D01*
X543168Y1052885D01*
X542841Y1052877D01*
X542537Y1052911D01*
X541929Y1053519D01*
X541191Y1054049D01*
X540501Y1054641D01*
X540197Y1054764D01*
X539931Y1054955D01*
X539062Y1055223D01*
X538220Y1055563D01*
X537807Y1055609D01*
X537579Y1055679D01*
X537253Y1055671D01*
X536949Y1055705D01*
X536342Y1056313D01*
X535603Y1056843D01*
X534914Y1057435D01*
X534610Y1057558D01*
X534344Y1057749D01*
X533475Y1058017D01*
X532632Y1058357D01*
X532220Y1058403D01*
X531992Y1058473D01*
X531665Y1058465D01*
X531361Y1058499D01*
X530753Y1059107D01*
X530752Y1059108D01*
X528478Y1061382D01*
X528270Y1061532D01*
X528107Y1061729D01*
X526720Y1062694D01*
X525764Y1063212D01*
X524780Y1063554D01*
X523812Y1063945D01*
X523579Y1063971D01*
X523440Y1064020D01*
X523116Y1064023D01*
X523034Y1064032D01*
X522376Y1064691D01*
X522168Y1064840D01*
X522006Y1065037D01*
X520619Y1066001D01*
X511578Y1070903D01*
X510193Y1075571D01*
X509737Y1076512D01*
X509331Y1077471D01*
X509185Y1077653D01*
X509121Y1077786D01*
X508893Y1078018D01*
X508276Y1078790D01*
X502285Y1084781D01*
X502285Y1130258D01*
X502108Y1131334D01*
X501971Y1132423D01*
X501905Y1132580D01*
X501887Y1132687D01*
X501751Y1132944D01*
X501315Y1133979D01*
X500159Y1136044D01*
X501998Y1142553D01*
X502021Y1142756D01*
X502098Y1142945D01*
X502285Y1144624D01*
X502285Y1151942D01*
X504176Y1153833D01*
X504812Y1154718D01*
X505485Y1155586D01*
X505549Y1155743D01*
X505612Y1155832D01*
X505698Y1156112D01*
X506121Y1157150D01*
X508453Y1165406D01*
X530438Y1177708D01*
X530599Y1177835D01*
X530787Y1177915D01*
X531568Y1178539D01*
X531615Y1178559D01*
X531723Y1178577D01*
X531982Y1178714D01*
X533014Y1179149D01*
X536782Y1181257D01*
X536943Y1181385D01*
X537132Y1181465D01*
X537419Y1181695D01*
X538008Y1181943D01*
X555811Y1191904D01*
X555971Y1192031D01*
X556160Y1192112D01*
X556730Y1192568D01*
X556949Y1192683D01*
X557982Y1193119D01*
X562153Y1195453D01*
X562314Y1195581D01*
X562504Y1195661D01*
X562643Y1195773D01*
X562977Y1195913D01*
X581183Y1206101D01*
X581344Y1206228D01*
X581533Y1206308D01*
X582017Y1206696D01*
X582949Y1207089D01*
X587525Y1209649D01*
X587680Y1209772D01*
X587944Y1209883D01*
X606556Y1220297D01*
X606716Y1220424D01*
X606905Y1220505D01*
X607242Y1220774D01*
X607918Y1221059D01*
X612898Y1223846D01*
X612903Y1223850D01*
X612912Y1223853D01*
X631928Y1234493D01*
X632088Y1234621D01*
X632276Y1234701D01*
X632465Y1234852D01*
X632886Y1235029D01*
X657300Y1248690D01*
X657462Y1248818D01*
X657652Y1248899D01*
X657693Y1248932D01*
X657853Y1248999D01*
X682673Y1262886D01*
X682728Y1262930D01*
X682821Y1262969D01*
X727075Y1287731D01*
X727235Y1287858D01*
X727423Y1287938D01*
X727514Y1288010D01*
X727763Y1288115D01*
X752448Y1301927D01*
X752552Y1302010D01*
X752730Y1302085D01*
X769776Y1311622D01*
X786176Y1306990D01*
X786379Y1306967D01*
X786569Y1306890D01*
X788247Y1306703D01*
X794056Y1306703D01*
X795353Y1305406D01*
X796243Y1304766D01*
X797106Y1304098D01*
X797262Y1304034D01*
X797352Y1303970D01*
X797635Y1303883D01*
X798670Y1303461D01*
X799138Y1303329D01*
X800792Y1300373D01*
X800919Y1300213D01*
X800999Y1300025D01*
X802053Y1298706D01*
X811911Y1288848D01*
X811911Y1282487D01*
X812088Y1281411D01*
X812225Y1280322D01*
X812291Y1280165D01*
X812309Y1280058D01*
X812445Y1279801D01*
X812881Y1278766D01*
X814036Y1276702D01*
X812198Y1270194D01*
X812175Y1269991D01*
X812098Y1269801D01*
X811911Y1268123D01*
X811911Y1242641D01*
X812071Y1241664D01*
X812168Y1240679D01*
X812279Y1240395D01*
X812309Y1240212D01*
X812465Y1239916D01*
X812781Y1239105D01*
X814150Y1236492D01*
X812258Y1230436D01*
X812215Y1230130D01*
X812098Y1229842D01*
X811911Y1228164D01*
X811911Y1218893D01*
X808495Y1215477D01*
X807918Y1214674D01*
X807289Y1213908D01*
X807167Y1213629D01*
X807058Y1213479D01*
X806960Y1213158D01*
X806610Y1212362D01*
X805049Y1207369D01*
X796288Y1202779D01*
X796040Y1202593D01*
X795754Y1202472D01*
X794435Y1201418D01*
X793903Y1200885D01*
X793863Y1200879D01*
X792877Y1200782D01*
X792592Y1200671D01*
X792410Y1200641D01*
X792115Y1200485D01*
X791303Y1200168D01*
X790421Y1199706D01*
X790173Y1199520D01*
X789888Y1199399D01*
X788569Y1198345D01*
X788285Y1198061D01*
X787543Y1197988D01*
X787259Y1197877D01*
X787076Y1197847D01*
X786780Y1197690D01*
X785970Y1197375D01*
X784554Y1196633D01*
X784306Y1196447D01*
X784020Y1196325D01*
X782701Y1195271D01*
X782669Y1195239D01*
X782209Y1195193D01*
X781925Y1195083D01*
X781742Y1195053D01*
X781446Y1194896D01*
X780636Y1194581D01*
X778686Y1193560D01*
X778438Y1193373D01*
X778152Y1193252D01*
X777116Y1192423D01*
X776875Y1192399D01*
X776591Y1192289D01*
X776408Y1192259D01*
X776113Y1192103D01*
X775301Y1191787D01*
X772819Y1190486D01*
X772571Y1190300D01*
X772286Y1190179D01*
X771572Y1189609D01*
X771541Y1189606D01*
X771257Y1189495D01*
X771074Y1189465D01*
X770779Y1189309D01*
X769968Y1188993D01*
X766951Y1187413D01*
X766703Y1187226D01*
X766417Y1187105D01*
X765909Y1186698D01*
X765740Y1186671D01*
X765445Y1186515D01*
X764633Y1186199D01*
X761084Y1184340D01*
X760835Y1184153D01*
X760550Y1184032D01*
X760259Y1183799D01*
X760111Y1183721D01*
X759299Y1183405D01*
X755217Y1181266D01*
X754968Y1181080D01*
X754683Y1180959D01*
X753364Y1179904D01*
X752675Y1179215D01*
X752145Y1178477D01*
X751553Y1177788D01*
X751430Y1177483D01*
X751239Y1177217D01*
X750971Y1176348D01*
X750631Y1175506D01*
X750585Y1175093D01*
X750514Y1174865D01*
X750523Y1174539D01*
X750443Y1173828D01*
X750443Y1060102D01*
X750498Y1059772D01*
X750487Y1059679D01*
X750590Y1059203D01*
X750660Y1058299D01*
X750788Y1057997D01*
X750841Y1057674D01*
X750978Y1057416D01*
X751008Y1057274D01*
X751308Y1056772D01*
X751621Y1056034D01*
X751880Y1055709D01*
X751992Y1055498D01*
X752166Y1055333D01*
X752268Y1055161D01*
X752427Y1055025D01*
X752675Y1054714D01*
X752709Y1054681D01*
X753298Y1054258D01*
X753775Y1053803D01*
X753941Y1053726D01*
X754137Y1053559D01*
X754441Y1053436D01*
X754707Y1053244D01*
X755507Y1052998D01*
X756007Y1052766D01*
X756133Y1052752D01*
X756418Y1052636D01*
X756831Y1052590D01*
X757059Y1052520D01*
X757385Y1052528D01*
X757689Y1052494D01*
X761091Y1049093D01*
X761829Y1048562D01*
X762519Y1047971D01*
X762823Y1047848D01*
X763089Y1047656D01*
X763958Y1047389D01*
X764800Y1047048D01*
X765213Y1047002D01*
X765441Y1046932D01*
X765768Y1046940D01*
X766071Y1046907D01*
X766678Y1046299D01*
X767417Y1045768D01*
X768106Y1045177D01*
X768410Y1045053D01*
X768676Y1044863D01*
X769545Y1044595D01*
X770388Y1044254D01*
X770800Y1044208D01*
X771028Y1044138D01*
X771355Y1044146D01*
X771659Y1044112D01*
X772266Y1043505D01*
X773004Y1042975D01*
X773694Y1042383D01*
X773998Y1042260D01*
X774265Y1042069D01*
X775133Y1041801D01*
X775976Y1041461D01*
X776388Y1041415D01*
X776616Y1041344D01*
X776943Y1041353D01*
X777247Y1041319D01*
X777855Y1040711D01*
X778593Y1040180D01*
X779283Y1039589D01*
X779587Y1039466D01*
X779853Y1039274D01*
X780722Y1039007D01*
X781564Y1038666D01*
X781977Y1038620D01*
X782205Y1038550D01*
X782532Y1038558D01*
X782835Y1038525D01*
X783442Y1037917D01*
X784181Y1037386D01*
X784870Y1036795D01*
X785174Y1036672D01*
X785440Y1036481D01*
X786309Y1036213D01*
X787152Y1035872D01*
X787564Y1035826D01*
X787792Y1035756D01*
X788119Y1035764D01*
X788423Y1035730D01*
X789031Y1035123D01*
X789769Y1034592D01*
X790459Y1034001D01*
X790763Y1033878D01*
X791029Y1033686D01*
X791898Y1033419D01*
X792740Y1033078D01*
X793153Y1033032D01*
X793381Y1032962D01*
X793708Y1032970D01*
X794011Y1032937D01*
X800897Y1026050D01*
X801086Y1025914D01*
X801233Y1025735D01*
X802613Y1024762D01*
X805563Y1023139D01*
X805734Y1022547D01*
X806193Y1021583D01*
X806609Y1020603D01*
X806737Y1020443D01*
X806793Y1020325D01*
X807012Y1020099D01*
X807664Y1019283D01*
X811911Y1015036D01*
X811911Y1002354D01*
X811949Y1002126D01*
X811925Y1001894D01*
X812213Y1000230D01*
X814069Y993838D01*
X812854Y991629D01*
X812498Y990625D01*
X812098Y989636D01*
X812076Y989433D01*
X812032Y989310D01*
X812027Y988996D01*
X811911Y987958D01*
X811911Y974600D01*
X811953Y974348D01*
X811928Y974094D01*
X812226Y972432D01*
X814095Y966137D01*
X812833Y963808D01*
X812491Y962825D01*
X812309Y962377D01*
X812194Y962129D01*
X812188Y962077D01*
X812098Y961855D01*
X812073Y961623D01*
X812024Y961484D01*
X812021Y961161D01*
X811911Y960177D01*
X811911Y950669D01*
X810366Y949124D01*
X810251Y948964D01*
X810098Y948842D01*
X809537Y947970D01*
X808930Y947126D01*
X808872Y946938D01*
X808766Y946773D01*
X808512Y945768D01*
X808206Y944774D01*
X808211Y944578D01*
X808163Y944387D01*
X808242Y943350D01*
X808269Y942314D01*
X808336Y942130D01*
X808351Y941933D01*
X808757Y940978D01*
X809112Y940003D01*
X809235Y939849D01*
X809312Y939668D01*
X810367Y938349D01*
X811911Y936804D01*
X811911Y685240D01*
X811349Y684678D01*
X811348Y684676D01*
X791262Y664590D01*
X522934Y664590D01*
G37*
%LPD*%
G36*
X2159386Y411993D02*
X2159386Y411993D01*
X2159908Y411971D01*
X2160596Y412170D01*
X2161304Y412273D01*
X2161769Y412509D01*
X2162272Y412654D01*
X2162861Y413063D01*
X2163499Y413386D01*
X2163865Y413758D01*
X2164294Y414056D01*
X2164722Y414630D01*
X2165224Y415141D01*
X2165570Y415768D01*
X2165765Y416029D01*
X2165839Y416256D01*
X2166039Y416620D01*
X2180487Y451501D01*
X2215499Y486513D01*
X2220336Y488516D01*
X2221328Y489131D01*
X2222328Y489727D01*
X2222371Y489777D01*
X2222427Y489812D01*
X2223168Y490708D01*
X2223930Y491595D01*
X2223955Y491657D01*
X2223997Y491708D01*
X2224415Y492796D01*
X2224852Y493877D01*
X2224861Y493955D01*
X2224880Y494004D01*
X2224888Y494202D01*
X2225039Y495555D01*
X2225039Y987593D01*
X2224893Y988488D01*
X2224823Y989396D01*
X2224695Y989699D01*
X2224642Y990022D01*
X2224218Y990824D01*
X2223862Y991662D01*
X2223603Y991987D01*
X2223491Y992197D01*
X2223255Y992422D01*
X2222808Y992981D01*
X1951968Y1263822D01*
X1951386Y1264239D01*
X1950867Y1264733D01*
X1950393Y1264953D01*
X1949969Y1265258D01*
X1949284Y1265469D01*
X1948636Y1265770D01*
X1948118Y1265828D01*
X1947618Y1265982D01*
X1946901Y1265964D01*
X1946190Y1266043D01*
X1945679Y1265933D01*
X1945158Y1265919D01*
X1944485Y1265674D01*
X1943785Y1265522D01*
X1943337Y1265255D01*
X1942846Y1265076D01*
X1942286Y1264628D01*
X1941672Y1264262D01*
X1941332Y1263865D01*
X1940924Y1263539D01*
X1940537Y1262938D01*
X1940070Y1262394D01*
X1939874Y1261908D01*
X1939592Y1261470D01*
X1939416Y1260777D01*
X1939148Y1260112D01*
X1939068Y1259401D01*
X1938988Y1259084D01*
X1939006Y1258847D01*
X1938960Y1258434D01*
X1938960Y1071407D01*
X1939107Y1070511D01*
X1939177Y1069604D01*
X1939305Y1069301D01*
X1939358Y1068978D01*
X1939782Y1068176D01*
X1940138Y1067338D01*
X1940397Y1067013D01*
X1940508Y1066803D01*
X1940745Y1066578D01*
X1941192Y1066019D01*
X2083680Y923531D01*
X2092960Y901126D01*
X2092960Y495555D01*
X2093150Y494394D01*
X2093317Y493251D01*
X2093347Y493192D01*
X2093358Y493127D01*
X2093902Y492098D01*
X2094430Y491057D01*
X2094478Y491010D01*
X2094508Y490952D01*
X2095362Y490140D01*
X2096185Y489331D01*
X2096253Y489294D01*
X2096292Y489257D01*
X2096473Y489172D01*
X2097664Y488516D01*
X2102501Y486513D01*
X2137513Y451501D01*
X2151961Y416620D01*
X2152338Y416011D01*
X2152629Y415357D01*
X2152982Y414973D01*
X2153257Y414528D01*
X2153809Y414071D01*
X2154293Y413544D01*
X2154750Y413293D01*
X2155153Y412959D01*
X2155820Y412702D01*
X2156448Y412356D01*
X2156962Y412263D01*
X2157449Y412076D01*
X2158165Y412045D01*
X2158869Y411918D01*
X2159386Y411993D01*
G37*
G36*
X1397386Y411993D02*
X1397386Y411993D01*
X1397908Y411971D01*
X1398596Y412170D01*
X1399304Y412273D01*
X1399769Y412509D01*
X1400272Y412655D01*
X1400861Y413063D01*
X1401499Y413387D01*
X1401865Y413759D01*
X1402294Y414057D01*
X1402722Y414630D01*
X1403224Y415141D01*
X1403570Y415768D01*
X1403765Y416030D01*
X1403839Y416256D01*
X1404039Y416620D01*
X1418487Y451501D01*
X1453499Y486513D01*
X1458336Y488516D01*
X1459328Y489131D01*
X1460328Y489727D01*
X1460371Y489777D01*
X1460427Y489812D01*
X1461168Y490708D01*
X1461930Y491595D01*
X1461955Y491657D01*
X1461997Y491708D01*
X1462415Y492796D01*
X1462852Y493877D01*
X1462861Y493955D01*
X1462880Y494004D01*
X1462888Y494202D01*
X1463039Y495555D01*
X1463039Y901126D01*
X1472320Y923531D01*
X1614808Y1066019D01*
X1615338Y1066757D01*
X1615930Y1067447D01*
X1616053Y1067751D01*
X1616244Y1068017D01*
X1616512Y1068886D01*
X1616852Y1069728D01*
X1616898Y1070141D01*
X1616968Y1070369D01*
X1616960Y1070695D01*
X1617039Y1071407D01*
X1617039Y1258434D01*
X1616924Y1259140D01*
X1616905Y1259856D01*
X1616726Y1260347D01*
X1616642Y1260862D01*
X1616308Y1261494D01*
X1616062Y1262168D01*
X1615735Y1262576D01*
X1615491Y1263038D01*
X1614972Y1263531D01*
X1614525Y1264090D01*
X1614087Y1264372D01*
X1613708Y1264733D01*
X1613057Y1265035D01*
X1612456Y1265422D01*
X1611950Y1265550D01*
X1611476Y1265770D01*
X1610765Y1265850D01*
X1610071Y1266025D01*
X1609549Y1265985D01*
X1609031Y1266043D01*
X1608332Y1265892D01*
X1607617Y1265837D01*
X1607136Y1265633D01*
X1606626Y1265522D01*
X1606011Y1265156D01*
X1605352Y1264876D01*
X1604792Y1264429D01*
X1604512Y1264262D01*
X1604358Y1264082D01*
X1604032Y1263822D01*
X1333192Y992981D01*
X1332662Y992243D01*
X1332070Y991553D01*
X1331947Y991249D01*
X1331756Y990983D01*
X1331488Y990114D01*
X1331148Y989272D01*
X1331102Y988859D01*
X1331031Y988631D01*
X1331040Y988304D01*
X1330960Y987593D01*
X1330960Y495555D01*
X1331150Y494394D01*
X1331317Y493251D01*
X1331347Y493192D01*
X1331358Y493127D01*
X1331902Y492098D01*
X1332430Y491057D01*
X1332478Y491010D01*
X1332508Y490952D01*
X1333362Y490140D01*
X1334185Y489331D01*
X1334253Y489294D01*
X1334292Y489257D01*
X1334473Y489172D01*
X1335664Y488516D01*
X1340501Y486513D01*
X1375513Y451501D01*
X1389961Y416620D01*
X1390338Y416011D01*
X1390629Y415358D01*
X1390981Y414973D01*
X1391257Y414528D01*
X1391809Y414071D01*
X1392293Y413545D01*
X1392750Y413293D01*
X1393153Y412959D01*
X1393820Y412703D01*
X1394448Y412357D01*
X1394962Y412263D01*
X1395449Y412076D01*
X1396165Y412045D01*
X1396869Y411918D01*
X1397386Y411993D01*
G37*
G36*
X2413386Y411993D02*
X2413386Y411993D01*
X2413908Y411971D01*
X2414596Y412170D01*
X2415304Y412273D01*
X2415769Y412509D01*
X2416272Y412654D01*
X2416861Y413063D01*
X2417499Y413386D01*
X2417865Y413758D01*
X2418294Y414056D01*
X2418722Y414630D01*
X2419224Y415141D01*
X2419570Y415768D01*
X2419765Y416029D01*
X2419839Y416256D01*
X2420039Y416620D01*
X2434487Y451501D01*
X2469499Y486513D01*
X2474336Y488516D01*
X2475328Y489131D01*
X2476328Y489727D01*
X2476371Y489777D01*
X2476427Y489812D01*
X2477168Y490708D01*
X2477930Y491595D01*
X2477955Y491657D01*
X2477997Y491708D01*
X2478415Y492796D01*
X2478852Y493877D01*
X2478861Y493955D01*
X2478880Y494004D01*
X2478888Y494202D01*
X2479039Y495555D01*
X2479039Y987593D01*
X2478893Y988488D01*
X2478823Y989396D01*
X2478695Y989699D01*
X2478642Y990022D01*
X2478218Y990824D01*
X2477862Y991662D01*
X2477603Y991987D01*
X2477491Y992197D01*
X2477255Y992422D01*
X2476808Y992981D01*
X2051968Y1417822D01*
X2051386Y1418239D01*
X2050867Y1418733D01*
X2050393Y1418953D01*
X2049969Y1419258D01*
X2049284Y1419469D01*
X2048636Y1419770D01*
X2048118Y1419828D01*
X2047618Y1419982D01*
X2046901Y1419964D01*
X2046190Y1420043D01*
X2045679Y1419933D01*
X2045158Y1419919D01*
X2044485Y1419674D01*
X2043785Y1419522D01*
X2043337Y1419255D01*
X2042846Y1419076D01*
X2042286Y1418628D01*
X2041672Y1418262D01*
X2041332Y1417865D01*
X2040924Y1417539D01*
X2040537Y1416938D01*
X2040070Y1416394D01*
X2039874Y1415908D01*
X2039592Y1415470D01*
X2039416Y1414777D01*
X2039148Y1414112D01*
X2039068Y1413401D01*
X2038988Y1413084D01*
X2039006Y1412847D01*
X2038960Y1412434D01*
X2038960Y1352407D01*
X2039107Y1351511D01*
X2039177Y1350604D01*
X2039305Y1350301D01*
X2039358Y1349978D01*
X2039782Y1349176D01*
X2040138Y1348338D01*
X2040397Y1348013D01*
X2040508Y1347803D01*
X2040745Y1347578D01*
X2041192Y1347019D01*
X2337680Y1050531D01*
X2346960Y1028126D01*
X2346960Y495555D01*
X2347150Y494394D01*
X2347317Y493251D01*
X2347347Y493192D01*
X2347358Y493127D01*
X2347902Y492098D01*
X2348430Y491057D01*
X2348478Y491010D01*
X2348508Y490952D01*
X2349362Y490140D01*
X2350185Y489331D01*
X2350253Y489294D01*
X2350292Y489257D01*
X2350473Y489172D01*
X2351664Y488516D01*
X2356501Y486513D01*
X2391513Y451501D01*
X2405961Y416620D01*
X2406338Y416011D01*
X2406629Y415357D01*
X2406982Y414973D01*
X2407257Y414528D01*
X2407809Y414071D01*
X2408293Y413544D01*
X2408750Y413293D01*
X2409153Y412959D01*
X2409820Y412702D01*
X2410448Y412356D01*
X2410962Y412263D01*
X2411449Y412076D01*
X2412165Y412045D01*
X2412869Y411918D01*
X2413386Y411993D01*
G37*
G36*
X1143386Y411993D02*
X1143386Y411993D01*
X1143908Y411971D01*
X1144596Y412170D01*
X1145304Y412273D01*
X1145769Y412509D01*
X1146272Y412655D01*
X1146861Y413063D01*
X1147499Y413387D01*
X1147865Y413759D01*
X1148294Y414057D01*
X1148722Y414630D01*
X1149224Y415141D01*
X1149570Y415768D01*
X1149765Y416030D01*
X1149839Y416256D01*
X1150039Y416620D01*
X1164487Y451501D01*
X1199499Y486513D01*
X1204336Y488516D01*
X1205328Y489131D01*
X1206328Y489727D01*
X1206371Y489777D01*
X1206427Y489812D01*
X1207168Y490708D01*
X1207930Y491595D01*
X1207955Y491657D01*
X1207997Y491708D01*
X1208415Y492796D01*
X1208852Y493877D01*
X1208861Y493955D01*
X1208880Y494004D01*
X1208888Y494202D01*
X1209039Y495555D01*
X1209039Y1028126D01*
X1218320Y1050531D01*
X1514808Y1347019D01*
X1515338Y1347757D01*
X1515930Y1348447D01*
X1516053Y1348751D01*
X1516244Y1349017D01*
X1516512Y1349886D01*
X1516852Y1350728D01*
X1516898Y1351141D01*
X1516968Y1351369D01*
X1516960Y1351695D01*
X1517039Y1352407D01*
X1517039Y1412434D01*
X1516924Y1413141D01*
X1516905Y1413856D01*
X1516726Y1414347D01*
X1516642Y1414862D01*
X1516308Y1415494D01*
X1516062Y1416168D01*
X1515735Y1416576D01*
X1515491Y1417038D01*
X1514972Y1417531D01*
X1514525Y1418090D01*
X1514087Y1418372D01*
X1513708Y1418733D01*
X1513057Y1419035D01*
X1512456Y1419422D01*
X1511950Y1419550D01*
X1511476Y1419770D01*
X1510765Y1419850D01*
X1510071Y1420025D01*
X1509549Y1419985D01*
X1509031Y1420043D01*
X1508332Y1419892D01*
X1507617Y1419837D01*
X1507136Y1419633D01*
X1506626Y1419522D01*
X1506011Y1419156D01*
X1505352Y1418876D01*
X1504792Y1418429D01*
X1504512Y1418262D01*
X1504358Y1418082D01*
X1504032Y1417822D01*
X1079192Y992981D01*
X1078662Y992243D01*
X1078070Y991553D01*
X1077947Y991249D01*
X1077756Y990983D01*
X1077488Y990114D01*
X1077148Y989272D01*
X1077102Y988859D01*
X1077031Y988631D01*
X1077040Y988304D01*
X1076960Y987593D01*
X1076960Y495555D01*
X1077150Y494394D01*
X1077317Y493251D01*
X1077347Y493192D01*
X1077358Y493127D01*
X1077902Y492098D01*
X1078430Y491057D01*
X1078478Y491010D01*
X1078508Y490952D01*
X1079362Y490140D01*
X1080185Y489331D01*
X1080253Y489294D01*
X1080292Y489257D01*
X1080473Y489172D01*
X1081664Y488516D01*
X1086501Y486513D01*
X1121513Y451501D01*
X1135961Y416620D01*
X1136338Y416011D01*
X1136629Y415358D01*
X1136981Y414973D01*
X1137257Y414528D01*
X1137809Y414071D01*
X1138293Y413545D01*
X1138750Y413293D01*
X1139153Y412959D01*
X1139820Y412703D01*
X1140448Y412357D01*
X1140962Y412263D01*
X1141449Y412076D01*
X1142165Y412045D01*
X1142869Y411918D01*
X1143386Y411993D01*
G37*
%LPC*%
G36*
X2275374Y1936019D02*
X2275374Y1936019D01*
X2257519Y1953874D01*
X2257519Y2259125D01*
X2275374Y2276980D01*
X2510625Y2276980D01*
X2528480Y2259125D01*
X2528480Y1953874D01*
X2510625Y1936019D01*
X2275374Y1936019D01*
G37*
%LPD*%
%LPC*%
G36*
X1045374Y1936019D02*
X1045374Y1936019D01*
X1027519Y1953874D01*
X1027519Y2259125D01*
X1045374Y2276980D01*
X1280625Y2276980D01*
X1298480Y2259125D01*
X1298480Y1953874D01*
X1280625Y1936019D01*
X1045374Y1936019D01*
G37*
%LPD*%
G36*
X1905386Y411993D02*
X1905386Y411993D01*
X1905908Y411971D01*
X1906596Y412170D01*
X1907304Y412273D01*
X1907769Y412509D01*
X1908272Y412654D01*
X1908861Y413063D01*
X1909499Y413386D01*
X1909865Y413758D01*
X1910294Y414056D01*
X1910722Y414630D01*
X1911224Y415141D01*
X1911570Y415768D01*
X1911765Y416029D01*
X1911839Y416256D01*
X1912039Y416620D01*
X1926487Y451501D01*
X1961499Y486513D01*
X1966336Y488516D01*
X1967328Y489131D01*
X1968328Y489727D01*
X1968371Y489777D01*
X1968427Y489812D01*
X1969168Y490708D01*
X1969930Y491595D01*
X1969955Y491657D01*
X1969997Y491708D01*
X1970415Y492796D01*
X1970852Y493877D01*
X1970861Y493955D01*
X1970880Y494004D01*
X1970888Y494202D01*
X1971039Y495555D01*
X1971039Y860593D01*
X1970893Y861488D01*
X1970823Y862396D01*
X1970695Y862699D01*
X1970642Y863022D01*
X1970218Y863824D01*
X1969862Y864662D01*
X1969603Y864987D01*
X1969491Y865197D01*
X1969255Y865422D01*
X1968808Y865981D01*
X1851968Y982822D01*
X1851386Y983239D01*
X1850867Y983733D01*
X1850393Y983953D01*
X1849969Y984258D01*
X1849284Y984469D01*
X1848636Y984770D01*
X1848118Y984828D01*
X1847618Y984982D01*
X1846901Y984964D01*
X1846190Y985043D01*
X1845679Y984933D01*
X1845158Y984919D01*
X1844485Y984674D01*
X1843785Y984522D01*
X1843337Y984255D01*
X1842846Y984076D01*
X1842286Y983628D01*
X1841672Y983262D01*
X1841332Y982865D01*
X1840924Y982539D01*
X1840537Y981938D01*
X1840070Y981394D01*
X1839874Y980908D01*
X1839592Y980470D01*
X1839416Y979777D01*
X1839148Y979112D01*
X1839068Y978401D01*
X1838988Y978084D01*
X1839006Y977847D01*
X1838960Y977434D01*
X1838960Y495555D01*
X1839150Y494394D01*
X1839317Y493251D01*
X1839347Y493192D01*
X1839358Y493127D01*
X1839902Y492098D01*
X1840430Y491057D01*
X1840478Y491010D01*
X1840508Y490952D01*
X1841362Y490140D01*
X1842185Y489331D01*
X1842253Y489294D01*
X1842292Y489257D01*
X1842473Y489172D01*
X1843664Y488516D01*
X1848501Y486513D01*
X1883513Y451501D01*
X1897961Y416620D01*
X1898338Y416011D01*
X1898629Y415357D01*
X1898982Y414973D01*
X1899257Y414528D01*
X1899809Y414071D01*
X1900293Y413544D01*
X1900750Y413293D01*
X1901153Y412959D01*
X1901820Y412702D01*
X1902448Y412356D01*
X1902962Y412263D01*
X1903449Y412076D01*
X1904165Y412045D01*
X1904869Y411918D01*
X1905386Y411993D01*
G37*
G36*
X1651386Y411993D02*
X1651386Y411993D01*
X1651908Y411971D01*
X1652596Y412170D01*
X1653304Y412273D01*
X1653769Y412509D01*
X1654272Y412654D01*
X1654861Y413063D01*
X1655499Y413386D01*
X1655865Y413758D01*
X1656294Y414056D01*
X1656722Y414630D01*
X1657224Y415141D01*
X1657570Y415768D01*
X1657765Y416029D01*
X1657839Y416256D01*
X1658039Y416620D01*
X1672487Y451501D01*
X1707499Y486513D01*
X1712336Y488516D01*
X1713328Y489131D01*
X1714328Y489727D01*
X1714371Y489777D01*
X1714427Y489812D01*
X1715168Y490708D01*
X1715930Y491595D01*
X1715955Y491657D01*
X1715997Y491708D01*
X1716415Y492796D01*
X1716852Y493877D01*
X1716861Y493955D01*
X1716880Y494004D01*
X1716888Y494202D01*
X1717039Y495555D01*
X1717039Y977434D01*
X1716924Y978141D01*
X1716905Y978856D01*
X1716726Y979347D01*
X1716642Y979862D01*
X1716308Y980494D01*
X1716062Y981168D01*
X1715735Y981576D01*
X1715491Y982038D01*
X1714972Y982531D01*
X1714525Y983090D01*
X1714087Y983372D01*
X1713708Y983733D01*
X1713057Y984035D01*
X1712456Y984422D01*
X1711950Y984550D01*
X1711476Y984770D01*
X1710765Y984850D01*
X1710071Y985025D01*
X1709549Y984985D01*
X1709031Y985043D01*
X1708332Y984892D01*
X1707617Y984837D01*
X1707136Y984633D01*
X1706626Y984522D01*
X1706011Y984156D01*
X1705352Y983876D01*
X1704792Y983429D01*
X1704512Y983262D01*
X1704358Y983082D01*
X1704032Y982822D01*
X1587192Y865981D01*
X1586709Y865309D01*
X1586708Y865308D01*
X1586708Y865307D01*
X1586662Y865243D01*
X1586070Y864553D01*
X1585947Y864249D01*
X1585756Y863983D01*
X1585488Y863114D01*
X1585148Y862272D01*
X1585102Y861859D01*
X1585031Y861631D01*
X1585040Y861304D01*
X1584960Y860593D01*
X1584960Y495555D01*
X1585150Y494394D01*
X1585317Y493251D01*
X1585347Y493192D01*
X1585358Y493127D01*
X1585902Y492098D01*
X1586430Y491057D01*
X1586478Y491010D01*
X1586508Y490952D01*
X1587362Y490140D01*
X1588185Y489331D01*
X1588253Y489294D01*
X1588292Y489257D01*
X1588473Y489172D01*
X1589664Y488516D01*
X1594501Y486513D01*
X1629513Y451501D01*
X1643961Y416620D01*
X1644338Y416011D01*
X1644629Y415357D01*
X1644982Y414973D01*
X1645257Y414528D01*
X1645809Y414071D01*
X1646293Y413544D01*
X1646750Y413293D01*
X1647153Y412959D01*
X1647820Y412702D01*
X1648448Y412356D01*
X1648962Y412263D01*
X1649449Y412076D01*
X1650165Y412045D01*
X1650869Y411918D01*
X1651386Y411993D01*
G37*
%LPC*%
G36*
X522934Y2313050D02*
X522934Y2313050D01*
X505079Y2330905D01*
X505079Y2398066D01*
X522934Y2415921D01*
X709803Y2415921D01*
X709997Y2415953D01*
X710193Y2415931D01*
X711208Y2416151D01*
X712232Y2416319D01*
X712405Y2416411D01*
X712598Y2416452D01*
X713490Y2416984D01*
X714407Y2417469D01*
X714543Y2417612D01*
X714711Y2417713D01*
X715386Y2418500D01*
X716102Y2419253D01*
X716185Y2419431D01*
X716313Y2419581D01*
X716703Y2420545D01*
X717140Y2421484D01*
X717162Y2421679D01*
X717235Y2421862D01*
X717423Y2423541D01*
X717423Y2585264D01*
X735278Y2603119D01*
X791262Y2603119D01*
X811347Y2583035D01*
X811349Y2583032D01*
X811911Y2582470D01*
X811911Y2330905D01*
X794056Y2313050D01*
X522934Y2313050D01*
G37*
%LPD*%
G36*
X2851503Y1246017D02*
X2851503Y1246017D01*
X2852411Y1246087D01*
X2852714Y1246215D01*
X2853037Y1246268D01*
X2853839Y1246692D01*
X2854677Y1247048D01*
X2855002Y1247307D01*
X2855212Y1247418D01*
X2855437Y1247655D01*
X2855996Y1248102D01*
X2856425Y1248531D01*
X2856583Y1248557D01*
X2857491Y1248627D01*
X2857794Y1248755D01*
X2858117Y1248808D01*
X2858919Y1249232D01*
X2859757Y1249588D01*
X2860082Y1249847D01*
X2860292Y1249958D01*
X2860517Y1250195D01*
X2861076Y1250642D01*
X2861505Y1251071D01*
X2861663Y1251097D01*
X2862571Y1251167D01*
X2862874Y1251295D01*
X2863197Y1251348D01*
X2863999Y1251772D01*
X2864837Y1252128D01*
X2865162Y1252387D01*
X2865372Y1252498D01*
X2865597Y1252735D01*
X2866156Y1253182D01*
X2866464Y1253490D01*
X2868388Y1253490D01*
X2869283Y1253637D01*
X2870191Y1253707D01*
X2870494Y1253835D01*
X2870817Y1253888D01*
X2871619Y1254312D01*
X2872457Y1254668D01*
X2872782Y1254927D01*
X2872992Y1255038D01*
X2873217Y1255275D01*
X2873776Y1255722D01*
X2874084Y1256030D01*
X2876008Y1256030D01*
X2876904Y1256177D01*
X2877811Y1256247D01*
X2878113Y1256375D01*
X2878437Y1256428D01*
X2879238Y1256852D01*
X2880076Y1257207D01*
X2880402Y1257467D01*
X2880612Y1257578D01*
X2880836Y1257814D01*
X2881396Y1258262D01*
X2884478Y1261343D01*
X2884478Y1261344D01*
X2887018Y1263884D01*
X2887548Y1264622D01*
X2888140Y1265312D01*
X2888263Y1265616D01*
X2888454Y1265882D01*
X2888722Y1266751D01*
X2889062Y1267593D01*
X2889108Y1268006D01*
X2889178Y1268234D01*
X2889170Y1268560D01*
X2889172Y1268578D01*
X2894638Y1274044D01*
X2895168Y1274782D01*
X2895760Y1275472D01*
X2895883Y1275776D01*
X2896074Y1276042D01*
X2896342Y1276911D01*
X2896682Y1277753D01*
X2896728Y1278166D01*
X2896798Y1278394D01*
X2896790Y1278720D01*
X2896869Y1279432D01*
X2896869Y1281355D01*
X2897178Y1281663D01*
X2897708Y1282402D01*
X2898300Y1283091D01*
X2898423Y1283395D01*
X2898614Y1283661D01*
X2898882Y1284530D01*
X2899222Y1285373D01*
X2899268Y1285785D01*
X2899338Y1286013D01*
X2899330Y1286340D01*
X2899409Y1287051D01*
X2899409Y1291515D01*
X2899718Y1291824D01*
X2900248Y1292562D01*
X2900840Y1293252D01*
X2900963Y1293556D01*
X2901154Y1293822D01*
X2901422Y1294691D01*
X2901762Y1295533D01*
X2901808Y1295946D01*
X2901878Y1296174D01*
X2901870Y1296500D01*
X2901949Y1297212D01*
X2901949Y1299135D01*
X2902258Y1299443D01*
X2902788Y1300182D01*
X2903380Y1300871D01*
X2903503Y1301175D01*
X2903694Y1301441D01*
X2903962Y1302310D01*
X2904302Y1303153D01*
X2904348Y1303565D01*
X2904418Y1303793D01*
X2904410Y1304120D01*
X2904489Y1304831D01*
X2904489Y1316915D01*
X2904798Y1317224D01*
X2905328Y1317962D01*
X2905920Y1318652D01*
X2906043Y1318956D01*
X2906234Y1319222D01*
X2906502Y1320091D01*
X2906842Y1320933D01*
X2906888Y1321346D01*
X2906958Y1321574D01*
X2906950Y1321900D01*
X2907029Y1322612D01*
X2907029Y1575996D01*
X2919496Y1588462D01*
X2919913Y1589043D01*
X2920408Y1589563D01*
X2920628Y1590037D01*
X2920933Y1590460D01*
X2921143Y1591144D01*
X2921445Y1591794D01*
X2921503Y1592312D01*
X2921657Y1592812D01*
X2921639Y1593529D01*
X2921718Y1594239D01*
X2921608Y1594749D01*
X2921594Y1595272D01*
X2921348Y1595946D01*
X2921197Y1596644D01*
X2920930Y1597093D01*
X2920751Y1597584D01*
X2920303Y1598143D01*
X2919937Y1598758D01*
X2919540Y1599098D01*
X2919214Y1599506D01*
X2918613Y1599893D01*
X2918069Y1600360D01*
X2917583Y1600556D01*
X2917145Y1600838D01*
X2916452Y1601013D01*
X2915787Y1601282D01*
X2915076Y1601362D01*
X2914759Y1601442D01*
X2914522Y1601423D01*
X2914109Y1601469D01*
X2780571Y1601469D01*
X2779864Y1601354D01*
X2779149Y1601335D01*
X2778658Y1601156D01*
X2778143Y1601072D01*
X2777511Y1600738D01*
X2776837Y1600492D01*
X2776428Y1600165D01*
X2775967Y1599921D01*
X2775474Y1599402D01*
X2774915Y1598955D01*
X2774633Y1598517D01*
X2774272Y1598138D01*
X2773970Y1597487D01*
X2773583Y1596886D01*
X2773455Y1596380D01*
X2773234Y1595906D01*
X2773155Y1595195D01*
X2772979Y1594501D01*
X2773019Y1593979D01*
X2772962Y1593461D01*
X2773113Y1592762D01*
X2773168Y1592047D01*
X2773372Y1591565D01*
X2773483Y1591056D01*
X2773849Y1590441D01*
X2774129Y1589782D01*
X2774576Y1589223D01*
X2774743Y1588942D01*
X2774924Y1588787D01*
X2775183Y1588462D01*
X2787650Y1575996D01*
X2787650Y1317532D01*
X2787797Y1316636D01*
X2787867Y1315729D01*
X2787995Y1315426D01*
X2788048Y1315103D01*
X2788472Y1314301D01*
X2788828Y1313463D01*
X2789087Y1313138D01*
X2789198Y1312928D01*
X2789435Y1312703D01*
X2789882Y1312144D01*
X2790190Y1311835D01*
X2790190Y1302291D01*
X2790337Y1301394D01*
X2790407Y1300488D01*
X2790535Y1300186D01*
X2790588Y1299863D01*
X2791013Y1299059D01*
X2791368Y1298223D01*
X2791627Y1297898D01*
X2791738Y1297688D01*
X2791975Y1297463D01*
X2792422Y1296903D01*
X2792730Y1296595D01*
X2792730Y1287051D01*
X2792877Y1286154D01*
X2792947Y1285248D01*
X2793075Y1284946D01*
X2793128Y1284623D01*
X2793553Y1283819D01*
X2793908Y1282983D01*
X2794167Y1282658D01*
X2794278Y1282448D01*
X2794515Y1282223D01*
X2794962Y1281663D01*
X2795270Y1281355D01*
X2795270Y1279431D01*
X2795417Y1278534D01*
X2795487Y1277628D01*
X2795615Y1277326D01*
X2795668Y1277003D01*
X2796093Y1276199D01*
X2796448Y1275363D01*
X2796707Y1275038D01*
X2796818Y1274828D01*
X2797055Y1274603D01*
X2797502Y1274043D01*
X2797810Y1273735D01*
X2797810Y1271812D01*
X2797957Y1270916D01*
X2798027Y1270009D01*
X2798155Y1269706D01*
X2798208Y1269383D01*
X2798632Y1268581D01*
X2798988Y1267743D01*
X2799247Y1267418D01*
X2799358Y1267208D01*
X2799595Y1266983D01*
X2800042Y1266424D01*
X2800350Y1266115D01*
X2800350Y1264192D01*
X2800497Y1263296D01*
X2800567Y1262389D01*
X2800695Y1262086D01*
X2800748Y1261763D01*
X2801172Y1260961D01*
X2801528Y1260123D01*
X2801787Y1259798D01*
X2801898Y1259588D01*
X2802135Y1259363D01*
X2802582Y1258804D01*
X2805664Y1255722D01*
X2806402Y1255192D01*
X2807092Y1254600D01*
X2807396Y1254477D01*
X2807662Y1254286D01*
X2808531Y1254018D01*
X2809373Y1253678D01*
X2809786Y1253632D01*
X2810014Y1253561D01*
X2810340Y1253570D01*
X2811052Y1253490D01*
X2812975Y1253490D01*
X2813284Y1253182D01*
X2814022Y1252652D01*
X2814712Y1252060D01*
X2815016Y1251937D01*
X2815282Y1251746D01*
X2816151Y1251478D01*
X2816993Y1251138D01*
X2817406Y1251092D01*
X2817634Y1251021D01*
X2817960Y1251030D01*
X2817978Y1251028D01*
X2818364Y1250642D01*
X2819102Y1250112D01*
X2819792Y1249520D01*
X2820096Y1249397D01*
X2820362Y1249206D01*
X2821231Y1248938D01*
X2822073Y1248598D01*
X2822486Y1248552D01*
X2822714Y1248481D01*
X2823040Y1248490D01*
X2823058Y1248488D01*
X2823444Y1248102D01*
X2824182Y1247572D01*
X2824872Y1246980D01*
X2825176Y1246857D01*
X2825442Y1246666D01*
X2826311Y1246398D01*
X2827153Y1246058D01*
X2827566Y1246012D01*
X2827794Y1245941D01*
X2828120Y1245950D01*
X2828832Y1245870D01*
X2850608Y1245870D01*
X2851503Y1246017D01*
G37*
G36*
X709997Y1429671D02*
X709997Y1429671D01*
X710193Y1429649D01*
X711208Y1429869D01*
X712232Y1430037D01*
X712405Y1430129D01*
X712598Y1430170D01*
X713490Y1430703D01*
X714407Y1431188D01*
X714543Y1431330D01*
X714711Y1431431D01*
X715386Y1432218D01*
X716102Y1432971D01*
X716185Y1433149D01*
X716313Y1433299D01*
X716703Y1434263D01*
X717140Y1435203D01*
X717162Y1435398D01*
X717235Y1435580D01*
X717423Y1437259D01*
X717423Y1531493D01*
X717391Y1531687D01*
X717413Y1531883D01*
X717193Y1532898D01*
X717025Y1533922D01*
X716933Y1534095D01*
X716892Y1534288D01*
X716359Y1535180D01*
X715874Y1536097D01*
X715732Y1536233D01*
X715631Y1536401D01*
X714844Y1537076D01*
X714091Y1537792D01*
X713913Y1537875D01*
X713763Y1538003D01*
X712799Y1538393D01*
X711859Y1538830D01*
X711664Y1538852D01*
X711482Y1538925D01*
X709803Y1539113D01*
X704977Y1539113D01*
X704783Y1539081D01*
X704587Y1539103D01*
X703572Y1538883D01*
X702548Y1538715D01*
X702375Y1538623D01*
X702182Y1538582D01*
X701290Y1538049D01*
X700373Y1537564D01*
X700237Y1537422D01*
X700069Y1537321D01*
X699394Y1536534D01*
X698678Y1535781D01*
X698595Y1535603D01*
X698467Y1535453D01*
X698077Y1534489D01*
X697640Y1533549D01*
X697618Y1533354D01*
X697544Y1533172D01*
X697357Y1531493D01*
X697357Y1437259D01*
X697389Y1437065D01*
X697367Y1436869D01*
X697587Y1435854D01*
X697755Y1434830D01*
X697847Y1434657D01*
X697888Y1434464D01*
X698420Y1433572D01*
X698905Y1432655D01*
X699048Y1432519D01*
X699148Y1432351D01*
X699936Y1431676D01*
X700689Y1430960D01*
X700867Y1430877D01*
X701017Y1430749D01*
X701981Y1430359D01*
X702920Y1429922D01*
X703115Y1429900D01*
X703298Y1429827D01*
X704977Y1429639D01*
X709803Y1429639D01*
X709997Y1429671D01*
G37*
D10*
X2078000Y1871500D03*
X1978000Y1871500D03*
X1878000Y1871500D03*
X1778000Y1871500D03*
X1678000Y1871500D03*
X1578000Y1871500D03*
X1478000Y1871500D03*
D11*
X2393000Y2106500D03*
X1163000Y2106500D03*
D12*
X2540000Y381000D03*
X2286000Y381000D03*
X2032000Y381000D03*
X1778000Y381000D03*
X1524000Y381000D03*
X1270000Y381000D03*
X1016000Y381000D03*
D13*
X2815590Y1143000D03*
D14*
X2813050Y1145540D03*
D15*
X2810510Y1148080D03*
D16*
X2810510Y1150620D03*
D17*
X2810510Y1153160D03*
D18*
X2984500Y1153160D03*
D19*
X2810510Y1155700D03*
D18*
X2984500Y1155700D03*
D20*
X2810510Y1158240D03*
D18*
X2984500Y1158240D03*
D21*
X2810510Y1160780D03*
D18*
X2984500Y1160780D03*
D22*
X2809240Y1163320D03*
D18*
X2984500Y1163320D03*
D23*
X2809240Y1165860D03*
D18*
X2984500Y1165860D03*
D24*
X2809240Y1168400D03*
D18*
X2984500Y1168400D03*
D25*
X2810510Y1170940D03*
D18*
X2984500Y1170940D03*
D26*
X2809240Y1173480D03*
D18*
X2984500Y1173480D03*
D27*
X2809240Y1176020D03*
D18*
X2984500Y1176020D03*
D28*
X2810510Y1178560D03*
D18*
X2984500Y1178560D03*
D28*
X2810510Y1181100D03*
D18*
X2984500Y1181100D03*
D29*
X2810510Y1183640D03*
D18*
X2984500Y1183640D03*
D29*
X2810510Y1186180D03*
D18*
X2984500Y1186180D03*
D30*
X2809240Y1188720D03*
D18*
X2984500Y1188720D03*
D31*
X2810510Y1191260D03*
D18*
X2984500Y1191260D03*
D32*
X2810510Y1193800D03*
D18*
X2984500Y1193800D03*
D32*
X2810510Y1196340D03*
D18*
X2984500Y1196340D03*
D33*
X2810510Y1198880D03*
D18*
X2984500Y1198880D03*
D33*
X2810510Y1201420D03*
D18*
X2984500Y1201420D03*
D34*
X2810510Y1203960D03*
D18*
X2984500Y1203960D03*
D35*
X2810510Y1206500D03*
D18*
X2984500Y1206500D03*
D36*
X2856230Y1209040D03*
X2856230Y1211580D03*
D37*
X2854960Y1214120D03*
D38*
X2744470Y1216660D03*
D39*
X2948940Y1216660D03*
D40*
X2741930Y1219200D03*
D41*
X2951480Y1219200D03*
D42*
X2738120Y1221740D03*
D43*
X2954020Y1221740D03*
D44*
X2734310Y1224280D03*
D45*
X2957830Y1224280D03*
D15*
X2731770Y1226820D03*
D46*
X2961640Y1226820D03*
D47*
X2730500Y1229360D03*
D38*
X2962910Y1229360D03*
D47*
X2727960Y1231900D03*
D40*
X2965450Y1231900D03*
D47*
X2727960Y1234440D03*
D42*
X2966720Y1234440D03*
D48*
X2726690Y1236980D03*
D42*
X2966720Y1236980D03*
D49*
X2725420Y1239520D03*
D50*
X2969260Y1239520D03*
D51*
X2724150Y1242060D03*
D44*
X2970530Y1242060D03*
D51*
X2721610Y1244600D03*
D52*
X2971800Y1244600D03*
D53*
X2720340Y1247140D03*
D15*
X2973070Y1247140D03*
D53*
X2720340Y1249680D03*
D15*
X2973070Y1249680D03*
D51*
X2719070Y1252220D03*
D47*
X2974340Y1252220D03*
D53*
X2717800Y1254760D03*
D47*
X2974340Y1254760D03*
D53*
X2717800Y1257300D03*
D48*
X2975610Y1257300D03*
D53*
X2717800Y1259840D03*
D49*
X2976880Y1259840D03*
D54*
X2716530Y1262380D03*
D51*
X2978150Y1262380D03*
D54*
X2716530Y1264920D03*
D51*
X2978150Y1264920D03*
D54*
X2716530Y1267460D03*
D51*
X2978150Y1267460D03*
D55*
X2715260Y1270000D03*
D53*
X2979420Y1270000D03*
D55*
X2715260Y1272540D03*
D53*
X2979420Y1272540D03*
D55*
X2715260Y1275080D03*
D53*
X2979420Y1275080D03*
D54*
X2713990Y1277620D03*
D53*
X2979420Y1277620D03*
D54*
X2713990Y1280160D03*
X2980690Y1280160D03*
X2713990Y1282700D03*
X2980690Y1282700D03*
D55*
X2712720Y1285240D03*
D54*
X2980690Y1285240D03*
D55*
X2712720Y1287780D03*
X2981960Y1287780D03*
X2712720Y1290320D03*
X2981960Y1290320D03*
X2712720Y1292860D03*
X2981960Y1292860D03*
X2712720Y1295400D03*
X2981960Y1295400D03*
X2712720Y1297940D03*
X2981960Y1297940D03*
D56*
X2711450Y1300480D03*
D55*
X2981960Y1300480D03*
D56*
X2711450Y1303020D03*
D55*
X2981960Y1303020D03*
D56*
X2711450Y1305560D03*
X2983230Y1305560D03*
X2711450Y1308100D03*
X2983230Y1308100D03*
X2711450Y1310640D03*
X2983230Y1310640D03*
X2711450Y1313180D03*
X2983230Y1313180D03*
X2711450Y1315720D03*
X2983230Y1315720D03*
X2711450Y1318260D03*
X2983230Y1318260D03*
X2711450Y1320800D03*
X2983230Y1320800D03*
X2711450Y1323340D03*
X2983230Y1323340D03*
X2711450Y1325880D03*
X2983230Y1325880D03*
X2711450Y1328420D03*
X2983230Y1328420D03*
X2711450Y1330960D03*
X2983230Y1330960D03*
X2711450Y1333500D03*
X2983230Y1333500D03*
X2711450Y1336040D03*
X2983230Y1336040D03*
X2711450Y1338580D03*
X2983230Y1338580D03*
X2711450Y1341120D03*
X2983230Y1341120D03*
X2711450Y1343660D03*
X2983230Y1343660D03*
X2711450Y1346200D03*
X2983230Y1346200D03*
X2711450Y1348740D03*
X2983230Y1348740D03*
X2711450Y1351280D03*
X2983230Y1351280D03*
X2711450Y1353820D03*
X2983230Y1353820D03*
X2711450Y1356360D03*
X2983230Y1356360D03*
X2711450Y1358900D03*
X2983230Y1358900D03*
X2711450Y1361440D03*
X2983230Y1361440D03*
X2711450Y1363980D03*
X2983230Y1363980D03*
X2711450Y1366520D03*
X2983230Y1366520D03*
X2711450Y1369060D03*
X2983230Y1369060D03*
X2711450Y1371600D03*
X2983230Y1371600D03*
X2711450Y1374140D03*
X2983230Y1374140D03*
X2711450Y1376680D03*
X2983230Y1376680D03*
X2711450Y1379220D03*
X2983230Y1379220D03*
X2711450Y1381760D03*
X2983230Y1381760D03*
X2711450Y1384300D03*
X2983230Y1384300D03*
X2711450Y1386840D03*
X2983230Y1386840D03*
X2711450Y1389380D03*
X2983230Y1389380D03*
X2711450Y1391920D03*
X2983230Y1391920D03*
X2711450Y1394460D03*
X2983230Y1394460D03*
X2711450Y1397000D03*
X2983230Y1397000D03*
X2711450Y1399540D03*
X2983230Y1399540D03*
X2711450Y1402080D03*
X2983230Y1402080D03*
X2711450Y1404620D03*
X2983230Y1404620D03*
X2711450Y1407160D03*
X2983230Y1407160D03*
X2711450Y1409700D03*
X2983230Y1409700D03*
X2711450Y1412240D03*
X2983230Y1412240D03*
X2711450Y1414780D03*
X2983230Y1414780D03*
X2711450Y1417320D03*
X2983230Y1417320D03*
X2711450Y1419860D03*
X2983230Y1419860D03*
X2711450Y1422400D03*
X2983230Y1422400D03*
X2711450Y1424940D03*
X2983230Y1424940D03*
X2711450Y1427480D03*
X2983230Y1427480D03*
X2711450Y1430020D03*
X2983230Y1430020D03*
X2711450Y1432560D03*
X2983230Y1432560D03*
X2711450Y1435100D03*
X2983230Y1435100D03*
X2711450Y1437640D03*
X2983230Y1437640D03*
X2711450Y1440180D03*
X2983230Y1440180D03*
X2711450Y1442720D03*
X2983230Y1442720D03*
X2711450Y1445260D03*
X2983230Y1445260D03*
X2711450Y1447800D03*
X2983230Y1447800D03*
X2711450Y1450340D03*
X2983230Y1450340D03*
X2711450Y1452880D03*
X2983230Y1452880D03*
X2711450Y1455420D03*
X2983230Y1455420D03*
X2711450Y1457960D03*
X2983230Y1457960D03*
X2711450Y1460500D03*
X2983230Y1460500D03*
X2711450Y1463040D03*
X2983230Y1463040D03*
X2711450Y1465580D03*
X2983230Y1465580D03*
X2711450Y1468120D03*
X2983230Y1468120D03*
X2711450Y1470660D03*
X2983230Y1470660D03*
X2711450Y1473200D03*
X2983230Y1473200D03*
X2711450Y1475740D03*
X2983230Y1475740D03*
X2711450Y1478280D03*
X2983230Y1478280D03*
X2711450Y1480820D03*
X2983230Y1480820D03*
X2711450Y1483360D03*
X2983230Y1483360D03*
X2711450Y1485900D03*
X2983230Y1485900D03*
X2711450Y1488440D03*
X2983230Y1488440D03*
X2711450Y1490980D03*
X2983230Y1490980D03*
X2711450Y1493520D03*
X2983230Y1493520D03*
X2711450Y1496060D03*
X2983230Y1496060D03*
X2711450Y1498600D03*
X2983230Y1498600D03*
X2711450Y1501140D03*
X2983230Y1501140D03*
X2711450Y1503680D03*
X2983230Y1503680D03*
X2711450Y1506220D03*
X2983230Y1506220D03*
X2711450Y1508760D03*
X2983230Y1508760D03*
X2711450Y1511300D03*
X2983230Y1511300D03*
X2711450Y1513840D03*
X2983230Y1513840D03*
X2711450Y1516380D03*
X2983230Y1516380D03*
X2711450Y1518920D03*
X2983230Y1518920D03*
X2711450Y1521460D03*
X2983230Y1521460D03*
X2711450Y1524000D03*
X2983230Y1524000D03*
X2711450Y1526540D03*
X2983230Y1526540D03*
X2711450Y1529080D03*
X2983230Y1529080D03*
X2711450Y1531620D03*
X2983230Y1531620D03*
X2711450Y1534160D03*
X2983230Y1534160D03*
X2711450Y1536700D03*
X2983230Y1536700D03*
X2711450Y1539240D03*
X2983230Y1539240D03*
X2711450Y1541780D03*
X2983230Y1541780D03*
X2711450Y1544320D03*
X2983230Y1544320D03*
X2711450Y1546860D03*
X2983230Y1546860D03*
X2711450Y1549400D03*
X2983230Y1549400D03*
X2711450Y1551940D03*
X2983230Y1551940D03*
X2711450Y1554480D03*
X2983230Y1554480D03*
X2711450Y1557020D03*
X2983230Y1557020D03*
X2711450Y1559560D03*
X2983230Y1559560D03*
X2711450Y1562100D03*
X2983230Y1562100D03*
D57*
X2847340Y1633220D03*
X2847340Y1635760D03*
X2847340Y1638300D03*
X2847340Y1640840D03*
X2847340Y1643380D03*
X2847340Y1645920D03*
X2847340Y1648460D03*
X2847340Y1651000D03*
X2847340Y1653540D03*
X2847340Y1656080D03*
X2847340Y1658620D03*
X2847340Y1661160D03*
X2847340Y1663700D03*
X2847340Y1666240D03*
X2847340Y1668780D03*
X2847340Y1671320D03*
X2847340Y1673860D03*
X2847340Y1676400D03*
D58*
X2719070Y1709420D03*
X2848610Y1709420D03*
D59*
X2976880Y1709420D03*
D13*
X2719070Y1711960D03*
D60*
X2847340Y1711960D03*
D13*
X2975610Y1711960D03*
D61*
X2719070Y1714500D03*
X2848610Y1714500D03*
X2978150Y1714500D03*
D62*
X2720340Y1717040D03*
D63*
X2848610Y1717040D03*
D62*
X2976880Y1717040D03*
D64*
X2719070Y1719580D03*
X2848610Y1719580D03*
D65*
X2976880Y1719580D03*
D64*
X2719070Y1722120D03*
D66*
X2847340Y1722120D03*
X2976880Y1722120D03*
D67*
X2719070Y1724660D03*
D68*
X2847340Y1724660D03*
X2976880Y1724660D03*
D14*
X2719070Y1727200D03*
D69*
X2847340Y1727200D03*
D14*
X2978150Y1727200D03*
X2719070Y1729740D03*
X2848610Y1729740D03*
D18*
X2976880Y1729740D03*
D56*
X2719070Y1732280D03*
X2848610Y1732280D03*
D55*
X2976880Y1732280D03*
X2720340Y1734820D03*
X2847340Y1734820D03*
X2976880Y1734820D03*
D54*
X2719070Y1737360D03*
X2848610Y1737360D03*
D55*
X2976880Y1737360D03*
D54*
X2719070Y1739900D03*
D53*
X2847340Y1739900D03*
X2976880Y1739900D03*
D51*
X2719070Y1742440D03*
X2848610Y1742440D03*
D53*
X2976880Y1742440D03*
D51*
X2719070Y1744980D03*
X2848610Y1744980D03*
X2978150Y1744980D03*
X2719070Y1747520D03*
D49*
X2847340Y1747520D03*
X2976880Y1747520D03*
D51*
X2719070Y1750060D03*
D49*
X2847340Y1750060D03*
X2976880Y1750060D03*
D51*
X2719070Y1752600D03*
D49*
X2847340Y1752600D03*
X2976880Y1752600D03*
X2717800Y1755140D03*
D48*
X2848610Y1755140D03*
D49*
X2976880Y1755140D03*
X2717800Y1757680D03*
D48*
X2848610Y1757680D03*
D49*
X2976880Y1757680D03*
X2717800Y1760220D03*
D48*
X2848610Y1760220D03*
D49*
X2976880Y1760220D03*
X2717800Y1762760D03*
D48*
X2848610Y1762760D03*
D49*
X2976880Y1762760D03*
X2717800Y1765300D03*
D48*
X2848610Y1765300D03*
D49*
X2976880Y1765300D03*
D51*
X2719070Y1767840D03*
D49*
X2847340Y1767840D03*
X2976880Y1767840D03*
D51*
X2719070Y1770380D03*
D49*
X2847340Y1770380D03*
X2976880Y1770380D03*
D51*
X2719070Y1772920D03*
D49*
X2847340Y1772920D03*
D51*
X2978150Y1772920D03*
X2719070Y1775460D03*
X2848610Y1775460D03*
X2978150Y1775460D03*
X2719070Y1778000D03*
X2848610Y1778000D03*
D53*
X2976880Y1778000D03*
D54*
X2719070Y1780540D03*
D53*
X2847340Y1780540D03*
X2976880Y1780540D03*
D54*
X2719070Y1783080D03*
D53*
X2847340Y1783080D03*
D55*
X2976880Y1783080D03*
X2720340Y1785620D03*
D54*
X2848610Y1785620D03*
D55*
X2976880Y1785620D03*
D56*
X2719070Y1788160D03*
D18*
X2847340Y1788160D03*
D55*
X2976880Y1788160D03*
D14*
X2719070Y1790700D03*
X2848610Y1790700D03*
D18*
X2976880Y1790700D03*
D14*
X2719070Y1793240D03*
D69*
X2847340Y1793240D03*
X2976880Y1793240D03*
D70*
X2719070Y1795780D03*
X2848610Y1795780D03*
D68*
X2976880Y1795780D03*
D66*
X2717800Y1798320D03*
D70*
X2848610Y1798320D03*
D66*
X2976880Y1798320D03*
D64*
X2719070Y1800860D03*
X2848610Y1800860D03*
X2978150Y1800860D03*
D62*
X2720340Y1803400D03*
X2847340Y1803400D03*
X2976880Y1803400D03*
D61*
X2719070Y1805940D03*
D71*
X2847340Y1805940D03*
X2976880Y1805940D03*
D72*
X2719070Y1808480D03*
X2848610Y1808480D03*
X2975610Y1808480D03*
D73*
X2719070Y1811020D03*
X2848610Y1811020D03*
X2978150Y1811020D03*
D74*
X2849880Y1838960D03*
D75*
X2849880Y1841500D03*
D59*
X2849880Y1844040D03*
D76*
X2849880Y1846580D03*
D60*
X2849880Y1849120D03*
D71*
X2849880Y1851660D03*
D61*
X2848610Y1854200D03*
D77*
X2849880Y1856740D03*
X2849880Y1859280D03*
D62*
X2849880Y1861820D03*
X2849880Y1864360D03*
D63*
X2848610Y1866900D03*
X2848610Y1869440D03*
X2848610Y1871980D03*
X2848610Y1874520D03*
X2848610Y1877060D03*
D62*
X2849880Y1879600D03*
D77*
X2849880Y1882140D03*
X2849880Y1884680D03*
D61*
X2848610Y1887220D03*
D71*
X2849880Y1889760D03*
D13*
X2848610Y1892300D03*
D72*
X2848610Y1894840D03*
D78*
X2849880Y1897380D03*
D58*
X2848610Y1899920D03*
D79*
X2848610Y1902460D03*
D80*
X2667191Y1760220D02*
X2667206Y1761462D01*
X2667252Y1762703D01*
X2667328Y1763943D01*
X2667435Y1765181D01*
X2667572Y1766415D01*
X2667739Y1767646D01*
X2667936Y1768872D01*
X2668163Y1770093D01*
X2668421Y1771308D01*
X2668708Y1772517D01*
X2669024Y1773718D01*
X2669370Y1774911D01*
X2669745Y1776095D01*
X2670149Y1777270D01*
X2670582Y1778434D01*
X2671043Y1779587D01*
X2671533Y1780729D01*
X2672050Y1781858D01*
X2672595Y1782974D01*
X2673167Y1784077D01*
X2673766Y1785165D01*
X2674391Y1786238D01*
X2675043Y1787296D01*
X2675720Y1788337D01*
X2676423Y1789361D01*
X2677150Y1790368D01*
X2677903Y1791356D01*
X2678679Y1792326D01*
X2679478Y1793276D01*
X2680301Y1794207D01*
X2681147Y1795117D01*
X2682014Y1796006D01*
X2682903Y1796873D01*
X2683813Y1797719D01*
X2684744Y1798542D01*
X2685694Y1799341D01*
X2686664Y1800117D01*
X2687652Y1800870D01*
X2688659Y1801597D01*
X2689683Y1802300D01*
X2690724Y1802977D01*
X2691782Y1803629D01*
X2692855Y1804254D01*
X2693943Y1804853D01*
X2695046Y1805425D01*
X2696162Y1805970D01*
X2697291Y1806487D01*
X2698433Y1806977D01*
X2699586Y1807438D01*
X2700750Y1807871D01*
X2701925Y1808275D01*
X2703109Y1808650D01*
X2704302Y1808996D01*
X2705503Y1809312D01*
X2706712Y1809599D01*
X2707927Y1809857D01*
X2709148Y1810084D01*
X2710374Y1810281D01*
X2711605Y1810448D01*
X2712839Y1810585D01*
X2714077Y1810692D01*
X2715317Y1810768D01*
X2716558Y1810814D01*
X2717800Y1810829D01*
X2719042Y1810814D01*
X2720283Y1810768D01*
X2721523Y1810692D01*
X2722761Y1810585D01*
X2723995Y1810448D01*
X2725226Y1810281D01*
X2726452Y1810084D01*
X2727673Y1809857D01*
X2728888Y1809599D01*
X2730097Y1809312D01*
X2731298Y1808996D01*
X2732491Y1808650D01*
X2733675Y1808275D01*
X2734850Y1807871D01*
X2736014Y1807438D01*
X2737167Y1806977D01*
X2738309Y1806487D01*
X2739438Y1805970D01*
X2740554Y1805425D01*
X2741657Y1804853D01*
X2742745Y1804254D01*
X2743818Y1803629D01*
X2744876Y1802977D01*
X2745917Y1802300D01*
X2746941Y1801597D01*
X2747948Y1800870D01*
X2748936Y1800117D01*
X2749906Y1799341D01*
X2750856Y1798542D01*
X2751787Y1797719D01*
X2752697Y1796873D01*
X2753586Y1796006D01*
X2754453Y1795117D01*
X2755299Y1794207D01*
X2756122Y1793276D01*
X2756921Y1792326D01*
X2757697Y1791356D01*
X2758450Y1790368D01*
X2759177Y1789361D01*
X2759880Y1788337D01*
X2760557Y1787296D01*
X2761209Y1786238D01*
X2761834Y1785165D01*
X2762433Y1784077D01*
X2763005Y1782974D01*
X2763550Y1781858D01*
X2764067Y1780729D01*
X2764557Y1779587D01*
X2765018Y1778434D01*
X2765451Y1777270D01*
X2765855Y1776095D01*
X2766230Y1774911D01*
X2766576Y1773718D01*
X2766892Y1772517D01*
X2767179Y1771308D01*
X2767437Y1770093D01*
X2767664Y1768872D01*
X2767861Y1767646D01*
X2768028Y1766415D01*
X2768165Y1765181D01*
X2768272Y1763943D01*
X2768348Y1762703D01*
X2768394Y1761462D01*
X2768409Y1760220D01*
X2768394Y1758978D01*
X2768348Y1757737D01*
X2768272Y1756497D01*
X2768165Y1755259D01*
X2768028Y1754025D01*
X2767861Y1752794D01*
X2767664Y1751568D01*
X2767437Y1750347D01*
X2767179Y1749132D01*
X2766892Y1747923D01*
X2766576Y1746722D01*
X2766230Y1745529D01*
X2765855Y1744345D01*
X2765451Y1743170D01*
X2765018Y1742006D01*
X2764557Y1740853D01*
X2764067Y1739711D01*
X2763550Y1738582D01*
X2763005Y1737466D01*
X2762433Y1736363D01*
X2761834Y1735275D01*
X2761209Y1734202D01*
X2760557Y1733144D01*
X2759880Y1732103D01*
X2759177Y1731079D01*
X2758450Y1730072D01*
X2757697Y1729084D01*
X2756921Y1728114D01*
X2756122Y1727164D01*
X2755299Y1726233D01*
X2754453Y1725323D01*
X2753586Y1724434D01*
X2752697Y1723567D01*
X2751787Y1722721D01*
X2750856Y1721898D01*
X2749906Y1721099D01*
X2748936Y1720323D01*
X2747948Y1719570D01*
X2746941Y1718843D01*
X2745917Y1718140D01*
X2744876Y1717463D01*
X2743818Y1716811D01*
X2742745Y1716186D01*
X2741657Y1715587D01*
X2740554Y1715015D01*
X2739438Y1714470D01*
X2738309Y1713953D01*
X2737167Y1713463D01*
X2736014Y1713002D01*
X2734850Y1712569D01*
X2733675Y1712165D01*
X2732491Y1711790D01*
X2731298Y1711444D01*
X2730097Y1711128D01*
X2728888Y1710841D01*
X2727673Y1710583D01*
X2726452Y1710356D01*
X2725226Y1710159D01*
X2723995Y1709992D01*
X2722761Y1709855D01*
X2721523Y1709748D01*
X2720283Y1709672D01*
X2719042Y1709626D01*
X2717800Y1709611D01*
X2716558Y1709626D01*
X2715317Y1709672D01*
X2714077Y1709748D01*
X2712839Y1709855D01*
X2711605Y1709992D01*
X2710374Y1710159D01*
X2709148Y1710356D01*
X2707927Y1710583D01*
X2706712Y1710841D01*
X2705503Y1711128D01*
X2704302Y1711444D01*
X2703109Y1711790D01*
X2701925Y1712165D01*
X2700750Y1712569D01*
X2699586Y1713002D01*
X2698433Y1713463D01*
X2697291Y1713953D01*
X2696162Y1714470D01*
X2695046Y1715015D01*
X2693943Y1715587D01*
X2692855Y1716186D01*
X2691782Y1716811D01*
X2690724Y1717463D01*
X2689683Y1718140D01*
X2688659Y1718843D01*
X2687652Y1719570D01*
X2686664Y1720323D01*
X2685694Y1721099D01*
X2684744Y1721898D01*
X2683813Y1722721D01*
X2682903Y1723567D01*
X2682014Y1724434D01*
X2681147Y1725323D01*
X2680301Y1726233D01*
X2679478Y1727164D01*
X2678679Y1728114D01*
X2677903Y1729084D01*
X2677150Y1730072D01*
X2676423Y1731079D01*
X2675720Y1732103D01*
X2675043Y1733144D01*
X2674391Y1734202D01*
X2673766Y1735275D01*
X2673167Y1736363D01*
X2672595Y1737466D01*
X2672050Y1738582D01*
X2671533Y1739711D01*
X2671043Y1740853D01*
X2670582Y1742006D01*
X2670149Y1743170D01*
X2669745Y1744345D01*
X2669370Y1745529D01*
X2669024Y1746722D01*
X2668708Y1747923D01*
X2668421Y1749132D01*
X2668163Y1750347D01*
X2667936Y1751568D01*
X2667739Y1752794D01*
X2667572Y1754025D01*
X2667435Y1755259D01*
X2667328Y1756497D01*
X2667252Y1757737D01*
X2667206Y1758978D01*
X2667191Y1760220D01*
X2797051Y1760220D02*
X2797066Y1761454D01*
X2797112Y1762688D01*
X2797187Y1763919D01*
X2797293Y1765149D01*
X2797429Y1766376D01*
X2797595Y1767599D01*
X2797791Y1768818D01*
X2798017Y1770031D01*
X2798273Y1771238D01*
X2798558Y1772439D01*
X2798873Y1773633D01*
X2799216Y1774818D01*
X2799589Y1775995D01*
X2799991Y1777162D01*
X2800421Y1778319D01*
X2800879Y1779465D01*
X2801365Y1780599D01*
X2801879Y1781721D01*
X2802421Y1782831D01*
X2802989Y1783926D01*
X2803584Y1785007D01*
X2804206Y1786074D01*
X2804853Y1787124D01*
X2805526Y1788159D01*
X2806224Y1789177D01*
X2806947Y1790177D01*
X2807695Y1791159D01*
X2808466Y1792123D01*
X2809261Y1793067D01*
X2810078Y1793992D01*
X2810918Y1794896D01*
X2811780Y1795780D01*
X2812664Y1796642D01*
X2813568Y1797482D01*
X2814493Y1798299D01*
X2815437Y1799094D01*
X2816401Y1799865D01*
X2817383Y1800613D01*
X2818383Y1801336D01*
X2819401Y1802034D01*
X2820436Y1802707D01*
X2821486Y1803354D01*
X2822553Y1803976D01*
X2823634Y1804571D01*
X2824729Y1805139D01*
X2825839Y1805681D01*
X2826961Y1806195D01*
X2828095Y1806681D01*
X2829241Y1807139D01*
X2830398Y1807569D01*
X2831565Y1807971D01*
X2832742Y1808344D01*
X2833927Y1808687D01*
X2835121Y1809002D01*
X2836322Y1809287D01*
X2837529Y1809543D01*
X2838742Y1809769D01*
X2839961Y1809965D01*
X2841184Y1810131D01*
X2842411Y1810267D01*
X2843641Y1810373D01*
X2844872Y1810448D01*
X2846106Y1810494D01*
X2847340Y1810509D01*
X2848574Y1810494D01*
X2849808Y1810448D01*
X2851039Y1810373D01*
X2852269Y1810267D01*
X2853496Y1810131D01*
X2854719Y1809965D01*
X2855938Y1809769D01*
X2857151Y1809543D01*
X2858358Y1809287D01*
X2859559Y1809002D01*
X2860753Y1808687D01*
X2861938Y1808344D01*
X2863115Y1807971D01*
X2864282Y1807569D01*
X2865439Y1807139D01*
X2866585Y1806681D01*
X2867719Y1806195D01*
X2868841Y1805681D01*
X2869951Y1805139D01*
X2871046Y1804571D01*
X2872127Y1803976D01*
X2873194Y1803354D01*
X2874244Y1802707D01*
X2875279Y1802034D01*
X2876297Y1801336D01*
X2877297Y1800613D01*
X2878279Y1799865D01*
X2879243Y1799094D01*
X2880187Y1798299D01*
X2881112Y1797482D01*
X2882016Y1796642D01*
X2882900Y1795780D01*
X2883762Y1794896D01*
X2884602Y1793992D01*
X2885419Y1793067D01*
X2886214Y1792123D01*
X2886985Y1791159D01*
X2887733Y1790177D01*
X2888456Y1789177D01*
X2889154Y1788159D01*
X2889827Y1787124D01*
X2890474Y1786074D01*
X2891096Y1785007D01*
X2891691Y1783926D01*
X2892259Y1782831D01*
X2892801Y1781721D01*
X2893315Y1780599D01*
X2893801Y1779465D01*
X2894259Y1778319D01*
X2894689Y1777162D01*
X2895091Y1775995D01*
X2895464Y1774818D01*
X2895807Y1773633D01*
X2896122Y1772439D01*
X2896407Y1771238D01*
X2896663Y1770031D01*
X2896889Y1768818D01*
X2897085Y1767599D01*
X2897251Y1766376D01*
X2897387Y1765149D01*
X2897493Y1763919D01*
X2897568Y1762688D01*
X2897614Y1761454D01*
X2897629Y1760220D01*
X2897614Y1758986D01*
X2897568Y1757752D01*
X2897493Y1756521D01*
X2897387Y1755291D01*
X2897251Y1754064D01*
X2897085Y1752841D01*
X2896889Y1751622D01*
X2896663Y1750409D01*
X2896407Y1749202D01*
X2896122Y1748001D01*
X2895807Y1746807D01*
X2895464Y1745622D01*
X2895091Y1744445D01*
X2894689Y1743278D01*
X2894259Y1742121D01*
X2893801Y1740975D01*
X2893315Y1739841D01*
X2892801Y1738719D01*
X2892259Y1737609D01*
X2891691Y1736514D01*
X2891096Y1735433D01*
X2890474Y1734366D01*
X2889827Y1733316D01*
X2889154Y1732281D01*
X2888456Y1731263D01*
X2887733Y1730263D01*
X2886985Y1729281D01*
X2886214Y1728317D01*
X2885419Y1727373D01*
X2884602Y1726448D01*
X2883762Y1725544D01*
X2882900Y1724660D01*
X2882016Y1723798D01*
X2881112Y1722958D01*
X2880187Y1722141D01*
X2879243Y1721346D01*
X2878279Y1720575D01*
X2877297Y1719827D01*
X2876297Y1719104D01*
X2875279Y1718406D01*
X2874244Y1717733D01*
X2873194Y1717086D01*
X2872127Y1716464D01*
X2871046Y1715869D01*
X2869951Y1715301D01*
X2868841Y1714759D01*
X2867719Y1714245D01*
X2866585Y1713759D01*
X2865439Y1713301D01*
X2864282Y1712871D01*
X2863115Y1712469D01*
X2861938Y1712096D01*
X2860753Y1711753D01*
X2859559Y1711438D01*
X2858358Y1711153D01*
X2857151Y1710897D01*
X2855938Y1710671D01*
X2854719Y1710475D01*
X2853496Y1710309D01*
X2852269Y1710173D01*
X2851039Y1710067D01*
X2849808Y1709992D01*
X2848574Y1709946D01*
X2847340Y1709931D01*
X2846106Y1709946D01*
X2844872Y1709992D01*
X2843641Y1710067D01*
X2842411Y1710173D01*
X2841184Y1710309D01*
X2839961Y1710475D01*
X2838742Y1710671D01*
X2837529Y1710897D01*
X2836322Y1711153D01*
X2835121Y1711438D01*
X2833927Y1711753D01*
X2832742Y1712096D01*
X2831565Y1712469D01*
X2830398Y1712871D01*
X2829241Y1713301D01*
X2828095Y1713759D01*
X2826961Y1714245D01*
X2825839Y1714759D01*
X2824729Y1715301D01*
X2823634Y1715869D01*
X2822553Y1716464D01*
X2821486Y1717086D01*
X2820436Y1717733D01*
X2819401Y1718406D01*
X2818383Y1719104D01*
X2817383Y1719827D01*
X2816401Y1720575D01*
X2815437Y1721346D01*
X2814493Y1722141D01*
X2813568Y1722958D01*
X2812664Y1723798D01*
X2811780Y1724660D01*
X2810918Y1725544D01*
X2810078Y1726448D01*
X2809261Y1727373D01*
X2808466Y1728317D01*
X2807695Y1729281D01*
X2806947Y1730263D01*
X2806224Y1731263D01*
X2805526Y1732281D01*
X2804853Y1733316D01*
X2804206Y1734366D01*
X2803584Y1735433D01*
X2802989Y1736514D01*
X2802421Y1737609D01*
X2801879Y1738719D01*
X2801365Y1739841D01*
X2800879Y1740975D01*
X2800421Y1742121D01*
X2799991Y1743278D01*
X2799589Y1744445D01*
X2799216Y1745622D01*
X2798873Y1746807D01*
X2798558Y1748001D01*
X2798273Y1749202D01*
X2798017Y1750409D01*
X2797791Y1751622D01*
X2797595Y1752841D01*
X2797429Y1754064D01*
X2797293Y1755291D01*
X2797187Y1756521D01*
X2797112Y1757752D01*
X2797066Y1758986D01*
X2797051Y1760220D01*
X2927562Y1760220D02*
X2927577Y1761430D01*
X2927621Y1762640D01*
X2927696Y1763848D01*
X2927799Y1765054D01*
X2927933Y1766257D01*
X2928096Y1767456D01*
X2928288Y1768651D01*
X2928510Y1769841D01*
X2928760Y1771026D01*
X2929040Y1772203D01*
X2929348Y1773374D01*
X2929686Y1774536D01*
X2930051Y1775690D01*
X2930445Y1776835D01*
X2930867Y1777969D01*
X2931316Y1779093D01*
X2931793Y1780206D01*
X2932297Y1781306D01*
X2932828Y1782394D01*
X2933385Y1783468D01*
X2933969Y1784529D01*
X2934579Y1785575D01*
X2935214Y1786605D01*
X2935874Y1787620D01*
X2936558Y1788618D01*
X2937267Y1789599D01*
X2938000Y1790562D01*
X2938757Y1791507D01*
X2939536Y1792433D01*
X2940338Y1793340D01*
X2941162Y1794227D01*
X2942007Y1795093D01*
X2942873Y1795938D01*
X2943760Y1796762D01*
X2944667Y1797564D01*
X2945593Y1798343D01*
X2946538Y1799100D01*
X2947501Y1799833D01*
X2948482Y1800542D01*
X2949480Y1801226D01*
X2950495Y1801886D01*
X2951525Y1802521D01*
X2952571Y1803131D01*
X2953632Y1803715D01*
X2954706Y1804272D01*
X2955794Y1804803D01*
X2956894Y1805307D01*
X2958007Y1805784D01*
X2959131Y1806233D01*
X2960265Y1806655D01*
X2961410Y1807049D01*
X2962564Y1807414D01*
X2963726Y1807752D01*
X2964897Y1808060D01*
X2966074Y1808340D01*
X2967259Y1808590D01*
X2968449Y1808812D01*
X2969644Y1809004D01*
X2970843Y1809167D01*
X2972046Y1809301D01*
X2973252Y1809404D01*
X2974460Y1809479D01*
X2975670Y1809523D01*
X2976880Y1809538D01*
X2978090Y1809523D01*
X2979300Y1809479D01*
X2980508Y1809404D01*
X2981714Y1809301D01*
X2982917Y1809167D01*
X2984116Y1809004D01*
X2985311Y1808812D01*
X2986501Y1808590D01*
X2987686Y1808340D01*
X2988863Y1808060D01*
X2990034Y1807752D01*
X2991196Y1807414D01*
X2992350Y1807049D01*
X2993495Y1806655D01*
X2994629Y1806233D01*
X2995753Y1805784D01*
X2996866Y1805307D01*
X2997966Y1804803D01*
X2999054Y1804272D01*
X3000128Y1803715D01*
X3001189Y1803131D01*
X3002235Y1802521D01*
X3003265Y1801886D01*
X3004280Y1801226D01*
X3005278Y1800542D01*
X3006259Y1799833D01*
X3007222Y1799100D01*
X3008167Y1798343D01*
X3009093Y1797564D01*
X3010000Y1796762D01*
X3010887Y1795938D01*
X3011753Y1795093D01*
X3012598Y1794227D01*
X3013422Y1793340D01*
X3014224Y1792433D01*
X3015003Y1791507D01*
X3015760Y1790562D01*
X3016493Y1789599D01*
X3017202Y1788618D01*
X3017886Y1787620D01*
X3018546Y1786605D01*
X3019181Y1785575D01*
X3019791Y1784529D01*
X3020375Y1783468D01*
X3020932Y1782394D01*
X3021463Y1781306D01*
X3021967Y1780206D01*
X3022444Y1779093D01*
X3022893Y1777969D01*
X3023315Y1776835D01*
X3023709Y1775690D01*
X3024074Y1774536D01*
X3024412Y1773374D01*
X3024720Y1772203D01*
X3025000Y1771026D01*
X3025250Y1769841D01*
X3025472Y1768651D01*
X3025664Y1767456D01*
X3025827Y1766257D01*
X3025961Y1765054D01*
X3026064Y1763848D01*
X3026139Y1762640D01*
X3026183Y1761430D01*
X3026198Y1760220D01*
X3026183Y1759010D01*
X3026139Y1757800D01*
X3026064Y1756592D01*
X3025961Y1755386D01*
X3025827Y1754183D01*
X3025664Y1752984D01*
X3025472Y1751789D01*
X3025250Y1750599D01*
X3025000Y1749414D01*
X3024720Y1748237D01*
X3024412Y1747066D01*
X3024074Y1745904D01*
X3023709Y1744750D01*
X3023315Y1743605D01*
X3022893Y1742471D01*
X3022444Y1741347D01*
X3021967Y1740234D01*
X3021463Y1739134D01*
X3020932Y1738046D01*
X3020375Y1736972D01*
X3019791Y1735911D01*
X3019181Y1734865D01*
X3018546Y1733835D01*
X3017886Y1732820D01*
X3017202Y1731822D01*
X3016493Y1730841D01*
X3015760Y1729878D01*
X3015003Y1728933D01*
X3014224Y1728007D01*
X3013422Y1727100D01*
X3012598Y1726213D01*
X3011753Y1725347D01*
X3010887Y1724502D01*
X3010000Y1723678D01*
X3009093Y1722876D01*
X3008167Y1722097D01*
X3007222Y1721340D01*
X3006259Y1720607D01*
X3005278Y1719898D01*
X3004280Y1719214D01*
X3003265Y1718554D01*
X3002235Y1717919D01*
X3001189Y1717309D01*
X3000128Y1716725D01*
X2999054Y1716168D01*
X2997966Y1715637D01*
X2996866Y1715133D01*
X2995753Y1714656D01*
X2994629Y1714207D01*
X2993495Y1713785D01*
X2992350Y1713391D01*
X2991196Y1713026D01*
X2990034Y1712688D01*
X2988863Y1712380D01*
X2987686Y1712100D01*
X2986501Y1711850D01*
X2985311Y1711628D01*
X2984116Y1711436D01*
X2982917Y1711273D01*
X2981714Y1711139D01*
X2980508Y1711036D01*
X2979300Y1710961D01*
X2978090Y1710917D01*
X2976880Y1710902D01*
X2975670Y1710917D01*
X2974460Y1710961D01*
X2973252Y1711036D01*
X2972046Y1711139D01*
X2970843Y1711273D01*
X2969644Y1711436D01*
X2968449Y1711628D01*
X2967259Y1711850D01*
X2966074Y1712100D01*
X2964897Y1712380D01*
X2963726Y1712688D01*
X2962564Y1713026D01*
X2961410Y1713391D01*
X2960265Y1713785D01*
X2959131Y1714207D01*
X2958007Y1714656D01*
X2956894Y1715133D01*
X2955794Y1715637D01*
X2954706Y1716168D01*
X2953632Y1716725D01*
X2952571Y1717309D01*
X2951525Y1717919D01*
X2950495Y1718554D01*
X2949480Y1719214D01*
X2948482Y1719898D01*
X2947501Y1720607D01*
X2946538Y1721340D01*
X2945593Y1722097D01*
X2944667Y1722876D01*
X2943760Y1723678D01*
X2942873Y1724502D01*
X2942007Y1725347D01*
X2941162Y1726213D01*
X2940338Y1727100D01*
X2939536Y1728007D01*
X2938757Y1728933D01*
X2938000Y1729878D01*
X2937267Y1730841D01*
X2936558Y1731822D01*
X2935874Y1732820D01*
X2935214Y1733835D01*
X2934579Y1734865D01*
X2933969Y1735911D01*
X2933385Y1736972D01*
X2932828Y1738046D01*
X2932297Y1739134D01*
X2931793Y1740234D01*
X2931316Y1741347D01*
X2930867Y1742471D01*
X2930445Y1743605D01*
X2930051Y1744750D01*
X2929686Y1745904D01*
X2929348Y1747066D01*
X2929040Y1748237D01*
X2928760Y1749414D01*
X2928510Y1750599D01*
X2928288Y1751789D01*
X2928096Y1752984D01*
X2927933Y1754183D01*
X2927799Y1755386D01*
X2927696Y1756592D01*
X2927621Y1757800D01*
X2927577Y1759010D01*
X2927562Y1760220D01*
X2844800Y1871980D02*
X2844802Y1872080D01*
X2844808Y1872181D01*
X2844818Y1872280D01*
X2844832Y1872380D01*
X2844849Y1872479D01*
X2844871Y1872577D01*
X2844897Y1872674D01*
X2844926Y1872770D01*
X2844959Y1872864D01*
X2844996Y1872958D01*
X2845036Y1873050D01*
X2845080Y1873140D01*
X2845128Y1873228D01*
X2845179Y1873315D01*
X2845233Y1873399D01*
X2845291Y1873481D01*
X2845352Y1873561D01*
X2845416Y1873638D01*
X2845483Y1873713D01*
X2845553Y1873785D01*
X2845626Y1873854D01*
X2845701Y1873920D01*
X2845779Y1873984D01*
X2845859Y1874044D01*
X2845942Y1874101D01*
X2846027Y1874154D01*
X2846114Y1874204D01*
X2846203Y1874251D01*
X2846293Y1874294D01*
X2846385Y1874334D01*
X2846479Y1874370D01*
X2846574Y1874402D01*
X2846670Y1874430D01*
X2846768Y1874455D01*
X2846866Y1874475D01*
X2846965Y1874492D01*
X2847065Y1874505D01*
X2847164Y1874514D01*
X2847265Y1874519D01*
X2847365Y1874520D01*
X2847465Y1874517D01*
X2847566Y1874510D01*
X2847665Y1874499D01*
X2847765Y1874484D01*
X2847863Y1874466D01*
X2847961Y1874443D01*
X2848058Y1874416D01*
X2848153Y1874386D01*
X2848248Y1874352D01*
X2848341Y1874314D01*
X2848432Y1874273D01*
X2848522Y1874228D01*
X2848610Y1874180D01*
X2848696Y1874128D01*
X2848780Y1874073D01*
X2848861Y1874014D01*
X2848940Y1873952D01*
X2849017Y1873888D01*
X2849091Y1873820D01*
X2849162Y1873749D01*
X2849231Y1873676D01*
X2849296Y1873600D01*
X2849359Y1873521D01*
X2849418Y1873440D01*
X2849474Y1873357D01*
X2849527Y1873272D01*
X2849576Y1873184D01*
X2849622Y1873095D01*
X2849664Y1873004D01*
X2849703Y1872911D01*
X2849738Y1872817D01*
X2849769Y1872722D01*
X2849797Y1872625D01*
X2849820Y1872528D01*
X2849840Y1872429D01*
X2849856Y1872330D01*
X2849868Y1872231D01*
X2849876Y1872130D01*
X2849880Y1872030D01*
X2849880Y1871930D01*
X2849876Y1871830D01*
X2849868Y1871729D01*
X2849856Y1871630D01*
X2849840Y1871531D01*
X2849820Y1871432D01*
X2849797Y1871335D01*
X2849769Y1871238D01*
X2849738Y1871143D01*
X2849703Y1871049D01*
X2849664Y1870956D01*
X2849622Y1870865D01*
X2849576Y1870776D01*
X2849527Y1870688D01*
X2849474Y1870603D01*
X2849418Y1870520D01*
X2849359Y1870439D01*
X2849296Y1870360D01*
X2849231Y1870284D01*
X2849162Y1870211D01*
X2849091Y1870140D01*
X2849017Y1870072D01*
X2848940Y1870008D01*
X2848861Y1869946D01*
X2848780Y1869887D01*
X2848696Y1869832D01*
X2848610Y1869780D01*
X2848522Y1869732D01*
X2848432Y1869687D01*
X2848341Y1869646D01*
X2848248Y1869608D01*
X2848153Y1869574D01*
X2848058Y1869544D01*
X2847961Y1869517D01*
X2847863Y1869494D01*
X2847765Y1869476D01*
X2847665Y1869461D01*
X2847566Y1869450D01*
X2847465Y1869443D01*
X2847365Y1869440D01*
X2847265Y1869441D01*
X2847164Y1869446D01*
X2847065Y1869455D01*
X2846965Y1869468D01*
X2846866Y1869485D01*
X2846768Y1869505D01*
X2846670Y1869530D01*
X2846574Y1869558D01*
X2846479Y1869590D01*
X2846385Y1869626D01*
X2846293Y1869666D01*
X2846203Y1869709D01*
X2846114Y1869756D01*
X2846027Y1869806D01*
X2845942Y1869859D01*
X2845859Y1869916D01*
X2845779Y1869976D01*
X2845701Y1870040D01*
X2845626Y1870106D01*
X2845553Y1870175D01*
X2845483Y1870247D01*
X2845416Y1870322D01*
X2845352Y1870399D01*
X2845291Y1870479D01*
X2845233Y1870561D01*
X2845179Y1870645D01*
X2845128Y1870732D01*
X2845080Y1870820D01*
X2845036Y1870910D01*
X2844996Y1871002D01*
X2844959Y1871096D01*
X2844926Y1871190D01*
X2844897Y1871286D01*
X2844871Y1871383D01*
X2844849Y1871481D01*
X2844832Y1871580D01*
X2844818Y1871680D01*
X2844808Y1871779D01*
X2844802Y1871880D01*
X2844800Y1871980D01*
X2847340Y1871980D02*
X2847342Y1872080D01*
X2847348Y1872181D01*
X2847358Y1872280D01*
X2847372Y1872380D01*
X2847389Y1872479D01*
X2847411Y1872577D01*
X2847437Y1872674D01*
X2847466Y1872770D01*
X2847499Y1872864D01*
X2847536Y1872958D01*
X2847576Y1873050D01*
X2847620Y1873140D01*
X2847668Y1873228D01*
X2847719Y1873315D01*
X2847773Y1873399D01*
X2847831Y1873481D01*
X2847892Y1873561D01*
X2847956Y1873638D01*
X2848023Y1873713D01*
X2848093Y1873785D01*
X2848166Y1873854D01*
X2848241Y1873920D01*
X2848319Y1873984D01*
X2848399Y1874044D01*
X2848482Y1874101D01*
X2848567Y1874154D01*
X2848654Y1874204D01*
X2848743Y1874251D01*
X2848833Y1874294D01*
X2848925Y1874334D01*
X2849019Y1874370D01*
X2849114Y1874402D01*
X2849210Y1874430D01*
X2849308Y1874455D01*
X2849406Y1874475D01*
X2849505Y1874492D01*
X2849605Y1874505D01*
X2849704Y1874514D01*
X2849805Y1874519D01*
X2849905Y1874520D01*
X2850005Y1874517D01*
X2850106Y1874510D01*
X2850205Y1874499D01*
X2850305Y1874484D01*
X2850403Y1874466D01*
X2850501Y1874443D01*
X2850598Y1874416D01*
X2850693Y1874386D01*
X2850788Y1874352D01*
X2850881Y1874314D01*
X2850972Y1874273D01*
X2851062Y1874228D01*
X2851150Y1874180D01*
X2851236Y1874128D01*
X2851320Y1874073D01*
X2851401Y1874014D01*
X2851480Y1873952D01*
X2851557Y1873888D01*
X2851631Y1873820D01*
X2851702Y1873749D01*
X2851771Y1873676D01*
X2851836Y1873600D01*
X2851899Y1873521D01*
X2851958Y1873440D01*
X2852014Y1873357D01*
X2852067Y1873272D01*
X2852116Y1873184D01*
X2852162Y1873095D01*
X2852204Y1873004D01*
X2852243Y1872911D01*
X2852278Y1872817D01*
X2852309Y1872722D01*
X2852337Y1872625D01*
X2852360Y1872528D01*
X2852380Y1872429D01*
X2852396Y1872330D01*
X2852408Y1872231D01*
X2852416Y1872130D01*
X2852420Y1872030D01*
X2852420Y1871930D01*
X2852416Y1871830D01*
X2852408Y1871729D01*
X2852396Y1871630D01*
X2852380Y1871531D01*
X2852360Y1871432D01*
X2852337Y1871335D01*
X2852309Y1871238D01*
X2852278Y1871143D01*
X2852243Y1871049D01*
X2852204Y1870956D01*
X2852162Y1870865D01*
X2852116Y1870776D01*
X2852067Y1870688D01*
X2852014Y1870603D01*
X2851958Y1870520D01*
X2851899Y1870439D01*
X2851836Y1870360D01*
X2851771Y1870284D01*
X2851702Y1870211D01*
X2851631Y1870140D01*
X2851557Y1870072D01*
X2851480Y1870008D01*
X2851401Y1869946D01*
X2851320Y1869887D01*
X2851236Y1869832D01*
X2851150Y1869780D01*
X2851062Y1869732D01*
X2850972Y1869687D01*
X2850881Y1869646D01*
X2850788Y1869608D01*
X2850693Y1869574D01*
X2850598Y1869544D01*
X2850501Y1869517D01*
X2850403Y1869494D01*
X2850305Y1869476D01*
X2850205Y1869461D01*
X2850106Y1869450D01*
X2850005Y1869443D01*
X2849905Y1869440D01*
X2849805Y1869441D01*
X2849704Y1869446D01*
X2849605Y1869455D01*
X2849505Y1869468D01*
X2849406Y1869485D01*
X2849308Y1869505D01*
X2849210Y1869530D01*
X2849114Y1869558D01*
X2849019Y1869590D01*
X2848925Y1869626D01*
X2848833Y1869666D01*
X2848743Y1869709D01*
X2848654Y1869756D01*
X2848567Y1869806D01*
X2848482Y1869859D01*
X2848399Y1869916D01*
X2848319Y1869976D01*
X2848241Y1870040D01*
X2848166Y1870106D01*
X2848093Y1870175D01*
X2848023Y1870247D01*
X2847956Y1870322D01*
X2847892Y1870399D01*
X2847831Y1870479D01*
X2847773Y1870561D01*
X2847719Y1870645D01*
X2847668Y1870732D01*
X2847620Y1870820D01*
X2847576Y1870910D01*
X2847536Y1871002D01*
X2847499Y1871096D01*
X2847466Y1871190D01*
X2847437Y1871286D01*
X2847411Y1871383D01*
X2847389Y1871481D01*
X2847372Y1871580D01*
X2847358Y1871680D01*
X2847348Y1871779D01*
X2847342Y1871880D01*
X2847340Y1871980D01*
X2847340Y1869440D02*
X2847342Y1869540D01*
X2847348Y1869641D01*
X2847358Y1869740D01*
X2847372Y1869840D01*
X2847389Y1869939D01*
X2847411Y1870037D01*
X2847437Y1870134D01*
X2847466Y1870230D01*
X2847499Y1870324D01*
X2847536Y1870418D01*
X2847576Y1870510D01*
X2847620Y1870600D01*
X2847668Y1870688D01*
X2847719Y1870775D01*
X2847773Y1870859D01*
X2847831Y1870941D01*
X2847892Y1871021D01*
X2847956Y1871098D01*
X2848023Y1871173D01*
X2848093Y1871245D01*
X2848166Y1871314D01*
X2848241Y1871380D01*
X2848319Y1871444D01*
X2848399Y1871504D01*
X2848482Y1871561D01*
X2848567Y1871614D01*
X2848654Y1871664D01*
X2848743Y1871711D01*
X2848833Y1871754D01*
X2848925Y1871794D01*
X2849019Y1871830D01*
X2849114Y1871862D01*
X2849210Y1871890D01*
X2849308Y1871915D01*
X2849406Y1871935D01*
X2849505Y1871952D01*
X2849605Y1871965D01*
X2849704Y1871974D01*
X2849805Y1871979D01*
X2849905Y1871980D01*
X2850005Y1871977D01*
X2850106Y1871970D01*
X2850205Y1871959D01*
X2850305Y1871944D01*
X2850403Y1871926D01*
X2850501Y1871903D01*
X2850598Y1871876D01*
X2850693Y1871846D01*
X2850788Y1871812D01*
X2850881Y1871774D01*
X2850972Y1871733D01*
X2851062Y1871688D01*
X2851150Y1871640D01*
X2851236Y1871588D01*
X2851320Y1871533D01*
X2851401Y1871474D01*
X2851480Y1871412D01*
X2851557Y1871348D01*
X2851631Y1871280D01*
X2851702Y1871209D01*
X2851771Y1871136D01*
X2851836Y1871060D01*
X2851899Y1870981D01*
X2851958Y1870900D01*
X2852014Y1870817D01*
X2852067Y1870732D01*
X2852116Y1870644D01*
X2852162Y1870555D01*
X2852204Y1870464D01*
X2852243Y1870371D01*
X2852278Y1870277D01*
X2852309Y1870182D01*
X2852337Y1870085D01*
X2852360Y1869988D01*
X2852380Y1869889D01*
X2852396Y1869790D01*
X2852408Y1869691D01*
X2852416Y1869590D01*
X2852420Y1869490D01*
X2852420Y1869390D01*
X2852416Y1869290D01*
X2852408Y1869189D01*
X2852396Y1869090D01*
X2852380Y1868991D01*
X2852360Y1868892D01*
X2852337Y1868795D01*
X2852309Y1868698D01*
X2852278Y1868603D01*
X2852243Y1868509D01*
X2852204Y1868416D01*
X2852162Y1868325D01*
X2852116Y1868236D01*
X2852067Y1868148D01*
X2852014Y1868063D01*
X2851958Y1867980D01*
X2851899Y1867899D01*
X2851836Y1867820D01*
X2851771Y1867744D01*
X2851702Y1867671D01*
X2851631Y1867600D01*
X2851557Y1867532D01*
X2851480Y1867468D01*
X2851401Y1867406D01*
X2851320Y1867347D01*
X2851236Y1867292D01*
X2851150Y1867240D01*
X2851062Y1867192D01*
X2850972Y1867147D01*
X2850881Y1867106D01*
X2850788Y1867068D01*
X2850693Y1867034D01*
X2850598Y1867004D01*
X2850501Y1866977D01*
X2850403Y1866954D01*
X2850305Y1866936D01*
X2850205Y1866921D01*
X2850106Y1866910D01*
X2850005Y1866903D01*
X2849905Y1866900D01*
X2849805Y1866901D01*
X2849704Y1866906D01*
X2849605Y1866915D01*
X2849505Y1866928D01*
X2849406Y1866945D01*
X2849308Y1866965D01*
X2849210Y1866990D01*
X2849114Y1867018D01*
X2849019Y1867050D01*
X2848925Y1867086D01*
X2848833Y1867126D01*
X2848743Y1867169D01*
X2848654Y1867216D01*
X2848567Y1867266D01*
X2848482Y1867319D01*
X2848399Y1867376D01*
X2848319Y1867436D01*
X2848241Y1867500D01*
X2848166Y1867566D01*
X2848093Y1867635D01*
X2848023Y1867707D01*
X2847956Y1867782D01*
X2847892Y1867859D01*
X2847831Y1867939D01*
X2847773Y1868021D01*
X2847719Y1868105D01*
X2847668Y1868192D01*
X2847620Y1868280D01*
X2847576Y1868370D01*
X2847536Y1868462D01*
X2847499Y1868556D01*
X2847466Y1868650D01*
X2847437Y1868746D01*
X2847411Y1868843D01*
X2847389Y1868941D01*
X2847372Y1869040D01*
X2847358Y1869140D01*
X2847348Y1869239D01*
X2847342Y1869340D01*
X2847340Y1869440D01*
X2821482Y1871980D02*
X2821491Y1872677D01*
X2821516Y1873373D01*
X2821559Y1874069D01*
X2821619Y1874763D01*
X2821696Y1875456D01*
X2821789Y1876147D01*
X2821900Y1876835D01*
X2822028Y1877520D01*
X2822172Y1878202D01*
X2822333Y1878880D01*
X2822511Y1879554D01*
X2822705Y1880224D01*
X2822915Y1880888D01*
X2823142Y1881547D01*
X2823385Y1882200D01*
X2823644Y1882847D01*
X2823918Y1883488D01*
X2824209Y1884122D01*
X2824514Y1884748D01*
X2824835Y1885367D01*
X2825171Y1885977D01*
X2825522Y1886579D01*
X2825888Y1887173D01*
X2826268Y1887757D01*
X2826662Y1888332D01*
X2827071Y1888897D01*
X2827493Y1889451D01*
X2827928Y1889996D01*
X2828377Y1890529D01*
X2828838Y1891051D01*
X2829313Y1891562D01*
X2829800Y1892060D01*
X2830298Y1892547D01*
X2830809Y1893022D01*
X2831331Y1893483D01*
X2831864Y1893932D01*
X2832409Y1894367D01*
X2832963Y1894789D01*
X2833528Y1895198D01*
X2834103Y1895592D01*
X2834687Y1895972D01*
X2835281Y1896338D01*
X2835883Y1896689D01*
X2836493Y1897025D01*
X2837112Y1897346D01*
X2837738Y1897651D01*
X2838372Y1897942D01*
X2839013Y1898216D01*
X2839660Y1898475D01*
X2840313Y1898718D01*
X2840972Y1898945D01*
X2841636Y1899155D01*
X2842306Y1899349D01*
X2842980Y1899527D01*
X2843658Y1899688D01*
X2844340Y1899832D01*
X2845025Y1899960D01*
X2845713Y1900071D01*
X2846404Y1900164D01*
X2847097Y1900241D01*
X2847791Y1900301D01*
X2848487Y1900344D01*
X2849183Y1900369D01*
X2849880Y1900378D01*
X2850577Y1900369D01*
X2851273Y1900344D01*
X2851969Y1900301D01*
X2852663Y1900241D01*
X2853356Y1900164D01*
X2854047Y1900071D01*
X2854735Y1899960D01*
X2855420Y1899832D01*
X2856102Y1899688D01*
X2856780Y1899527D01*
X2857454Y1899349D01*
X2858124Y1899155D01*
X2858788Y1898945D01*
X2859447Y1898718D01*
X2860100Y1898475D01*
X2860747Y1898216D01*
X2861388Y1897942D01*
X2862022Y1897651D01*
X2862648Y1897346D01*
X2863267Y1897025D01*
X2863877Y1896689D01*
X2864479Y1896338D01*
X2865073Y1895972D01*
X2865657Y1895592D01*
X2866232Y1895198D01*
X2866797Y1894789D01*
X2867351Y1894367D01*
X2867896Y1893932D01*
X2868429Y1893483D01*
X2868951Y1893022D01*
X2869462Y1892547D01*
X2869960Y1892060D01*
X2870447Y1891562D01*
X2870922Y1891051D01*
X2871383Y1890529D01*
X2871832Y1889996D01*
X2872267Y1889451D01*
X2872689Y1888897D01*
X2873098Y1888332D01*
X2873492Y1887757D01*
X2873872Y1887173D01*
X2874238Y1886579D01*
X2874589Y1885977D01*
X2874925Y1885367D01*
X2875246Y1884748D01*
X2875551Y1884122D01*
X2875842Y1883488D01*
X2876116Y1882847D01*
X2876375Y1882200D01*
X2876618Y1881547D01*
X2876845Y1880888D01*
X2877055Y1880224D01*
X2877249Y1879554D01*
X2877427Y1878880D01*
X2877588Y1878202D01*
X2877732Y1877520D01*
X2877860Y1876835D01*
X2877971Y1876147D01*
X2878064Y1875456D01*
X2878141Y1874763D01*
X2878201Y1874069D01*
X2878244Y1873373D01*
X2878269Y1872677D01*
X2878278Y1871980D01*
X2878269Y1871283D01*
X2878244Y1870587D01*
X2878201Y1869891D01*
X2878141Y1869197D01*
X2878064Y1868504D01*
X2877971Y1867813D01*
X2877860Y1867125D01*
X2877732Y1866440D01*
X2877588Y1865758D01*
X2877427Y1865080D01*
X2877249Y1864406D01*
X2877055Y1863736D01*
X2876845Y1863072D01*
X2876618Y1862413D01*
X2876375Y1861760D01*
X2876116Y1861113D01*
X2875842Y1860472D01*
X2875551Y1859838D01*
X2875246Y1859212D01*
X2874925Y1858593D01*
X2874589Y1857983D01*
X2874238Y1857381D01*
X2873872Y1856787D01*
X2873492Y1856203D01*
X2873098Y1855628D01*
X2872689Y1855063D01*
X2872267Y1854509D01*
X2871832Y1853964D01*
X2871383Y1853431D01*
X2870922Y1852909D01*
X2870447Y1852398D01*
X2869960Y1851900D01*
X2869462Y1851413D01*
X2868951Y1850938D01*
X2868429Y1850477D01*
X2867896Y1850028D01*
X2867351Y1849593D01*
X2866797Y1849171D01*
X2866232Y1848762D01*
X2865657Y1848368D01*
X2865073Y1847988D01*
X2864479Y1847622D01*
X2863877Y1847271D01*
X2863267Y1846935D01*
X2862648Y1846614D01*
X2862022Y1846309D01*
X2861388Y1846018D01*
X2860747Y1845744D01*
X2860100Y1845485D01*
X2859447Y1845242D01*
X2858788Y1845015D01*
X2858124Y1844805D01*
X2857454Y1844611D01*
X2856780Y1844433D01*
X2856102Y1844272D01*
X2855420Y1844128D01*
X2854735Y1844000D01*
X2854047Y1843889D01*
X2853356Y1843796D01*
X2852663Y1843719D01*
X2851969Y1843659D01*
X2851273Y1843616D01*
X2850577Y1843591D01*
X2849880Y1843582D01*
X2849183Y1843591D01*
X2848487Y1843616D01*
X2847791Y1843659D01*
X2847097Y1843719D01*
X2846404Y1843796D01*
X2845713Y1843889D01*
X2845025Y1844000D01*
X2844340Y1844128D01*
X2843658Y1844272D01*
X2842980Y1844433D01*
X2842306Y1844611D01*
X2841636Y1844805D01*
X2840972Y1845015D01*
X2840313Y1845242D01*
X2839660Y1845485D01*
X2839013Y1845744D01*
X2838372Y1846018D01*
X2837738Y1846309D01*
X2837112Y1846614D01*
X2836493Y1846935D01*
X2835883Y1847271D01*
X2835281Y1847622D01*
X2834687Y1847988D01*
X2834103Y1848368D01*
X2833528Y1848762D01*
X2832963Y1849171D01*
X2832409Y1849593D01*
X2831864Y1850028D01*
X2831331Y1850477D01*
X2830809Y1850938D01*
X2830298Y1851413D01*
X2829800Y1851900D01*
X2829313Y1852398D01*
X2828838Y1852909D01*
X2828377Y1853431D01*
X2827928Y1853964D01*
X2827493Y1854509D01*
X2827071Y1855063D01*
X2826662Y1855628D01*
X2826268Y1856203D01*
X2825888Y1856787D01*
X2825522Y1857381D01*
X2825171Y1857983D01*
X2824835Y1858593D01*
X2824514Y1859212D01*
X2824209Y1859838D01*
X2823918Y1860472D01*
X2823644Y1861113D01*
X2823385Y1861760D01*
X2823142Y1862413D01*
X2822915Y1863072D01*
X2822705Y1863736D01*
X2822511Y1864406D01*
X2822333Y1865080D01*
X2822172Y1865758D01*
X2822028Y1866440D01*
X2821900Y1867125D01*
X2821789Y1867813D01*
X2821696Y1868504D01*
X2821619Y1869197D01*
X2821559Y1869891D01*
X2821516Y1870587D01*
X2821491Y1871283D01*
X2821482Y1871980D01*
D81*
X780034Y811022D03*
D82*
X780034Y982853D03*
D83*
X780034Y1253871D03*
D84*
X780034Y1457833D03*
D85*
X780034Y1801495D03*
D86*
X780034Y2125599D03*
D81*
X780034Y2456688D03*
D87*
X777240Y809625D03*
D88*
X777240Y982853D03*
D89*
X777240Y1253871D03*
D90*
X777240Y1466215D03*
D91*
X777240Y1801495D03*
D92*
X777240Y2125599D03*
D87*
X777240Y2458085D03*
D93*
X774446Y809625D03*
D82*
X774446Y985647D03*
D83*
X774446Y1251077D03*
D81*
X774446Y1470406D03*
D85*
X774446Y1801495D03*
D86*
X774446Y2125599D03*
D93*
X774446Y2458085D03*
X771652Y809625D03*
D82*
X771652Y985647D03*
D83*
X771652Y1251077D03*
D94*
X771652Y1473200D03*
D85*
X771652Y1801495D03*
D86*
X771652Y2125599D03*
D93*
X771652Y2458085D03*
X768858Y809625D03*
D82*
X768858Y988441D03*
D83*
X768858Y1248283D03*
D95*
X768858Y1475994D03*
D85*
X768858Y1801495D03*
D86*
X768858Y2125599D03*
D93*
X768858Y2458085D03*
X766064Y809625D03*
D82*
X766064Y988441D03*
D83*
X766064Y1248283D03*
D86*
X766064Y1477391D03*
D85*
X766064Y1801495D03*
D86*
X766064Y2125599D03*
D93*
X766064Y2458085D03*
D87*
X763270Y809625D03*
D91*
X763270Y991235D03*
D89*
X763270Y1245489D03*
D96*
X763270Y1478788D03*
D91*
X763270Y1801495D03*
D92*
X763270Y2125599D03*
D87*
X763270Y2458085D03*
D93*
X760476Y809625D03*
D85*
X760476Y991235D03*
D97*
X760476Y1244092D03*
D98*
X760476Y1480185D03*
D85*
X760476Y1801495D03*
D86*
X760476Y2125599D03*
D93*
X760476Y2458085D03*
X757682Y809625D03*
D82*
X757682Y994029D03*
D99*
X757682Y1242695D03*
D98*
X757682Y1480185D03*
D85*
X757682Y1801495D03*
D86*
X757682Y2125599D03*
D93*
X757682Y2458085D03*
X754888Y809625D03*
D82*
X754888Y994029D03*
D97*
X754888Y1241298D03*
D100*
X754888Y1481582D03*
D85*
X754888Y1801495D03*
D86*
X754888Y2125599D03*
D93*
X754888Y2458085D03*
X752094Y809625D03*
D82*
X752094Y996823D03*
D83*
X752094Y1239901D03*
D100*
X752094Y1481582D03*
D85*
X752094Y1801495D03*
D86*
X752094Y2125599D03*
D93*
X752094Y2458085D03*
D87*
X749300Y809625D03*
D88*
X749300Y996823D03*
D101*
X749300Y1238504D03*
D102*
X749300Y1482979D03*
D91*
X749300Y1801495D03*
D92*
X749300Y2125599D03*
D87*
X749300Y2458085D03*
D97*
X746506Y716026D03*
D82*
X746506Y999617D03*
D83*
X746506Y1237107D03*
D97*
X746506Y1378204D03*
D103*
X746506Y1580769D03*
D85*
X746506Y1801495D03*
D97*
X746506Y2026412D03*
X746506Y2364486D03*
X743712Y716026D03*
D82*
X743712Y1002411D03*
D97*
X743712Y1235710D03*
X743712Y1378204D03*
D104*
X743712Y1584960D03*
D85*
X743712Y1801495D03*
X743712Y2025015D03*
D97*
X743712Y2364486D03*
X740918Y716026D03*
D82*
X740918Y1002411D03*
D83*
X740918Y1234313D03*
D97*
X740918Y1378204D03*
D83*
X740918Y1586357D03*
D85*
X740918Y1801495D03*
X740918Y2025015D03*
D97*
X740918Y2364486D03*
X738124Y716026D03*
D85*
X738124Y1005205D03*
D83*
X738124Y1231519D03*
D97*
X738124Y1378204D03*
D83*
X738124Y1589151D03*
D85*
X738124Y1801495D03*
X738124Y2025015D03*
D97*
X738124Y2364486D03*
D101*
X735330Y716026D03*
D91*
X735330Y1005205D03*
D101*
X735330Y1230122D03*
X735330Y1378204D03*
D89*
X735330Y1589151D03*
D91*
X735330Y1801495D03*
X735330Y2025015D03*
D101*
X735330Y2364486D03*
D97*
X732536Y716026D03*
D82*
X732536Y1007999D03*
D99*
X732536Y1228725D03*
D97*
X732536Y1378204D03*
X732536Y1590548D03*
D85*
X732536Y1801495D03*
X732536Y2025015D03*
D97*
X732536Y2364486D03*
X729742Y716026D03*
D82*
X729742Y1007999D03*
D97*
X729742Y1227328D03*
X729742Y1378204D03*
X729742Y1590548D03*
D85*
X729742Y1801495D03*
X729742Y2025015D03*
D97*
X729742Y2364486D03*
X726948Y716026D03*
D82*
X726948Y1010793D03*
D83*
X726948Y1225931D03*
D97*
X726948Y1378204D03*
X726948Y1590548D03*
D85*
X726948Y1801495D03*
X726948Y2025015D03*
D97*
X726948Y2364486D03*
X724154Y716026D03*
D82*
X724154Y1010793D03*
D97*
X724154Y1224534D03*
X724154Y1378204D03*
X724154Y1590548D03*
D85*
X724154Y1801495D03*
X724154Y2025015D03*
D97*
X724154Y2364486D03*
D101*
X721360Y716026D03*
D88*
X721360Y1013587D03*
D89*
X721360Y1223137D03*
D101*
X721360Y1378204D03*
X721360Y1590548D03*
D91*
X721360Y1801495D03*
X721360Y2025015D03*
D101*
X721360Y2364486D03*
D97*
X718566Y716026D03*
D100*
X718566Y1118362D03*
D97*
X718566Y1378204D03*
X718566Y1590548D03*
D85*
X718566Y1801495D03*
X718566Y2025015D03*
D97*
X718566Y2364486D03*
X715772Y716026D03*
D105*
X715772Y1118362D03*
D97*
X715772Y1378204D03*
X715772Y1590548D03*
D85*
X715772Y1801495D03*
X715772Y2025015D03*
D97*
X715772Y2364486D03*
X712978Y716026D03*
D86*
X712978Y1119759D03*
D97*
X712978Y1378204D03*
X712978Y1590548D03*
D85*
X712978Y1801495D03*
X712978Y2025015D03*
D97*
X712978Y2364486D03*
X710184Y716026D03*
D95*
X710184Y1118362D03*
D97*
X710184Y1378204D03*
X710184Y1590548D03*
D85*
X710184Y1801495D03*
X710184Y2025015D03*
D97*
X710184Y2364486D03*
D101*
X707390Y716026D03*
D106*
X707390Y1119759D03*
D101*
X707390Y1378204D03*
X707390Y1590548D03*
D91*
X707390Y1801495D03*
X707390Y2025015D03*
D101*
X707390Y2364486D03*
D97*
X704596Y716026D03*
D107*
X704596Y1118362D03*
D97*
X704596Y1378204D03*
X704596Y1590548D03*
D85*
X704596Y1801495D03*
X704596Y2025015D03*
D97*
X704596Y2364486D03*
X701802Y716026D03*
D93*
X701802Y1119759D03*
D97*
X701802Y1378204D03*
X701802Y1590548D03*
D85*
X701802Y1801495D03*
X701802Y2025015D03*
D97*
X701802Y2364486D03*
X699008Y716026D03*
D81*
X699008Y1118362D03*
D97*
X699008Y1378204D03*
X699008Y1590548D03*
D85*
X699008Y1801495D03*
X699008Y2025015D03*
D97*
X699008Y2364486D03*
X696214Y716026D03*
D108*
X696214Y1119759D03*
D97*
X696214Y1378204D03*
X696214Y1590548D03*
D85*
X696214Y1801495D03*
X696214Y2025015D03*
D97*
X696214Y2364486D03*
D101*
X693420Y716026D03*
D109*
X693420Y1118362D03*
D101*
X693420Y1378204D03*
X693420Y1590548D03*
D91*
X693420Y1801495D03*
X693420Y2025015D03*
D101*
X693420Y2364486D03*
D97*
X690626Y716026D03*
D110*
X690626Y1118362D03*
D97*
X690626Y1378204D03*
D82*
X690626Y1589151D03*
D85*
X690626Y1801495D03*
X690626Y2025015D03*
D97*
X690626Y2364486D03*
X687832Y716026D03*
D82*
X687832Y1030351D03*
D97*
X687832Y1204976D03*
X687832Y1378204D03*
D82*
X687832Y1589151D03*
D85*
X687832Y1801495D03*
X687832Y2025015D03*
D97*
X687832Y2364486D03*
X685038Y716026D03*
D85*
X685038Y1033145D03*
D97*
X685038Y1202182D03*
X685038Y1378204D03*
D82*
X685038Y1589151D03*
D85*
X685038Y1801495D03*
X685038Y2025015D03*
D97*
X685038Y2364486D03*
X682244Y716026D03*
D111*
X682244Y1034542D03*
D97*
X682244Y1202182D03*
X682244Y1378204D03*
D82*
X682244Y1589151D03*
D85*
X682244Y1801495D03*
X682244Y2025015D03*
D97*
X682244Y2364486D03*
D101*
X679450Y716026D03*
D88*
X679450Y1035939D03*
D101*
X679450Y1199388D03*
X679450Y1378204D03*
D88*
X679450Y1586357D03*
D91*
X679450Y1801495D03*
X679450Y2025015D03*
D101*
X679450Y2364486D03*
D97*
X676656Y716026D03*
D112*
X676656Y1037336D03*
D97*
X676656Y1199388D03*
X676656Y1378204D03*
D82*
X676656Y1586357D03*
D85*
X676656Y1801495D03*
X676656Y2025015D03*
D97*
X676656Y2364486D03*
X673862Y716026D03*
D82*
X673862Y1038733D03*
D97*
X673862Y1196594D03*
X673862Y1378204D03*
X673862Y1584960D03*
D85*
X673862Y1801495D03*
X673862Y2025015D03*
D97*
X673862Y2364486D03*
X671068Y716026D03*
D112*
X671068Y1040130D03*
D97*
X671068Y1196594D03*
X671068Y1378204D03*
X671068Y1582166D03*
D85*
X671068Y1801495D03*
X671068Y2025015D03*
D97*
X671068Y2364486D03*
X668274Y716026D03*
D82*
X668274Y1041527D03*
D97*
X668274Y1193800D03*
X668274Y1378204D03*
D99*
X668274Y1577975D03*
D85*
X668274Y1801495D03*
D97*
X668274Y2026412D03*
X668274Y2364486D03*
D101*
X665480Y716026D03*
D113*
X665480Y1042924D03*
D88*
X665480Y1192403D03*
D92*
X665480Y1477391D03*
D91*
X665480Y1801495D03*
D114*
X665480Y2086483D03*
D101*
X665480Y2364486D03*
D97*
X662686Y716026D03*
D82*
X662686Y1044321D03*
D97*
X662686Y1191006D03*
D95*
X662686Y1475994D03*
D85*
X662686Y1801495D03*
D115*
X662686Y2085086D03*
D97*
X662686Y2364486D03*
X659892Y716026D03*
D85*
X659892Y1047115D03*
D82*
X659892Y1189609D03*
D116*
X659892Y1474597D03*
D85*
X659892Y1801495D03*
D115*
X659892Y2085086D03*
D97*
X659892Y2364486D03*
X657098Y716026D03*
D111*
X657098Y1048512D03*
D97*
X657098Y1188212D03*
D117*
X657098Y1471803D03*
D85*
X657098Y1801495D03*
D115*
X657098Y2085086D03*
D97*
X657098Y2364486D03*
X654304Y716026D03*
D82*
X654304Y1049909D03*
D85*
X654304Y1186815D03*
D118*
X654304Y1466215D03*
D85*
X654304Y1801495D03*
D115*
X654304Y2085086D03*
D97*
X654304Y2364486D03*
D101*
X651510Y716026D03*
D113*
X651510Y1051306D03*
D101*
X651510Y1185418D03*
D119*
X651510Y1464818D03*
D91*
X651510Y1801495D03*
D120*
X651510Y2085086D03*
D101*
X651510Y2364486D03*
D97*
X648716Y716026D03*
D82*
X648716Y1052703D03*
X648716Y1184021D03*
D81*
X648716Y1470406D03*
D85*
X648716Y1801495D03*
D115*
X648716Y2085086D03*
D97*
X648716Y2364486D03*
X645922Y716026D03*
D112*
X645922Y1054100D03*
D97*
X645922Y1182624D03*
D94*
X645922Y1473200D03*
D85*
X645922Y1801495D03*
D115*
X645922Y2085086D03*
D97*
X645922Y2364486D03*
X643128Y716026D03*
D82*
X643128Y1055497D03*
X643128Y1181227D03*
D95*
X643128Y1475994D03*
D85*
X643128Y1801495D03*
D115*
X643128Y2085086D03*
D97*
X643128Y2364486D03*
X640334Y716026D03*
D112*
X640334Y1056894D03*
D82*
X640334Y1178433D03*
D86*
X640334Y1477391D03*
D85*
X640334Y1801495D03*
D115*
X640334Y2085086D03*
D97*
X640334Y2364486D03*
D101*
X637540Y716026D03*
D88*
X637540Y1058291D03*
D101*
X637540Y1177036D03*
D96*
X637540Y1478788D03*
D91*
X637540Y1801495D03*
D120*
X637540Y2085086D03*
D101*
X637540Y2364486D03*
D97*
X634746Y716026D03*
D111*
X634746Y1059688D03*
D82*
X634746Y1175639D03*
D97*
X634746Y1378204D03*
D121*
X634746Y1576578D03*
D85*
X634746Y1801495D03*
X634746Y2025015D03*
D97*
X634746Y2364486D03*
X631952Y716026D03*
D85*
X631952Y1061085D03*
D97*
X631952Y1174242D03*
X631952Y1378204D03*
D83*
X631952Y1580769D03*
D85*
X631952Y1801495D03*
X631952Y2025015D03*
D97*
X631952Y2364486D03*
X629158Y716026D03*
D111*
X629158Y1062482D03*
D85*
X629158Y1172845D03*
D97*
X629158Y1378204D03*
D83*
X629158Y1583563D03*
D85*
X629158Y1801495D03*
X629158Y2025015D03*
D97*
X629158Y2364486D03*
X626364Y716026D03*
D112*
X626364Y1065276D03*
D97*
X626364Y1171448D03*
X626364Y1378204D03*
X626364Y1584960D03*
D85*
X626364Y1801495D03*
X626364Y2025015D03*
D97*
X626364Y2364486D03*
D101*
X623570Y716026D03*
D113*
X623570Y1065276D03*
D88*
X623570Y1170051D03*
D101*
X623570Y1378204D03*
X623570Y1587754D03*
D91*
X623570Y1801495D03*
X623570Y2025015D03*
D101*
X623570Y2364486D03*
D97*
X620776Y716026D03*
D112*
X620776Y1068070D03*
D97*
X620776Y1168654D03*
X620776Y1378204D03*
X620776Y1587754D03*
D85*
X620776Y1801495D03*
X620776Y2025015D03*
D97*
X620776Y2364486D03*
X617982Y716026D03*
D112*
X617982Y1068070D03*
D82*
X617982Y1167257D03*
D97*
X617982Y1378204D03*
X617982Y1587754D03*
D85*
X617982Y1801495D03*
X617982Y2025015D03*
D97*
X617982Y2364486D03*
X615188Y716026D03*
D112*
X615188Y1070864D03*
D82*
X615188Y1164463D03*
D97*
X615188Y1378204D03*
D82*
X615188Y1589151D03*
D85*
X615188Y1801495D03*
X615188Y2025015D03*
D97*
X615188Y2364486D03*
X612394Y716026D03*
D112*
X612394Y1070864D03*
D82*
X612394Y1164463D03*
D97*
X612394Y1378204D03*
D82*
X612394Y1589151D03*
D85*
X612394Y1801495D03*
X612394Y2025015D03*
D97*
X612394Y2364486D03*
D101*
X609600Y716026D03*
D122*
X609600Y1073658D03*
D88*
X609600Y1161669D03*
D101*
X609600Y1378204D03*
D88*
X609600Y1589151D03*
D91*
X609600Y1801495D03*
X609600Y2025015D03*
D101*
X609600Y2364486D03*
D97*
X606806Y716026D03*
D85*
X606806Y1075055D03*
D82*
X606806Y1161669D03*
D97*
X606806Y1378204D03*
D82*
X606806Y1589151D03*
D85*
X606806Y1801495D03*
X606806Y2025015D03*
D97*
X606806Y2364486D03*
X604012Y716026D03*
D111*
X604012Y1076452D03*
D85*
X604012Y1158875D03*
D97*
X604012Y1378204D03*
D82*
X604012Y1589151D03*
D85*
X604012Y1801495D03*
X604012Y2025015D03*
D97*
X604012Y2364486D03*
X601218Y716026D03*
D82*
X601218Y1077849D03*
D85*
X601218Y1158875D03*
D97*
X601218Y1378204D03*
D82*
X601218Y1589151D03*
D85*
X601218Y1801495D03*
X601218Y2025015D03*
D97*
X601218Y2364486D03*
X598424Y716026D03*
D112*
X598424Y1079246D03*
D82*
X598424Y1156081D03*
D97*
X598424Y1378204D03*
D82*
X598424Y1589151D03*
D85*
X598424Y1801495D03*
X598424Y2025015D03*
D97*
X598424Y2364486D03*
D101*
X595630Y716026D03*
D113*
X595630Y1082040D03*
D88*
X595630Y1156081D03*
D101*
X595630Y1378204D03*
D88*
X595630Y1589151D03*
D91*
X595630Y1801495D03*
X595630Y2025015D03*
D101*
X595630Y2364486D03*
D97*
X592836Y716026D03*
D112*
X592836Y1082040D03*
D82*
X592836Y1153287D03*
D97*
X592836Y1378204D03*
D82*
X592836Y1589151D03*
D85*
X592836Y1801495D03*
X592836Y2025015D03*
D97*
X592836Y2364486D03*
X590042Y716026D03*
D112*
X590042Y1084834D03*
X590042Y1151890D03*
D97*
X590042Y1378204D03*
D82*
X590042Y1589151D03*
D85*
X590042Y1801495D03*
X590042Y2025015D03*
D97*
X590042Y2364486D03*
X587248Y716026D03*
D112*
X587248Y1084834D03*
D82*
X587248Y1150493D03*
D97*
X587248Y1378204D03*
D82*
X587248Y1589151D03*
D85*
X587248Y1801495D03*
X587248Y2025015D03*
D97*
X587248Y2364486D03*
X584454Y716026D03*
D111*
X584454Y1087628D03*
D112*
X584454Y1149096D03*
D97*
X584454Y1378204D03*
X584454Y1587754D03*
D85*
X584454Y1801495D03*
X584454Y2025015D03*
D97*
X584454Y2364486D03*
D101*
X581660Y716026D03*
D122*
X581660Y1087628D03*
D88*
X581660Y1147699D03*
D101*
X581660Y1378204D03*
X581660Y1587754D03*
D91*
X581660Y1801495D03*
X581660Y2025015D03*
D101*
X581660Y2364486D03*
D97*
X578866Y716026D03*
D111*
X578866Y1090422D03*
D85*
X578866Y1144905D03*
D97*
X578866Y1378204D03*
X578866Y1587754D03*
D85*
X578866Y1801495D03*
X578866Y2025015D03*
D97*
X578866Y2364486D03*
X576072Y716026D03*
D111*
X576072Y1090422D03*
D85*
X576072Y1144905D03*
D97*
X576072Y1378204D03*
X576072Y1587754D03*
D85*
X576072Y1801495D03*
X576072Y2025015D03*
D97*
X576072Y2364486D03*
X573278Y716026D03*
D112*
X573278Y1093216D03*
D82*
X573278Y1142111D03*
D97*
X573278Y1378204D03*
D83*
X573278Y1586357D03*
D85*
X573278Y1801495D03*
X573278Y2025015D03*
D97*
X573278Y2364486D03*
X570484Y716026D03*
D123*
X570484Y1094613D03*
D82*
X570484Y1142111D03*
D97*
X570484Y1378204D03*
D104*
X570484Y1584960D03*
D85*
X570484Y1801495D03*
X570484Y2025015D03*
D97*
X570484Y2364486D03*
D101*
X567690Y716026D03*
D113*
X567690Y1096010D03*
D88*
X567690Y1139317D03*
D101*
X567690Y1378204D03*
D124*
X567690Y1582166D03*
D101*
X567690Y1800098D03*
D91*
X567690Y2025015D03*
D101*
X567690Y2364486D03*
D97*
X564896Y716026D03*
D123*
X564896Y1097407D03*
D112*
X564896Y1137920D03*
D125*
X564896Y1482979D03*
D126*
X564896Y1801495D03*
D95*
X564896Y2124202D03*
D97*
X564896Y2364486D03*
X562102Y716026D03*
D127*
X562102Y1118362D03*
D100*
X562102Y1481582D03*
D126*
X562102Y1801495D03*
D95*
X562102Y2124202D03*
D97*
X562102Y2364486D03*
X559308Y716026D03*
D128*
X559308Y1118362D03*
D100*
X559308Y1481582D03*
D126*
X559308Y1801495D03*
D95*
X559308Y2124202D03*
D97*
X559308Y2364486D03*
X556514Y716026D03*
D128*
X556514Y1118362D03*
D100*
X556514Y1481582D03*
D126*
X556514Y1801495D03*
D95*
X556514Y2124202D03*
D97*
X556514Y2364486D03*
D101*
X553720Y716026D03*
D129*
X553720Y1118362D03*
D130*
X553720Y1480185D03*
D131*
X553720Y1801495D03*
D132*
X553720Y2124202D03*
D101*
X553720Y2364486D03*
D97*
X550926Y716026D03*
D133*
X550926Y1118362D03*
D98*
X550926Y1480185D03*
D126*
X550926Y1801495D03*
D95*
X550926Y2124202D03*
D97*
X550926Y2364486D03*
X548132Y716026D03*
D134*
X548132Y1118362D03*
D105*
X548132Y1478788D03*
D126*
X548132Y1801495D03*
D95*
X548132Y2124202D03*
D97*
X548132Y2364486D03*
X545338Y716026D03*
D134*
X545338Y1118362D03*
D86*
X545338Y1477391D03*
D126*
X545338Y1801495D03*
D95*
X545338Y2124202D03*
D97*
X545338Y2364486D03*
X542544Y716026D03*
D121*
X542544Y1118362D03*
D95*
X542544Y1475994D03*
D126*
X542544Y1801495D03*
D95*
X542544Y2124202D03*
D97*
X542544Y2364486D03*
D101*
X539750Y716026D03*
D135*
X539750Y1118362D03*
D136*
X539750Y1473200D03*
D131*
X539750Y1801495D03*
D132*
X539750Y2124202D03*
D101*
X539750Y2364486D03*
D97*
X536956Y716026D03*
D137*
X536956Y1118362D03*
D108*
X536956Y1469009D03*
D126*
X536956Y1801495D03*
D95*
X536956Y2124202D03*
D97*
X536956Y2364486D03*
D82*
X534162Y717423D03*
D97*
X534162Y1118362D03*
D138*
X534162Y1460627D03*
D139*
X534162Y1802892D03*
D140*
X534162Y2059940D03*
D141*
X534162Y2241550D03*
D142*
X497840Y2045970D03*
D143*
X497840Y2121408D03*
D142*
X497840Y2199640D03*
D112*
X495046Y2045970D03*
D144*
X495046Y2122805D03*
D112*
X495046Y2199640D03*
D97*
X492252Y2045970D03*
X492252Y2121408D03*
X492252Y2199640D03*
D104*
X489458Y2045970D03*
D137*
X489458Y2121408D03*
D104*
X489458Y2199640D03*
D145*
X486664Y2044573D03*
D146*
X486664Y2122805D03*
D145*
X486664Y2198243D03*
D147*
X483870Y2045970D03*
D124*
X483870Y2121408D03*
D147*
X483870Y2199640D03*
D103*
X481076Y2044573D03*
X481076Y2122805D03*
D148*
X481076Y2199640D03*
X478282Y2045970D03*
D134*
X478282Y2121408D03*
D148*
X478282Y2199640D03*
X475488Y2045970D03*
D134*
X475488Y2121408D03*
D148*
X475488Y2199640D03*
X472694Y2045970D03*
D134*
X472694Y2121408D03*
D148*
X472694Y2199640D03*
D149*
X469900Y2045970D03*
D150*
X469900Y2121408D03*
D149*
X469900Y2199640D03*
D148*
X467106Y2045970D03*
D134*
X467106Y2121408D03*
D148*
X467106Y2199640D03*
X464312Y2045970D03*
D134*
X464312Y2121408D03*
D148*
X464312Y2199640D03*
D103*
X461518Y2044573D03*
D134*
X461518Y2121408D03*
D148*
X461518Y2199640D03*
D103*
X458724Y2044573D03*
X458724Y2122805D03*
D151*
X458724Y2199640D03*
D147*
X455930Y2045970D03*
D124*
X455930Y2121408D03*
D147*
X455930Y2199640D03*
D104*
X453136Y2045970D03*
D137*
X453136Y2121408D03*
D104*
X453136Y2199640D03*
D83*
X450342Y2044573D03*
D99*
X450342Y2122805D03*
D97*
X450342Y2199640D03*
D82*
X447548Y2044573D03*
D85*
X447548Y2122805D03*
D112*
X447548Y2199640D03*
D152*
X444754Y2045970D03*
D153*
X444754Y2121408D03*
D152*
X444754Y2199640D03*
D154*
X441960Y2044573D03*
D155*
X441960Y2122805D03*
D156*
X441960Y2199640D03*
D155*
X427990Y2122805D03*
D157*
X425196Y2121408D03*
D144*
X422402Y2122805D03*
D111*
X419608Y2121408D03*
D85*
X416814Y2122805D03*
D91*
X414020Y2122805D03*
D97*
X411226Y2121408D03*
X408432Y2121408D03*
X405638Y2121408D03*
D85*
X402844Y2122805D03*
D122*
X400050Y2121408D03*
D144*
X397256Y2122805D03*
D158*
X394462Y2122805D03*
D159*
X391668Y2122805D03*
D80*
X542544Y1096010D02*
X774446Y970280D01*
X693420Y1045718D02*
X564896Y1112774D01*
X562102Y1123950D02*
X690626Y1188212D01*
X774446Y1272032D02*
X539750Y1140714D01*
X718566Y1028954D02*
X774446Y998220D01*
X715772Y1202182D02*
X774446Y1232916D01*
X545338Y1545844D02*
X545338Y1584960D01*
X545343Y1585365D01*
X545358Y1585770D01*
X545382Y1586174D01*
X545416Y1586578D01*
X545460Y1586981D01*
X545514Y1587382D01*
X545577Y1587782D01*
X545650Y1588181D01*
X545733Y1588577D01*
X545825Y1588972D01*
X545927Y1589364D01*
X546038Y1589754D01*
X546158Y1590140D01*
X546288Y1590524D01*
X546427Y1590905D01*
X546576Y1591282D01*
X546733Y1591655D01*
X546899Y1592024D01*
X547074Y1592390D01*
X547258Y1592751D01*
X547451Y1593107D01*
X547652Y1593459D01*
X547862Y1593805D01*
X548079Y1594147D01*
X548305Y1594483D01*
X548540Y1594814D01*
X548782Y1595138D01*
X549032Y1595457D01*
X549289Y1595770D01*
X549554Y1596077D01*
X549826Y1596377D01*
X550106Y1596670D01*
X550392Y1596956D01*
X550685Y1597236D01*
X550985Y1597508D01*
X551292Y1597773D01*
X551605Y1598030D01*
X551924Y1598280D01*
X552248Y1598522D01*
X552579Y1598757D01*
X552915Y1598983D01*
X553257Y1599200D01*
X553603Y1599410D01*
X553955Y1599611D01*
X554311Y1599804D01*
X554672Y1599988D01*
X555038Y1600163D01*
X555407Y1600329D01*
X555780Y1600486D01*
X556157Y1600635D01*
X556538Y1600774D01*
X556922Y1600904D01*
X557308Y1601024D01*
X557698Y1601135D01*
X558090Y1601237D01*
X558485Y1601329D01*
X558881Y1601412D01*
X559280Y1601485D01*
X559680Y1601548D01*
X560081Y1601602D01*
X560484Y1601646D01*
X560888Y1601680D01*
X561292Y1601704D01*
X561697Y1601719D01*
X562102Y1601724D01*
X539750Y1576578D02*
X539750Y1557020D01*
X539750Y1576578D02*
X539752Y1576781D01*
X539760Y1576983D01*
X539772Y1577185D01*
X539789Y1577387D01*
X539811Y1577588D01*
X539838Y1577789D01*
X539870Y1577989D01*
X539906Y1578188D01*
X539947Y1578387D01*
X539994Y1578584D01*
X540044Y1578780D01*
X540100Y1578975D01*
X540160Y1579168D01*
X540225Y1579360D01*
X540295Y1579550D01*
X540369Y1579739D01*
X540447Y1579925D01*
X540531Y1580110D01*
X540618Y1580293D01*
X540710Y1580473D01*
X540806Y1580652D01*
X540907Y1580827D01*
X541012Y1581001D01*
X541121Y1581171D01*
X541234Y1581340D01*
X541351Y1581505D01*
X541472Y1581667D01*
X541597Y1581827D01*
X541726Y1581983D01*
X541858Y1582136D01*
X541994Y1582286D01*
X542134Y1582433D01*
X542277Y1582576D01*
X542424Y1582716D01*
X542574Y1582852D01*
X542727Y1582984D01*
X542883Y1583113D01*
X543043Y1583238D01*
X543205Y1583359D01*
X543370Y1583476D01*
X543539Y1583589D01*
X543709Y1583698D01*
X543883Y1583803D01*
X544058Y1583904D01*
X544237Y1584000D01*
X544417Y1584092D01*
X544600Y1584179D01*
X544785Y1584263D01*
X544971Y1584341D01*
X545160Y1584415D01*
X545350Y1584485D01*
X545542Y1584550D01*
X545735Y1584610D01*
X545930Y1584666D01*
X546126Y1584716D01*
X546323Y1584763D01*
X546522Y1584804D01*
X546721Y1584840D01*
X546921Y1584872D01*
X547122Y1584899D01*
X547323Y1584921D01*
X547525Y1584938D01*
X547727Y1584950D01*
X547929Y1584958D01*
X548132Y1584960D01*
X539750Y1576578D02*
X539757Y1577186D01*
X539779Y1577793D01*
X539816Y1578399D01*
X539867Y1579005D01*
X539933Y1579609D01*
X540014Y1580211D01*
X540109Y1580812D01*
X540218Y1581409D01*
X540342Y1582004D01*
X540481Y1582596D01*
X540633Y1583184D01*
X540800Y1583768D01*
X540981Y1584349D01*
X541175Y1584924D01*
X541384Y1585495D01*
X541606Y1586060D01*
X541842Y1586620D01*
X542092Y1587175D01*
X542354Y1587722D01*
X542630Y1588264D01*
X542919Y1588799D01*
X543221Y1589326D01*
X543535Y1589846D01*
X543862Y1590358D01*
X544201Y1590863D01*
X544552Y1591358D01*
X544916Y1591846D01*
X545290Y1592324D01*
X545677Y1592793D01*
X546074Y1593253D01*
X546482Y1593703D01*
X546902Y1594143D01*
X547331Y1594572D01*
X547771Y1594992D01*
X548221Y1595400D01*
X548681Y1595797D01*
X549150Y1596184D01*
X549628Y1596558D01*
X550116Y1596922D01*
X550611Y1597273D01*
X551116Y1597612D01*
X551628Y1597939D01*
X552148Y1598253D01*
X552675Y1598555D01*
X553210Y1598844D01*
X553752Y1599120D01*
X554299Y1599382D01*
X554854Y1599632D01*
X555414Y1599868D01*
X555979Y1600090D01*
X556550Y1600299D01*
X557125Y1600493D01*
X557706Y1600674D01*
X558290Y1600841D01*
X558878Y1600993D01*
X559470Y1601132D01*
X560065Y1601256D01*
X560662Y1601365D01*
X561263Y1601460D01*
X561865Y1601541D01*
X562469Y1601607D01*
X563075Y1601658D01*
X563681Y1601695D01*
X564288Y1601717D01*
X564896Y1601724D01*
X612394Y1601724D02*
X617982Y1601724D01*
X618657Y1601716D01*
X619332Y1601691D01*
X620006Y1601651D01*
X620679Y1601594D01*
X621350Y1601520D01*
X622019Y1601431D01*
X622686Y1601325D01*
X623350Y1601203D01*
X624011Y1601066D01*
X624668Y1600912D01*
X625322Y1600743D01*
X625971Y1600557D01*
X626616Y1600357D01*
X627256Y1600140D01*
X627890Y1599908D01*
X628518Y1599661D01*
X629140Y1599399D01*
X629756Y1599122D01*
X630365Y1598830D01*
X630966Y1598524D01*
X631560Y1598203D01*
X632146Y1597867D01*
X632724Y1597518D01*
X633293Y1597155D01*
X633854Y1596778D01*
X634405Y1596388D01*
X634946Y1595985D01*
X635478Y1595568D01*
X635999Y1595139D01*
X636510Y1594697D01*
X637010Y1594244D01*
X637498Y1593778D01*
X637976Y1593300D01*
X638442Y1592812D01*
X638895Y1592312D01*
X639337Y1591801D01*
X639766Y1591280D01*
X640183Y1590748D01*
X640586Y1590207D01*
X640976Y1589656D01*
X641353Y1589095D01*
X641716Y1588526D01*
X642065Y1587948D01*
X642401Y1587362D01*
X642722Y1586768D01*
X643028Y1586167D01*
X643320Y1585558D01*
X643597Y1584942D01*
X643859Y1584320D01*
X644106Y1583692D01*
X644338Y1583058D01*
X644555Y1582418D01*
X644755Y1581773D01*
X644941Y1581124D01*
X645110Y1580470D01*
X645264Y1579813D01*
X645401Y1579152D01*
X645523Y1578488D01*
X645629Y1577821D01*
X645718Y1577152D01*
X645792Y1576481D01*
X645849Y1575808D01*
X645889Y1575134D01*
X645914Y1574459D01*
X645922Y1573784D01*
X657098Y1570990D02*
X657098Y1570990D01*
X657108Y1571800D01*
X657137Y1572610D01*
X657186Y1573419D01*
X657255Y1574226D01*
X657342Y1575031D01*
X657450Y1575834D01*
X657577Y1576635D01*
X657723Y1577432D01*
X657888Y1578225D01*
X658072Y1579014D01*
X658276Y1579798D01*
X658498Y1580577D01*
X658739Y1581351D01*
X658999Y1582118D01*
X659277Y1582879D01*
X659573Y1583633D01*
X659888Y1584380D01*
X660220Y1585119D01*
X660571Y1585849D01*
X660938Y1586571D01*
X661324Y1587284D01*
X661726Y1587987D01*
X662145Y1588681D01*
X662581Y1589364D01*
X663033Y1590036D01*
X663501Y1590697D01*
X663985Y1591347D01*
X664485Y1591985D01*
X665000Y1592610D01*
X665530Y1593223D01*
X666074Y1593823D01*
X666633Y1594410D01*
X667206Y1594983D01*
X667793Y1595542D01*
X668393Y1596086D01*
X669006Y1596616D01*
X669631Y1597131D01*
X670269Y1597631D01*
X670919Y1598115D01*
X671580Y1598583D01*
X672252Y1599035D01*
X672935Y1599471D01*
X673629Y1599890D01*
X674332Y1600292D01*
X675045Y1600678D01*
X675767Y1601045D01*
X676497Y1601396D01*
X677236Y1601728D01*
X677983Y1602043D01*
X678737Y1602339D01*
X679498Y1602617D01*
X680265Y1602877D01*
X681039Y1603118D01*
X681818Y1603340D01*
X682602Y1603544D01*
X683391Y1603728D01*
X684184Y1603893D01*
X684981Y1604039D01*
X685782Y1604166D01*
X686585Y1604274D01*
X687390Y1604361D01*
X688197Y1604430D01*
X689006Y1604479D01*
X689816Y1604508D01*
X690626Y1604518D01*
X774446Y1570990D02*
X774446Y1548638D01*
X774446Y1570990D02*
X774436Y1571800D01*
X774407Y1572610D01*
X774358Y1573419D01*
X774289Y1574226D01*
X774202Y1575031D01*
X774094Y1575834D01*
X773967Y1576635D01*
X773821Y1577432D01*
X773656Y1578225D01*
X773472Y1579014D01*
X773268Y1579798D01*
X773046Y1580577D01*
X772805Y1581351D01*
X772545Y1582118D01*
X772267Y1582879D01*
X771971Y1583633D01*
X771656Y1584380D01*
X771324Y1585119D01*
X770973Y1585849D01*
X770606Y1586571D01*
X770220Y1587284D01*
X769818Y1587987D01*
X769399Y1588681D01*
X768963Y1589364D01*
X768511Y1590036D01*
X768043Y1590697D01*
X767559Y1591347D01*
X767059Y1591985D01*
X766544Y1592610D01*
X766014Y1593223D01*
X765470Y1593823D01*
X764911Y1594410D01*
X764338Y1594983D01*
X763751Y1595542D01*
X763151Y1596086D01*
X762538Y1596616D01*
X761913Y1597131D01*
X761275Y1597631D01*
X760625Y1598115D01*
X759964Y1598583D01*
X759292Y1599035D01*
X758609Y1599471D01*
X757915Y1599890D01*
X757212Y1600292D01*
X756499Y1600678D01*
X755777Y1601045D01*
X755047Y1601396D01*
X754308Y1601728D01*
X753561Y1602043D01*
X752807Y1602339D01*
X752046Y1602617D01*
X751279Y1602877D01*
X750505Y1603118D01*
X749726Y1603340D01*
X748942Y1603544D01*
X748153Y1603728D01*
X747360Y1603893D01*
X746563Y1604039D01*
X745762Y1604166D01*
X744959Y1604274D01*
X744154Y1604361D01*
X743347Y1604430D01*
X742538Y1604479D01*
X741728Y1604508D01*
X740918Y1604518D01*
X539750Y2096262D02*
X539750Y2235962D01*
X444599Y2045970D02*
X444607Y2046591D01*
X444629Y2047211D01*
X444668Y2047831D01*
X444721Y2048450D01*
X444789Y2049067D01*
X444873Y2049682D01*
X444971Y2050296D01*
X445085Y2050906D01*
X445214Y2051513D01*
X445357Y2052118D01*
X445516Y2052718D01*
X445688Y2053314D01*
X445876Y2053906D01*
X446078Y2054494D01*
X446294Y2055076D01*
X446525Y2055652D01*
X446770Y2056223D01*
X447028Y2056788D01*
X447301Y2057346D01*
X447587Y2057897D01*
X447886Y2058441D01*
X448199Y2058977D01*
X448524Y2059506D01*
X448863Y2060026D01*
X449214Y2060539D01*
X449578Y2061042D01*
X449954Y2061536D01*
X450342Y2062021D01*
X450742Y2062496D01*
X451153Y2062961D01*
X451576Y2063416D01*
X452009Y2063861D01*
X452454Y2064294D01*
X452909Y2064717D01*
X453374Y2065128D01*
X453849Y2065528D01*
X454334Y2065916D01*
X454828Y2066292D01*
X455331Y2066656D01*
X455844Y2067007D01*
X456364Y2067346D01*
X456893Y2067671D01*
X457429Y2067984D01*
X457973Y2068283D01*
X458524Y2068569D01*
X459082Y2068842D01*
X459647Y2069100D01*
X460218Y2069345D01*
X460794Y2069576D01*
X461376Y2069792D01*
X461964Y2069994D01*
X462556Y2070182D01*
X463152Y2070354D01*
X463752Y2070513D01*
X464357Y2070656D01*
X464964Y2070785D01*
X465574Y2070899D01*
X466188Y2070997D01*
X466803Y2071081D01*
X467420Y2071149D01*
X468039Y2071202D01*
X468659Y2071241D01*
X469279Y2071263D01*
X469900Y2071271D01*
X470521Y2071263D01*
X471141Y2071241D01*
X471761Y2071202D01*
X472380Y2071149D01*
X472997Y2071081D01*
X473612Y2070997D01*
X474226Y2070899D01*
X474836Y2070785D01*
X475443Y2070656D01*
X476048Y2070513D01*
X476648Y2070354D01*
X477244Y2070182D01*
X477836Y2069994D01*
X478424Y2069792D01*
X479006Y2069576D01*
X479582Y2069345D01*
X480153Y2069100D01*
X480718Y2068842D01*
X481276Y2068569D01*
X481827Y2068283D01*
X482371Y2067984D01*
X482907Y2067671D01*
X483436Y2067346D01*
X483956Y2067007D01*
X484469Y2066656D01*
X484972Y2066292D01*
X485466Y2065916D01*
X485951Y2065528D01*
X486426Y2065128D01*
X486891Y2064717D01*
X487346Y2064294D01*
X487791Y2063861D01*
X488224Y2063416D01*
X488647Y2062961D01*
X489058Y2062496D01*
X489458Y2062021D01*
X489846Y2061536D01*
X490222Y2061042D01*
X490586Y2060539D01*
X490937Y2060026D01*
X491276Y2059506D01*
X491601Y2058977D01*
X491914Y2058441D01*
X492213Y2057897D01*
X492499Y2057346D01*
X492772Y2056788D01*
X493030Y2056223D01*
X493275Y2055652D01*
X493506Y2055076D01*
X493722Y2054494D01*
X493924Y2053906D01*
X494112Y2053314D01*
X494284Y2052718D01*
X494443Y2052118D01*
X494586Y2051513D01*
X494715Y2050906D01*
X494829Y2050296D01*
X494927Y2049682D01*
X495011Y2049067D01*
X495079Y2048450D01*
X495132Y2047831D01*
X495171Y2047211D01*
X495193Y2046591D01*
X495201Y2045970D01*
X495193Y2045349D01*
X495171Y2044729D01*
X495132Y2044109D01*
X495079Y2043490D01*
X495011Y2042873D01*
X494927Y2042258D01*
X494829Y2041644D01*
X494715Y2041034D01*
X494586Y2040427D01*
X494443Y2039822D01*
X494284Y2039222D01*
X494112Y2038626D01*
X493924Y2038034D01*
X493722Y2037446D01*
X493506Y2036864D01*
X493275Y2036288D01*
X493030Y2035717D01*
X492772Y2035152D01*
X492499Y2034594D01*
X492213Y2034043D01*
X491914Y2033499D01*
X491601Y2032963D01*
X491276Y2032434D01*
X490937Y2031914D01*
X490586Y2031401D01*
X490222Y2030898D01*
X489846Y2030404D01*
X489458Y2029919D01*
X489058Y2029444D01*
X488647Y2028979D01*
X488224Y2028524D01*
X487791Y2028079D01*
X487346Y2027646D01*
X486891Y2027223D01*
X486426Y2026812D01*
X485951Y2026412D01*
X485466Y2026024D01*
X484972Y2025648D01*
X484469Y2025284D01*
X483956Y2024933D01*
X483436Y2024594D01*
X482907Y2024269D01*
X482371Y2023956D01*
X481827Y2023657D01*
X481276Y2023371D01*
X480718Y2023098D01*
X480153Y2022840D01*
X479582Y2022595D01*
X479006Y2022364D01*
X478424Y2022148D01*
X477836Y2021946D01*
X477244Y2021758D01*
X476648Y2021586D01*
X476048Y2021427D01*
X475443Y2021284D01*
X474836Y2021155D01*
X474226Y2021041D01*
X473612Y2020943D01*
X472997Y2020859D01*
X472380Y2020791D01*
X471761Y2020738D01*
X471141Y2020699D01*
X470521Y2020677D01*
X469900Y2020669D01*
X469279Y2020677D01*
X468659Y2020699D01*
X468039Y2020738D01*
X467420Y2020791D01*
X466803Y2020859D01*
X466188Y2020943D01*
X465574Y2021041D01*
X464964Y2021155D01*
X464357Y2021284D01*
X463752Y2021427D01*
X463152Y2021586D01*
X462556Y2021758D01*
X461964Y2021946D01*
X461376Y2022148D01*
X460794Y2022364D01*
X460218Y2022595D01*
X459647Y2022840D01*
X459082Y2023098D01*
X458524Y2023371D01*
X457973Y2023657D01*
X457429Y2023956D01*
X456893Y2024269D01*
X456364Y2024594D01*
X455844Y2024933D01*
X455331Y2025284D01*
X454828Y2025648D01*
X454334Y2026024D01*
X453849Y2026412D01*
X453374Y2026812D01*
X452909Y2027223D01*
X452454Y2027646D01*
X452009Y2028079D01*
X451576Y2028524D01*
X451153Y2028979D01*
X450742Y2029444D01*
X450342Y2029919D01*
X449954Y2030404D01*
X449578Y2030898D01*
X449214Y2031401D01*
X448863Y2031914D01*
X448524Y2032434D01*
X448199Y2032963D01*
X447886Y2033499D01*
X447587Y2034043D01*
X447301Y2034594D01*
X447028Y2035152D01*
X446770Y2035717D01*
X446525Y2036288D01*
X446294Y2036864D01*
X446078Y2037446D01*
X445876Y2038034D01*
X445688Y2038626D01*
X445516Y2039222D01*
X445357Y2039822D01*
X445214Y2040427D01*
X445085Y2041034D01*
X444971Y2041644D01*
X444873Y2042258D01*
X444789Y2042873D01*
X444721Y2043490D01*
X444668Y2044109D01*
X444629Y2044729D01*
X444607Y2045349D01*
X444599Y2045970D01*
X450342Y2121408D02*
X450349Y2121957D01*
X450369Y2122505D01*
X450403Y2123052D01*
X450450Y2123599D01*
X450510Y2124144D01*
X450584Y2124688D01*
X450671Y2125229D01*
X450771Y2125769D01*
X450885Y2126305D01*
X451012Y2126839D01*
X451152Y2127370D01*
X451304Y2127896D01*
X451470Y2128419D01*
X451649Y2128938D01*
X451840Y2129452D01*
X452043Y2129962D01*
X452260Y2130466D01*
X452488Y2130965D01*
X452729Y2131458D01*
X452981Y2131945D01*
X453246Y2132425D01*
X453522Y2132899D01*
X453810Y2133366D01*
X454109Y2133826D01*
X454419Y2134278D01*
X454741Y2134723D01*
X455073Y2135160D01*
X455416Y2135588D01*
X455769Y2136008D01*
X456132Y2136419D01*
X456506Y2136821D01*
X456889Y2137213D01*
X457281Y2137596D01*
X457683Y2137970D01*
X458094Y2138333D01*
X458514Y2138686D01*
X458942Y2139029D01*
X459379Y2139361D01*
X459824Y2139683D01*
X460276Y2139993D01*
X460736Y2140292D01*
X461203Y2140580D01*
X461677Y2140856D01*
X462157Y2141121D01*
X462644Y2141373D01*
X463137Y2141614D01*
X463636Y2141842D01*
X464140Y2142059D01*
X464650Y2142262D01*
X465164Y2142453D01*
X465683Y2142632D01*
X466206Y2142798D01*
X466732Y2142950D01*
X467263Y2143090D01*
X467797Y2143217D01*
X468333Y2143331D01*
X468873Y2143431D01*
X469414Y2143518D01*
X469958Y2143592D01*
X470503Y2143652D01*
X471050Y2143699D01*
X471597Y2143733D01*
X472145Y2143753D01*
X472694Y2143760D01*
X473243Y2143753D01*
X473791Y2143733D01*
X474338Y2143699D01*
X474885Y2143652D01*
X475430Y2143592D01*
X475974Y2143518D01*
X476515Y2143431D01*
X477055Y2143331D01*
X477591Y2143217D01*
X478125Y2143090D01*
X478656Y2142950D01*
X479182Y2142798D01*
X479705Y2142632D01*
X480224Y2142453D01*
X480738Y2142262D01*
X481248Y2142059D01*
X481752Y2141842D01*
X482251Y2141614D01*
X482744Y2141373D01*
X483231Y2141121D01*
X483711Y2140856D01*
X484185Y2140580D01*
X484652Y2140292D01*
X485112Y2139993D01*
X485564Y2139683D01*
X486009Y2139361D01*
X486446Y2139029D01*
X486874Y2138686D01*
X487294Y2138333D01*
X487705Y2137970D01*
X488107Y2137596D01*
X488499Y2137213D01*
X488882Y2136821D01*
X489256Y2136419D01*
X489619Y2136008D01*
X489972Y2135588D01*
X490315Y2135160D01*
X490647Y2134723D01*
X490969Y2134278D01*
X491279Y2133826D01*
X491578Y2133366D01*
X491866Y2132899D01*
X492142Y2132425D01*
X492407Y2131945D01*
X492659Y2131458D01*
X492900Y2130965D01*
X493128Y2130466D01*
X493345Y2129962D01*
X493548Y2129452D01*
X493739Y2128938D01*
X493918Y2128419D01*
X494084Y2127896D01*
X494236Y2127370D01*
X494376Y2126839D01*
X494503Y2126305D01*
X494617Y2125769D01*
X494717Y2125229D01*
X494804Y2124688D01*
X494878Y2124144D01*
X494938Y2123599D01*
X494985Y2123052D01*
X495019Y2122505D01*
X495039Y2121957D01*
X495046Y2121408D01*
X495039Y2120859D01*
X495019Y2120311D01*
X494985Y2119764D01*
X494938Y2119217D01*
X494878Y2118672D01*
X494804Y2118128D01*
X494717Y2117587D01*
X494617Y2117047D01*
X494503Y2116511D01*
X494376Y2115977D01*
X494236Y2115446D01*
X494084Y2114920D01*
X493918Y2114397D01*
X493739Y2113878D01*
X493548Y2113364D01*
X493345Y2112854D01*
X493128Y2112350D01*
X492900Y2111851D01*
X492659Y2111358D01*
X492407Y2110871D01*
X492142Y2110391D01*
X491866Y2109917D01*
X491578Y2109450D01*
X491279Y2108990D01*
X490969Y2108538D01*
X490647Y2108093D01*
X490315Y2107656D01*
X489972Y2107228D01*
X489619Y2106808D01*
X489256Y2106397D01*
X488882Y2105995D01*
X488499Y2105603D01*
X488107Y2105220D01*
X487705Y2104846D01*
X487294Y2104483D01*
X486874Y2104130D01*
X486446Y2103787D01*
X486009Y2103455D01*
X485564Y2103133D01*
X485112Y2102823D01*
X484652Y2102524D01*
X484185Y2102236D01*
X483711Y2101960D01*
X483231Y2101695D01*
X482744Y2101443D01*
X482251Y2101202D01*
X481752Y2100974D01*
X481248Y2100757D01*
X480738Y2100554D01*
X480224Y2100363D01*
X479705Y2100184D01*
X479182Y2100018D01*
X478656Y2099866D01*
X478125Y2099726D01*
X477591Y2099599D01*
X477055Y2099485D01*
X476515Y2099385D01*
X475974Y2099298D01*
X475430Y2099224D01*
X474885Y2099164D01*
X474338Y2099117D01*
X473791Y2099083D01*
X473243Y2099063D01*
X472694Y2099056D01*
X472145Y2099063D01*
X471597Y2099083D01*
X471050Y2099117D01*
X470503Y2099164D01*
X469958Y2099224D01*
X469414Y2099298D01*
X468873Y2099385D01*
X468333Y2099485D01*
X467797Y2099599D01*
X467263Y2099726D01*
X466732Y2099866D01*
X466206Y2100018D01*
X465683Y2100184D01*
X465164Y2100363D01*
X464650Y2100554D01*
X464140Y2100757D01*
X463636Y2100974D01*
X463137Y2101202D01*
X462644Y2101443D01*
X462157Y2101695D01*
X461677Y2101960D01*
X461203Y2102236D01*
X460736Y2102524D01*
X460276Y2102823D01*
X459824Y2103133D01*
X459379Y2103455D01*
X458942Y2103787D01*
X458514Y2104130D01*
X458094Y2104483D01*
X457683Y2104846D01*
X457281Y2105220D01*
X456889Y2105603D01*
X456506Y2105995D01*
X456132Y2106397D01*
X455769Y2106808D01*
X455416Y2107228D01*
X455073Y2107656D01*
X454741Y2108093D01*
X454419Y2108538D01*
X454109Y2108990D01*
X453810Y2109450D01*
X453522Y2109917D01*
X453246Y2110391D01*
X452981Y2110871D01*
X452729Y2111358D01*
X452488Y2111851D01*
X452260Y2112350D01*
X452043Y2112854D01*
X451840Y2113364D01*
X451649Y2113878D01*
X451470Y2114397D01*
X451304Y2114920D01*
X451152Y2115446D01*
X451012Y2115977D01*
X450885Y2116511D01*
X450771Y2117047D01*
X450671Y2117587D01*
X450584Y2118128D01*
X450510Y2118672D01*
X450450Y2119217D01*
X450403Y2119764D01*
X450369Y2120311D01*
X450349Y2120859D01*
X450342Y2121408D01*
X446028Y2121408D02*
X446035Y2121994D01*
X446057Y2122579D01*
X446093Y2123164D01*
X446143Y2123748D01*
X446208Y2124330D01*
X446286Y2124911D01*
X446379Y2125489D01*
X446487Y2126065D01*
X446608Y2126638D01*
X446743Y2127208D01*
X446893Y2127775D01*
X447056Y2128338D01*
X447233Y2128896D01*
X447423Y2129450D01*
X447628Y2129999D01*
X447845Y2130543D01*
X448076Y2131082D01*
X448320Y2131615D01*
X448577Y2132141D01*
X448847Y2132661D01*
X449129Y2133174D01*
X449424Y2133681D01*
X449732Y2134179D01*
X450051Y2134671D01*
X450383Y2135154D01*
X450726Y2135629D01*
X451081Y2136095D01*
X451447Y2136552D01*
X451824Y2137001D01*
X452212Y2137439D01*
X452611Y2137869D01*
X453020Y2138288D01*
X453439Y2138697D01*
X453869Y2139096D01*
X454307Y2139484D01*
X454756Y2139861D01*
X455213Y2140227D01*
X455679Y2140582D01*
X456154Y2140925D01*
X456637Y2141257D01*
X457129Y2141576D01*
X457627Y2141884D01*
X458134Y2142179D01*
X458647Y2142461D01*
X459167Y2142731D01*
X459693Y2142988D01*
X460226Y2143232D01*
X460765Y2143463D01*
X461309Y2143680D01*
X461858Y2143885D01*
X462412Y2144075D01*
X462970Y2144252D01*
X463533Y2144415D01*
X464100Y2144565D01*
X464670Y2144700D01*
X465243Y2144821D01*
X465819Y2144929D01*
X466397Y2145022D01*
X466978Y2145100D01*
X467560Y2145165D01*
X468144Y2145215D01*
X468729Y2145251D01*
X469314Y2145273D01*
X469900Y2145280D01*
X470486Y2145273D01*
X471071Y2145251D01*
X471656Y2145215D01*
X472240Y2145165D01*
X472822Y2145100D01*
X473403Y2145022D01*
X473981Y2144929D01*
X474557Y2144821D01*
X475130Y2144700D01*
X475700Y2144565D01*
X476267Y2144415D01*
X476830Y2144252D01*
X477388Y2144075D01*
X477942Y2143885D01*
X478491Y2143680D01*
X479035Y2143463D01*
X479574Y2143232D01*
X480107Y2142988D01*
X480633Y2142731D01*
X481153Y2142461D01*
X481666Y2142179D01*
X482173Y2141884D01*
X482671Y2141576D01*
X483163Y2141257D01*
X483646Y2140925D01*
X484121Y2140582D01*
X484587Y2140227D01*
X485044Y2139861D01*
X485493Y2139484D01*
X485931Y2139096D01*
X486361Y2138697D01*
X486780Y2138288D01*
X487189Y2137869D01*
X487588Y2137439D01*
X487976Y2137001D01*
X488353Y2136552D01*
X488719Y2136095D01*
X489074Y2135629D01*
X489417Y2135154D01*
X489749Y2134671D01*
X490068Y2134179D01*
X490376Y2133681D01*
X490671Y2133174D01*
X490953Y2132661D01*
X491223Y2132141D01*
X491480Y2131615D01*
X491724Y2131082D01*
X491955Y2130543D01*
X492172Y2129999D01*
X492377Y2129450D01*
X492567Y2128896D01*
X492744Y2128338D01*
X492907Y2127775D01*
X493057Y2127208D01*
X493192Y2126638D01*
X493313Y2126065D01*
X493421Y2125489D01*
X493514Y2124911D01*
X493592Y2124330D01*
X493657Y2123748D01*
X493707Y2123164D01*
X493743Y2122579D01*
X493765Y2121994D01*
X493772Y2121408D01*
X493765Y2120822D01*
X493743Y2120237D01*
X493707Y2119652D01*
X493657Y2119068D01*
X493592Y2118486D01*
X493514Y2117905D01*
X493421Y2117327D01*
X493313Y2116751D01*
X493192Y2116178D01*
X493057Y2115608D01*
X492907Y2115041D01*
X492744Y2114478D01*
X492567Y2113920D01*
X492377Y2113366D01*
X492172Y2112817D01*
X491955Y2112273D01*
X491724Y2111734D01*
X491480Y2111201D01*
X491223Y2110675D01*
X490953Y2110155D01*
X490671Y2109642D01*
X490376Y2109135D01*
X490068Y2108637D01*
X489749Y2108145D01*
X489417Y2107662D01*
X489074Y2107187D01*
X488719Y2106721D01*
X488353Y2106264D01*
X487976Y2105815D01*
X487588Y2105377D01*
X487189Y2104947D01*
X486780Y2104528D01*
X486361Y2104119D01*
X485931Y2103720D01*
X485493Y2103332D01*
X485044Y2102955D01*
X484587Y2102589D01*
X484121Y2102234D01*
X483646Y2101891D01*
X483163Y2101559D01*
X482671Y2101240D01*
X482173Y2100932D01*
X481666Y2100637D01*
X481153Y2100355D01*
X480633Y2100085D01*
X480107Y2099828D01*
X479574Y2099584D01*
X479035Y2099353D01*
X478491Y2099136D01*
X477942Y2098931D01*
X477388Y2098741D01*
X476830Y2098564D01*
X476267Y2098401D01*
X475700Y2098251D01*
X475130Y2098116D01*
X474557Y2097995D01*
X473981Y2097887D01*
X473403Y2097794D01*
X472822Y2097716D01*
X472240Y2097651D01*
X471656Y2097601D01*
X471071Y2097565D01*
X470486Y2097543D01*
X469900Y2097536D01*
X469314Y2097543D01*
X468729Y2097565D01*
X468144Y2097601D01*
X467560Y2097651D01*
X466978Y2097716D01*
X466397Y2097794D01*
X465819Y2097887D01*
X465243Y2097995D01*
X464670Y2098116D01*
X464100Y2098251D01*
X463533Y2098401D01*
X462970Y2098564D01*
X462412Y2098741D01*
X461858Y2098931D01*
X461309Y2099136D01*
X460765Y2099353D01*
X460226Y2099584D01*
X459693Y2099828D01*
X459167Y2100085D01*
X458647Y2100355D01*
X458134Y2100637D01*
X457627Y2100932D01*
X457129Y2101240D01*
X456637Y2101559D01*
X456154Y2101891D01*
X455679Y2102234D01*
X455213Y2102589D01*
X454756Y2102955D01*
X454307Y2103332D01*
X453869Y2103720D01*
X453439Y2104119D01*
X453020Y2104528D01*
X452611Y2104947D01*
X452212Y2105377D01*
X451824Y2105815D01*
X451447Y2106264D01*
X451081Y2106721D01*
X450726Y2107187D01*
X450383Y2107662D01*
X450051Y2108145D01*
X449732Y2108637D01*
X449424Y2109135D01*
X449129Y2109642D01*
X448847Y2110155D01*
X448577Y2110675D01*
X448320Y2111201D01*
X448076Y2111734D01*
X447845Y2112273D01*
X447628Y2112817D01*
X447423Y2113366D01*
X447233Y2113920D01*
X447056Y2114478D01*
X446893Y2115041D01*
X446743Y2115608D01*
X446608Y2116178D01*
X446487Y2116751D01*
X446379Y2117327D01*
X446286Y2117905D01*
X446208Y2118486D01*
X446143Y2119068D01*
X446093Y2119652D01*
X446057Y2120237D01*
X446035Y2120822D01*
X446028Y2121408D01*
X444141Y2199640D02*
X444149Y2200272D01*
X444172Y2200904D01*
X444211Y2201535D01*
X444265Y2202165D01*
X444335Y2202793D01*
X444420Y2203420D01*
X444520Y2204044D01*
X444636Y2204665D01*
X444767Y2205284D01*
X444913Y2205899D01*
X445074Y2206510D01*
X445250Y2207117D01*
X445441Y2207720D01*
X445647Y2208318D01*
X445867Y2208911D01*
X446102Y2209498D01*
X446351Y2210079D01*
X446614Y2210653D01*
X446891Y2211222D01*
X447183Y2211783D01*
X447487Y2212337D01*
X447806Y2212883D01*
X448137Y2213421D01*
X448482Y2213951D01*
X448840Y2214472D01*
X449210Y2214985D01*
X449593Y2215488D01*
X449988Y2215981D01*
X450395Y2216465D01*
X450814Y2216939D01*
X451244Y2217402D01*
X451686Y2217854D01*
X452138Y2218296D01*
X452601Y2218726D01*
X453075Y2219145D01*
X453559Y2219552D01*
X454052Y2219947D01*
X454555Y2220330D01*
X455068Y2220700D01*
X455589Y2221058D01*
X456119Y2221403D01*
X456657Y2221734D01*
X457203Y2222053D01*
X457757Y2222357D01*
X458318Y2222649D01*
X458887Y2222926D01*
X459461Y2223189D01*
X460042Y2223438D01*
X460629Y2223673D01*
X461222Y2223893D01*
X461820Y2224099D01*
X462423Y2224290D01*
X463030Y2224466D01*
X463641Y2224627D01*
X464256Y2224773D01*
X464875Y2224904D01*
X465496Y2225020D01*
X466120Y2225120D01*
X466747Y2225205D01*
X467375Y2225275D01*
X468005Y2225329D01*
X468636Y2225368D01*
X469268Y2225391D01*
X469900Y2225399D01*
X470532Y2225391D01*
X471164Y2225368D01*
X471795Y2225329D01*
X472425Y2225275D01*
X473053Y2225205D01*
X473680Y2225120D01*
X474304Y2225020D01*
X474925Y2224904D01*
X475544Y2224773D01*
X476159Y2224627D01*
X476770Y2224466D01*
X477377Y2224290D01*
X477980Y2224099D01*
X478578Y2223893D01*
X479171Y2223673D01*
X479758Y2223438D01*
X480339Y2223189D01*
X480913Y2222926D01*
X481482Y2222649D01*
X482043Y2222357D01*
X482597Y2222053D01*
X483143Y2221734D01*
X483681Y2221403D01*
X484211Y2221058D01*
X484732Y2220700D01*
X485245Y2220330D01*
X485748Y2219947D01*
X486241Y2219552D01*
X486725Y2219145D01*
X487199Y2218726D01*
X487662Y2218296D01*
X488114Y2217854D01*
X488556Y2217402D01*
X488986Y2216939D01*
X489405Y2216465D01*
X489812Y2215981D01*
X490207Y2215488D01*
X490590Y2214985D01*
X490960Y2214472D01*
X491318Y2213951D01*
X491663Y2213421D01*
X491994Y2212883D01*
X492313Y2212337D01*
X492617Y2211783D01*
X492909Y2211222D01*
X493186Y2210653D01*
X493449Y2210079D01*
X493698Y2209498D01*
X493933Y2208911D01*
X494153Y2208318D01*
X494359Y2207720D01*
X494550Y2207117D01*
X494726Y2206510D01*
X494887Y2205899D01*
X495033Y2205284D01*
X495164Y2204665D01*
X495280Y2204044D01*
X495380Y2203420D01*
X495465Y2202793D01*
X495535Y2202165D01*
X495589Y2201535D01*
X495628Y2200904D01*
X495651Y2200272D01*
X495659Y2199640D01*
X495651Y2199008D01*
X495628Y2198376D01*
X495589Y2197745D01*
X495535Y2197115D01*
X495465Y2196487D01*
X495380Y2195860D01*
X495280Y2195236D01*
X495164Y2194615D01*
X495033Y2193996D01*
X494887Y2193381D01*
X494726Y2192770D01*
X494550Y2192163D01*
X494359Y2191560D01*
X494153Y2190962D01*
X493933Y2190369D01*
X493698Y2189782D01*
X493449Y2189201D01*
X493186Y2188627D01*
X492909Y2188058D01*
X492617Y2187497D01*
X492313Y2186943D01*
X491994Y2186397D01*
X491663Y2185859D01*
X491318Y2185329D01*
X490960Y2184808D01*
X490590Y2184295D01*
X490207Y2183792D01*
X489812Y2183299D01*
X489405Y2182815D01*
X488986Y2182341D01*
X488556Y2181878D01*
X488114Y2181426D01*
X487662Y2180984D01*
X487199Y2180554D01*
X486725Y2180135D01*
X486241Y2179728D01*
X485748Y2179333D01*
X485245Y2178950D01*
X484732Y2178580D01*
X484211Y2178222D01*
X483681Y2177877D01*
X483143Y2177546D01*
X482597Y2177227D01*
X482043Y2176923D01*
X481482Y2176631D01*
X480913Y2176354D01*
X480339Y2176091D01*
X479758Y2175842D01*
X479171Y2175607D01*
X478578Y2175387D01*
X477980Y2175181D01*
X477377Y2174990D01*
X476770Y2174814D01*
X476159Y2174653D01*
X475544Y2174507D01*
X474925Y2174376D01*
X474304Y2174260D01*
X473680Y2174160D01*
X473053Y2174075D01*
X472425Y2174005D01*
X471795Y2173951D01*
X471164Y2173912D01*
X470532Y2173889D01*
X469900Y2173881D01*
X469268Y2173889D01*
X468636Y2173912D01*
X468005Y2173951D01*
X467375Y2174005D01*
X466747Y2174075D01*
X466120Y2174160D01*
X465496Y2174260D01*
X464875Y2174376D01*
X464256Y2174507D01*
X463641Y2174653D01*
X463030Y2174814D01*
X462423Y2174990D01*
X461820Y2175181D01*
X461222Y2175387D01*
X460629Y2175607D01*
X460042Y2175842D01*
X459461Y2176091D01*
X458887Y2176354D01*
X458318Y2176631D01*
X457757Y2176923D01*
X457203Y2177227D01*
X456657Y2177546D01*
X456119Y2177877D01*
X455589Y2178222D01*
X455068Y2178580D01*
X454555Y2178950D01*
X454052Y2179333D01*
X453559Y2179728D01*
X453075Y2180135D01*
X452601Y2180554D01*
X452138Y2180984D01*
X451686Y2181426D01*
X451244Y2181878D01*
X450814Y2182341D01*
X450395Y2182815D01*
X449988Y2183299D01*
X449593Y2183792D01*
X449210Y2184295D01*
X448840Y2184808D01*
X448482Y2185329D01*
X448137Y2185859D01*
X447806Y2186397D01*
X447487Y2186943D01*
X447183Y2187497D01*
X446891Y2188058D01*
X446614Y2188627D01*
X446351Y2189201D01*
X446102Y2189782D01*
X445867Y2190369D01*
X445647Y2190962D01*
X445441Y2191560D01*
X445250Y2192163D01*
X445074Y2192770D01*
X444913Y2193381D01*
X444767Y2193996D01*
X444636Y2194615D01*
X444520Y2195236D01*
X444420Y2195860D01*
X444335Y2196487D01*
X444265Y2197115D01*
X444211Y2197745D01*
X444172Y2198376D01*
X444149Y2199008D01*
X444141Y2199640D01*
X443394Y2121408D02*
X443402Y2122058D01*
X443426Y2122709D01*
X443466Y2123358D01*
X443522Y2124006D01*
X443593Y2124653D01*
X443681Y2125297D01*
X443784Y2125940D01*
X443903Y2126579D01*
X444038Y2127215D01*
X444188Y2127848D01*
X444354Y2128477D01*
X444535Y2129102D01*
X444732Y2129722D01*
X444943Y2130338D01*
X445170Y2130947D01*
X445412Y2131551D01*
X445668Y2132149D01*
X445939Y2132741D01*
X446224Y2133325D01*
X446524Y2133903D01*
X446837Y2134473D01*
X447165Y2135035D01*
X447506Y2135589D01*
X447861Y2136134D01*
X448229Y2136670D01*
X448610Y2137198D01*
X449004Y2137715D01*
X449411Y2138223D01*
X449829Y2138721D01*
X450260Y2139208D01*
X450703Y2139685D01*
X451157Y2140151D01*
X451623Y2140605D01*
X452100Y2141048D01*
X452587Y2141479D01*
X453085Y2141897D01*
X453593Y2142304D01*
X454110Y2142698D01*
X454638Y2143079D01*
X455174Y2143447D01*
X455719Y2143802D01*
X456273Y2144143D01*
X456835Y2144471D01*
X457405Y2144784D01*
X457983Y2145084D01*
X458567Y2145369D01*
X459159Y2145640D01*
X459757Y2145896D01*
X460361Y2146138D01*
X460970Y2146365D01*
X461586Y2146576D01*
X462206Y2146773D01*
X462831Y2146954D01*
X463460Y2147120D01*
X464093Y2147270D01*
X464729Y2147405D01*
X465368Y2147524D01*
X466011Y2147627D01*
X466655Y2147715D01*
X467302Y2147786D01*
X467950Y2147842D01*
X468599Y2147882D01*
X469250Y2147906D01*
X469900Y2147914D01*
X470550Y2147906D01*
X471201Y2147882D01*
X471850Y2147842D01*
X472498Y2147786D01*
X473145Y2147715D01*
X473789Y2147627D01*
X474432Y2147524D01*
X475071Y2147405D01*
X475707Y2147270D01*
X476340Y2147120D01*
X476969Y2146954D01*
X477594Y2146773D01*
X478214Y2146576D01*
X478830Y2146365D01*
X479439Y2146138D01*
X480043Y2145896D01*
X480641Y2145640D01*
X481233Y2145369D01*
X481817Y2145084D01*
X482395Y2144784D01*
X482965Y2144471D01*
X483527Y2144143D01*
X484081Y2143802D01*
X484626Y2143447D01*
X485162Y2143079D01*
X485690Y2142698D01*
X486207Y2142304D01*
X486715Y2141897D01*
X487213Y2141479D01*
X487700Y2141048D01*
X488177Y2140605D01*
X488643Y2140151D01*
X489097Y2139685D01*
X489540Y2139208D01*
X489971Y2138721D01*
X490389Y2138223D01*
X490796Y2137715D01*
X491190Y2137198D01*
X491571Y2136670D01*
X491939Y2136134D01*
X492294Y2135589D01*
X492635Y2135035D01*
X492963Y2134473D01*
X493276Y2133903D01*
X493576Y2133325D01*
X493861Y2132741D01*
X494132Y2132149D01*
X494388Y2131551D01*
X494630Y2130947D01*
X494857Y2130338D01*
X495068Y2129722D01*
X495265Y2129102D01*
X495446Y2128477D01*
X495612Y2127848D01*
X495762Y2127215D01*
X495897Y2126579D01*
X496016Y2125940D01*
X496119Y2125297D01*
X496207Y2124653D01*
X496278Y2124006D01*
X496334Y2123358D01*
X496374Y2122709D01*
X496398Y2122058D01*
X496406Y2121408D01*
X496398Y2120758D01*
X496374Y2120107D01*
X496334Y2119458D01*
X496278Y2118810D01*
X496207Y2118163D01*
X496119Y2117519D01*
X496016Y2116876D01*
X495897Y2116237D01*
X495762Y2115601D01*
X495612Y2114968D01*
X495446Y2114339D01*
X495265Y2113714D01*
X495068Y2113094D01*
X494857Y2112478D01*
X494630Y2111869D01*
X494388Y2111265D01*
X494132Y2110667D01*
X493861Y2110075D01*
X493576Y2109491D01*
X493276Y2108913D01*
X492963Y2108343D01*
X492635Y2107781D01*
X492294Y2107227D01*
X491939Y2106682D01*
X491571Y2106146D01*
X491190Y2105618D01*
X490796Y2105101D01*
X490389Y2104593D01*
X489971Y2104095D01*
X489540Y2103608D01*
X489097Y2103131D01*
X488643Y2102665D01*
X488177Y2102211D01*
X487700Y2101768D01*
X487213Y2101337D01*
X486715Y2100919D01*
X486207Y2100512D01*
X485690Y2100118D01*
X485162Y2099737D01*
X484626Y2099369D01*
X484081Y2099014D01*
X483527Y2098673D01*
X482965Y2098345D01*
X482395Y2098032D01*
X481817Y2097732D01*
X481233Y2097447D01*
X480641Y2097176D01*
X480043Y2096920D01*
X479439Y2096678D01*
X478830Y2096451D01*
X478214Y2096240D01*
X477594Y2096043D01*
X476969Y2095862D01*
X476340Y2095696D01*
X475707Y2095546D01*
X475071Y2095411D01*
X474432Y2095292D01*
X473789Y2095189D01*
X473145Y2095101D01*
X472498Y2095030D01*
X471850Y2094974D01*
X471201Y2094934D01*
X470550Y2094910D01*
X469900Y2094902D01*
X469250Y2094910D01*
X468599Y2094934D01*
X467950Y2094974D01*
X467302Y2095030D01*
X466655Y2095101D01*
X466011Y2095189D01*
X465368Y2095292D01*
X464729Y2095411D01*
X464093Y2095546D01*
X463460Y2095696D01*
X462831Y2095862D01*
X462206Y2096043D01*
X461586Y2096240D01*
X460970Y2096451D01*
X460361Y2096678D01*
X459757Y2096920D01*
X459159Y2097176D01*
X458567Y2097447D01*
X457983Y2097732D01*
X457405Y2098032D01*
X456835Y2098345D01*
X456273Y2098673D01*
X455719Y2099014D01*
X455174Y2099369D01*
X454638Y2099737D01*
X454110Y2100118D01*
X453593Y2100512D01*
X453085Y2100919D01*
X452587Y2101337D01*
X452100Y2101768D01*
X451623Y2102211D01*
X451157Y2102665D01*
X450703Y2103131D01*
X450260Y2103608D01*
X449829Y2104095D01*
X449411Y2104593D01*
X449004Y2105101D01*
X448610Y2105618D01*
X448229Y2106146D01*
X447861Y2106682D01*
X447506Y2107227D01*
X447165Y2107781D01*
X446837Y2108343D01*
X446524Y2108913D01*
X446224Y2109491D01*
X445939Y2110075D01*
X445668Y2110667D01*
X445412Y2111265D01*
X445170Y2111869D01*
X444943Y2112478D01*
X444732Y2113094D01*
X444535Y2113714D01*
X444354Y2114339D01*
X444188Y2114968D01*
X444038Y2115601D01*
X443903Y2116237D01*
X443784Y2116876D01*
X443681Y2117519D01*
X443593Y2118163D01*
X443522Y2118810D01*
X443466Y2119458D01*
X443426Y2120107D01*
X443402Y2120758D01*
X443394Y2121408D01*
X405638Y2124202D02*
X405640Y2124307D01*
X405646Y2124412D01*
X405656Y2124517D01*
X405670Y2124621D01*
X405687Y2124725D01*
X405709Y2124827D01*
X405734Y2124929D01*
X405764Y2125030D01*
X405797Y2125130D01*
X405833Y2125229D01*
X405874Y2125326D01*
X405918Y2125421D01*
X405966Y2125515D01*
X406017Y2125607D01*
X406071Y2125696D01*
X406129Y2125784D01*
X406190Y2125870D01*
X406255Y2125953D01*
X406322Y2126033D01*
X406392Y2126112D01*
X406466Y2126187D01*
X406542Y2126259D01*
X406620Y2126329D01*
X406702Y2126396D01*
X406785Y2126459D01*
X406872Y2126520D01*
X406960Y2126577D01*
X407050Y2126630D01*
X407143Y2126681D01*
X407237Y2126727D01*
X407333Y2126771D01*
X407430Y2126810D01*
X407529Y2126846D01*
X407629Y2126878D01*
X407730Y2126906D01*
X407832Y2126931D01*
X407935Y2126952D01*
X408039Y2126968D01*
X408143Y2126981D01*
X408248Y2126990D01*
X408353Y2126995D01*
X408458Y2126996D01*
X408563Y2126993D01*
X408668Y2126986D01*
X408773Y2126975D01*
X408877Y2126960D01*
X408980Y2126942D01*
X409083Y2126919D01*
X409185Y2126893D01*
X409285Y2126862D01*
X409385Y2126828D01*
X409483Y2126791D01*
X409580Y2126749D01*
X409675Y2126704D01*
X409768Y2126656D01*
X409859Y2126604D01*
X409949Y2126549D01*
X410036Y2126490D01*
X410121Y2126428D01*
X410203Y2126363D01*
X410283Y2126295D01*
X410361Y2126224D01*
X410435Y2126150D01*
X410507Y2126073D01*
X410576Y2125993D01*
X410642Y2125912D01*
X410705Y2125827D01*
X410764Y2125741D01*
X410820Y2125652D01*
X410873Y2125561D01*
X410923Y2125468D01*
X410969Y2125374D01*
X411011Y2125277D01*
X411049Y2125180D01*
X411084Y2125080D01*
X411116Y2124980D01*
X411143Y2124878D01*
X411166Y2124776D01*
X411186Y2124673D01*
X411202Y2124569D01*
X411214Y2124464D01*
X411222Y2124360D01*
X411226Y2124255D01*
X411226Y2124149D01*
X411222Y2124044D01*
X411214Y2123940D01*
X411202Y2123835D01*
X411186Y2123731D01*
X411166Y2123628D01*
X411143Y2123526D01*
X411116Y2123424D01*
X411084Y2123324D01*
X411049Y2123224D01*
X411011Y2123127D01*
X410969Y2123030D01*
X410923Y2122936D01*
X410873Y2122843D01*
X410820Y2122752D01*
X410764Y2122663D01*
X410705Y2122577D01*
X410642Y2122492D01*
X410576Y2122411D01*
X410507Y2122331D01*
X410435Y2122254D01*
X410361Y2122180D01*
X410283Y2122109D01*
X410203Y2122041D01*
X410121Y2121976D01*
X410036Y2121914D01*
X409949Y2121855D01*
X409859Y2121800D01*
X409768Y2121748D01*
X409675Y2121700D01*
X409580Y2121655D01*
X409483Y2121613D01*
X409385Y2121576D01*
X409285Y2121542D01*
X409185Y2121511D01*
X409083Y2121485D01*
X408980Y2121462D01*
X408877Y2121444D01*
X408773Y2121429D01*
X408668Y2121418D01*
X408563Y2121411D01*
X408458Y2121408D01*
X408353Y2121409D01*
X408248Y2121414D01*
X408143Y2121423D01*
X408039Y2121436D01*
X407935Y2121452D01*
X407832Y2121473D01*
X407730Y2121498D01*
X407629Y2121526D01*
X407529Y2121558D01*
X407430Y2121594D01*
X407333Y2121633D01*
X407237Y2121677D01*
X407143Y2121723D01*
X407050Y2121774D01*
X406960Y2121827D01*
X406872Y2121884D01*
X406785Y2121945D01*
X406702Y2122008D01*
X406620Y2122075D01*
X406542Y2122145D01*
X406466Y2122217D01*
X406392Y2122292D01*
X406322Y2122371D01*
X406255Y2122451D01*
X406190Y2122534D01*
X406129Y2122620D01*
X406071Y2122708D01*
X406017Y2122797D01*
X405966Y2122889D01*
X405918Y2122983D01*
X405874Y2123078D01*
X405833Y2123175D01*
X405797Y2123274D01*
X405764Y2123374D01*
X405734Y2123475D01*
X405709Y2123577D01*
X405687Y2123679D01*
X405670Y2123783D01*
X405656Y2123887D01*
X405646Y2123992D01*
X405640Y2124097D01*
X405638Y2124202D01*
X392140Y2121408D02*
X392145Y2121808D01*
X392160Y2122207D01*
X392184Y2122607D01*
X392218Y2123005D01*
X392263Y2123402D01*
X392316Y2123799D01*
X392380Y2124193D01*
X392453Y2124586D01*
X392536Y2124978D01*
X392628Y2125367D01*
X392730Y2125753D01*
X392842Y2126137D01*
X392962Y2126519D01*
X393092Y2126897D01*
X393232Y2127271D01*
X393380Y2127643D01*
X393538Y2128010D01*
X393704Y2128374D01*
X393880Y2128733D01*
X394064Y2129088D01*
X394257Y2129438D01*
X394458Y2129784D01*
X394668Y2130124D01*
X394886Y2130459D01*
X395112Y2130789D01*
X395346Y2131113D01*
X395588Y2131431D01*
X395838Y2131744D01*
X396096Y2132049D01*
X396360Y2132349D01*
X396633Y2132642D01*
X396912Y2132928D01*
X397198Y2133207D01*
X397491Y2133480D01*
X397791Y2133744D01*
X398096Y2134002D01*
X398409Y2134252D01*
X398727Y2134494D01*
X399051Y2134728D01*
X399381Y2134954D01*
X399716Y2135172D01*
X400056Y2135382D01*
X400402Y2135583D01*
X400752Y2135776D01*
X401107Y2135960D01*
X401466Y2136136D01*
X401830Y2136302D01*
X402197Y2136460D01*
X402569Y2136608D01*
X402943Y2136748D01*
X403321Y2136878D01*
X403703Y2136998D01*
X404087Y2137110D01*
X404473Y2137212D01*
X404862Y2137304D01*
X405254Y2137387D01*
X405647Y2137460D01*
X406041Y2137524D01*
X406438Y2137577D01*
X406835Y2137622D01*
X407233Y2137656D01*
X407633Y2137680D01*
X408032Y2137695D01*
X408432Y2137700D01*
X408832Y2137695D01*
X409231Y2137680D01*
X409631Y2137656D01*
X410029Y2137622D01*
X410426Y2137577D01*
X410823Y2137524D01*
X411217Y2137460D01*
X411610Y2137387D01*
X412002Y2137304D01*
X412391Y2137212D01*
X412777Y2137110D01*
X413161Y2136998D01*
X413543Y2136878D01*
X413921Y2136748D01*
X414295Y2136608D01*
X414667Y2136460D01*
X415034Y2136302D01*
X415398Y2136136D01*
X415757Y2135960D01*
X416112Y2135776D01*
X416462Y2135583D01*
X416808Y2135382D01*
X417148Y2135172D01*
X417483Y2134954D01*
X417813Y2134728D01*
X418137Y2134494D01*
X418455Y2134252D01*
X418768Y2134002D01*
X419073Y2133744D01*
X419373Y2133480D01*
X419666Y2133207D01*
X419952Y2132928D01*
X420231Y2132642D01*
X420504Y2132349D01*
X420768Y2132049D01*
X421026Y2131744D01*
X421276Y2131431D01*
X421518Y2131113D01*
X421752Y2130789D01*
X421978Y2130459D01*
X422196Y2130124D01*
X422406Y2129784D01*
X422607Y2129438D01*
X422800Y2129088D01*
X422984Y2128733D01*
X423160Y2128374D01*
X423326Y2128010D01*
X423484Y2127643D01*
X423632Y2127271D01*
X423772Y2126897D01*
X423902Y2126519D01*
X424022Y2126137D01*
X424134Y2125753D01*
X424236Y2125367D01*
X424328Y2124978D01*
X424411Y2124586D01*
X424484Y2124193D01*
X424548Y2123799D01*
X424601Y2123402D01*
X424646Y2123005D01*
X424680Y2122607D01*
X424704Y2122207D01*
X424719Y2121808D01*
X424724Y2121408D01*
X424719Y2121008D01*
X424704Y2120609D01*
X424680Y2120209D01*
X424646Y2119811D01*
X424601Y2119414D01*
X424548Y2119017D01*
X424484Y2118623D01*
X424411Y2118230D01*
X424328Y2117838D01*
X424236Y2117449D01*
X424134Y2117063D01*
X424022Y2116679D01*
X423902Y2116297D01*
X423772Y2115919D01*
X423632Y2115545D01*
X423484Y2115173D01*
X423326Y2114806D01*
X423160Y2114442D01*
X422984Y2114083D01*
X422800Y2113728D01*
X422607Y2113378D01*
X422406Y2113032D01*
X422196Y2112692D01*
X421978Y2112357D01*
X421752Y2112027D01*
X421518Y2111703D01*
X421276Y2111385D01*
X421026Y2111072D01*
X420768Y2110767D01*
X420504Y2110467D01*
X420231Y2110174D01*
X419952Y2109888D01*
X419666Y2109609D01*
X419373Y2109336D01*
X419073Y2109072D01*
X418768Y2108814D01*
X418455Y2108564D01*
X418137Y2108322D01*
X417813Y2108088D01*
X417483Y2107862D01*
X417148Y2107644D01*
X416808Y2107434D01*
X416462Y2107233D01*
X416112Y2107040D01*
X415757Y2106856D01*
X415398Y2106680D01*
X415034Y2106514D01*
X414667Y2106356D01*
X414295Y2106208D01*
X413921Y2106068D01*
X413543Y2105938D01*
X413161Y2105818D01*
X412777Y2105706D01*
X412391Y2105604D01*
X412002Y2105512D01*
X411610Y2105429D01*
X411217Y2105356D01*
X410823Y2105292D01*
X410426Y2105239D01*
X410029Y2105194D01*
X409631Y2105160D01*
X409231Y2105136D01*
X408832Y2105121D01*
X408432Y2105116D01*
X408032Y2105121D01*
X407633Y2105136D01*
X407233Y2105160D01*
X406835Y2105194D01*
X406438Y2105239D01*
X406041Y2105292D01*
X405647Y2105356D01*
X405254Y2105429D01*
X404862Y2105512D01*
X404473Y2105604D01*
X404087Y2105706D01*
X403703Y2105818D01*
X403321Y2105938D01*
X402943Y2106068D01*
X402569Y2106208D01*
X402197Y2106356D01*
X401830Y2106514D01*
X401466Y2106680D01*
X401107Y2106856D01*
X400752Y2107040D01*
X400402Y2107233D01*
X400056Y2107434D01*
X399716Y2107644D01*
X399381Y2107862D01*
X399051Y2108088D01*
X398727Y2108322D01*
X398409Y2108564D01*
X398096Y2108814D01*
X397791Y2109072D01*
X397491Y2109336D01*
X397198Y2109609D01*
X396912Y2109888D01*
X396633Y2110174D01*
X396360Y2110467D01*
X396096Y2110767D01*
X395838Y2111072D01*
X395588Y2111385D01*
X395346Y2111703D01*
X395112Y2112027D01*
X394886Y2112357D01*
X394668Y2112692D01*
X394458Y2113032D01*
X394257Y2113378D01*
X394064Y2113728D01*
X393880Y2114083D01*
X393704Y2114442D01*
X393538Y2114806D01*
X393380Y2115173D01*
X393232Y2115545D01*
X393092Y2115919D01*
X392962Y2116297D01*
X392842Y2116679D01*
X392730Y2117063D01*
X392628Y2117449D01*
X392536Y2117838D01*
X392453Y2118230D01*
X392380Y2118623D01*
X392316Y2119017D01*
X392263Y2119414D01*
X392218Y2119811D01*
X392184Y2120209D01*
X392160Y2120609D01*
X392145Y2121008D01*
X392140Y2121408D01*
D160*
X2078000Y1871500D02*
X2078000Y1478000D01*
X2540000Y1016000D01*
X2540000Y381000D01*
X1978000Y1324000D02*
X1978000Y1871500D01*
X1978000Y1324000D02*
X2286000Y1016000D01*
X2286000Y381000D01*
X1878000Y1043000D02*
X1878000Y1871500D01*
X1878000Y1043000D02*
X2032000Y889000D01*
X2032000Y381000D01*
X1778000Y381000D02*
X1778000Y1871500D01*
X1678000Y1871500D02*
X1678000Y1043000D01*
X1524000Y889000D01*
X1524000Y381000D01*
X1578000Y1324000D02*
X1578000Y1871500D01*
X1578000Y1324000D02*
X1270000Y1016000D01*
X1270000Y381000D01*
X1478000Y1478000D02*
X1478000Y1871500D01*
X1478000Y1478000D02*
X1016000Y1016000D01*
X1016000Y381000D01*
M02*
