G04 EAGLE Gerber RS-274X export*
G75*
%MOMM*%
%FSLAX25Y25*%
%LPD*%
%INBottom_layer*%
%IPPOS*%
%AMOC8*
5,1,8,0,0,1.08239X$1,22.5*%
G01*
%ADD10C,1.879600*%
%ADD11R,2.263141X0.027941*%
%ADD12R,0.391159X0.027941*%
%ADD13R,0.447041X0.027941*%
%ADD14R,1.955800X0.027941*%
%ADD15R,0.391163X0.027941*%
%ADD16R,2.402841X0.027941*%
%ADD17R,2.291081X0.027938*%
%ADD18R,0.391159X0.027938*%
%ADD19R,0.447041X0.027938*%
%ADD20R,2.179319X0.027938*%
%ADD21R,0.391163X0.027938*%
%ADD22R,2.402841X0.027938*%
%ADD23R,2.291081X0.027941*%
%ADD24R,2.319019X0.027941*%
%ADD25R,2.374900X0.027941*%
%ADD26R,2.430778X0.027938*%
%ADD27R,0.419100X0.027941*%
%ADD28R,2.458719X0.027941*%
%ADD29R,0.447038X0.027941*%
%ADD30R,2.486659X0.027941*%
%ADD31R,0.419100X0.027938*%
%ADD32R,2.514600X0.027938*%
%ADD33R,0.558800X0.027941*%
%ADD34R,0.474981X0.027941*%
%ADD35R,2.430778X0.027941*%
%ADD36R,2.346959X0.027938*%
%ADD37R,2.319022X0.027941*%
%ADD38R,2.235200X0.027941*%
%ADD39R,2.207259X0.027938*%
%ADD40R,2.151378X0.027941*%
%ADD41R,0.363222X0.027941*%
%ADD42R,0.363219X0.027941*%
%ADD43R,0.363219X0.027938*%
%ADD44R,1.620522X0.027938*%
%ADD45R,1.592581X0.027941*%
%ADD46R,2.346959X0.027941*%
%ADD47R,2.291078X0.027941*%
%ADD48R,2.179319X0.027941*%
%ADD49R,2.151378X0.027938*%
%ADD50R,1.592581X0.027938*%
%ADD51R,0.530859X0.027941*%
%ADD52R,0.363222X0.027938*%
%ADD53R,0.335278X0.027941*%
%ADD54R,0.530859X0.027938*%
%ADD55R,2.514600X0.027941*%
%ADD56R,2.682238X0.027941*%
%ADD57R,0.754378X0.027941*%
%ADD58R,0.698500X0.027941*%
%ADD59R,0.642622X0.027938*%
%ADD60R,2.458719X0.027938*%
%ADD61R,2.682238X0.027938*%
%ADD62R,2.374900X0.027938*%
%ADD63R,0.642622X0.027941*%
%ADD64R,0.586741X0.027941*%
%ADD65R,0.474978X0.027938*%
%ADD66R,2.319019X0.027938*%
%ADD67R,0.474978X0.027941*%
%ADD68R,2.011678X0.027941*%
%ADD69R,2.654300X0.027941*%
%ADD70R,1.089662X0.027941*%
%ADD71R,0.027938X0.027941*%
%ADD72R,0.251463X0.027938*%
%ADD73R,0.251459X0.027938*%
%ADD74R,0.335281X0.027941*%
%ADD75R,0.502922X0.027941*%
%ADD76R,0.502919X0.027941*%
%ADD77R,0.530863X0.027938*%
%ADD78R,0.586738X0.027941*%
%ADD79R,0.586738X0.027938*%
%ADD80R,0.586741X0.027938*%
%ADD81R,0.530863X0.027941*%
%ADD82R,0.307338X0.027941*%
%ADD83R,0.307341X0.027941*%
%ADD84R,0.167641X0.027938*%
%ADD85R,0.167637X0.027938*%
%ADD86R,0.139700X0.027938*%
%ADD87R,0.251459X0.027941*%
%ADD88R,0.279400X0.027941*%
%ADD89R,0.223519X0.027941*%
%ADD90C,0.127000*%

G36*
X2186630Y182919D02*
X2186630Y182919D01*
X2186869Y182896D01*
X2187840Y183118D01*
X2188821Y183278D01*
X2189033Y183390D01*
X2189268Y183444D01*
X2190119Y183964D01*
X2190997Y184429D01*
X2191162Y184603D01*
X2191367Y184728D01*
X2192006Y185491D01*
X2192692Y186213D01*
X2192793Y186431D01*
X2192948Y186615D01*
X2193310Y187543D01*
X2193729Y188444D01*
X2193756Y188683D01*
X2193844Y188907D01*
X2193892Y189901D01*
X2194002Y190889D01*
X2193951Y191125D01*
X2193963Y191365D01*
X2193692Y192321D01*
X2193481Y193294D01*
X2193358Y193501D01*
X2193293Y193733D01*
X2192730Y194554D01*
X2192221Y195408D01*
X2192038Y195564D01*
X2191903Y195763D01*
X2191110Y196361D01*
X2190353Y197010D01*
X2190129Y197100D01*
X2189938Y197244D01*
X2188365Y197860D01*
X2142886Y210045D01*
X2085514Y243169D01*
X2038669Y290014D01*
X2005546Y347385D01*
X1988399Y411376D01*
X1988399Y477624D01*
X2005546Y541614D01*
X2038669Y598986D01*
X2085514Y645831D01*
X2142885Y678954D01*
X2206876Y696100D01*
X2273124Y696100D01*
X2296728Y689776D01*
X2297910Y689658D01*
X2299089Y689526D01*
X2299133Y689535D01*
X2299177Y689531D01*
X2300331Y689795D01*
X2301494Y690047D01*
X2301533Y690070D01*
X2301575Y690079D01*
X2302589Y690700D01*
X2303608Y691307D01*
X2303636Y691341D01*
X2303674Y691364D01*
X2304432Y692268D01*
X2305210Y693175D01*
X2305227Y693217D01*
X2305254Y693250D01*
X2305684Y694348D01*
X2306132Y695457D01*
X2306138Y695509D01*
X2306151Y695542D01*
X2306158Y695689D01*
X2306319Y697135D01*
X2306319Y1103249D01*
X2306288Y1103443D01*
X2306309Y1103638D01*
X2306089Y1104654D01*
X2305922Y1105678D01*
X2305830Y1105851D01*
X2305788Y1106043D01*
X2305256Y1106936D01*
X2304771Y1107853D01*
X2304629Y1107988D01*
X2304528Y1108157D01*
X2303741Y1108832D01*
X2302988Y1109548D01*
X2302809Y1109631D01*
X2302660Y1109759D01*
X2301696Y1110148D01*
X2300756Y1110586D01*
X2300561Y1110608D01*
X2300378Y1110681D01*
X2298700Y1110868D01*
X2049800Y1110868D01*
X2046151Y1114518D01*
X2045991Y1114632D01*
X2045868Y1114786D01*
X2044996Y1115348D01*
X2044153Y1115954D01*
X2043965Y1116012D01*
X2043799Y1116118D01*
X2042795Y1116372D01*
X2041801Y1116678D01*
X2041604Y1116673D01*
X2041414Y1116722D01*
X2040380Y1116642D01*
X2039341Y1116616D01*
X2039157Y1116548D01*
X2038960Y1116533D01*
X2038005Y1116128D01*
X2037029Y1115772D01*
X2036876Y1115649D01*
X2036695Y1115572D01*
X2035375Y1114518D01*
X2031726Y1110868D01*
X2023035Y1110868D01*
X2022007Y1110700D01*
X2020968Y1110583D01*
X2020751Y1110495D01*
X2020606Y1110471D01*
X2020321Y1110320D01*
X2019403Y1109947D01*
X2017792Y1109073D01*
X2012806Y1110553D01*
X2012553Y1110586D01*
X2012316Y1110681D01*
X2010638Y1110868D01*
X1995238Y1110868D01*
X1994189Y1110697D01*
X1993127Y1110570D01*
X1992937Y1110492D01*
X1992809Y1110471D01*
X1992534Y1110326D01*
X1991566Y1109925D01*
X1990058Y1109096D01*
X1984992Y1110566D01*
X1984761Y1110594D01*
X1984546Y1110681D01*
X1982867Y1110868D01*
X1971568Y1110868D01*
X1967886Y1114550D01*
X1967023Y1115171D01*
X1966182Y1115833D01*
X1965993Y1115911D01*
X1965888Y1115987D01*
X1965590Y1116078D01*
X1964813Y1116401D01*
X1963841Y1118168D01*
X1963698Y1118351D01*
X1963607Y1118565D01*
X1962553Y1119884D01*
X1956618Y1125818D01*
X1956542Y1126281D01*
X1956473Y1127188D01*
X1956344Y1127491D01*
X1956291Y1127814D01*
X1955867Y1128616D01*
X1955512Y1129454D01*
X1955252Y1129779D01*
X1955141Y1129989D01*
X1954904Y1130214D01*
X1954457Y1130773D01*
X1953824Y1131407D01*
X1953748Y1131871D01*
X1953678Y1132777D01*
X1953550Y1133079D01*
X1953497Y1133402D01*
X1953073Y1134204D01*
X1952718Y1135043D01*
X1952458Y1135368D01*
X1952347Y1135578D01*
X1952111Y1135802D01*
X1951663Y1136362D01*
X1951030Y1136995D01*
X1950954Y1137457D01*
X1950884Y1138364D01*
X1950756Y1138667D01*
X1950703Y1138990D01*
X1950279Y1139792D01*
X1949923Y1140630D01*
X1949664Y1140955D01*
X1949553Y1141165D01*
X1949316Y1141390D01*
X1948869Y1141949D01*
X1948235Y1142583D01*
X1948160Y1143045D01*
X1948090Y1143953D01*
X1947962Y1144256D01*
X1947909Y1144578D01*
X1947484Y1145381D01*
X1947129Y1146218D01*
X1946869Y1146543D01*
X1946758Y1146754D01*
X1946522Y1146978D01*
X1946075Y1147538D01*
X1945442Y1148171D01*
X1945366Y1148635D01*
X1945296Y1149541D01*
X1945168Y1149843D01*
X1945115Y1150166D01*
X1944691Y1150968D01*
X1944336Y1151807D01*
X1944076Y1152132D01*
X1943965Y1152342D01*
X1943729Y1152566D01*
X1943281Y1153126D01*
X1942648Y1153759D01*
X1942572Y1154221D01*
X1942503Y1155128D01*
X1942374Y1155431D01*
X1942321Y1155754D01*
X1941897Y1156556D01*
X1941542Y1157394D01*
X1941282Y1157719D01*
X1941171Y1157929D01*
X1940934Y1158154D01*
X1940487Y1158713D01*
X1937060Y1162141D01*
X1936984Y1162605D01*
X1936914Y1163511D01*
X1936786Y1163813D01*
X1936733Y1164136D01*
X1936309Y1164938D01*
X1935953Y1165776D01*
X1935693Y1166102D01*
X1935583Y1166311D01*
X1935347Y1166536D01*
X1934899Y1167096D01*
X1932917Y1169078D01*
X1932788Y1169321D01*
X1932646Y1169456D01*
X1932545Y1169625D01*
X1931758Y1170300D01*
X1931004Y1171016D01*
X1930826Y1171098D01*
X1930677Y1171227D01*
X1929713Y1171616D01*
X1928773Y1172053D01*
X1928578Y1172075D01*
X1928395Y1172149D01*
X1926717Y1172336D01*
X1808353Y1172336D01*
X1808159Y1172304D01*
X1807963Y1172326D01*
X1806948Y1172106D01*
X1805924Y1171939D01*
X1805751Y1171847D01*
X1805558Y1171805D01*
X1804666Y1171273D01*
X1803749Y1170788D01*
X1803613Y1170646D01*
X1803445Y1170545D01*
X1802770Y1169758D01*
X1802054Y1169004D01*
X1802032Y1168956D01*
X1800455Y1167380D01*
X1800274Y1167128D01*
X1800038Y1166927D01*
X1799093Y1165527D01*
X1793221Y1154316D01*
X1793144Y1154086D01*
X1792947Y1153793D01*
X1790427Y1148983D01*
X1790273Y1148517D01*
X1789873Y1147925D01*
X1787633Y1143649D01*
X1787401Y1142948D01*
X1786800Y1142058D01*
X1784839Y1138315D01*
X1784529Y1137380D01*
X1783727Y1136190D01*
X1782045Y1132981D01*
X1781734Y1132043D01*
X1781608Y1131732D01*
X1781597Y1131722D01*
X1780653Y1130322D01*
X1779251Y1127646D01*
X1778940Y1126708D01*
X1778632Y1125947D01*
X1778525Y1125856D01*
X1777580Y1124456D01*
X1773608Y1116872D01*
X1769430Y1115566D01*
X1768546Y1115123D01*
X1767634Y1114736D01*
X1767396Y1114546D01*
X1767231Y1114463D01*
X1766995Y1114225D01*
X1766315Y1113681D01*
X1763502Y1110868D01*
X1755560Y1110868D01*
X1755255Y1110818D01*
X1754945Y1110844D01*
X1753288Y1110522D01*
X1748501Y1109026D01*
X1746645Y1109998D01*
X1745707Y1110309D01*
X1744788Y1110681D01*
X1744485Y1110715D01*
X1744309Y1110773D01*
X1743973Y1110772D01*
X1743109Y1110868D01*
X1715673Y1110868D01*
X1715472Y1110836D01*
X1715268Y1110858D01*
X1713602Y1110582D01*
X1708442Y1109124D01*
X1707058Y1109898D01*
X1706030Y1110271D01*
X1705016Y1110681D01*
X1704848Y1110700D01*
X1704744Y1110738D01*
X1704449Y1110744D01*
X1703337Y1110868D01*
X1697756Y1110868D01*
X1688889Y1119736D01*
X1688723Y1119855D01*
X1688595Y1120014D01*
X1687222Y1120997D01*
X1685417Y1122007D01*
X1685105Y1122674D01*
X1684677Y1123683D01*
X1684571Y1123816D01*
X1684525Y1123914D01*
X1684323Y1124126D01*
X1683622Y1125003D01*
X1682877Y1125748D01*
X1682877Y1130156D01*
X1682844Y1130357D01*
X1682866Y1130561D01*
X1682590Y1132227D01*
X1678338Y1147280D01*
X1796461Y1358393D01*
X1796525Y1358570D01*
X1796685Y1358793D01*
X1810431Y1383361D01*
X1810560Y1383717D01*
X1810881Y1384166D01*
X1822499Y1404930D01*
X1830005Y1407050D01*
X1830995Y1407513D01*
X1832003Y1407941D01*
X1832136Y1408047D01*
X1832234Y1408093D01*
X1832447Y1408295D01*
X1833322Y1408995D01*
X1834662Y1410335D01*
X1840579Y1410335D01*
X1840780Y1410368D01*
X1840984Y1410346D01*
X1842650Y1410622D01*
X1847812Y1412080D01*
X1849196Y1411305D01*
X1850227Y1410931D01*
X1851238Y1410522D01*
X1851406Y1410503D01*
X1851510Y1410466D01*
X1851805Y1410459D01*
X1852917Y1410335D01*
X1897614Y1410335D01*
X1903028Y1404921D01*
X1903878Y1404310D01*
X1904692Y1403661D01*
X1904908Y1403570D01*
X1905027Y1403484D01*
X1905336Y1403389D01*
X1906248Y1403004D01*
X1910134Y1401850D01*
X1914384Y1394010D01*
X1914541Y1393808D01*
X1914641Y1393573D01*
X1915547Y1392439D01*
X1915573Y1392211D01*
X1915661Y1391994D01*
X1915685Y1391849D01*
X1915807Y1391618D01*
X1915818Y1391567D01*
X1915869Y1391481D01*
X1916208Y1390647D01*
X1917692Y1387909D01*
X1917848Y1387707D01*
X1917949Y1387471D01*
X1919003Y1386151D01*
X1920313Y1384842D01*
X1920946Y1384209D01*
X1921022Y1383744D01*
X1921092Y1382838D01*
X1921220Y1382536D01*
X1921273Y1382213D01*
X1921697Y1381411D01*
X1922053Y1380573D01*
X1922313Y1380248D01*
X1922423Y1380038D01*
X1922659Y1379813D01*
X1923107Y1379253D01*
X1923694Y1378667D01*
X1923823Y1378071D01*
X1923886Y1377250D01*
X1924014Y1376948D01*
X1924067Y1376625D01*
X1924184Y1376404D01*
X1924200Y1376328D01*
X1924411Y1375976D01*
X1924491Y1375823D01*
X1924847Y1374985D01*
X1925107Y1374660D01*
X1925218Y1374450D01*
X1925453Y1374226D01*
X1925456Y1374223D01*
X1925461Y1374215D01*
X1925466Y1374210D01*
X1925901Y1373666D01*
X1926573Y1372994D01*
X1926632Y1372636D01*
X1926748Y1371600D01*
X1926837Y1371381D01*
X1926861Y1371235D01*
X1927012Y1370950D01*
X1927383Y1370035D01*
X1927617Y1369603D01*
X1927775Y1369399D01*
X1927875Y1369163D01*
X1928929Y1367843D01*
X1929443Y1367330D01*
X1929543Y1366443D01*
X1929631Y1366227D01*
X1929655Y1366082D01*
X1929806Y1365796D01*
X1930179Y1364878D01*
X1930928Y1363497D01*
X1931084Y1363295D01*
X1931183Y1363061D01*
X1932238Y1361741D01*
X1932292Y1361687D01*
X1932337Y1361291D01*
X1932425Y1361073D01*
X1932449Y1360928D01*
X1932600Y1360643D01*
X1932972Y1359726D01*
X1934236Y1357395D01*
X1934392Y1357193D01*
X1934492Y1356957D01*
X1935547Y1355638D01*
X1937076Y1354110D01*
X1937077Y1354108D01*
X1937710Y1353475D01*
X1937786Y1353011D01*
X1937856Y1352104D01*
X1937984Y1351803D01*
X1938037Y1351479D01*
X1938461Y1350678D01*
X1938817Y1349839D01*
X1939077Y1349514D01*
X1939188Y1349304D01*
X1939423Y1349080D01*
X1939871Y1348520D01*
X1940504Y1347887D01*
X1940580Y1347424D01*
X1940650Y1346517D01*
X1940778Y1346214D01*
X1940831Y1345891D01*
X1941255Y1345089D01*
X1941611Y1344251D01*
X1941870Y1343926D01*
X1941982Y1343716D01*
X1942218Y1343491D01*
X1942665Y1342932D01*
X1943300Y1342297D01*
X1943395Y1341716D01*
X1943398Y1341696D01*
X1943458Y1340914D01*
X1943496Y1340823D01*
X1943513Y1340677D01*
X1943601Y1340459D01*
X1943625Y1340315D01*
X1943776Y1340030D01*
X1944148Y1339112D01*
X1944163Y1339086D01*
X1944319Y1338884D01*
X1944418Y1338649D01*
X1944678Y1338325D01*
X1944775Y1338140D01*
X1944983Y1337942D01*
X1945473Y1337329D01*
X1946180Y1336623D01*
X1946189Y1336565D01*
X1946306Y1335525D01*
X1946395Y1335307D01*
X1946419Y1335162D01*
X1946569Y1334877D01*
X1946942Y1333960D01*
X1947470Y1332986D01*
X1947627Y1332783D01*
X1947727Y1332547D01*
X1948782Y1331228D01*
X1951046Y1328964D01*
X1951047Y1328962D01*
X1951680Y1328329D01*
X1951756Y1327864D01*
X1951826Y1326958D01*
X1951954Y1326656D01*
X1952007Y1326333D01*
X1952431Y1325531D01*
X1952787Y1324693D01*
X1953047Y1324368D01*
X1953158Y1324158D01*
X1953393Y1323933D01*
X1953841Y1323373D01*
X1954474Y1322740D01*
X1954550Y1322278D01*
X1954620Y1321371D01*
X1954748Y1321068D01*
X1954801Y1320745D01*
X1955225Y1319943D01*
X1955581Y1319105D01*
X1955840Y1318780D01*
X1955952Y1318570D01*
X1956188Y1318345D01*
X1956635Y1317786D01*
X1957268Y1317153D01*
X1957344Y1316688D01*
X1957414Y1315782D01*
X1957542Y1315480D01*
X1957595Y1315157D01*
X1958019Y1314355D01*
X1958374Y1313517D01*
X1958634Y1313192D01*
X1958745Y1312982D01*
X1958981Y1312758D01*
X1959429Y1312198D01*
X1960062Y1311564D01*
X1960138Y1311103D01*
X1960208Y1310195D01*
X1960336Y1309893D01*
X1960389Y1309570D01*
X1960813Y1308767D01*
X1961168Y1307930D01*
X1961428Y1307605D01*
X1961539Y1307394D01*
X1961776Y1307170D01*
X1962223Y1306610D01*
X1962907Y1305926D01*
X1962954Y1305640D01*
X1963071Y1304603D01*
X1963159Y1304386D01*
X1963183Y1304241D01*
X1963334Y1303955D01*
X1963706Y1303038D01*
X1964014Y1302471D01*
X1964171Y1302268D01*
X1964271Y1302033D01*
X1965325Y1300714D01*
X1967810Y1298229D01*
X1967811Y1298228D01*
X1968444Y1297594D01*
X1968520Y1297133D01*
X1968590Y1296225D01*
X1968718Y1295922D01*
X1968771Y1295599D01*
X1969195Y1294797D01*
X1969551Y1293959D01*
X1969810Y1293634D01*
X1969922Y1293424D01*
X1970158Y1293199D01*
X1970605Y1292640D01*
X1971238Y1292007D01*
X1971314Y1291543D01*
X1971384Y1290636D01*
X1971512Y1290334D01*
X1971565Y1290011D01*
X1971989Y1289209D01*
X1972344Y1288371D01*
X1972604Y1288046D01*
X1972715Y1287836D01*
X1972951Y1287612D01*
X1973399Y1287052D01*
X1974032Y1286418D01*
X1974108Y1285957D01*
X1974178Y1285049D01*
X1974306Y1284746D01*
X1974359Y1284423D01*
X1974783Y1283621D01*
X1975138Y1282783D01*
X1975398Y1282458D01*
X1975509Y1282248D01*
X1975746Y1282023D01*
X1976193Y1281464D01*
X1976826Y1280831D01*
X1976902Y1280367D01*
X1976972Y1279460D01*
X1977100Y1279158D01*
X1977153Y1278835D01*
X1977577Y1278033D01*
X1977933Y1277195D01*
X1978193Y1276870D01*
X1978303Y1276660D01*
X1978539Y1276436D01*
X1978987Y1275876D01*
X1979635Y1275228D01*
X1979718Y1274723D01*
X1979834Y1273685D01*
X1979923Y1273467D01*
X1979947Y1273321D01*
X1980098Y1273035D01*
X1980469Y1272120D01*
X1980557Y1271959D01*
X1980714Y1271756D01*
X1980814Y1271520D01*
X1981067Y1271203D01*
X1981098Y1271146D01*
X1981162Y1271084D01*
X1981868Y1270200D01*
X1984573Y1267496D01*
X1984575Y1267493D01*
X1985208Y1266860D01*
X1985284Y1266398D01*
X1985353Y1265491D01*
X1985482Y1265188D01*
X1985535Y1264866D01*
X1985959Y1264063D01*
X1986314Y1263226D01*
X1986574Y1262901D01*
X1986685Y1262690D01*
X1986922Y1262466D01*
X1987369Y1261906D01*
X1988002Y1261273D01*
X1988078Y1260808D01*
X1988148Y1259902D01*
X1988276Y1259600D01*
X1988329Y1259277D01*
X1988753Y1258475D01*
X1989108Y1257637D01*
X1989368Y1257312D01*
X1989479Y1257102D01*
X1989715Y1256878D01*
X1990163Y1256318D01*
X1990796Y1255684D01*
X1990872Y1255223D01*
X1990942Y1254315D01*
X1991070Y1254013D01*
X1991123Y1253690D01*
X1991547Y1252887D01*
X1991903Y1252050D01*
X1992162Y1251725D01*
X1992273Y1251514D01*
X1992510Y1251290D01*
X1992957Y1250730D01*
X1993590Y1250097D01*
X1993666Y1249633D01*
X1993736Y1248726D01*
X1993864Y1248424D01*
X1993917Y1248101D01*
X1994341Y1247299D01*
X1994697Y1246461D01*
X1994957Y1246136D01*
X1995068Y1245926D01*
X1995303Y1245702D01*
X1995751Y1245142D01*
X1998543Y1242350D01*
X1998545Y1242347D01*
X1999178Y1241714D01*
X1999254Y1241253D01*
X1999323Y1240345D01*
X1999452Y1240043D01*
X1999505Y1239720D01*
X1999929Y1238917D01*
X2000284Y1238080D01*
X2000544Y1237755D01*
X2000655Y1237544D01*
X2000892Y1237320D01*
X2001009Y1237173D01*
X2001073Y1237066D01*
X2001142Y1237007D01*
X2001339Y1236760D01*
X2001972Y1236127D01*
X2002048Y1235663D01*
X2002118Y1234756D01*
X2002246Y1234454D01*
X2002299Y1234131D01*
X2002723Y1233329D01*
X2003078Y1232491D01*
X2003338Y1232166D01*
X2003449Y1231956D01*
X2003685Y1231732D01*
X2004133Y1231172D01*
X2004766Y1230538D01*
X2004842Y1230077D01*
X2004912Y1229169D01*
X2005040Y1228866D01*
X2005093Y1228543D01*
X2005517Y1227741D01*
X2005873Y1226903D01*
X2006132Y1226578D01*
X2006243Y1226368D01*
X2006480Y1226143D01*
X2006927Y1225584D01*
X2007560Y1224951D01*
X2007636Y1224487D01*
X2007706Y1223580D01*
X2007834Y1223278D01*
X2007887Y1222955D01*
X2008311Y1222153D01*
X2008667Y1221315D01*
X2008927Y1220990D01*
X2009038Y1220780D01*
X2009273Y1220556D01*
X2009721Y1219996D01*
X2010354Y1219363D01*
X2010430Y1218900D01*
X2010500Y1217993D01*
X2010628Y1217690D01*
X2010681Y1217367D01*
X2011105Y1216565D01*
X2011461Y1215727D01*
X2011720Y1215402D01*
X2011832Y1215192D01*
X2012068Y1214967D01*
X2012515Y1214408D01*
X2015899Y1211023D01*
X2016023Y1210452D01*
X2016088Y1209610D01*
X2016216Y1209308D01*
X2016269Y1208985D01*
X2016391Y1208755D01*
X2016402Y1208702D01*
X2016548Y1208457D01*
X2016693Y1208183D01*
X2017048Y1207345D01*
X2017308Y1207020D01*
X2017419Y1206810D01*
X2017655Y1206586D01*
X2018103Y1206026D01*
X2018736Y1205393D01*
X2018812Y1204928D01*
X2018882Y1204022D01*
X2019010Y1203720D01*
X2019063Y1203397D01*
X2019487Y1202595D01*
X2019843Y1201757D01*
X2020103Y1201432D01*
X2020213Y1201222D01*
X2020449Y1200998D01*
X2020897Y1200438D01*
X2021530Y1199804D01*
X2021606Y1199343D01*
X2021676Y1198435D01*
X2021804Y1198133D01*
X2021857Y1197810D01*
X2022281Y1197007D01*
X2022637Y1196170D01*
X2022896Y1195845D01*
X2023008Y1195634D01*
X2023244Y1195410D01*
X2023691Y1194850D01*
X2024324Y1194217D01*
X2024400Y1193752D01*
X2024470Y1192846D01*
X2024598Y1192544D01*
X2024651Y1192221D01*
X2025075Y1191419D01*
X2025431Y1190581D01*
X2025691Y1190255D01*
X2025802Y1190046D01*
X2026038Y1189821D01*
X2026485Y1189261D01*
X2027567Y1188180D01*
X2027779Y1187779D01*
X2028025Y1187105D01*
X2028352Y1186696D01*
X2028595Y1186236D01*
X2029113Y1185743D01*
X2029561Y1185183D01*
X2030001Y1184900D01*
X2030379Y1184541D01*
X2031028Y1184239D01*
X2031630Y1183851D01*
X2032138Y1183723D01*
X2032610Y1183503D01*
X2033321Y1183423D01*
X2034016Y1183248D01*
X2034537Y1183288D01*
X2035056Y1183230D01*
X2035755Y1183381D01*
X2036470Y1183436D01*
X2036951Y1183641D01*
X2037461Y1183751D01*
X2038076Y1184118D01*
X2038735Y1184397D01*
X2039294Y1184844D01*
X2039574Y1185011D01*
X2039730Y1185192D01*
X2040054Y1185452D01*
X2049799Y1195197D01*
X2214499Y1195197D01*
X2214693Y1195229D01*
X2214888Y1195207D01*
X2215904Y1195427D01*
X2216928Y1195595D01*
X2217101Y1195687D01*
X2217293Y1195728D01*
X2218186Y1196260D01*
X2219103Y1196745D01*
X2219238Y1196888D01*
X2219407Y1196988D01*
X2220082Y1197776D01*
X2220798Y1198529D01*
X2220881Y1198707D01*
X2221009Y1198857D01*
X2221398Y1199821D01*
X2221836Y1200760D01*
X2221858Y1200955D01*
X2221931Y1201138D01*
X2222118Y1202817D01*
X2222118Y1395455D01*
X2236998Y1410335D01*
X2298700Y1410335D01*
X2298894Y1410367D01*
X2299089Y1410345D01*
X2300105Y1410565D01*
X2301128Y1410733D01*
X2301302Y1410824D01*
X2301494Y1410866D01*
X2302387Y1411398D01*
X2303304Y1411883D01*
X2303439Y1412026D01*
X2303608Y1412126D01*
X2304283Y1412913D01*
X2304999Y1413667D01*
X2305082Y1413845D01*
X2305210Y1413994D01*
X2305599Y1414958D01*
X2306037Y1415898D01*
X2306058Y1416093D01*
X2306132Y1416276D01*
X2306319Y1417954D01*
X2306319Y1890262D01*
X2306128Y1891431D01*
X2305949Y1892607D01*
X2305929Y1892647D01*
X2305922Y1892690D01*
X2305375Y1893724D01*
X2304824Y1894796D01*
X2304792Y1894827D01*
X2304771Y1894865D01*
X2303907Y1895687D01*
X2303059Y1896511D01*
X2303020Y1896529D01*
X2302988Y1896560D01*
X2301908Y1897063D01*
X2300840Y1897574D01*
X2300796Y1897580D01*
X2300756Y1897598D01*
X2299592Y1897728D01*
X2298398Y1897875D01*
X2298346Y1897867D01*
X2298311Y1897871D01*
X2298168Y1897840D01*
X2296728Y1897621D01*
X2285824Y1894699D01*
X2219576Y1894699D01*
X2155585Y1911846D01*
X2098214Y1944969D01*
X2051369Y1991814D01*
X2018246Y2049185D01*
X2001099Y2113176D01*
X2001099Y2179424D01*
X2008710Y2207828D01*
X2008828Y2209010D01*
X2008960Y2210189D01*
X2008951Y2210233D01*
X2008955Y2210277D01*
X2008691Y2211431D01*
X2008439Y2212594D01*
X2008416Y2212633D01*
X2008407Y2212675D01*
X2007786Y2213689D01*
X2007179Y2214708D01*
X2007145Y2214736D01*
X2007122Y2214774D01*
X2006218Y2215532D01*
X2005311Y2216310D01*
X2005269Y2216327D01*
X2005236Y2216354D01*
X2004138Y2216784D01*
X2003029Y2217232D01*
X2002977Y2217238D01*
X2002944Y2217251D01*
X2002797Y2217258D01*
X2001351Y2217419D01*
X770652Y2217419D01*
X769483Y2217228D01*
X768306Y2217049D01*
X768267Y2217029D01*
X768223Y2217022D01*
X767178Y2216469D01*
X766118Y2215923D01*
X766087Y2215892D01*
X766048Y2215871D01*
X765228Y2215008D01*
X764403Y2214159D01*
X764383Y2214119D01*
X764353Y2214088D01*
X763856Y2213018D01*
X763339Y2211940D01*
X763333Y2211896D01*
X763315Y2211856D01*
X763185Y2210692D01*
X763038Y2209498D01*
X763046Y2209446D01*
X763043Y2209411D01*
X763073Y2209268D01*
X763292Y2207828D01*
X767500Y2192124D01*
X767500Y2125876D01*
X750354Y2061885D01*
X717231Y2004514D01*
X670386Y1957669D01*
X613014Y1924546D01*
X549024Y1907399D01*
X482776Y1907399D01*
X418785Y1924546D01*
X410210Y1929497D01*
X409319Y1929833D01*
X408456Y1930235D01*
X408175Y1930267D01*
X407908Y1930367D01*
X406956Y1930403D01*
X406011Y1930508D01*
X405733Y1930448D01*
X405449Y1930458D01*
X404535Y1930188D01*
X403606Y1929987D01*
X403362Y1929842D01*
X403089Y1929761D01*
X402309Y1929213D01*
X401492Y1928727D01*
X401307Y1928511D01*
X401074Y1928348D01*
X400511Y1927582D01*
X399890Y1926858D01*
X399783Y1926594D01*
X399615Y1926366D01*
X399325Y1925460D01*
X398968Y1924577D01*
X398928Y1924223D01*
X398864Y1924023D01*
X398869Y1923689D01*
X398781Y1922898D01*
X398781Y1202817D01*
X398813Y1202623D01*
X398791Y1202427D01*
X399011Y1201412D01*
X399178Y1200388D01*
X399270Y1200215D01*
X399312Y1200022D01*
X399844Y1199130D01*
X400329Y1198213D01*
X400471Y1198077D01*
X400572Y1197909D01*
X401359Y1197234D01*
X402113Y1196518D01*
X402291Y1196435D01*
X402440Y1196307D01*
X403404Y1195917D01*
X404344Y1195480D01*
X404539Y1195458D01*
X404722Y1195384D01*
X406400Y1195197D01*
X566039Y1195197D01*
X566233Y1195229D01*
X566428Y1195207D01*
X567444Y1195427D01*
X568468Y1195595D01*
X568641Y1195687D01*
X568833Y1195728D01*
X569726Y1196260D01*
X570643Y1196745D01*
X570778Y1196888D01*
X570947Y1196988D01*
X571622Y1197776D01*
X572338Y1198529D01*
X572421Y1198707D01*
X572549Y1198857D01*
X572938Y1199821D01*
X573376Y1200760D01*
X573398Y1200955D01*
X573471Y1201138D01*
X573658Y1202817D01*
X573658Y1392662D01*
X588538Y1407541D01*
X651490Y1407541D01*
X666369Y1392662D01*
X666369Y1125748D01*
X651490Y1110868D01*
X406400Y1110868D01*
X406206Y1110837D01*
X406011Y1110858D01*
X404995Y1110638D01*
X403972Y1110471D01*
X403798Y1110379D01*
X403606Y1110338D01*
X402713Y1109805D01*
X401796Y1109320D01*
X401661Y1109178D01*
X401492Y1109077D01*
X400817Y1108290D01*
X400101Y1107537D01*
X400018Y1107358D01*
X399890Y1107209D01*
X399501Y1106245D01*
X399063Y1105305D01*
X399042Y1105110D01*
X398968Y1104928D01*
X398781Y1103249D01*
X398781Y686927D01*
X398972Y685757D01*
X399151Y684581D01*
X399171Y684541D01*
X399178Y684498D01*
X399728Y683458D01*
X400276Y682393D01*
X400308Y682362D01*
X400329Y682323D01*
X401193Y681502D01*
X402041Y680678D01*
X402080Y680658D01*
X402113Y680628D01*
X403199Y680123D01*
X404260Y679614D01*
X404303Y679609D01*
X404344Y679590D01*
X405521Y679459D01*
X406702Y679313D01*
X406754Y679321D01*
X406789Y679317D01*
X406932Y679348D01*
X408372Y679567D01*
X470076Y696100D01*
X536324Y696100D01*
X600314Y678954D01*
X657686Y645831D01*
X704531Y598986D01*
X737654Y541614D01*
X754800Y477624D01*
X754800Y411376D01*
X737654Y347385D01*
X704531Y290014D01*
X657686Y243169D01*
X600314Y210045D01*
X554835Y197860D01*
X554616Y197761D01*
X554379Y197722D01*
X553501Y197258D01*
X552592Y196848D01*
X552416Y196683D01*
X552203Y196571D01*
X551517Y195849D01*
X550789Y195173D01*
X550675Y194963D01*
X550508Y194788D01*
X550089Y193885D01*
X549613Y193011D01*
X549572Y192774D01*
X549471Y192556D01*
X549360Y191568D01*
X549188Y190587D01*
X549224Y190350D01*
X549198Y190111D01*
X549408Y189138D01*
X549558Y188154D01*
X549668Y187940D01*
X549719Y187706D01*
X550228Y186852D01*
X550683Y185966D01*
X550856Y185798D01*
X550979Y185592D01*
X551734Y184944D01*
X552448Y184251D01*
X552664Y184147D01*
X552847Y183990D01*
X553772Y183617D01*
X554667Y183188D01*
X554905Y183158D01*
X555129Y183068D01*
X556807Y182881D01*
X2186393Y182881D01*
X2186630Y182919D01*
G37*
%LPC*%
G36*
X1152926Y1110868D02*
X1152926Y1110868D01*
X1138046Y1125748D01*
X1138046Y1318387D01*
X1138029Y1318492D01*
X1138036Y1318557D01*
X1138020Y1318632D01*
X1138036Y1318776D01*
X1137816Y1319792D01*
X1137649Y1320815D01*
X1137557Y1320989D01*
X1137515Y1321181D01*
X1136983Y1322073D01*
X1136498Y1322991D01*
X1136356Y1323126D01*
X1136255Y1323295D01*
X1135468Y1323970D01*
X1134714Y1324686D01*
X1134536Y1324768D01*
X1134387Y1324897D01*
X1133423Y1325286D01*
X1132483Y1325723D01*
X1132288Y1325745D01*
X1132105Y1325819D01*
X1130427Y1326006D01*
X1038372Y1326006D01*
X1023493Y1340886D01*
X1023493Y1395456D01*
X1038372Y1410335D01*
X1324844Y1410335D01*
X1341953Y1393226D01*
X1341955Y1393223D01*
X1342517Y1392661D01*
X1342517Y1383625D01*
X1342633Y1382918D01*
X1342651Y1382203D01*
X1342830Y1381712D01*
X1342915Y1381197D01*
X1343249Y1380564D01*
X1343495Y1379891D01*
X1343821Y1379483D01*
X1344065Y1379021D01*
X1344585Y1378528D01*
X1345031Y1377969D01*
X1345470Y1377687D01*
X1345849Y1377326D01*
X1346499Y1377024D01*
X1347100Y1376637D01*
X1347607Y1376509D01*
X1348080Y1376288D01*
X1348792Y1376209D01*
X1349486Y1376033D01*
X1350007Y1376073D01*
X1350526Y1376016D01*
X1351225Y1376167D01*
X1351939Y1376222D01*
X1352421Y1376426D01*
X1352931Y1376537D01*
X1353546Y1376903D01*
X1354205Y1377183D01*
X1354765Y1377630D01*
X1355044Y1377797D01*
X1355199Y1377977D01*
X1355524Y1378237D01*
X1357339Y1380052D01*
X1357429Y1380177D01*
X1357549Y1380270D01*
X1358550Y1381630D01*
X1364336Y1391652D01*
X1364519Y1391795D01*
X1364582Y1391880D01*
X1364635Y1391923D01*
X1364758Y1392118D01*
X1365520Y1393155D01*
X1366271Y1394455D01*
X1378346Y1401427D01*
X1378464Y1401523D01*
X1378604Y1401583D01*
X1379521Y1402315D01*
X1379577Y1402339D01*
X1379645Y1402351D01*
X1379850Y1402459D01*
X1381026Y1402974D01*
X1384957Y1405243D01*
X1385076Y1405341D01*
X1385218Y1405401D01*
X1385449Y1405586D01*
X1385865Y1405768D01*
X1392676Y1409700D01*
X1408977Y1409700D01*
X1409873Y1409847D01*
X1410780Y1409917D01*
X1411083Y1410045D01*
X1411406Y1410098D01*
X1411854Y1410335D01*
X1634978Y1410335D01*
X1652088Y1393225D01*
X1652089Y1393223D01*
X1652651Y1392661D01*
X1652651Y1128542D01*
X1635541Y1111432D01*
X1635540Y1111431D01*
X1634978Y1110868D01*
X1417433Y1110868D01*
X1417087Y1110975D01*
X1416243Y1111316D01*
X1415832Y1111362D01*
X1415604Y1111432D01*
X1415278Y1111424D01*
X1414565Y1111503D01*
X1396018Y1111503D01*
X1365723Y1128995D01*
X1357254Y1143663D01*
X1357157Y1143782D01*
X1357097Y1143922D01*
X1356043Y1145242D01*
X1355707Y1145577D01*
X1355635Y1146093D01*
X1355592Y1146190D01*
X1355581Y1146259D01*
X1355472Y1146465D01*
X1354958Y1147640D01*
X1353436Y1150275D01*
X1353339Y1150393D01*
X1353280Y1150533D01*
X1352705Y1151253D01*
X1352678Y1151303D01*
X1352164Y1152478D01*
X1349621Y1156884D01*
X1349522Y1157005D01*
X1349462Y1157148D01*
X1349424Y1157194D01*
X1349369Y1157319D01*
X1348231Y1159291D01*
X1348231Y1163867D01*
X1348085Y1164762D01*
X1348015Y1165670D01*
X1347887Y1165973D01*
X1347834Y1166295D01*
X1347597Y1166744D01*
X1347597Y1170089D01*
X1347596Y1170091D01*
X1347596Y1237120D01*
X1347703Y1237468D01*
X1348044Y1238311D01*
X1348090Y1238723D01*
X1348160Y1238951D01*
X1348152Y1239278D01*
X1348231Y1239989D01*
X1348231Y1244565D01*
X1349370Y1246537D01*
X1349443Y1246729D01*
X1349620Y1246970D01*
X1352163Y1251376D01*
X1352567Y1252443D01*
X1352997Y1253508D01*
X1353009Y1253613D01*
X1353034Y1253678D01*
X1353043Y1253913D01*
X1353184Y1255186D01*
X1353184Y1255755D01*
X1353747Y1256318D01*
X1356043Y1258614D01*
X1356132Y1258738D01*
X1356252Y1258832D01*
X1357253Y1260192D01*
X1357833Y1261195D01*
X1357987Y1261603D01*
X1358223Y1261969D01*
X1358373Y1262566D01*
X1358471Y1262776D01*
X1358488Y1262929D01*
X1358703Y1263497D01*
X1358719Y1263933D01*
X1358826Y1264355D01*
X1358764Y1265154D01*
X1358794Y1265956D01*
X1358670Y1266374D01*
X1358637Y1266808D01*
X1358324Y1267547D01*
X1358097Y1268316D01*
X1357846Y1268673D01*
X1357676Y1269074D01*
X1356769Y1270209D01*
X1356683Y1270331D01*
X1356654Y1270352D01*
X1356622Y1270393D01*
X1355908Y1271107D01*
X1355832Y1271569D01*
X1355763Y1272476D01*
X1355634Y1272779D01*
X1355581Y1273102D01*
X1355157Y1273904D01*
X1354802Y1274742D01*
X1354542Y1275067D01*
X1354431Y1275277D01*
X1354194Y1275502D01*
X1353747Y1276061D01*
X1353114Y1276695D01*
X1353038Y1277157D01*
X1352968Y1278064D01*
X1352840Y1278367D01*
X1352787Y1278690D01*
X1352363Y1279492D01*
X1352008Y1280330D01*
X1351748Y1280655D01*
X1351637Y1280865D01*
X1351400Y1281090D01*
X1350953Y1281649D01*
X1350390Y1282212D01*
X1350390Y1314789D01*
X1350391Y1314792D01*
X1350391Y1318172D01*
X1350390Y1318173D01*
X1350390Y1330364D01*
X1350275Y1331071D01*
X1350256Y1331786D01*
X1350077Y1332277D01*
X1349993Y1332793D01*
X1349659Y1333424D01*
X1349413Y1334098D01*
X1349086Y1334507D01*
X1348842Y1334968D01*
X1348324Y1335460D01*
X1347876Y1336020D01*
X1347437Y1336303D01*
X1347058Y1336663D01*
X1346410Y1336965D01*
X1345807Y1337353D01*
X1345300Y1337481D01*
X1344827Y1337701D01*
X1344117Y1337780D01*
X1343422Y1337956D01*
X1342900Y1337916D01*
X1342382Y1337973D01*
X1341683Y1337822D01*
X1340968Y1337767D01*
X1340486Y1337563D01*
X1339977Y1337453D01*
X1339362Y1337086D01*
X1338703Y1336806D01*
X1338143Y1336359D01*
X1337863Y1336192D01*
X1337708Y1336011D01*
X1337383Y1335752D01*
X1327638Y1326006D01*
X1235583Y1326006D01*
X1235389Y1325974D01*
X1235193Y1325996D01*
X1234178Y1325776D01*
X1233154Y1325609D01*
X1232981Y1325517D01*
X1232788Y1325475D01*
X1231896Y1324943D01*
X1230979Y1324458D01*
X1230843Y1324316D01*
X1230675Y1324215D01*
X1230000Y1323428D01*
X1229284Y1322674D01*
X1229201Y1322496D01*
X1229073Y1322347D01*
X1228683Y1321383D01*
X1228246Y1320443D01*
X1228224Y1320248D01*
X1228151Y1320065D01*
X1227963Y1318387D01*
X1227963Y1125748D01*
X1213084Y1110868D01*
X1152926Y1110868D01*
G37*
%LPD*%
%LPC*%
G36*
X728238Y1110868D02*
X728238Y1110868D01*
X713359Y1125748D01*
X713359Y1180318D01*
X728238Y1195197D01*
X906907Y1195197D01*
X907101Y1195229D01*
X907296Y1195207D01*
X908312Y1195427D01*
X909335Y1195595D01*
X909509Y1195687D01*
X909701Y1195728D01*
X910593Y1196260D01*
X911511Y1196745D01*
X911646Y1196888D01*
X911815Y1196988D01*
X912490Y1197776D01*
X913206Y1198529D01*
X913288Y1198707D01*
X913417Y1198857D01*
X913806Y1199821D01*
X914243Y1200760D01*
X914265Y1200955D01*
X914339Y1201138D01*
X914526Y1202817D01*
X914526Y1217803D01*
X914494Y1217997D01*
X914516Y1218193D01*
X914296Y1219208D01*
X914129Y1220232D01*
X914037Y1220405D01*
X913995Y1220598D01*
X913463Y1221490D01*
X912978Y1222407D01*
X912836Y1222543D01*
X912735Y1222711D01*
X911948Y1223386D01*
X911194Y1224102D01*
X911016Y1224185D01*
X910867Y1224313D01*
X909903Y1224703D01*
X908963Y1225140D01*
X908768Y1225162D01*
X908585Y1225235D01*
X906907Y1225423D01*
X806470Y1225423D01*
X791591Y1240302D01*
X791591Y1264138D01*
X792153Y1264700D01*
X792683Y1265438D01*
X793275Y1266128D01*
X793398Y1266432D01*
X793589Y1266698D01*
X793857Y1267567D01*
X794197Y1268409D01*
X794243Y1268822D01*
X794313Y1269050D01*
X794305Y1269377D01*
X794384Y1270088D01*
X794384Y1292078D01*
X809264Y1306957D01*
X906907Y1306957D01*
X907101Y1306989D01*
X907296Y1306967D01*
X908312Y1307187D01*
X909335Y1307355D01*
X909509Y1307447D01*
X909701Y1307488D01*
X910593Y1308020D01*
X911511Y1308505D01*
X911646Y1308648D01*
X911815Y1308748D01*
X912490Y1309536D01*
X913206Y1310289D01*
X913288Y1310467D01*
X913417Y1310617D01*
X913806Y1311581D01*
X914243Y1312520D01*
X914265Y1312715D01*
X914339Y1312898D01*
X914526Y1314577D01*
X914526Y1318387D01*
X914509Y1318492D01*
X914516Y1318557D01*
X914500Y1318632D01*
X914516Y1318776D01*
X914296Y1319792D01*
X914129Y1320815D01*
X914037Y1320989D01*
X913995Y1321181D01*
X913463Y1322073D01*
X912978Y1322991D01*
X912836Y1323126D01*
X912735Y1323295D01*
X911948Y1323970D01*
X911194Y1324686D01*
X911016Y1324768D01*
X910867Y1324897D01*
X909903Y1325286D01*
X908963Y1325723D01*
X908768Y1325745D01*
X908585Y1325819D01*
X906907Y1326006D01*
X731032Y1326006D01*
X716153Y1340886D01*
X716153Y1395456D01*
X732375Y1411678D01*
X732490Y1411838D01*
X732644Y1411961D01*
X733205Y1412832D01*
X733811Y1413676D01*
X733869Y1413864D01*
X733976Y1414030D01*
X734230Y1415035D01*
X734536Y1416028D01*
X734531Y1416225D01*
X734579Y1416416D01*
X734499Y1417448D01*
X734473Y1418488D01*
X734405Y1418673D01*
X734390Y1418869D01*
X733985Y1419823D01*
X733930Y1419975D01*
X733922Y1420014D01*
X733907Y1420038D01*
X733629Y1420799D01*
X733506Y1420953D01*
X733429Y1421135D01*
X732737Y1422000D01*
X732661Y1422127D01*
X732579Y1422198D01*
X732374Y1422454D01*
X730687Y1424141D01*
X730684Y1424144D01*
X730123Y1424706D01*
X730123Y1440183D01*
X730098Y1440335D01*
X730113Y1440467D01*
X730048Y1440766D01*
X730061Y1441148D01*
X729764Y1442373D01*
X729725Y1442612D01*
X729690Y1442678D01*
X729663Y1442789D01*
X727839Y1447800D01*
X729663Y1452810D01*
X729710Y1453059D01*
X729803Y1453260D01*
X729827Y1453469D01*
X729935Y1453738D01*
X730075Y1454986D01*
X730120Y1455228D01*
X730110Y1455303D01*
X730123Y1455416D01*
X730123Y1468100D01*
X730685Y1468662D01*
X731215Y1469400D01*
X731807Y1470090D01*
X731930Y1470394D01*
X732121Y1470660D01*
X732388Y1471529D01*
X732729Y1472371D01*
X732775Y1472784D01*
X732845Y1473012D01*
X732837Y1473338D01*
X732871Y1473643D01*
X738554Y1479326D01*
X739030Y1479987D01*
X739577Y1480594D01*
X739822Y1481089D01*
X739990Y1481324D01*
X740076Y1481603D01*
X740327Y1482108D01*
X741180Y1484452D01*
X746228Y1487366D01*
X746346Y1487463D01*
X746486Y1487523D01*
X747806Y1488577D01*
X750026Y1490798D01*
X750028Y1490799D01*
X755616Y1496387D01*
X758972Y1499743D01*
X761403Y1499743D01*
X762299Y1499890D01*
X763206Y1499959D01*
X763509Y1500088D01*
X763832Y1500141D01*
X764634Y1500565D01*
X765472Y1500920D01*
X765797Y1501180D01*
X766007Y1501291D01*
X766232Y1501528D01*
X766791Y1501975D01*
X767354Y1502537D01*
X770463Y1502537D01*
X771588Y1502722D01*
X772725Y1502881D01*
X772822Y1502923D01*
X772891Y1502935D01*
X773098Y1503044D01*
X774272Y1503558D01*
X774958Y1503954D01*
X782338Y1502653D01*
X782660Y1502649D01*
X783661Y1502537D01*
X802366Y1502537D01*
X802763Y1502139D01*
X803555Y1501570D01*
X804304Y1500950D01*
X804548Y1500856D01*
X804762Y1500703D01*
X805693Y1500416D01*
X806601Y1500067D01*
X806863Y1500056D01*
X807113Y1499978D01*
X808089Y1500003D01*
X809059Y1499962D01*
X809311Y1500035D01*
X809573Y1500041D01*
X810488Y1500375D01*
X811423Y1500646D01*
X811639Y1500795D01*
X811885Y1500885D01*
X812644Y1501492D01*
X813446Y1502048D01*
X813603Y1502258D01*
X813807Y1502421D01*
X814335Y1503240D01*
X814916Y1504021D01*
X814998Y1504269D01*
X815140Y1504490D01*
X815379Y1505436D01*
X815681Y1506360D01*
X815679Y1506621D01*
X815743Y1506876D01*
X815668Y1507848D01*
X815660Y1508820D01*
X815591Y1509059D01*
X816156Y1510424D01*
X816305Y1511058D01*
X816549Y1511661D01*
X816642Y1512493D01*
X816718Y1512819D01*
X816700Y1513015D01*
X816736Y1513340D01*
X816736Y1526774D01*
X817299Y1527336D01*
X817829Y1528074D01*
X818421Y1528764D01*
X818544Y1529068D01*
X818735Y1529335D01*
X819003Y1530203D01*
X819343Y1531046D01*
X819389Y1531458D01*
X819459Y1531686D01*
X819451Y1532013D01*
X819485Y1532316D01*
X828211Y1541043D01*
X828592Y1541572D01*
X829048Y1542035D01*
X829451Y1542768D01*
X829549Y1542904D01*
X829998Y1543094D01*
X830652Y1543617D01*
X830937Y1543793D01*
X831062Y1543944D01*
X831317Y1544148D01*
X839998Y1552829D01*
X852274Y1552829D01*
X852917Y1552934D01*
X853568Y1552940D01*
X854372Y1553173D01*
X854703Y1553227D01*
X854876Y1553318D01*
X855190Y1553409D01*
X863092Y1556682D01*
X870993Y1553409D01*
X871627Y1553260D01*
X872231Y1553016D01*
X873063Y1552923D01*
X873389Y1552847D01*
X873585Y1552865D01*
X873909Y1552829D01*
X883392Y1552829D01*
X889542Y1546679D01*
X889543Y1546678D01*
X890096Y1546125D01*
X890626Y1545744D01*
X891091Y1545287D01*
X891820Y1544885D01*
X892094Y1544688D01*
X892283Y1544630D01*
X892570Y1544472D01*
X896619Y1542795D01*
X898296Y1538746D01*
X898639Y1538193D01*
X898893Y1537593D01*
X899415Y1536940D01*
X899592Y1536654D01*
X899744Y1536528D01*
X899948Y1536274D01*
X906724Y1529497D01*
X906800Y1529034D01*
X906870Y1528127D01*
X906998Y1527824D01*
X907051Y1527501D01*
X907475Y1526699D01*
X907831Y1525861D01*
X908090Y1525536D01*
X908202Y1525326D01*
X908438Y1525101D01*
X908885Y1524542D01*
X909447Y1523980D01*
X909447Y1513340D01*
X909553Y1512697D01*
X909558Y1512047D01*
X909791Y1511242D01*
X909845Y1510911D01*
X909937Y1510738D01*
X910027Y1510424D01*
X911346Y1507241D01*
X911961Y1506248D01*
X912557Y1505249D01*
X912607Y1505206D01*
X912642Y1505149D01*
X913537Y1504408D01*
X914425Y1503647D01*
X914487Y1503622D01*
X914538Y1503580D01*
X915623Y1503163D01*
X916707Y1502724D01*
X916785Y1502716D01*
X916834Y1502697D01*
X917031Y1502688D01*
X918385Y1502537D01*
X924994Y1502537D01*
X926114Y1502721D01*
X927256Y1502881D01*
X927354Y1502923D01*
X927422Y1502935D01*
X927627Y1503043D01*
X928686Y1503507D01*
X933528Y1502653D01*
X933849Y1502649D01*
X934850Y1502537D01*
X958830Y1502537D01*
X959393Y1501975D01*
X960131Y1501444D01*
X960820Y1500853D01*
X961125Y1500730D01*
X961391Y1500538D01*
X962260Y1500271D01*
X963102Y1499930D01*
X963514Y1499884D01*
X963743Y1499814D01*
X964069Y1499823D01*
X964372Y1499789D01*
X964980Y1499181D01*
X965718Y1498650D01*
X966408Y1498059D01*
X966713Y1497936D01*
X966979Y1497744D01*
X967848Y1497477D01*
X968690Y1497136D01*
X969102Y1497090D01*
X969330Y1497020D01*
X969657Y1497028D01*
X969960Y1496995D01*
X970568Y1496387D01*
X970569Y1496386D01*
X987750Y1479205D01*
X987826Y1478743D01*
X987896Y1477835D01*
X988024Y1477533D01*
X988077Y1477210D01*
X988501Y1476407D01*
X988857Y1475570D01*
X989116Y1475245D01*
X989228Y1475034D01*
X989464Y1474810D01*
X989911Y1474250D01*
X992704Y1471458D01*
X992705Y1471456D01*
X993267Y1470894D01*
X993267Y1424706D01*
X992705Y1424144D01*
X992175Y1423406D01*
X991583Y1422716D01*
X991460Y1422412D01*
X991269Y1422146D01*
X991001Y1421277D01*
X990661Y1420434D01*
X990615Y1420022D01*
X990544Y1419794D01*
X990553Y1419467D01*
X990500Y1418993D01*
X990187Y1418507D01*
X989579Y1417661D01*
X989521Y1417473D01*
X989415Y1417308D01*
X989161Y1416304D01*
X988854Y1415309D01*
X988859Y1415113D01*
X988811Y1414922D01*
X988891Y1413885D01*
X988918Y1412849D01*
X988985Y1412666D01*
X989000Y1412468D01*
X989406Y1411511D01*
X989761Y1410538D01*
X989884Y1410384D01*
X989961Y1410203D01*
X991015Y1408884D01*
X1004443Y1395456D01*
X1004443Y1125748D01*
X989564Y1110868D01*
X728238Y1110868D01*
G37*
%LPD*%
%LPC*%
G36*
X1741553Y236219D02*
X1741553Y236219D01*
X1697676Y254394D01*
X1664094Y287976D01*
X1645919Y331853D01*
X1645919Y379346D01*
X1664094Y423223D01*
X1697676Y456806D01*
X1741553Y474980D01*
X1789046Y474980D01*
X1832923Y456806D01*
X1866506Y423223D01*
X1884680Y379346D01*
X1884680Y331853D01*
X1866506Y287976D01*
X1832923Y254394D01*
X1789046Y236219D01*
X1741553Y236219D01*
G37*
%LPD*%
%LPC*%
G36*
X1487553Y236219D02*
X1487553Y236219D01*
X1443676Y254394D01*
X1410094Y287976D01*
X1391919Y331853D01*
X1391919Y379346D01*
X1410094Y423223D01*
X1443676Y456806D01*
X1487553Y474980D01*
X1535046Y474980D01*
X1578923Y456806D01*
X1612506Y423223D01*
X1630680Y379346D01*
X1630680Y331853D01*
X1612506Y287976D01*
X1578923Y254394D01*
X1535046Y236219D01*
X1487553Y236219D01*
G37*
%LPD*%
%LPC*%
G36*
X1233553Y236219D02*
X1233553Y236219D01*
X1189676Y254394D01*
X1156094Y287976D01*
X1137919Y331853D01*
X1137919Y379346D01*
X1156094Y423223D01*
X1189676Y456806D01*
X1233553Y474980D01*
X1281046Y474980D01*
X1324923Y456806D01*
X1358506Y423223D01*
X1376680Y379346D01*
X1376680Y331853D01*
X1358506Y287976D01*
X1324923Y254394D01*
X1281046Y236219D01*
X1233553Y236219D01*
G37*
%LPD*%
%LPC*%
G36*
X979553Y236219D02*
X979553Y236219D01*
X935676Y254394D01*
X902094Y287976D01*
X883919Y331853D01*
X883919Y379346D01*
X902094Y423223D01*
X935676Y456806D01*
X979553Y474980D01*
X1027046Y474980D01*
X1070923Y456806D01*
X1104506Y423223D01*
X1122680Y379346D01*
X1122680Y331853D01*
X1104506Y287976D01*
X1070923Y254394D01*
X1027046Y236219D01*
X979553Y236219D01*
G37*
%LPD*%
G36*
X1552515Y1195229D02*
X1552515Y1195229D01*
X1552710Y1195207D01*
X1553726Y1195427D01*
X1554749Y1195595D01*
X1554923Y1195687D01*
X1555115Y1195728D01*
X1556008Y1196260D01*
X1556925Y1196745D01*
X1557060Y1196888D01*
X1557229Y1196988D01*
X1557904Y1197776D01*
X1558620Y1198529D01*
X1558703Y1198707D01*
X1558831Y1198857D01*
X1559220Y1199821D01*
X1559658Y1200760D01*
X1559679Y1200955D01*
X1559753Y1201138D01*
X1559940Y1202817D01*
X1559940Y1217803D01*
X1559908Y1217997D01*
X1559930Y1218193D01*
X1559710Y1219208D01*
X1559543Y1220232D01*
X1559451Y1220405D01*
X1559409Y1220598D01*
X1558877Y1221490D01*
X1558392Y1222407D01*
X1558250Y1222543D01*
X1558149Y1222711D01*
X1557362Y1223386D01*
X1556608Y1224102D01*
X1556430Y1224185D01*
X1556281Y1224313D01*
X1555317Y1224703D01*
X1554377Y1225140D01*
X1554182Y1225162D01*
X1553999Y1225235D01*
X1552321Y1225423D01*
X1447927Y1225423D01*
X1447733Y1225391D01*
X1447537Y1225413D01*
X1446522Y1225193D01*
X1445498Y1225025D01*
X1445325Y1224933D01*
X1445132Y1224892D01*
X1444240Y1224359D01*
X1443323Y1223874D01*
X1443187Y1223732D01*
X1443019Y1223631D01*
X1442344Y1222844D01*
X1441628Y1222091D01*
X1441545Y1221913D01*
X1441417Y1221763D01*
X1441027Y1220799D01*
X1440590Y1219859D01*
X1440568Y1219664D01*
X1440494Y1219482D01*
X1440307Y1217803D01*
X1440307Y1203032D01*
X1440454Y1202137D01*
X1440523Y1201229D01*
X1440652Y1200926D01*
X1440705Y1200603D01*
X1441129Y1199801D01*
X1441484Y1198963D01*
X1441744Y1198638D01*
X1441855Y1198428D01*
X1442092Y1198203D01*
X1442274Y1197975D01*
X1442314Y1197909D01*
X1442357Y1197872D01*
X1442539Y1197644D01*
X1442754Y1197429D01*
X1443382Y1196978D01*
X1443639Y1196733D01*
X1443739Y1196687D01*
X1444182Y1196307D01*
X1444486Y1196184D01*
X1444753Y1195993D01*
X1445621Y1195725D01*
X1446463Y1195384D01*
X1446876Y1195338D01*
X1447104Y1195268D01*
X1447431Y1195277D01*
X1448142Y1195197D01*
X1552321Y1195197D01*
X1552515Y1195229D01*
G37*
G36*
X1552515Y1306989D02*
X1552515Y1306989D01*
X1552710Y1306967D01*
X1553726Y1307187D01*
X1554749Y1307355D01*
X1554923Y1307447D01*
X1555115Y1307488D01*
X1556008Y1308020D01*
X1556925Y1308505D01*
X1557060Y1308648D01*
X1557229Y1308748D01*
X1557904Y1309536D01*
X1558620Y1310289D01*
X1558703Y1310467D01*
X1558831Y1310617D01*
X1559220Y1311581D01*
X1559658Y1312520D01*
X1559679Y1312715D01*
X1559753Y1312898D01*
X1559940Y1314577D01*
X1559940Y1318387D01*
X1559923Y1318492D01*
X1559930Y1318557D01*
X1559914Y1318632D01*
X1559930Y1318776D01*
X1559710Y1319792D01*
X1559543Y1320815D01*
X1559451Y1320989D01*
X1559409Y1321181D01*
X1558877Y1322073D01*
X1558392Y1322991D01*
X1558250Y1323126D01*
X1558149Y1323295D01*
X1557362Y1323970D01*
X1556608Y1324686D01*
X1556430Y1324768D01*
X1556281Y1324897D01*
X1555317Y1325286D01*
X1554377Y1325723D01*
X1554182Y1325745D01*
X1553999Y1325819D01*
X1552321Y1326006D01*
X1450721Y1326006D01*
X1450527Y1325974D01*
X1450331Y1325996D01*
X1449316Y1325776D01*
X1448292Y1325609D01*
X1448119Y1325517D01*
X1447926Y1325475D01*
X1447034Y1324943D01*
X1446117Y1324458D01*
X1445981Y1324316D01*
X1445813Y1324215D01*
X1445138Y1323428D01*
X1444422Y1322674D01*
X1444399Y1322626D01*
X1443643Y1321870D01*
X1443528Y1321710D01*
X1443375Y1321587D01*
X1442814Y1320716D01*
X1442207Y1319872D01*
X1442149Y1319683D01*
X1442043Y1319518D01*
X1441788Y1318513D01*
X1441483Y1317520D01*
X1441488Y1317324D01*
X1441439Y1317133D01*
X1441519Y1316096D01*
X1441545Y1315060D01*
X1441613Y1314876D01*
X1441628Y1314679D01*
X1442033Y1313724D01*
X1442388Y1312749D01*
X1442512Y1312595D01*
X1442588Y1312413D01*
X1443643Y1311094D01*
X1445332Y1309405D01*
X1445333Y1309404D01*
X1445548Y1309189D01*
X1446175Y1308738D01*
X1446433Y1308493D01*
X1446533Y1308446D01*
X1446976Y1308067D01*
X1447280Y1307944D01*
X1447546Y1307753D01*
X1448415Y1307485D01*
X1449257Y1307144D01*
X1449670Y1307098D01*
X1449898Y1307028D01*
X1450224Y1307037D01*
X1450936Y1306957D01*
X1552321Y1306957D01*
X1552515Y1306989D01*
G37*
G36*
X449830Y182919D02*
X449830Y182919D01*
X450069Y182896D01*
X451040Y183118D01*
X452021Y183278D01*
X452233Y183390D01*
X452468Y183444D01*
X453318Y183964D01*
X454196Y184429D01*
X454362Y184603D01*
X454567Y184728D01*
X455205Y185490D01*
X455891Y186213D01*
X455993Y186431D01*
X456147Y186615D01*
X456509Y187540D01*
X456929Y188444D01*
X456956Y188683D01*
X457043Y188907D01*
X457092Y189903D01*
X457202Y190889D01*
X457151Y191124D01*
X457163Y191365D01*
X456891Y192324D01*
X456681Y193294D01*
X456558Y193501D01*
X456492Y193733D01*
X455930Y194554D01*
X455421Y195408D01*
X455238Y195564D01*
X455102Y195763D01*
X454309Y196361D01*
X453553Y197010D01*
X453329Y197100D01*
X453138Y197244D01*
X451564Y197860D01*
X408372Y209433D01*
X407191Y209551D01*
X406011Y209683D01*
X405967Y209673D01*
X405923Y209678D01*
X404766Y209413D01*
X403606Y209162D01*
X403568Y209139D01*
X403524Y209129D01*
X402504Y208505D01*
X401492Y207901D01*
X401464Y207868D01*
X401426Y207845D01*
X400668Y206941D01*
X399890Y206033D01*
X399873Y205991D01*
X399846Y205958D01*
X399418Y204865D01*
X398968Y203752D01*
X398962Y203699D01*
X398949Y203666D01*
X398942Y203520D01*
X398781Y202073D01*
X398781Y190500D01*
X398813Y190306D01*
X398791Y190111D01*
X399011Y189095D01*
X399178Y188072D01*
X399270Y187898D01*
X399312Y187706D01*
X399844Y186813D01*
X400329Y185896D01*
X400471Y185761D01*
X400572Y185592D01*
X401359Y184917D01*
X402113Y184201D01*
X402291Y184118D01*
X402440Y183990D01*
X403404Y183601D01*
X404344Y183163D01*
X404539Y183142D01*
X404722Y183068D01*
X406400Y182881D01*
X449593Y182881D01*
X449830Y182919D01*
G37*
G36*
X1875742Y1253999D02*
X1875742Y1253999D01*
X1876532Y1254035D01*
X1876949Y1254196D01*
X1877390Y1254268D01*
X1878089Y1254638D01*
X1878827Y1254924D01*
X1879170Y1255210D01*
X1879565Y1255419D01*
X1880111Y1255993D01*
X1880718Y1256498D01*
X1880952Y1256878D01*
X1881260Y1257203D01*
X1881594Y1257921D01*
X1882009Y1258593D01*
X1882110Y1259029D01*
X1882298Y1259434D01*
X1882386Y1260218D01*
X1882565Y1260991D01*
X1882522Y1261436D01*
X1882571Y1261880D01*
X1882403Y1262653D01*
X1882327Y1263440D01*
X1882113Y1263991D01*
X1882050Y1264285D01*
X1881907Y1264525D01*
X1881717Y1265015D01*
X1873782Y1280223D01*
X1873397Y1280737D01*
X1873098Y1281303D01*
X1872665Y1281714D01*
X1872306Y1282193D01*
X1871779Y1282556D01*
X1871314Y1282998D01*
X1870772Y1283250D01*
X1870280Y1283589D01*
X1869663Y1283766D01*
X1869083Y1284036D01*
X1868489Y1284102D01*
X1867914Y1284267D01*
X1867274Y1284238D01*
X1866637Y1284308D01*
X1866053Y1284182D01*
X1865456Y1284155D01*
X1864859Y1283923D01*
X1864232Y1283788D01*
X1863719Y1283481D01*
X1863162Y1283265D01*
X1862669Y1282855D01*
X1862119Y1282527D01*
X1861729Y1282073D01*
X1861270Y1281691D01*
X1860935Y1281147D01*
X1860517Y1280659D01*
X1860428Y1280438D01*
X1858845Y1278856D01*
X1858315Y1278118D01*
X1857723Y1277428D01*
X1857600Y1277123D01*
X1857409Y1276857D01*
X1857141Y1275988D01*
X1856801Y1275146D01*
X1856755Y1274734D01*
X1856684Y1274506D01*
X1856693Y1274178D01*
X1856659Y1273875D01*
X1856051Y1273268D01*
X1855521Y1272529D01*
X1854929Y1271840D01*
X1854806Y1271536D01*
X1854615Y1271270D01*
X1854347Y1270401D01*
X1854007Y1269558D01*
X1853961Y1269146D01*
X1853890Y1268918D01*
X1853899Y1268591D01*
X1853865Y1268287D01*
X1852456Y1266878D01*
X1852038Y1266298D01*
X1851544Y1265778D01*
X1851324Y1265303D01*
X1851019Y1264880D01*
X1850808Y1264196D01*
X1850507Y1263547D01*
X1850449Y1263028D01*
X1850295Y1262528D01*
X1850313Y1261811D01*
X1850234Y1261101D01*
X1850344Y1260591D01*
X1850358Y1260068D01*
X1850603Y1259395D01*
X1850755Y1258696D01*
X1851022Y1258247D01*
X1851201Y1257757D01*
X1851648Y1257198D01*
X1852015Y1256583D01*
X1852411Y1256243D01*
X1852738Y1255834D01*
X1853339Y1255447D01*
X1853883Y1254981D01*
X1854368Y1254785D01*
X1854807Y1254502D01*
X1855501Y1254327D01*
X1856165Y1254058D01*
X1856876Y1253979D01*
X1857192Y1253899D01*
X1857430Y1253917D01*
X1857843Y1253871D01*
X1874962Y1253871D01*
X1875742Y1253999D01*
G37*
G36*
X2298894Y182913D02*
X2298894Y182913D01*
X2299089Y182891D01*
X2300105Y183111D01*
X2301128Y183278D01*
X2301302Y183370D01*
X2301494Y183412D01*
X2302387Y183944D01*
X2303304Y184429D01*
X2303439Y184571D01*
X2303608Y184672D01*
X2304283Y185459D01*
X2304999Y186213D01*
X2305082Y186391D01*
X2305210Y186540D01*
X2305599Y187504D01*
X2306037Y188444D01*
X2306058Y188639D01*
X2306132Y188822D01*
X2306319Y190500D01*
X2306319Y191864D01*
X2306127Y193040D01*
X2305949Y194210D01*
X2305929Y194249D01*
X2305922Y194293D01*
X2305372Y195333D01*
X2304824Y196398D01*
X2304792Y196429D01*
X2304771Y196468D01*
X2303907Y197289D01*
X2303060Y198113D01*
X2303020Y198132D01*
X2302988Y198163D01*
X2301907Y198666D01*
X2300841Y199177D01*
X2300796Y199183D01*
X2300756Y199201D01*
X2299584Y199332D01*
X2298398Y199478D01*
X2298346Y199470D01*
X2298311Y199474D01*
X2298168Y199443D01*
X2296728Y199224D01*
X2291635Y197860D01*
X2291415Y197761D01*
X2291178Y197722D01*
X2290301Y197258D01*
X2289392Y196848D01*
X2289216Y196684D01*
X2289003Y196571D01*
X2288318Y195850D01*
X2287589Y195173D01*
X2287474Y194963D01*
X2287308Y194788D01*
X2286888Y193884D01*
X2286413Y193012D01*
X2286372Y192775D01*
X2286270Y192556D01*
X2286160Y191567D01*
X2285988Y190588D01*
X2286024Y190350D01*
X2285998Y190111D01*
X2286208Y189137D01*
X2286358Y188155D01*
X2286468Y187941D01*
X2286518Y187706D01*
X2287027Y186853D01*
X2287483Y185967D01*
X2287656Y185798D01*
X2287779Y185592D01*
X2288534Y184944D01*
X2289247Y184251D01*
X2289463Y184148D01*
X2289647Y183990D01*
X2290571Y183617D01*
X2291466Y183188D01*
X2291705Y183158D01*
X2291928Y183068D01*
X2293607Y182881D01*
X2298700Y182881D01*
X2298894Y182913D01*
G37*
D10*
X1765300Y355600D03*
X1511300Y355600D03*
X1257300Y355600D03*
X1003300Y355600D03*
D11*
X2173478Y1137666D03*
D12*
X2001647Y1137666D03*
D13*
X1730629Y1137666D03*
D14*
X1526667Y1137666D03*
D15*
X1183005Y1137666D03*
D16*
X858901Y1137666D03*
D11*
X527812Y1137666D03*
D17*
X2174875Y1140460D03*
D18*
X2001647Y1140460D03*
D19*
X1730629Y1140460D03*
D20*
X1518285Y1140460D03*
D21*
X1183005Y1140460D03*
D22*
X858901Y1140460D03*
D17*
X526415Y1140460D03*
D23*
X2174875Y1143254D03*
D12*
X1998853Y1143254D03*
D13*
X1733423Y1143254D03*
D11*
X1514094Y1143254D03*
D15*
X1183005Y1143254D03*
D16*
X858901Y1143254D03*
D23*
X526415Y1143254D03*
X2174875Y1146048D03*
D12*
X1998853Y1146048D03*
D13*
X1733423Y1146048D03*
D24*
X1511300Y1146048D03*
D15*
X1183005Y1146048D03*
D16*
X858901Y1146048D03*
D23*
X526415Y1146048D03*
X2174875Y1148842D03*
D12*
X1996059Y1148842D03*
D13*
X1736217Y1148842D03*
D25*
X1508506Y1148842D03*
D15*
X1183005Y1148842D03*
D16*
X858901Y1148842D03*
D23*
X526415Y1148842D03*
X2174875Y1151636D03*
D12*
X1996059Y1151636D03*
D13*
X1736217Y1151636D03*
D16*
X1507109Y1151636D03*
D15*
X1183005Y1151636D03*
D16*
X858901Y1151636D03*
D23*
X526415Y1151636D03*
D17*
X2174875Y1154430D03*
D21*
X1993265Y1154430D03*
D19*
X1739011Y1154430D03*
D26*
X1505712Y1154430D03*
D21*
X1183005Y1154430D03*
D22*
X858901Y1154430D03*
D17*
X526415Y1154430D03*
D23*
X2174875Y1157224D03*
D15*
X1993265Y1157224D03*
D27*
X1740408Y1157224D03*
D28*
X1504315Y1157224D03*
D15*
X1183005Y1157224D03*
D16*
X858901Y1157224D03*
D23*
X526415Y1157224D03*
X2174875Y1160018D03*
D12*
X1990471Y1160018D03*
D29*
X1741805Y1160018D03*
D28*
X1504315Y1160018D03*
D15*
X1183005Y1160018D03*
D16*
X858901Y1160018D03*
D23*
X526415Y1160018D03*
X2174875Y1162812D03*
D12*
X1990471Y1162812D03*
D27*
X1743202Y1162812D03*
D30*
X1502918Y1162812D03*
D15*
X1183005Y1162812D03*
D16*
X858901Y1162812D03*
D23*
X526415Y1162812D03*
X2174875Y1165606D03*
D12*
X1987677Y1165606D03*
D13*
X1744599Y1165606D03*
D30*
X1502918Y1165606D03*
D15*
X1183005Y1165606D03*
D16*
X858901Y1165606D03*
D23*
X526415Y1165606D03*
D17*
X2174875Y1168400D03*
D18*
X1987677Y1168400D03*
D31*
X1745996Y1168400D03*
D32*
X1501521Y1168400D03*
D21*
X1183005Y1168400D03*
D22*
X858901Y1168400D03*
D17*
X526415Y1168400D03*
D27*
X2268474Y1171194D03*
D12*
X1984883Y1171194D03*
D13*
X1747393Y1171194D03*
D27*
X1606296Y1171194D03*
D33*
X1403731Y1171194D03*
D15*
X1183005Y1171194D03*
D27*
X958088Y1171194D03*
X620014Y1171194D03*
X2268474Y1173988D03*
D12*
X1982089Y1173988D03*
D27*
X1748790Y1173988D03*
X1606296Y1173988D03*
D34*
X1399540Y1173988D03*
D15*
X1183005Y1173988D03*
X959485Y1173988D03*
D27*
X620014Y1173988D03*
X2268474Y1176782D03*
D12*
X1982089Y1176782D03*
D13*
X1750187Y1176782D03*
D27*
X1606296Y1176782D03*
D13*
X1398143Y1176782D03*
D15*
X1183005Y1176782D03*
X959485Y1176782D03*
D27*
X620014Y1176782D03*
X2268474Y1179576D03*
D15*
X1979295Y1179576D03*
D13*
X1752981Y1179576D03*
D27*
X1606296Y1179576D03*
D13*
X1395349Y1179576D03*
D15*
X1183005Y1179576D03*
X959485Y1179576D03*
D27*
X620014Y1179576D03*
D31*
X2268474Y1182370D03*
D21*
X1979295Y1182370D03*
D31*
X1754378Y1182370D03*
X1606296Y1182370D03*
D19*
X1395349Y1182370D03*
D21*
X1183005Y1182370D03*
X959485Y1182370D03*
D31*
X620014Y1182370D03*
D27*
X2268474Y1185164D03*
D12*
X1976501Y1185164D03*
D29*
X1755775Y1185164D03*
D27*
X1606296Y1185164D03*
X1393952Y1185164D03*
D15*
X1183005Y1185164D03*
X959485Y1185164D03*
D27*
X620014Y1185164D03*
X2268474Y1187958D03*
D12*
X1976501Y1187958D03*
D27*
X1757172Y1187958D03*
X1606296Y1187958D03*
X1393952Y1187958D03*
D15*
X1183005Y1187958D03*
X959485Y1187958D03*
D27*
X620014Y1187958D03*
X2268474Y1190752D03*
D12*
X1973707Y1190752D03*
D13*
X1758569Y1190752D03*
D27*
X1606296Y1190752D03*
X1393952Y1190752D03*
D15*
X1183005Y1190752D03*
X959485Y1190752D03*
D27*
X620014Y1190752D03*
X2268474Y1193546D03*
D12*
X1973707Y1193546D03*
D27*
X1759966Y1193546D03*
X1606296Y1193546D03*
X1393952Y1193546D03*
D15*
X1183005Y1193546D03*
X959485Y1193546D03*
D27*
X620014Y1193546D03*
D31*
X2268474Y1196340D03*
D18*
X1970913Y1196340D03*
D19*
X1761363Y1196340D03*
D31*
X1606296Y1196340D03*
X1393952Y1196340D03*
D21*
X1183005Y1196340D03*
X959485Y1196340D03*
D31*
X620014Y1196340D03*
D27*
X2268474Y1199134D03*
D30*
X1866138Y1199134D03*
D27*
X1606296Y1199134D03*
X1393952Y1199134D03*
D15*
X1183005Y1199134D03*
X959485Y1199134D03*
D27*
X620014Y1199134D03*
X2268474Y1201928D03*
D35*
X1866138Y1201928D03*
D27*
X1606296Y1201928D03*
X1393952Y1201928D03*
D15*
X1183005Y1201928D03*
X959485Y1201928D03*
D27*
X620014Y1201928D03*
X2268474Y1204722D03*
D16*
X1864741Y1204722D03*
D27*
X1606296Y1204722D03*
X1393952Y1204722D03*
D15*
X1183005Y1204722D03*
X959485Y1204722D03*
D27*
X620014Y1204722D03*
X2268474Y1207516D03*
D25*
X1866138Y1207516D03*
D27*
X1606296Y1207516D03*
X1393952Y1207516D03*
D15*
X1183005Y1207516D03*
X959485Y1207516D03*
D27*
X620014Y1207516D03*
D31*
X2268474Y1210310D03*
D36*
X1864741Y1210310D03*
D31*
X1606296Y1210310D03*
X1393952Y1210310D03*
D21*
X1183005Y1210310D03*
X959485Y1210310D03*
D31*
X620014Y1210310D03*
D27*
X2268474Y1213104D03*
D37*
X1866138Y1213104D03*
D27*
X1606296Y1213104D03*
X1393952Y1213104D03*
D15*
X1183005Y1213104D03*
X959485Y1213104D03*
D27*
X620014Y1213104D03*
X2268474Y1215898D03*
D23*
X1864741Y1215898D03*
D27*
X1606296Y1215898D03*
X1393952Y1215898D03*
D15*
X1183005Y1215898D03*
X959485Y1215898D03*
D27*
X620014Y1215898D03*
X2268474Y1218692D03*
D11*
X1866138Y1218692D03*
D27*
X1606296Y1218692D03*
X1393952Y1218692D03*
D15*
X1183005Y1218692D03*
X959485Y1218692D03*
D27*
X620014Y1218692D03*
X2268474Y1221486D03*
D38*
X1864741Y1221486D03*
D27*
X1606296Y1221486D03*
X1393952Y1221486D03*
D15*
X1183005Y1221486D03*
X959485Y1221486D03*
D27*
X620014Y1221486D03*
D31*
X2268474Y1224280D03*
D39*
X1866138Y1224280D03*
D31*
X1606296Y1224280D03*
X1393952Y1224280D03*
D21*
X1183005Y1224280D03*
X959485Y1224280D03*
D31*
X620014Y1224280D03*
D27*
X2268474Y1227074D03*
D40*
X1866138Y1227074D03*
D27*
X1606296Y1227074D03*
D12*
X1395349Y1227074D03*
D15*
X1183005Y1227074D03*
X959485Y1227074D03*
D27*
X620014Y1227074D03*
X2268474Y1229868D03*
D12*
X1954149Y1229868D03*
D27*
X1779524Y1229868D03*
X1606296Y1229868D03*
D12*
X1395349Y1229868D03*
D15*
X1183005Y1229868D03*
X959485Y1229868D03*
D27*
X620014Y1229868D03*
X2268474Y1232662D03*
D15*
X1951355Y1232662D03*
D27*
X1782318Y1232662D03*
X1606296Y1232662D03*
D12*
X1395349Y1232662D03*
D15*
X1183005Y1232662D03*
X959485Y1232662D03*
D27*
X620014Y1232662D03*
X2268474Y1235456D03*
D41*
X1949958Y1235456D03*
D27*
X1782318Y1235456D03*
X1606296Y1235456D03*
D12*
X1395349Y1235456D03*
D15*
X1183005Y1235456D03*
X959485Y1235456D03*
D27*
X620014Y1235456D03*
D31*
X2268474Y1238250D03*
D18*
X1948561Y1238250D03*
D31*
X1785112Y1238250D03*
X1606296Y1238250D03*
D18*
X1398143Y1238250D03*
D21*
X1183005Y1238250D03*
X959485Y1238250D03*
D31*
X620014Y1238250D03*
D27*
X2268474Y1241044D03*
D42*
X1947164Y1241044D03*
D27*
X1785112Y1241044D03*
X1606296Y1241044D03*
D12*
X1398143Y1241044D03*
D15*
X1183005Y1241044D03*
X959485Y1241044D03*
D27*
X620014Y1241044D03*
X2268474Y1243838D03*
D12*
X1945767Y1243838D03*
D27*
X1787906Y1243838D03*
X1606296Y1243838D03*
X1399540Y1243838D03*
D15*
X1183005Y1243838D03*
X959485Y1243838D03*
D27*
X620014Y1243838D03*
X2268474Y1246632D03*
D42*
X1944370Y1246632D03*
D27*
X1787906Y1246632D03*
X1606296Y1246632D03*
X1402334Y1246632D03*
D15*
X1183005Y1246632D03*
X959485Y1246632D03*
D27*
X620014Y1246632D03*
X2268474Y1249426D03*
D12*
X1942973Y1249426D03*
D27*
X1790700Y1249426D03*
X1606296Y1249426D03*
D29*
X1406525Y1249426D03*
D15*
X1183005Y1249426D03*
D27*
X958088Y1249426D03*
X620014Y1249426D03*
D31*
X2268474Y1252220D03*
D43*
X1941576Y1252220D03*
D18*
X1792097Y1252220D03*
D22*
X1507109Y1252220D03*
D21*
X1183005Y1252220D03*
D44*
X898017Y1252220D03*
D31*
X620014Y1252220D03*
D27*
X2268474Y1255014D03*
D12*
X1940179Y1255014D03*
D27*
X1793494Y1255014D03*
D25*
X1508506Y1255014D03*
D15*
X1183005Y1255014D03*
D45*
X899414Y1255014D03*
D27*
X620014Y1255014D03*
X2268474Y1257808D03*
D15*
X1937385Y1257808D03*
D12*
X1794891Y1257808D03*
D46*
X1509903Y1257808D03*
D15*
X1183005Y1257808D03*
D45*
X899414Y1257808D03*
D27*
X620014Y1257808D03*
X2268474Y1260602D03*
D41*
X1935988Y1260602D03*
D27*
X1796288Y1260602D03*
D47*
X1512697Y1260602D03*
D15*
X1183005Y1260602D03*
D45*
X899414Y1260602D03*
D27*
X620014Y1260602D03*
X2268474Y1263396D03*
D12*
X1934591Y1263396D03*
D15*
X1797685Y1263396D03*
D48*
X1518285Y1263396D03*
D15*
X1183005Y1263396D03*
D45*
X899414Y1263396D03*
D27*
X620014Y1263396D03*
D31*
X2268474Y1266190D03*
D43*
X1933194Y1266190D03*
D31*
X1799082Y1266190D03*
D49*
X1519682Y1266190D03*
D21*
X1183005Y1266190D03*
D50*
X899414Y1266190D03*
D31*
X620014Y1266190D03*
D27*
X2268474Y1268984D03*
D12*
X1931797Y1268984D03*
X1800479Y1268984D03*
D11*
X1514094Y1268984D03*
D15*
X1183005Y1268984D03*
D45*
X899414Y1268984D03*
D27*
X620014Y1268984D03*
X2268474Y1271778D03*
D42*
X1930400Y1271778D03*
D27*
X1801876Y1271778D03*
D24*
X1511300Y1271778D03*
D15*
X1183005Y1271778D03*
D45*
X899414Y1271778D03*
D27*
X620014Y1271778D03*
X2268474Y1274572D03*
D12*
X1929003Y1274572D03*
X1803273Y1274572D03*
D25*
X1508506Y1274572D03*
D15*
X1183005Y1274572D03*
D45*
X899414Y1274572D03*
D27*
X620014Y1274572D03*
X2268474Y1277366D03*
D42*
X1927606Y1277366D03*
D12*
X1806067Y1277366D03*
D16*
X1507109Y1277366D03*
D15*
X1183005Y1277366D03*
D45*
X899414Y1277366D03*
D27*
X620014Y1277366D03*
D31*
X2268474Y1280160D03*
D18*
X1926209Y1280160D03*
D31*
X1807464Y1280160D03*
D26*
X1505712Y1280160D03*
D21*
X1183005Y1280160D03*
D50*
X899414Y1280160D03*
D31*
X620014Y1280160D03*
D27*
X2268474Y1282954D03*
D41*
X1924812Y1282954D03*
D12*
X1808861Y1282954D03*
D27*
X1606296Y1282954D03*
D51*
X1407922Y1282954D03*
D15*
X1183005Y1282954D03*
X959485Y1282954D03*
D27*
X620014Y1282954D03*
X2268474Y1285748D03*
D15*
X1923415Y1285748D03*
D27*
X1810258Y1285748D03*
X1606296Y1285748D03*
D13*
X1403731Y1285748D03*
D15*
X1183005Y1285748D03*
X959485Y1285748D03*
D27*
X620014Y1285748D03*
X2268474Y1288542D03*
D41*
X1922018Y1288542D03*
D15*
X1811655Y1288542D03*
D27*
X1606296Y1288542D03*
D13*
X1400937Y1288542D03*
D15*
X1183005Y1288542D03*
X959485Y1288542D03*
D27*
X620014Y1288542D03*
X2268474Y1291336D03*
D42*
X1919224Y1291336D03*
D27*
X1813052Y1291336D03*
X1606296Y1291336D03*
X1399540Y1291336D03*
D15*
X1183005Y1291336D03*
X959485Y1291336D03*
D27*
X620014Y1291336D03*
D31*
X2268474Y1294130D03*
D43*
X1919224Y1294130D03*
D18*
X1814449Y1294130D03*
D31*
X1606296Y1294130D03*
X1396746Y1294130D03*
D21*
X1183005Y1294130D03*
X959485Y1294130D03*
D31*
X620014Y1294130D03*
D27*
X2268474Y1296924D03*
D42*
X1916430Y1296924D03*
D27*
X1815846Y1296924D03*
X1606296Y1296924D03*
X1396746Y1296924D03*
D15*
X1183005Y1296924D03*
X959485Y1296924D03*
D27*
X620014Y1296924D03*
X2268474Y1299718D03*
D42*
X1916430Y1299718D03*
D12*
X1817243Y1299718D03*
D27*
X1606296Y1299718D03*
X1396746Y1299718D03*
D15*
X1183005Y1299718D03*
X959485Y1299718D03*
D27*
X620014Y1299718D03*
X2268474Y1302512D03*
D42*
X1913636Y1302512D03*
D12*
X1820037Y1302512D03*
D27*
X1606296Y1302512D03*
D12*
X1395349Y1302512D03*
D15*
X1183005Y1302512D03*
X959485Y1302512D03*
D27*
X620014Y1302512D03*
X2268474Y1305306D03*
D42*
X1913636Y1305306D03*
D12*
X1820037Y1305306D03*
D27*
X1606296Y1305306D03*
D12*
X1395349Y1305306D03*
D15*
X1183005Y1305306D03*
X959485Y1305306D03*
D27*
X620014Y1305306D03*
D31*
X2268474Y1308100D03*
D52*
X1910842Y1308100D03*
D18*
X1822831Y1308100D03*
D31*
X1606296Y1308100D03*
D18*
X1395349Y1308100D03*
D21*
X1183005Y1308100D03*
X959485Y1308100D03*
D31*
X620014Y1308100D03*
D27*
X2268474Y1310894D03*
D15*
X1909445Y1310894D03*
D12*
X1822831Y1310894D03*
D27*
X1606296Y1310894D03*
D12*
X1395349Y1310894D03*
D15*
X1183005Y1310894D03*
X959485Y1310894D03*
D27*
X620014Y1310894D03*
X2268474Y1313688D03*
D41*
X1908048Y1313688D03*
D15*
X1825625Y1313688D03*
D27*
X1606296Y1313688D03*
D12*
X1395349Y1313688D03*
D15*
X1183005Y1313688D03*
X959485Y1313688D03*
D27*
X620014Y1313688D03*
X2268474Y1316482D03*
D12*
X1906651Y1316482D03*
D15*
X1825625Y1316482D03*
D27*
X1606296Y1316482D03*
D12*
X1395349Y1316482D03*
D15*
X1183005Y1316482D03*
X959485Y1316482D03*
D27*
X620014Y1316482D03*
X2268474Y1319276D03*
D42*
X1905254Y1319276D03*
D12*
X1828419Y1319276D03*
D27*
X1606296Y1319276D03*
D12*
X1395349Y1319276D03*
D15*
X1183005Y1319276D03*
X959485Y1319276D03*
D27*
X620014Y1319276D03*
D31*
X2268474Y1322070D03*
D43*
X1902460Y1322070D03*
D18*
X1828419Y1322070D03*
D31*
X1606296Y1322070D03*
D18*
X1395349Y1322070D03*
D21*
X1183005Y1322070D03*
X959485Y1322070D03*
D31*
X620014Y1322070D03*
D27*
X2268474Y1324864D03*
D42*
X1902460Y1324864D03*
D12*
X1831213Y1324864D03*
D27*
X1606296Y1324864D03*
D12*
X1395349Y1324864D03*
D15*
X1183005Y1324864D03*
X959485Y1324864D03*
D27*
X620014Y1324864D03*
X2268474Y1327658D03*
D42*
X1899666Y1327658D03*
X1832610Y1327658D03*
D27*
X1606296Y1327658D03*
D12*
X1395349Y1327658D03*
D15*
X1183005Y1327658D03*
X959485Y1327658D03*
D27*
X620014Y1327658D03*
X2268474Y1330452D03*
D42*
X1899666Y1330452D03*
D12*
X1834007Y1330452D03*
D27*
X1606296Y1330452D03*
D12*
X1395349Y1330452D03*
D15*
X1183005Y1330452D03*
X959485Y1330452D03*
D27*
X620014Y1330452D03*
X2268474Y1333246D03*
D41*
X1896872Y1333246D03*
D42*
X1835404Y1333246D03*
D27*
X1606296Y1333246D03*
X1396746Y1333246D03*
D15*
X1183005Y1333246D03*
X959485Y1333246D03*
D27*
X620014Y1333246D03*
D31*
X2268474Y1336040D03*
D52*
X1896872Y1336040D03*
D18*
X1836801Y1336040D03*
D31*
X1606296Y1336040D03*
X1396746Y1336040D03*
D21*
X1183005Y1336040D03*
X959485Y1336040D03*
D31*
X620014Y1336040D03*
D27*
X2268474Y1338834D03*
D41*
X1894078Y1338834D03*
D15*
X1839595Y1338834D03*
D27*
X1606296Y1338834D03*
X1396746Y1338834D03*
D15*
X1183005Y1338834D03*
X959485Y1338834D03*
D27*
X620014Y1338834D03*
X2268474Y1341628D03*
D41*
X1894078Y1341628D03*
D15*
X1839595Y1341628D03*
D27*
X1606296Y1341628D03*
X1396746Y1341628D03*
D15*
X1183005Y1341628D03*
X959485Y1341628D03*
D27*
X620014Y1341628D03*
X2268474Y1344422D03*
D42*
X1891284Y1344422D03*
D12*
X1842389Y1344422D03*
D27*
X1606296Y1344422D03*
D13*
X1398143Y1344422D03*
D15*
X1183005Y1344422D03*
X959485Y1344422D03*
D27*
X620014Y1344422D03*
X2268474Y1347216D03*
D53*
X1889887Y1347216D03*
D12*
X1842389Y1347216D03*
D27*
X1606296Y1347216D03*
D34*
X1399540Y1347216D03*
D15*
X1183005Y1347216D03*
X959485Y1347216D03*
D27*
X620014Y1347216D03*
D31*
X2268474Y1350010D03*
D43*
X1888490Y1350010D03*
D18*
X1845183Y1350010D03*
D31*
X1606296Y1350010D03*
D54*
X1402334Y1350010D03*
D31*
X1184402Y1350010D03*
D21*
X959485Y1350010D03*
D31*
X620014Y1350010D03*
D27*
X2268474Y1352804D03*
D53*
X1887093Y1352804D03*
D42*
X1846580Y1352804D03*
D55*
X1501521Y1352804D03*
D56*
X1183005Y1352804D03*
D25*
X860298Y1352804D03*
D27*
X620014Y1352804D03*
X2268474Y1355598D03*
D57*
X1866138Y1355598D03*
D30*
X1502918Y1355598D03*
D56*
X1183005Y1355598D03*
D25*
X860298Y1355598D03*
D27*
X620014Y1355598D03*
X2268474Y1358392D03*
D58*
X1866138Y1358392D03*
D30*
X1502918Y1358392D03*
D56*
X1183005Y1358392D03*
D25*
X860298Y1358392D03*
D27*
X620014Y1358392D03*
X2268474Y1361186D03*
D58*
X1866138Y1361186D03*
D30*
X1502918Y1361186D03*
D56*
X1183005Y1361186D03*
D25*
X860298Y1361186D03*
D27*
X620014Y1361186D03*
D31*
X2268474Y1363980D03*
D59*
X1866138Y1363980D03*
D60*
X1504315Y1363980D03*
D61*
X1183005Y1363980D03*
D62*
X860298Y1363980D03*
D31*
X620014Y1363980D03*
D27*
X2268474Y1366774D03*
D63*
X1866138Y1366774D03*
D28*
X1504315Y1366774D03*
D56*
X1183005Y1366774D03*
D25*
X860298Y1366774D03*
D27*
X620014Y1366774D03*
X2268474Y1369568D03*
D64*
X1866138Y1369568D03*
D35*
X1505712Y1369568D03*
D56*
X1183005Y1369568D03*
D25*
X860298Y1369568D03*
D27*
X620014Y1369568D03*
X2268474Y1372362D03*
D64*
X1866138Y1372362D03*
D16*
X1507109Y1372362D03*
D56*
X1183005Y1372362D03*
D25*
X860298Y1372362D03*
D27*
X620014Y1372362D03*
X2268474Y1375156D03*
D51*
X1866138Y1375156D03*
D25*
X1508506Y1375156D03*
D56*
X1183005Y1375156D03*
D25*
X860298Y1375156D03*
D27*
X620014Y1375156D03*
D31*
X2268474Y1377950D03*
D65*
X1866138Y1377950D03*
D66*
X1511300Y1377950D03*
D61*
X1183005Y1377950D03*
D62*
X860298Y1377950D03*
D31*
X620014Y1377950D03*
D27*
X2268474Y1380744D03*
D67*
X1866138Y1380744D03*
D38*
X1515491Y1380744D03*
D56*
X1183005Y1380744D03*
D25*
X860298Y1380744D03*
D27*
X620014Y1380744D03*
D12*
X2267077Y1383538D03*
D27*
X1866138Y1383538D03*
D68*
X1523873Y1383538D03*
D69*
X1181608Y1383538D03*
D70*
X924560Y1383538D03*
D71*
X742950Y1383538D03*
D72*
X938530Y1419860D03*
D73*
X863092Y1419860D03*
D72*
X784860Y1419860D03*
D42*
X938530Y1422654D03*
D74*
X861695Y1422654D03*
D42*
X784860Y1422654D03*
D27*
X938530Y1425448D03*
X863092Y1425448D03*
X784860Y1425448D03*
D34*
X938530Y1428242D03*
D67*
X863092Y1428242D03*
D34*
X784860Y1428242D03*
D75*
X939927Y1431036D03*
D76*
X861695Y1431036D03*
D75*
X786257Y1431036D03*
D77*
X938530Y1433830D03*
D54*
X863092Y1433830D03*
D77*
X784860Y1433830D03*
D33*
X939927Y1436624D03*
X861695Y1436624D03*
D78*
X784860Y1436624D03*
X938530Y1439418D03*
D64*
X863092Y1439418D03*
D78*
X784860Y1439418D03*
X938530Y1442212D03*
D64*
X863092Y1442212D03*
D78*
X784860Y1442212D03*
X938530Y1445006D03*
D64*
X863092Y1445006D03*
D78*
X784860Y1445006D03*
D79*
X938530Y1447800D03*
D80*
X863092Y1447800D03*
D79*
X784860Y1447800D03*
D78*
X938530Y1450594D03*
D64*
X863092Y1450594D03*
D78*
X784860Y1450594D03*
X938530Y1453388D03*
D64*
X863092Y1453388D03*
D78*
X784860Y1453388D03*
D33*
X939927Y1456182D03*
D64*
X863092Y1456182D03*
D78*
X784860Y1456182D03*
D33*
X939927Y1458976D03*
X861695Y1458976D03*
D81*
X784860Y1458976D03*
D77*
X938530Y1461770D03*
D54*
X863092Y1461770D03*
D77*
X784860Y1461770D03*
D34*
X938530Y1464564D03*
D67*
X863092Y1464564D03*
D34*
X784860Y1464564D03*
D13*
X939927Y1467358D03*
D29*
X861695Y1467358D03*
D27*
X784860Y1467358D03*
D12*
X939927Y1470152D03*
D15*
X861695Y1470152D03*
D42*
X784860Y1470152D03*
D82*
X938530Y1472946D03*
D83*
X863092Y1472946D03*
D82*
X784860Y1472946D03*
D84*
X939927Y1475740D03*
D85*
X861695Y1475740D03*
D86*
X784860Y1475740D03*
D85*
X861695Y1489710D03*
D87*
X863092Y1492504D03*
D74*
X861695Y1495298D03*
D41*
X863092Y1498092D03*
D15*
X861695Y1500886D03*
D21*
X861695Y1503680D03*
D27*
X863092Y1506474D03*
X863092Y1509268D03*
X863092Y1512062D03*
D15*
X861695Y1514856D03*
D52*
X863092Y1517650D03*
D74*
X861695Y1520444D03*
D88*
X861695Y1523238D03*
D89*
X861695Y1526032D03*
D90*
X1888490Y1375156D02*
X2014220Y1143254D01*
X1938782Y1224280D02*
X1871726Y1352804D01*
X1860550Y1355598D02*
X1796288Y1227074D01*
X1712468Y1143254D02*
X1843786Y1377950D01*
X1955546Y1199134D02*
X1986280Y1143254D01*
X1782318Y1201928D02*
X1751584Y1143254D01*
X1438656Y1372362D02*
X1399540Y1372362D01*
X1399135Y1372357D01*
X1398730Y1372342D01*
X1398326Y1372318D01*
X1397922Y1372284D01*
X1397519Y1372240D01*
X1397118Y1372186D01*
X1396718Y1372123D01*
X1396319Y1372050D01*
X1395923Y1371967D01*
X1395528Y1371875D01*
X1395136Y1371773D01*
X1394746Y1371662D01*
X1394360Y1371542D01*
X1393976Y1371412D01*
X1393595Y1371273D01*
X1393218Y1371124D01*
X1392845Y1370967D01*
X1392476Y1370801D01*
X1392110Y1370626D01*
X1391749Y1370442D01*
X1391393Y1370249D01*
X1391041Y1370048D01*
X1390695Y1369838D01*
X1390353Y1369621D01*
X1390017Y1369395D01*
X1389686Y1369160D01*
X1389362Y1368918D01*
X1389043Y1368668D01*
X1388730Y1368411D01*
X1388423Y1368146D01*
X1388123Y1367874D01*
X1387830Y1367594D01*
X1387544Y1367308D01*
X1387264Y1367015D01*
X1386992Y1366715D01*
X1386727Y1366408D01*
X1386470Y1366095D01*
X1386220Y1365776D01*
X1385978Y1365452D01*
X1385743Y1365121D01*
X1385517Y1364785D01*
X1385300Y1364443D01*
X1385090Y1364097D01*
X1384889Y1363745D01*
X1384696Y1363389D01*
X1384512Y1363028D01*
X1384337Y1362662D01*
X1384171Y1362293D01*
X1384014Y1361920D01*
X1383865Y1361543D01*
X1383726Y1361162D01*
X1383596Y1360778D01*
X1383476Y1360392D01*
X1383365Y1360002D01*
X1383263Y1359610D01*
X1383171Y1359215D01*
X1383088Y1358819D01*
X1383015Y1358420D01*
X1382952Y1358020D01*
X1382898Y1357619D01*
X1382854Y1357216D01*
X1382820Y1356812D01*
X1382796Y1356408D01*
X1382781Y1356003D01*
X1382776Y1355598D01*
X1407922Y1377950D02*
X1427480Y1377950D01*
X1407922Y1377950D02*
X1407719Y1377948D01*
X1407517Y1377940D01*
X1407315Y1377928D01*
X1407113Y1377911D01*
X1406912Y1377889D01*
X1406711Y1377862D01*
X1406511Y1377830D01*
X1406312Y1377794D01*
X1406113Y1377753D01*
X1405916Y1377706D01*
X1405720Y1377656D01*
X1405525Y1377600D01*
X1405332Y1377540D01*
X1405140Y1377475D01*
X1404950Y1377405D01*
X1404761Y1377331D01*
X1404575Y1377253D01*
X1404390Y1377169D01*
X1404207Y1377082D01*
X1404027Y1376990D01*
X1403848Y1376894D01*
X1403673Y1376793D01*
X1403499Y1376688D01*
X1403329Y1376579D01*
X1403160Y1376466D01*
X1402995Y1376349D01*
X1402833Y1376228D01*
X1402673Y1376103D01*
X1402517Y1375974D01*
X1402364Y1375842D01*
X1402214Y1375706D01*
X1402067Y1375566D01*
X1401924Y1375423D01*
X1401784Y1375276D01*
X1401648Y1375126D01*
X1401516Y1374973D01*
X1401387Y1374817D01*
X1401262Y1374657D01*
X1401141Y1374495D01*
X1401024Y1374330D01*
X1400911Y1374161D01*
X1400802Y1373991D01*
X1400697Y1373817D01*
X1400596Y1373642D01*
X1400500Y1373463D01*
X1400408Y1373283D01*
X1400321Y1373100D01*
X1400237Y1372915D01*
X1400159Y1372729D01*
X1400085Y1372540D01*
X1400015Y1372350D01*
X1399950Y1372158D01*
X1399890Y1371965D01*
X1399834Y1371770D01*
X1399784Y1371574D01*
X1399737Y1371377D01*
X1399696Y1371178D01*
X1399660Y1370979D01*
X1399628Y1370779D01*
X1399601Y1370578D01*
X1399579Y1370377D01*
X1399562Y1370175D01*
X1399550Y1369973D01*
X1399542Y1369771D01*
X1399540Y1369568D01*
X1407922Y1377950D02*
X1407314Y1377943D01*
X1406707Y1377921D01*
X1406101Y1377884D01*
X1405495Y1377833D01*
X1404891Y1377767D01*
X1404289Y1377686D01*
X1403688Y1377591D01*
X1403091Y1377482D01*
X1402496Y1377358D01*
X1401904Y1377219D01*
X1401316Y1377067D01*
X1400732Y1376900D01*
X1400151Y1376719D01*
X1399576Y1376525D01*
X1399005Y1376316D01*
X1398440Y1376094D01*
X1397880Y1375858D01*
X1397325Y1375608D01*
X1396778Y1375346D01*
X1396236Y1375070D01*
X1395701Y1374781D01*
X1395174Y1374479D01*
X1394654Y1374165D01*
X1394142Y1373838D01*
X1393637Y1373499D01*
X1393142Y1373148D01*
X1392654Y1372784D01*
X1392176Y1372410D01*
X1391707Y1372023D01*
X1391247Y1371626D01*
X1390797Y1371218D01*
X1390357Y1370798D01*
X1389928Y1370369D01*
X1389508Y1369929D01*
X1389100Y1369479D01*
X1388703Y1369019D01*
X1388316Y1368550D01*
X1387942Y1368072D01*
X1387578Y1367584D01*
X1387227Y1367089D01*
X1386888Y1366584D01*
X1386561Y1366072D01*
X1386247Y1365552D01*
X1385945Y1365025D01*
X1385656Y1364490D01*
X1385380Y1363948D01*
X1385118Y1363401D01*
X1384868Y1362846D01*
X1384632Y1362286D01*
X1384410Y1361721D01*
X1384201Y1361150D01*
X1384007Y1360575D01*
X1383826Y1359994D01*
X1383659Y1359410D01*
X1383507Y1358822D01*
X1383368Y1358230D01*
X1383244Y1357635D01*
X1383135Y1357038D01*
X1383040Y1356437D01*
X1382959Y1355835D01*
X1382893Y1355231D01*
X1382842Y1354625D01*
X1382805Y1354019D01*
X1382783Y1353412D01*
X1382776Y1352804D01*
X1382776Y1305306D02*
X1382776Y1299718D01*
X1382784Y1299043D01*
X1382809Y1298368D01*
X1382849Y1297694D01*
X1382906Y1297021D01*
X1382980Y1296350D01*
X1383069Y1295681D01*
X1383175Y1295014D01*
X1383297Y1294350D01*
X1383434Y1293689D01*
X1383588Y1293032D01*
X1383757Y1292378D01*
X1383943Y1291729D01*
X1384143Y1291084D01*
X1384360Y1290444D01*
X1384592Y1289810D01*
X1384839Y1289182D01*
X1385101Y1288560D01*
X1385378Y1287944D01*
X1385670Y1287335D01*
X1385976Y1286734D01*
X1386297Y1286140D01*
X1386633Y1285554D01*
X1386982Y1284976D01*
X1387345Y1284407D01*
X1387722Y1283846D01*
X1388112Y1283295D01*
X1388515Y1282754D01*
X1388932Y1282222D01*
X1389361Y1281701D01*
X1389803Y1281190D01*
X1390256Y1280690D01*
X1390722Y1280202D01*
X1391200Y1279724D01*
X1391688Y1279258D01*
X1392188Y1278805D01*
X1392699Y1278363D01*
X1393220Y1277934D01*
X1393752Y1277517D01*
X1394293Y1277114D01*
X1394844Y1276724D01*
X1395405Y1276347D01*
X1395974Y1275984D01*
X1396552Y1275635D01*
X1397138Y1275299D01*
X1397732Y1274978D01*
X1398333Y1274672D01*
X1398942Y1274380D01*
X1399558Y1274103D01*
X1400180Y1273841D01*
X1400808Y1273594D01*
X1401442Y1273362D01*
X1402082Y1273145D01*
X1402727Y1272945D01*
X1403376Y1272759D01*
X1404030Y1272590D01*
X1404687Y1272436D01*
X1405348Y1272299D01*
X1406012Y1272177D01*
X1406679Y1272071D01*
X1407348Y1271982D01*
X1408019Y1271908D01*
X1408692Y1271851D01*
X1409366Y1271811D01*
X1410041Y1271786D01*
X1410716Y1271778D01*
X1413510Y1260602D02*
X1413510Y1260602D01*
X1412700Y1260592D01*
X1411890Y1260563D01*
X1411081Y1260514D01*
X1410274Y1260445D01*
X1409469Y1260358D01*
X1408666Y1260250D01*
X1407865Y1260123D01*
X1407068Y1259977D01*
X1406275Y1259812D01*
X1405486Y1259628D01*
X1404702Y1259424D01*
X1403923Y1259202D01*
X1403149Y1258961D01*
X1402382Y1258701D01*
X1401621Y1258423D01*
X1400867Y1258127D01*
X1400120Y1257812D01*
X1399381Y1257480D01*
X1398651Y1257129D01*
X1397929Y1256762D01*
X1397216Y1256376D01*
X1396513Y1255974D01*
X1395819Y1255555D01*
X1395136Y1255119D01*
X1394464Y1254667D01*
X1393803Y1254199D01*
X1393153Y1253715D01*
X1392515Y1253215D01*
X1391890Y1252700D01*
X1391277Y1252170D01*
X1390677Y1251626D01*
X1390090Y1251067D01*
X1389517Y1250494D01*
X1388958Y1249907D01*
X1388414Y1249307D01*
X1387884Y1248694D01*
X1387369Y1248069D01*
X1386869Y1247431D01*
X1386385Y1246781D01*
X1385917Y1246120D01*
X1385465Y1245448D01*
X1385029Y1244765D01*
X1384610Y1244071D01*
X1384208Y1243368D01*
X1383822Y1242655D01*
X1383455Y1241933D01*
X1383104Y1241203D01*
X1382772Y1240464D01*
X1382457Y1239717D01*
X1382161Y1238963D01*
X1381883Y1238202D01*
X1381623Y1237435D01*
X1381382Y1236661D01*
X1381160Y1235882D01*
X1380956Y1235098D01*
X1380772Y1234309D01*
X1380607Y1233516D01*
X1380461Y1232719D01*
X1380334Y1231918D01*
X1380226Y1231115D01*
X1380139Y1230310D01*
X1380070Y1229503D01*
X1380021Y1228694D01*
X1379992Y1227884D01*
X1379982Y1227074D01*
X1413510Y1143254D02*
X1435862Y1143254D01*
X1413510Y1143254D02*
X1412700Y1143264D01*
X1411890Y1143293D01*
X1411081Y1143342D01*
X1410274Y1143411D01*
X1409469Y1143498D01*
X1408666Y1143606D01*
X1407865Y1143733D01*
X1407068Y1143879D01*
X1406275Y1144044D01*
X1405486Y1144228D01*
X1404702Y1144432D01*
X1403923Y1144654D01*
X1403149Y1144895D01*
X1402382Y1145155D01*
X1401621Y1145433D01*
X1400867Y1145729D01*
X1400120Y1146044D01*
X1399381Y1146376D01*
X1398651Y1146727D01*
X1397929Y1147094D01*
X1397216Y1147480D01*
X1396513Y1147882D01*
X1395819Y1148301D01*
X1395136Y1148737D01*
X1394464Y1149189D01*
X1393803Y1149657D01*
X1393153Y1150141D01*
X1392515Y1150641D01*
X1391890Y1151156D01*
X1391277Y1151686D01*
X1390677Y1152230D01*
X1390090Y1152789D01*
X1389517Y1153362D01*
X1388958Y1153949D01*
X1388414Y1154549D01*
X1387884Y1155162D01*
X1387369Y1155787D01*
X1386869Y1156425D01*
X1386385Y1157075D01*
X1385917Y1157736D01*
X1385465Y1158408D01*
X1385029Y1159091D01*
X1384610Y1159785D01*
X1384208Y1160488D01*
X1383822Y1161201D01*
X1383455Y1161923D01*
X1383104Y1162653D01*
X1382772Y1163392D01*
X1382457Y1164139D01*
X1382161Y1164893D01*
X1381883Y1165654D01*
X1381623Y1166421D01*
X1381382Y1167195D01*
X1381160Y1167974D01*
X1380956Y1168758D01*
X1380772Y1169547D01*
X1380607Y1170340D01*
X1380461Y1171137D01*
X1380334Y1171938D01*
X1380226Y1172741D01*
X1380139Y1173546D01*
X1380070Y1174353D01*
X1380021Y1175162D01*
X1379992Y1175972D01*
X1379982Y1176782D01*
X888238Y1377950D02*
X748538Y1377950D01*
X913229Y1447800D02*
X913237Y1448421D01*
X913259Y1449041D01*
X913298Y1449661D01*
X913351Y1450280D01*
X913419Y1450897D01*
X913503Y1451512D01*
X913601Y1452126D01*
X913715Y1452736D01*
X913844Y1453343D01*
X913987Y1453948D01*
X914146Y1454548D01*
X914318Y1455144D01*
X914506Y1455736D01*
X914708Y1456324D01*
X914924Y1456906D01*
X915155Y1457482D01*
X915400Y1458053D01*
X915658Y1458618D01*
X915931Y1459176D01*
X916217Y1459727D01*
X916516Y1460271D01*
X916829Y1460807D01*
X917154Y1461336D01*
X917493Y1461856D01*
X917844Y1462369D01*
X918208Y1462872D01*
X918584Y1463366D01*
X918972Y1463851D01*
X919372Y1464326D01*
X919783Y1464791D01*
X920206Y1465246D01*
X920639Y1465691D01*
X921084Y1466124D01*
X921539Y1466547D01*
X922004Y1466958D01*
X922479Y1467358D01*
X922964Y1467746D01*
X923458Y1468122D01*
X923961Y1468486D01*
X924474Y1468837D01*
X924994Y1469176D01*
X925523Y1469501D01*
X926059Y1469814D01*
X926603Y1470113D01*
X927154Y1470399D01*
X927712Y1470672D01*
X928277Y1470930D01*
X928848Y1471175D01*
X929424Y1471406D01*
X930006Y1471622D01*
X930594Y1471824D01*
X931186Y1472012D01*
X931782Y1472184D01*
X932382Y1472343D01*
X932987Y1472486D01*
X933594Y1472615D01*
X934204Y1472729D01*
X934818Y1472827D01*
X935433Y1472911D01*
X936050Y1472979D01*
X936669Y1473032D01*
X937289Y1473071D01*
X937909Y1473093D01*
X938530Y1473101D01*
X939151Y1473093D01*
X939771Y1473071D01*
X940391Y1473032D01*
X941010Y1472979D01*
X941627Y1472911D01*
X942242Y1472827D01*
X942856Y1472729D01*
X943466Y1472615D01*
X944073Y1472486D01*
X944678Y1472343D01*
X945278Y1472184D01*
X945874Y1472012D01*
X946466Y1471824D01*
X947054Y1471622D01*
X947636Y1471406D01*
X948212Y1471175D01*
X948783Y1470930D01*
X949348Y1470672D01*
X949906Y1470399D01*
X950457Y1470113D01*
X951001Y1469814D01*
X951537Y1469501D01*
X952066Y1469176D01*
X952586Y1468837D01*
X953099Y1468486D01*
X953602Y1468122D01*
X954096Y1467746D01*
X954581Y1467358D01*
X955056Y1466958D01*
X955521Y1466547D01*
X955976Y1466124D01*
X956421Y1465691D01*
X956854Y1465246D01*
X957277Y1464791D01*
X957688Y1464326D01*
X958088Y1463851D01*
X958476Y1463366D01*
X958852Y1462872D01*
X959216Y1462369D01*
X959567Y1461856D01*
X959906Y1461336D01*
X960231Y1460807D01*
X960544Y1460271D01*
X960843Y1459727D01*
X961129Y1459176D01*
X961402Y1458618D01*
X961660Y1458053D01*
X961905Y1457482D01*
X962136Y1456906D01*
X962352Y1456324D01*
X962554Y1455736D01*
X962742Y1455144D01*
X962914Y1454548D01*
X963073Y1453948D01*
X963216Y1453343D01*
X963345Y1452736D01*
X963459Y1452126D01*
X963557Y1451512D01*
X963641Y1450897D01*
X963709Y1450280D01*
X963762Y1449661D01*
X963801Y1449041D01*
X963823Y1448421D01*
X963831Y1447800D01*
X963823Y1447179D01*
X963801Y1446559D01*
X963762Y1445939D01*
X963709Y1445320D01*
X963641Y1444703D01*
X963557Y1444088D01*
X963459Y1443474D01*
X963345Y1442864D01*
X963216Y1442257D01*
X963073Y1441652D01*
X962914Y1441052D01*
X962742Y1440456D01*
X962554Y1439864D01*
X962352Y1439276D01*
X962136Y1438694D01*
X961905Y1438118D01*
X961660Y1437547D01*
X961402Y1436982D01*
X961129Y1436424D01*
X960843Y1435873D01*
X960544Y1435329D01*
X960231Y1434793D01*
X959906Y1434264D01*
X959567Y1433744D01*
X959216Y1433231D01*
X958852Y1432728D01*
X958476Y1432234D01*
X958088Y1431749D01*
X957688Y1431274D01*
X957277Y1430809D01*
X956854Y1430354D01*
X956421Y1429909D01*
X955976Y1429476D01*
X955521Y1429053D01*
X955056Y1428642D01*
X954581Y1428242D01*
X954096Y1427854D01*
X953602Y1427478D01*
X953099Y1427114D01*
X952586Y1426763D01*
X952066Y1426424D01*
X951537Y1426099D01*
X951001Y1425786D01*
X950457Y1425487D01*
X949906Y1425201D01*
X949348Y1424928D01*
X948783Y1424670D01*
X948212Y1424425D01*
X947636Y1424194D01*
X947054Y1423978D01*
X946466Y1423776D01*
X945874Y1423588D01*
X945278Y1423416D01*
X944678Y1423257D01*
X944073Y1423114D01*
X943466Y1422985D01*
X942856Y1422871D01*
X942242Y1422773D01*
X941627Y1422689D01*
X941010Y1422621D01*
X940391Y1422568D01*
X939771Y1422529D01*
X939151Y1422507D01*
X938530Y1422499D01*
X937909Y1422507D01*
X937289Y1422529D01*
X936669Y1422568D01*
X936050Y1422621D01*
X935433Y1422689D01*
X934818Y1422773D01*
X934204Y1422871D01*
X933594Y1422985D01*
X932987Y1423114D01*
X932382Y1423257D01*
X931782Y1423416D01*
X931186Y1423588D01*
X930594Y1423776D01*
X930006Y1423978D01*
X929424Y1424194D01*
X928848Y1424425D01*
X928277Y1424670D01*
X927712Y1424928D01*
X927154Y1425201D01*
X926603Y1425487D01*
X926059Y1425786D01*
X925523Y1426099D01*
X924994Y1426424D01*
X924474Y1426763D01*
X923961Y1427114D01*
X923458Y1427478D01*
X922964Y1427854D01*
X922479Y1428242D01*
X922004Y1428642D01*
X921539Y1429053D01*
X921084Y1429476D01*
X920639Y1429909D01*
X920206Y1430354D01*
X919783Y1430809D01*
X919372Y1431274D01*
X918972Y1431749D01*
X918584Y1432234D01*
X918208Y1432728D01*
X917844Y1433231D01*
X917493Y1433744D01*
X917154Y1434264D01*
X916829Y1434793D01*
X916516Y1435329D01*
X916217Y1435873D01*
X915931Y1436424D01*
X915658Y1436982D01*
X915400Y1437547D01*
X915155Y1438118D01*
X914924Y1438694D01*
X914708Y1439276D01*
X914506Y1439864D01*
X914318Y1440456D01*
X914146Y1441052D01*
X913987Y1441652D01*
X913844Y1442257D01*
X913715Y1442864D01*
X913601Y1443474D01*
X913503Y1444088D01*
X913419Y1444703D01*
X913351Y1445320D01*
X913298Y1445939D01*
X913259Y1446559D01*
X913237Y1447179D01*
X913229Y1447800D01*
X840740Y1445006D02*
X840747Y1445555D01*
X840767Y1446103D01*
X840801Y1446650D01*
X840848Y1447197D01*
X840908Y1447742D01*
X840982Y1448286D01*
X841069Y1448827D01*
X841169Y1449367D01*
X841283Y1449903D01*
X841410Y1450437D01*
X841550Y1450968D01*
X841702Y1451494D01*
X841868Y1452017D01*
X842047Y1452536D01*
X842238Y1453050D01*
X842441Y1453560D01*
X842658Y1454064D01*
X842886Y1454563D01*
X843127Y1455056D01*
X843379Y1455543D01*
X843644Y1456023D01*
X843920Y1456497D01*
X844208Y1456964D01*
X844507Y1457424D01*
X844817Y1457876D01*
X845139Y1458321D01*
X845471Y1458758D01*
X845814Y1459186D01*
X846167Y1459606D01*
X846530Y1460017D01*
X846904Y1460419D01*
X847287Y1460811D01*
X847679Y1461194D01*
X848081Y1461568D01*
X848492Y1461931D01*
X848912Y1462284D01*
X849340Y1462627D01*
X849777Y1462959D01*
X850222Y1463281D01*
X850674Y1463591D01*
X851134Y1463890D01*
X851601Y1464178D01*
X852075Y1464454D01*
X852555Y1464719D01*
X853042Y1464971D01*
X853535Y1465212D01*
X854034Y1465440D01*
X854538Y1465657D01*
X855048Y1465860D01*
X855562Y1466051D01*
X856081Y1466230D01*
X856604Y1466396D01*
X857130Y1466548D01*
X857661Y1466688D01*
X858195Y1466815D01*
X858731Y1466929D01*
X859271Y1467029D01*
X859812Y1467116D01*
X860356Y1467190D01*
X860901Y1467250D01*
X861448Y1467297D01*
X861995Y1467331D01*
X862543Y1467351D01*
X863092Y1467358D01*
X863641Y1467351D01*
X864189Y1467331D01*
X864736Y1467297D01*
X865283Y1467250D01*
X865828Y1467190D01*
X866372Y1467116D01*
X866913Y1467029D01*
X867453Y1466929D01*
X867989Y1466815D01*
X868523Y1466688D01*
X869054Y1466548D01*
X869580Y1466396D01*
X870103Y1466230D01*
X870622Y1466051D01*
X871136Y1465860D01*
X871646Y1465657D01*
X872150Y1465440D01*
X872649Y1465212D01*
X873142Y1464971D01*
X873629Y1464719D01*
X874109Y1464454D01*
X874583Y1464178D01*
X875050Y1463890D01*
X875510Y1463591D01*
X875962Y1463281D01*
X876407Y1462959D01*
X876844Y1462627D01*
X877272Y1462284D01*
X877692Y1461931D01*
X878103Y1461568D01*
X878505Y1461194D01*
X878897Y1460811D01*
X879280Y1460419D01*
X879654Y1460017D01*
X880017Y1459606D01*
X880370Y1459186D01*
X880713Y1458758D01*
X881045Y1458321D01*
X881367Y1457876D01*
X881677Y1457424D01*
X881976Y1456964D01*
X882264Y1456497D01*
X882540Y1456023D01*
X882805Y1455543D01*
X883057Y1455056D01*
X883298Y1454563D01*
X883526Y1454064D01*
X883743Y1453560D01*
X883946Y1453050D01*
X884137Y1452536D01*
X884316Y1452017D01*
X884482Y1451494D01*
X884634Y1450968D01*
X884774Y1450437D01*
X884901Y1449903D01*
X885015Y1449367D01*
X885115Y1448827D01*
X885202Y1448286D01*
X885276Y1447742D01*
X885336Y1447197D01*
X885383Y1446650D01*
X885417Y1446103D01*
X885437Y1445555D01*
X885444Y1445006D01*
X885437Y1444457D01*
X885417Y1443909D01*
X885383Y1443362D01*
X885336Y1442815D01*
X885276Y1442270D01*
X885202Y1441726D01*
X885115Y1441185D01*
X885015Y1440645D01*
X884901Y1440109D01*
X884774Y1439575D01*
X884634Y1439044D01*
X884482Y1438518D01*
X884316Y1437995D01*
X884137Y1437476D01*
X883946Y1436962D01*
X883743Y1436452D01*
X883526Y1435948D01*
X883298Y1435449D01*
X883057Y1434956D01*
X882805Y1434469D01*
X882540Y1433989D01*
X882264Y1433515D01*
X881976Y1433048D01*
X881677Y1432588D01*
X881367Y1432136D01*
X881045Y1431691D01*
X880713Y1431254D01*
X880370Y1430826D01*
X880017Y1430406D01*
X879654Y1429995D01*
X879280Y1429593D01*
X878897Y1429201D01*
X878505Y1428818D01*
X878103Y1428444D01*
X877692Y1428081D01*
X877272Y1427728D01*
X876844Y1427385D01*
X876407Y1427053D01*
X875962Y1426731D01*
X875510Y1426421D01*
X875050Y1426122D01*
X874583Y1425834D01*
X874109Y1425558D01*
X873629Y1425293D01*
X873142Y1425041D01*
X872649Y1424800D01*
X872150Y1424572D01*
X871646Y1424355D01*
X871136Y1424152D01*
X870622Y1423961D01*
X870103Y1423782D01*
X869580Y1423616D01*
X869054Y1423464D01*
X868523Y1423324D01*
X867989Y1423197D01*
X867453Y1423083D01*
X866913Y1422983D01*
X866372Y1422896D01*
X865828Y1422822D01*
X865283Y1422762D01*
X864736Y1422715D01*
X864189Y1422681D01*
X863641Y1422661D01*
X863092Y1422654D01*
X862543Y1422661D01*
X861995Y1422681D01*
X861448Y1422715D01*
X860901Y1422762D01*
X860356Y1422822D01*
X859812Y1422896D01*
X859271Y1422983D01*
X858731Y1423083D01*
X858195Y1423197D01*
X857661Y1423324D01*
X857130Y1423464D01*
X856604Y1423616D01*
X856081Y1423782D01*
X855562Y1423961D01*
X855048Y1424152D01*
X854538Y1424355D01*
X854034Y1424572D01*
X853535Y1424800D01*
X853042Y1425041D01*
X852555Y1425293D01*
X852075Y1425558D01*
X851601Y1425834D01*
X851134Y1426122D01*
X850674Y1426421D01*
X850222Y1426731D01*
X849777Y1427053D01*
X849340Y1427385D01*
X848912Y1427728D01*
X848492Y1428081D01*
X848081Y1428444D01*
X847679Y1428818D01*
X847287Y1429201D01*
X846904Y1429593D01*
X846530Y1429995D01*
X846167Y1430406D01*
X845814Y1430826D01*
X845471Y1431254D01*
X845139Y1431691D01*
X844817Y1432136D01*
X844507Y1432588D01*
X844208Y1433048D01*
X843920Y1433515D01*
X843644Y1433989D01*
X843379Y1434469D01*
X843127Y1434956D01*
X842886Y1435449D01*
X842658Y1435948D01*
X842441Y1436452D01*
X842238Y1436962D01*
X842047Y1437476D01*
X841868Y1437995D01*
X841702Y1438518D01*
X841550Y1439044D01*
X841410Y1439575D01*
X841283Y1440109D01*
X841169Y1440645D01*
X841069Y1441185D01*
X840982Y1441726D01*
X840908Y1442270D01*
X840848Y1442815D01*
X840801Y1443362D01*
X840767Y1443909D01*
X840747Y1444457D01*
X840740Y1445006D01*
X839220Y1447800D02*
X839227Y1448386D01*
X839249Y1448971D01*
X839285Y1449556D01*
X839335Y1450140D01*
X839400Y1450722D01*
X839478Y1451303D01*
X839571Y1451881D01*
X839679Y1452457D01*
X839800Y1453030D01*
X839935Y1453600D01*
X840085Y1454167D01*
X840248Y1454730D01*
X840425Y1455288D01*
X840615Y1455842D01*
X840820Y1456391D01*
X841037Y1456935D01*
X841268Y1457474D01*
X841512Y1458007D01*
X841769Y1458533D01*
X842039Y1459053D01*
X842321Y1459566D01*
X842616Y1460073D01*
X842924Y1460571D01*
X843243Y1461063D01*
X843575Y1461546D01*
X843918Y1462021D01*
X844273Y1462487D01*
X844639Y1462944D01*
X845016Y1463393D01*
X845404Y1463831D01*
X845803Y1464261D01*
X846212Y1464680D01*
X846631Y1465089D01*
X847061Y1465488D01*
X847499Y1465876D01*
X847948Y1466253D01*
X848405Y1466619D01*
X848871Y1466974D01*
X849346Y1467317D01*
X849829Y1467649D01*
X850321Y1467968D01*
X850819Y1468276D01*
X851326Y1468571D01*
X851839Y1468853D01*
X852359Y1469123D01*
X852885Y1469380D01*
X853418Y1469624D01*
X853957Y1469855D01*
X854501Y1470072D01*
X855050Y1470277D01*
X855604Y1470467D01*
X856162Y1470644D01*
X856725Y1470807D01*
X857292Y1470957D01*
X857862Y1471092D01*
X858435Y1471213D01*
X859011Y1471321D01*
X859589Y1471414D01*
X860170Y1471492D01*
X860752Y1471557D01*
X861336Y1471607D01*
X861921Y1471643D01*
X862506Y1471665D01*
X863092Y1471672D01*
X863678Y1471665D01*
X864263Y1471643D01*
X864848Y1471607D01*
X865432Y1471557D01*
X866014Y1471492D01*
X866595Y1471414D01*
X867173Y1471321D01*
X867749Y1471213D01*
X868322Y1471092D01*
X868892Y1470957D01*
X869459Y1470807D01*
X870022Y1470644D01*
X870580Y1470467D01*
X871134Y1470277D01*
X871683Y1470072D01*
X872227Y1469855D01*
X872766Y1469624D01*
X873299Y1469380D01*
X873825Y1469123D01*
X874345Y1468853D01*
X874858Y1468571D01*
X875365Y1468276D01*
X875863Y1467968D01*
X876355Y1467649D01*
X876838Y1467317D01*
X877313Y1466974D01*
X877779Y1466619D01*
X878236Y1466253D01*
X878685Y1465876D01*
X879123Y1465488D01*
X879553Y1465089D01*
X879972Y1464680D01*
X880381Y1464261D01*
X880780Y1463831D01*
X881168Y1463393D01*
X881545Y1462944D01*
X881911Y1462487D01*
X882266Y1462021D01*
X882609Y1461546D01*
X882941Y1461063D01*
X883260Y1460571D01*
X883568Y1460073D01*
X883863Y1459566D01*
X884145Y1459053D01*
X884415Y1458533D01*
X884672Y1458007D01*
X884916Y1457474D01*
X885147Y1456935D01*
X885364Y1456391D01*
X885569Y1455842D01*
X885759Y1455288D01*
X885936Y1454730D01*
X886099Y1454167D01*
X886249Y1453600D01*
X886384Y1453030D01*
X886505Y1452457D01*
X886613Y1451881D01*
X886706Y1451303D01*
X886784Y1450722D01*
X886849Y1450140D01*
X886899Y1449556D01*
X886935Y1448971D01*
X886957Y1448386D01*
X886964Y1447800D01*
X886957Y1447214D01*
X886935Y1446629D01*
X886899Y1446044D01*
X886849Y1445460D01*
X886784Y1444878D01*
X886706Y1444297D01*
X886613Y1443719D01*
X886505Y1443143D01*
X886384Y1442570D01*
X886249Y1442000D01*
X886099Y1441433D01*
X885936Y1440870D01*
X885759Y1440312D01*
X885569Y1439758D01*
X885364Y1439209D01*
X885147Y1438665D01*
X884916Y1438126D01*
X884672Y1437593D01*
X884415Y1437067D01*
X884145Y1436547D01*
X883863Y1436034D01*
X883568Y1435527D01*
X883260Y1435029D01*
X882941Y1434537D01*
X882609Y1434054D01*
X882266Y1433579D01*
X881911Y1433113D01*
X881545Y1432656D01*
X881168Y1432207D01*
X880780Y1431769D01*
X880381Y1431339D01*
X879972Y1430920D01*
X879553Y1430511D01*
X879123Y1430112D01*
X878685Y1429724D01*
X878236Y1429347D01*
X877779Y1428981D01*
X877313Y1428626D01*
X876838Y1428283D01*
X876355Y1427951D01*
X875863Y1427632D01*
X875365Y1427324D01*
X874858Y1427029D01*
X874345Y1426747D01*
X873825Y1426477D01*
X873299Y1426220D01*
X872766Y1425976D01*
X872227Y1425745D01*
X871683Y1425528D01*
X871134Y1425323D01*
X870580Y1425133D01*
X870022Y1424956D01*
X869459Y1424793D01*
X868892Y1424643D01*
X868322Y1424508D01*
X867749Y1424387D01*
X867173Y1424279D01*
X866595Y1424186D01*
X866014Y1424108D01*
X865432Y1424043D01*
X864848Y1423993D01*
X864263Y1423957D01*
X863678Y1423935D01*
X863092Y1423928D01*
X862506Y1423935D01*
X861921Y1423957D01*
X861336Y1423993D01*
X860752Y1424043D01*
X860170Y1424108D01*
X859589Y1424186D01*
X859011Y1424279D01*
X858435Y1424387D01*
X857862Y1424508D01*
X857292Y1424643D01*
X856725Y1424793D01*
X856162Y1424956D01*
X855604Y1425133D01*
X855050Y1425323D01*
X854501Y1425528D01*
X853957Y1425745D01*
X853418Y1425976D01*
X852885Y1426220D01*
X852359Y1426477D01*
X851839Y1426747D01*
X851326Y1427029D01*
X850819Y1427324D01*
X850321Y1427632D01*
X849829Y1427951D01*
X849346Y1428283D01*
X848871Y1428626D01*
X848405Y1428981D01*
X847948Y1429347D01*
X847499Y1429724D01*
X847061Y1430112D01*
X846631Y1430511D01*
X846212Y1430920D01*
X845803Y1431339D01*
X845404Y1431769D01*
X845016Y1432207D01*
X844639Y1432656D01*
X844273Y1433113D01*
X843918Y1433579D01*
X843575Y1434054D01*
X843243Y1434537D01*
X842924Y1435029D01*
X842616Y1435527D01*
X842321Y1436034D01*
X842039Y1436547D01*
X841769Y1437067D01*
X841512Y1437593D01*
X841268Y1438126D01*
X841037Y1438665D01*
X840820Y1439209D01*
X840615Y1439758D01*
X840425Y1440312D01*
X840248Y1440870D01*
X840085Y1441433D01*
X839935Y1442000D01*
X839800Y1442570D01*
X839679Y1443143D01*
X839571Y1443719D01*
X839478Y1444297D01*
X839400Y1444878D01*
X839335Y1445460D01*
X839285Y1446044D01*
X839249Y1446629D01*
X839227Y1447214D01*
X839220Y1447800D01*
X759101Y1447800D02*
X759109Y1448432D01*
X759132Y1449064D01*
X759171Y1449695D01*
X759225Y1450325D01*
X759295Y1450953D01*
X759380Y1451580D01*
X759480Y1452204D01*
X759596Y1452825D01*
X759727Y1453444D01*
X759873Y1454059D01*
X760034Y1454670D01*
X760210Y1455277D01*
X760401Y1455880D01*
X760607Y1456478D01*
X760827Y1457071D01*
X761062Y1457658D01*
X761311Y1458239D01*
X761574Y1458813D01*
X761851Y1459382D01*
X762143Y1459943D01*
X762447Y1460497D01*
X762766Y1461043D01*
X763097Y1461581D01*
X763442Y1462111D01*
X763800Y1462632D01*
X764170Y1463145D01*
X764553Y1463648D01*
X764948Y1464141D01*
X765355Y1464625D01*
X765774Y1465099D01*
X766204Y1465562D01*
X766646Y1466014D01*
X767098Y1466456D01*
X767561Y1466886D01*
X768035Y1467305D01*
X768519Y1467712D01*
X769012Y1468107D01*
X769515Y1468490D01*
X770028Y1468860D01*
X770549Y1469218D01*
X771079Y1469563D01*
X771617Y1469894D01*
X772163Y1470213D01*
X772717Y1470517D01*
X773278Y1470809D01*
X773847Y1471086D01*
X774421Y1471349D01*
X775002Y1471598D01*
X775589Y1471833D01*
X776182Y1472053D01*
X776780Y1472259D01*
X777383Y1472450D01*
X777990Y1472626D01*
X778601Y1472787D01*
X779216Y1472933D01*
X779835Y1473064D01*
X780456Y1473180D01*
X781080Y1473280D01*
X781707Y1473365D01*
X782335Y1473435D01*
X782965Y1473489D01*
X783596Y1473528D01*
X784228Y1473551D01*
X784860Y1473559D01*
X785492Y1473551D01*
X786124Y1473528D01*
X786755Y1473489D01*
X787385Y1473435D01*
X788013Y1473365D01*
X788640Y1473280D01*
X789264Y1473180D01*
X789885Y1473064D01*
X790504Y1472933D01*
X791119Y1472787D01*
X791730Y1472626D01*
X792337Y1472450D01*
X792940Y1472259D01*
X793538Y1472053D01*
X794131Y1471833D01*
X794718Y1471598D01*
X795299Y1471349D01*
X795873Y1471086D01*
X796442Y1470809D01*
X797003Y1470517D01*
X797557Y1470213D01*
X798103Y1469894D01*
X798641Y1469563D01*
X799171Y1469218D01*
X799692Y1468860D01*
X800205Y1468490D01*
X800708Y1468107D01*
X801201Y1467712D01*
X801685Y1467305D01*
X802159Y1466886D01*
X802622Y1466456D01*
X803074Y1466014D01*
X803516Y1465562D01*
X803946Y1465099D01*
X804365Y1464625D01*
X804772Y1464141D01*
X805167Y1463648D01*
X805550Y1463145D01*
X805920Y1462632D01*
X806278Y1462111D01*
X806623Y1461581D01*
X806954Y1461043D01*
X807273Y1460497D01*
X807577Y1459943D01*
X807869Y1459382D01*
X808146Y1458813D01*
X808409Y1458239D01*
X808658Y1457658D01*
X808893Y1457071D01*
X809113Y1456478D01*
X809319Y1455880D01*
X809510Y1455277D01*
X809686Y1454670D01*
X809847Y1454059D01*
X809993Y1453444D01*
X810124Y1452825D01*
X810240Y1452204D01*
X810340Y1451580D01*
X810425Y1450953D01*
X810495Y1450325D01*
X810549Y1449695D01*
X810588Y1449064D01*
X810611Y1448432D01*
X810619Y1447800D01*
X810611Y1447168D01*
X810588Y1446536D01*
X810549Y1445905D01*
X810495Y1445275D01*
X810425Y1444647D01*
X810340Y1444020D01*
X810240Y1443396D01*
X810124Y1442775D01*
X809993Y1442156D01*
X809847Y1441541D01*
X809686Y1440930D01*
X809510Y1440323D01*
X809319Y1439720D01*
X809113Y1439122D01*
X808893Y1438529D01*
X808658Y1437942D01*
X808409Y1437361D01*
X808146Y1436787D01*
X807869Y1436218D01*
X807577Y1435657D01*
X807273Y1435103D01*
X806954Y1434557D01*
X806623Y1434019D01*
X806278Y1433489D01*
X805920Y1432968D01*
X805550Y1432455D01*
X805167Y1431952D01*
X804772Y1431459D01*
X804365Y1430975D01*
X803946Y1430501D01*
X803516Y1430038D01*
X803074Y1429586D01*
X802622Y1429144D01*
X802159Y1428714D01*
X801685Y1428295D01*
X801201Y1427888D01*
X800708Y1427493D01*
X800205Y1427110D01*
X799692Y1426740D01*
X799171Y1426382D01*
X798641Y1426037D01*
X798103Y1425706D01*
X797557Y1425387D01*
X797003Y1425083D01*
X796442Y1424791D01*
X795873Y1424514D01*
X795299Y1424251D01*
X794718Y1424002D01*
X794131Y1423767D01*
X793538Y1423547D01*
X792940Y1423341D01*
X792337Y1423150D01*
X791730Y1422974D01*
X791119Y1422813D01*
X790504Y1422667D01*
X789885Y1422536D01*
X789264Y1422420D01*
X788640Y1422320D01*
X788013Y1422235D01*
X787385Y1422165D01*
X786755Y1422111D01*
X786124Y1422072D01*
X785492Y1422049D01*
X784860Y1422041D01*
X784228Y1422049D01*
X783596Y1422072D01*
X782965Y1422111D01*
X782335Y1422165D01*
X781707Y1422235D01*
X781080Y1422320D01*
X780456Y1422420D01*
X779835Y1422536D01*
X779216Y1422667D01*
X778601Y1422813D01*
X777990Y1422974D01*
X777383Y1423150D01*
X776780Y1423341D01*
X776182Y1423547D01*
X775589Y1423767D01*
X775002Y1424002D01*
X774421Y1424251D01*
X773847Y1424514D01*
X773278Y1424791D01*
X772717Y1425083D01*
X772163Y1425387D01*
X771617Y1425706D01*
X771079Y1426037D01*
X770549Y1426382D01*
X770028Y1426740D01*
X769515Y1427110D01*
X769012Y1427493D01*
X768519Y1427888D01*
X768035Y1428295D01*
X767561Y1428714D01*
X767098Y1429144D01*
X766646Y1429586D01*
X766204Y1430038D01*
X765774Y1430501D01*
X765355Y1430975D01*
X764948Y1431459D01*
X764553Y1431952D01*
X764170Y1432455D01*
X763800Y1432968D01*
X763442Y1433489D01*
X763097Y1434019D01*
X762766Y1434557D01*
X762447Y1435103D01*
X762143Y1435657D01*
X761851Y1436218D01*
X761574Y1436787D01*
X761311Y1437361D01*
X761062Y1437942D01*
X760827Y1438529D01*
X760607Y1439122D01*
X760401Y1439720D01*
X760210Y1440323D01*
X760034Y1440930D01*
X759873Y1441541D01*
X759727Y1442156D01*
X759596Y1442775D01*
X759480Y1443396D01*
X759380Y1444020D01*
X759295Y1444647D01*
X759225Y1445275D01*
X759171Y1445905D01*
X759132Y1446536D01*
X759109Y1447168D01*
X759101Y1447800D01*
X836586Y1447800D02*
X836594Y1448450D01*
X836618Y1449101D01*
X836658Y1449750D01*
X836714Y1450398D01*
X836785Y1451045D01*
X836873Y1451689D01*
X836976Y1452332D01*
X837095Y1452971D01*
X837230Y1453607D01*
X837380Y1454240D01*
X837546Y1454869D01*
X837727Y1455494D01*
X837924Y1456114D01*
X838135Y1456730D01*
X838362Y1457339D01*
X838604Y1457943D01*
X838860Y1458541D01*
X839131Y1459133D01*
X839416Y1459717D01*
X839716Y1460295D01*
X840029Y1460865D01*
X840357Y1461427D01*
X840698Y1461981D01*
X841053Y1462526D01*
X841421Y1463062D01*
X841802Y1463590D01*
X842196Y1464107D01*
X842603Y1464615D01*
X843021Y1465113D01*
X843452Y1465600D01*
X843895Y1466077D01*
X844349Y1466543D01*
X844815Y1466997D01*
X845292Y1467440D01*
X845779Y1467871D01*
X846277Y1468289D01*
X846785Y1468696D01*
X847302Y1469090D01*
X847830Y1469471D01*
X848366Y1469839D01*
X848911Y1470194D01*
X849465Y1470535D01*
X850027Y1470863D01*
X850597Y1471176D01*
X851175Y1471476D01*
X851759Y1471761D01*
X852351Y1472032D01*
X852949Y1472288D01*
X853553Y1472530D01*
X854162Y1472757D01*
X854778Y1472968D01*
X855398Y1473165D01*
X856023Y1473346D01*
X856652Y1473512D01*
X857285Y1473662D01*
X857921Y1473797D01*
X858560Y1473916D01*
X859203Y1474019D01*
X859847Y1474107D01*
X860494Y1474178D01*
X861142Y1474234D01*
X861791Y1474274D01*
X862442Y1474298D01*
X863092Y1474306D01*
X863742Y1474298D01*
X864393Y1474274D01*
X865042Y1474234D01*
X865690Y1474178D01*
X866337Y1474107D01*
X866981Y1474019D01*
X867624Y1473916D01*
X868263Y1473797D01*
X868899Y1473662D01*
X869532Y1473512D01*
X870161Y1473346D01*
X870786Y1473165D01*
X871406Y1472968D01*
X872022Y1472757D01*
X872631Y1472530D01*
X873235Y1472288D01*
X873833Y1472032D01*
X874425Y1471761D01*
X875009Y1471476D01*
X875587Y1471176D01*
X876157Y1470863D01*
X876719Y1470535D01*
X877273Y1470194D01*
X877818Y1469839D01*
X878354Y1469471D01*
X878882Y1469090D01*
X879399Y1468696D01*
X879907Y1468289D01*
X880405Y1467871D01*
X880892Y1467440D01*
X881369Y1466997D01*
X881835Y1466543D01*
X882289Y1466077D01*
X882732Y1465600D01*
X883163Y1465113D01*
X883581Y1464615D01*
X883988Y1464107D01*
X884382Y1463590D01*
X884763Y1463062D01*
X885131Y1462526D01*
X885486Y1461981D01*
X885827Y1461427D01*
X886155Y1460865D01*
X886468Y1460295D01*
X886768Y1459717D01*
X887053Y1459133D01*
X887324Y1458541D01*
X887580Y1457943D01*
X887822Y1457339D01*
X888049Y1456730D01*
X888260Y1456114D01*
X888457Y1455494D01*
X888638Y1454869D01*
X888804Y1454240D01*
X888954Y1453607D01*
X889089Y1452971D01*
X889208Y1452332D01*
X889311Y1451689D01*
X889399Y1451045D01*
X889470Y1450398D01*
X889526Y1449750D01*
X889566Y1449101D01*
X889590Y1448450D01*
X889598Y1447800D01*
X889590Y1447150D01*
X889566Y1446499D01*
X889526Y1445850D01*
X889470Y1445202D01*
X889399Y1444555D01*
X889311Y1443911D01*
X889208Y1443268D01*
X889089Y1442629D01*
X888954Y1441993D01*
X888804Y1441360D01*
X888638Y1440731D01*
X888457Y1440106D01*
X888260Y1439486D01*
X888049Y1438870D01*
X887822Y1438261D01*
X887580Y1437657D01*
X887324Y1437059D01*
X887053Y1436467D01*
X886768Y1435883D01*
X886468Y1435305D01*
X886155Y1434735D01*
X885827Y1434173D01*
X885486Y1433619D01*
X885131Y1433074D01*
X884763Y1432538D01*
X884382Y1432010D01*
X883988Y1431493D01*
X883581Y1430985D01*
X883163Y1430487D01*
X882732Y1430000D01*
X882289Y1429523D01*
X881835Y1429057D01*
X881369Y1428603D01*
X880892Y1428160D01*
X880405Y1427729D01*
X879907Y1427311D01*
X879399Y1426904D01*
X878882Y1426510D01*
X878354Y1426129D01*
X877818Y1425761D01*
X877273Y1425406D01*
X876719Y1425065D01*
X876157Y1424737D01*
X875587Y1424424D01*
X875009Y1424124D01*
X874425Y1423839D01*
X873833Y1423568D01*
X873235Y1423312D01*
X872631Y1423070D01*
X872022Y1422843D01*
X871406Y1422632D01*
X870786Y1422435D01*
X870161Y1422254D01*
X869532Y1422088D01*
X868899Y1421938D01*
X868263Y1421803D01*
X867624Y1421684D01*
X866981Y1421581D01*
X866337Y1421493D01*
X865690Y1421422D01*
X865042Y1421366D01*
X864393Y1421326D01*
X863742Y1421302D01*
X863092Y1421294D01*
X862442Y1421302D01*
X861791Y1421326D01*
X861142Y1421366D01*
X860494Y1421422D01*
X859847Y1421493D01*
X859203Y1421581D01*
X858560Y1421684D01*
X857921Y1421803D01*
X857285Y1421938D01*
X856652Y1422088D01*
X856023Y1422254D01*
X855398Y1422435D01*
X854778Y1422632D01*
X854162Y1422843D01*
X853553Y1423070D01*
X852949Y1423312D01*
X852351Y1423568D01*
X851759Y1423839D01*
X851175Y1424124D01*
X850597Y1424424D01*
X850027Y1424737D01*
X849465Y1425065D01*
X848911Y1425406D01*
X848366Y1425761D01*
X847830Y1426129D01*
X847302Y1426510D01*
X846785Y1426904D01*
X846277Y1427311D01*
X845779Y1427729D01*
X845292Y1428160D01*
X844815Y1428603D01*
X844349Y1429057D01*
X843895Y1429523D01*
X843452Y1430000D01*
X843021Y1430487D01*
X842603Y1430985D01*
X842196Y1431493D01*
X841802Y1432010D01*
X841421Y1432538D01*
X841053Y1433074D01*
X840698Y1433619D01*
X840357Y1434173D01*
X840029Y1434735D01*
X839716Y1435305D01*
X839416Y1435883D01*
X839131Y1436467D01*
X838860Y1437059D01*
X838604Y1437657D01*
X838362Y1438261D01*
X838135Y1438870D01*
X837924Y1439486D01*
X837727Y1440106D01*
X837546Y1440731D01*
X837380Y1441360D01*
X837230Y1441993D01*
X837095Y1442629D01*
X836976Y1443268D01*
X836873Y1443911D01*
X836785Y1444555D01*
X836714Y1445202D01*
X836658Y1445850D01*
X836618Y1446499D01*
X836594Y1447150D01*
X836586Y1447800D01*
X857504Y1509268D02*
X857506Y1509373D01*
X857512Y1509478D01*
X857522Y1509583D01*
X857536Y1509687D01*
X857553Y1509791D01*
X857575Y1509893D01*
X857600Y1509995D01*
X857630Y1510096D01*
X857663Y1510196D01*
X857699Y1510295D01*
X857740Y1510392D01*
X857784Y1510487D01*
X857832Y1510581D01*
X857883Y1510673D01*
X857937Y1510762D01*
X857995Y1510850D01*
X858056Y1510936D01*
X858121Y1511019D01*
X858188Y1511099D01*
X858258Y1511178D01*
X858332Y1511253D01*
X858408Y1511325D01*
X858486Y1511395D01*
X858568Y1511462D01*
X858651Y1511525D01*
X858738Y1511586D01*
X858826Y1511643D01*
X858916Y1511696D01*
X859009Y1511747D01*
X859103Y1511793D01*
X859199Y1511837D01*
X859296Y1511876D01*
X859395Y1511912D01*
X859495Y1511944D01*
X859596Y1511972D01*
X859698Y1511997D01*
X859801Y1512018D01*
X859905Y1512034D01*
X860009Y1512047D01*
X860114Y1512056D01*
X860219Y1512061D01*
X860324Y1512062D01*
X860429Y1512059D01*
X860534Y1512052D01*
X860639Y1512041D01*
X860743Y1512026D01*
X860846Y1512008D01*
X860949Y1511985D01*
X861051Y1511959D01*
X861151Y1511928D01*
X861251Y1511894D01*
X861349Y1511857D01*
X861446Y1511815D01*
X861541Y1511770D01*
X861634Y1511722D01*
X861725Y1511670D01*
X861815Y1511615D01*
X861902Y1511556D01*
X861987Y1511494D01*
X862069Y1511429D01*
X862149Y1511361D01*
X862227Y1511290D01*
X862301Y1511216D01*
X862373Y1511139D01*
X862442Y1511059D01*
X862508Y1510978D01*
X862571Y1510893D01*
X862630Y1510807D01*
X862686Y1510718D01*
X862739Y1510627D01*
X862789Y1510534D01*
X862835Y1510440D01*
X862877Y1510343D01*
X862915Y1510246D01*
X862950Y1510146D01*
X862982Y1510046D01*
X863009Y1509944D01*
X863032Y1509842D01*
X863052Y1509739D01*
X863068Y1509635D01*
X863080Y1509530D01*
X863088Y1509426D01*
X863092Y1509321D01*
X863092Y1509215D01*
X863088Y1509110D01*
X863080Y1509006D01*
X863068Y1508901D01*
X863052Y1508797D01*
X863032Y1508694D01*
X863009Y1508592D01*
X862982Y1508490D01*
X862950Y1508390D01*
X862915Y1508290D01*
X862877Y1508193D01*
X862835Y1508096D01*
X862789Y1508002D01*
X862739Y1507909D01*
X862686Y1507818D01*
X862630Y1507729D01*
X862571Y1507643D01*
X862508Y1507558D01*
X862442Y1507477D01*
X862373Y1507397D01*
X862301Y1507320D01*
X862227Y1507246D01*
X862149Y1507175D01*
X862069Y1507107D01*
X861987Y1507042D01*
X861902Y1506980D01*
X861815Y1506921D01*
X861725Y1506866D01*
X861634Y1506814D01*
X861541Y1506766D01*
X861446Y1506721D01*
X861349Y1506679D01*
X861251Y1506642D01*
X861151Y1506608D01*
X861051Y1506577D01*
X860949Y1506551D01*
X860846Y1506528D01*
X860743Y1506510D01*
X860639Y1506495D01*
X860534Y1506484D01*
X860429Y1506477D01*
X860324Y1506474D01*
X860219Y1506475D01*
X860114Y1506480D01*
X860009Y1506489D01*
X859905Y1506502D01*
X859801Y1506518D01*
X859698Y1506539D01*
X859596Y1506564D01*
X859495Y1506592D01*
X859395Y1506624D01*
X859296Y1506660D01*
X859199Y1506699D01*
X859103Y1506743D01*
X859009Y1506789D01*
X858916Y1506840D01*
X858826Y1506893D01*
X858738Y1506950D01*
X858651Y1507011D01*
X858568Y1507074D01*
X858486Y1507141D01*
X858408Y1507211D01*
X858332Y1507283D01*
X858258Y1507358D01*
X858188Y1507437D01*
X858121Y1507517D01*
X858056Y1507600D01*
X857995Y1507686D01*
X857937Y1507774D01*
X857883Y1507863D01*
X857832Y1507955D01*
X857784Y1508049D01*
X857740Y1508144D01*
X857699Y1508241D01*
X857663Y1508340D01*
X857630Y1508440D01*
X857600Y1508541D01*
X857575Y1508643D01*
X857553Y1508745D01*
X857536Y1508849D01*
X857522Y1508953D01*
X857512Y1509058D01*
X857506Y1509163D01*
X857504Y1509268D01*
X846800Y1509268D02*
X846805Y1509668D01*
X846820Y1510067D01*
X846844Y1510467D01*
X846878Y1510865D01*
X846923Y1511262D01*
X846976Y1511659D01*
X847040Y1512053D01*
X847113Y1512446D01*
X847196Y1512838D01*
X847288Y1513227D01*
X847390Y1513613D01*
X847502Y1513997D01*
X847622Y1514379D01*
X847752Y1514757D01*
X847892Y1515131D01*
X848040Y1515503D01*
X848198Y1515870D01*
X848364Y1516234D01*
X848540Y1516593D01*
X848724Y1516948D01*
X848917Y1517298D01*
X849118Y1517644D01*
X849328Y1517984D01*
X849546Y1518319D01*
X849772Y1518649D01*
X850006Y1518973D01*
X850248Y1519291D01*
X850498Y1519604D01*
X850756Y1519909D01*
X851020Y1520209D01*
X851293Y1520502D01*
X851572Y1520788D01*
X851858Y1521067D01*
X852151Y1521340D01*
X852451Y1521604D01*
X852756Y1521862D01*
X853069Y1522112D01*
X853387Y1522354D01*
X853711Y1522588D01*
X854041Y1522814D01*
X854376Y1523032D01*
X854716Y1523242D01*
X855062Y1523443D01*
X855412Y1523636D01*
X855767Y1523820D01*
X856126Y1523996D01*
X856490Y1524162D01*
X856857Y1524320D01*
X857229Y1524468D01*
X857603Y1524608D01*
X857981Y1524738D01*
X858363Y1524858D01*
X858747Y1524970D01*
X859133Y1525072D01*
X859522Y1525164D01*
X859914Y1525247D01*
X860307Y1525320D01*
X860701Y1525384D01*
X861098Y1525437D01*
X861495Y1525482D01*
X861893Y1525516D01*
X862293Y1525540D01*
X862692Y1525555D01*
X863092Y1525560D01*
X863492Y1525555D01*
X863891Y1525540D01*
X864291Y1525516D01*
X864689Y1525482D01*
X865086Y1525437D01*
X865483Y1525384D01*
X865877Y1525320D01*
X866270Y1525247D01*
X866662Y1525164D01*
X867051Y1525072D01*
X867437Y1524970D01*
X867821Y1524858D01*
X868203Y1524738D01*
X868581Y1524608D01*
X868955Y1524468D01*
X869327Y1524320D01*
X869694Y1524162D01*
X870058Y1523996D01*
X870417Y1523820D01*
X870772Y1523636D01*
X871122Y1523443D01*
X871468Y1523242D01*
X871808Y1523032D01*
X872143Y1522814D01*
X872473Y1522588D01*
X872797Y1522354D01*
X873115Y1522112D01*
X873428Y1521862D01*
X873733Y1521604D01*
X874033Y1521340D01*
X874326Y1521067D01*
X874612Y1520788D01*
X874891Y1520502D01*
X875164Y1520209D01*
X875428Y1519909D01*
X875686Y1519604D01*
X875936Y1519291D01*
X876178Y1518973D01*
X876412Y1518649D01*
X876638Y1518319D01*
X876856Y1517984D01*
X877066Y1517644D01*
X877267Y1517298D01*
X877460Y1516948D01*
X877644Y1516593D01*
X877820Y1516234D01*
X877986Y1515870D01*
X878144Y1515503D01*
X878292Y1515131D01*
X878432Y1514757D01*
X878562Y1514379D01*
X878682Y1513997D01*
X878794Y1513613D01*
X878896Y1513227D01*
X878988Y1512838D01*
X879071Y1512446D01*
X879144Y1512053D01*
X879208Y1511659D01*
X879261Y1511262D01*
X879306Y1510865D01*
X879340Y1510467D01*
X879364Y1510067D01*
X879379Y1509668D01*
X879384Y1509268D01*
X879379Y1508868D01*
X879364Y1508469D01*
X879340Y1508069D01*
X879306Y1507671D01*
X879261Y1507274D01*
X879208Y1506877D01*
X879144Y1506483D01*
X879071Y1506090D01*
X878988Y1505698D01*
X878896Y1505309D01*
X878794Y1504923D01*
X878682Y1504539D01*
X878562Y1504157D01*
X878432Y1503779D01*
X878292Y1503405D01*
X878144Y1503033D01*
X877986Y1502666D01*
X877820Y1502302D01*
X877644Y1501943D01*
X877460Y1501588D01*
X877267Y1501238D01*
X877066Y1500892D01*
X876856Y1500552D01*
X876638Y1500217D01*
X876412Y1499887D01*
X876178Y1499563D01*
X875936Y1499245D01*
X875686Y1498932D01*
X875428Y1498627D01*
X875164Y1498327D01*
X874891Y1498034D01*
X874612Y1497748D01*
X874326Y1497469D01*
X874033Y1497196D01*
X873733Y1496932D01*
X873428Y1496674D01*
X873115Y1496424D01*
X872797Y1496182D01*
X872473Y1495948D01*
X872143Y1495722D01*
X871808Y1495504D01*
X871468Y1495294D01*
X871122Y1495093D01*
X870772Y1494900D01*
X870417Y1494716D01*
X870058Y1494540D01*
X869694Y1494374D01*
X869327Y1494216D01*
X868955Y1494068D01*
X868581Y1493928D01*
X868203Y1493798D01*
X867821Y1493678D01*
X867437Y1493566D01*
X867051Y1493464D01*
X866662Y1493372D01*
X866270Y1493289D01*
X865877Y1493216D01*
X865483Y1493152D01*
X865086Y1493099D01*
X864689Y1493054D01*
X864291Y1493020D01*
X863891Y1492996D01*
X863492Y1492981D01*
X863092Y1492976D01*
X862692Y1492981D01*
X862293Y1492996D01*
X861893Y1493020D01*
X861495Y1493054D01*
X861098Y1493099D01*
X860701Y1493152D01*
X860307Y1493216D01*
X859914Y1493289D01*
X859522Y1493372D01*
X859133Y1493464D01*
X858747Y1493566D01*
X858363Y1493678D01*
X857981Y1493798D01*
X857603Y1493928D01*
X857229Y1494068D01*
X856857Y1494216D01*
X856490Y1494374D01*
X856126Y1494540D01*
X855767Y1494716D01*
X855412Y1494900D01*
X855062Y1495093D01*
X854716Y1495294D01*
X854376Y1495504D01*
X854041Y1495722D01*
X853711Y1495948D01*
X853387Y1496182D01*
X853069Y1496424D01*
X852756Y1496674D01*
X852451Y1496932D01*
X852151Y1497196D01*
X851858Y1497469D01*
X851572Y1497748D01*
X851293Y1498034D01*
X851020Y1498327D01*
X850756Y1498627D01*
X850498Y1498932D01*
X850248Y1499245D01*
X850006Y1499563D01*
X849772Y1499887D01*
X849546Y1500217D01*
X849328Y1500552D01*
X849118Y1500892D01*
X848917Y1501238D01*
X848724Y1501588D01*
X848540Y1501943D01*
X848364Y1502302D01*
X848198Y1502666D01*
X848040Y1503033D01*
X847892Y1503405D01*
X847752Y1503779D01*
X847622Y1504157D01*
X847502Y1504539D01*
X847390Y1504923D01*
X847288Y1505309D01*
X847196Y1505698D01*
X847113Y1506090D01*
X847040Y1506483D01*
X846976Y1506877D01*
X846923Y1507274D01*
X846878Y1507671D01*
X846844Y1508069D01*
X846820Y1508469D01*
X846805Y1508868D01*
X846800Y1509268D01*
M02*
