G04 EAGLE Gerber RS-274X export*
G75*
%MOMM*%
%FSLAX25Y25*%
%LPD*%
%INOutline*%
%IPPOS*%
%AMOC8*
5,1,8,0,0,1.08239X$1,22.5*%
G01*
%ADD10C,0.000000*%
%ADD11C,0.254000*%


D10*
X203200Y76200D02*
X2538000Y76200D01*
X2538000Y2481600D01*
X203200Y2481600D01*
X203200Y76200D01*
X365900Y2159000D02*
X365945Y2162681D01*
X366081Y2166360D01*
X366306Y2170035D01*
X366622Y2173703D01*
X367028Y2177362D01*
X367524Y2181010D01*
X368108Y2184644D01*
X368782Y2188264D01*
X369545Y2191865D01*
X370395Y2195447D01*
X371334Y2199007D01*
X372359Y2202543D01*
X373471Y2206052D01*
X374668Y2209533D01*
X375951Y2212984D01*
X377318Y2216403D01*
X378769Y2219786D01*
X380302Y2223133D01*
X381916Y2226442D01*
X383612Y2229710D01*
X385387Y2232935D01*
X387241Y2236115D01*
X389172Y2239250D01*
X391180Y2242336D01*
X393262Y2245371D01*
X395419Y2248355D01*
X397648Y2251285D01*
X399948Y2254159D01*
X402319Y2256976D01*
X404757Y2259734D01*
X407263Y2262431D01*
X409834Y2265066D01*
X412469Y2267637D01*
X415166Y2270143D01*
X417924Y2272581D01*
X420741Y2274952D01*
X423615Y2277252D01*
X426545Y2279481D01*
X429529Y2281638D01*
X432564Y2283720D01*
X435650Y2285728D01*
X438785Y2287659D01*
X441965Y2289513D01*
X445190Y2291288D01*
X448458Y2292984D01*
X451767Y2294598D01*
X455114Y2296131D01*
X458497Y2297582D01*
X461916Y2298949D01*
X465367Y2300232D01*
X468848Y2301429D01*
X472357Y2302541D01*
X475893Y2303566D01*
X479453Y2304505D01*
X483035Y2305355D01*
X486636Y2306118D01*
X490256Y2306792D01*
X493890Y2307376D01*
X497538Y2307872D01*
X501197Y2308278D01*
X504865Y2308594D01*
X508540Y2308819D01*
X512219Y2308955D01*
X515900Y2309000D01*
X519581Y2308955D01*
X523260Y2308819D01*
X526935Y2308594D01*
X530603Y2308278D01*
X534262Y2307872D01*
X537910Y2307376D01*
X541544Y2306792D01*
X545164Y2306118D01*
X548765Y2305355D01*
X552347Y2304505D01*
X555907Y2303566D01*
X559443Y2302541D01*
X562952Y2301429D01*
X566433Y2300232D01*
X569884Y2298949D01*
X573303Y2297582D01*
X576686Y2296131D01*
X580033Y2294598D01*
X583342Y2292984D01*
X586610Y2291288D01*
X589835Y2289513D01*
X593015Y2287659D01*
X596150Y2285728D01*
X599236Y2283720D01*
X602271Y2281638D01*
X605255Y2279481D01*
X608185Y2277252D01*
X611059Y2274952D01*
X613876Y2272581D01*
X616634Y2270143D01*
X619331Y2267637D01*
X621966Y2265066D01*
X624537Y2262431D01*
X627043Y2259734D01*
X629481Y2256976D01*
X631852Y2254159D01*
X634152Y2251285D01*
X636381Y2248355D01*
X638538Y2245371D01*
X640620Y2242336D01*
X642628Y2239250D01*
X644559Y2236115D01*
X646413Y2232935D01*
X648188Y2229710D01*
X649884Y2226442D01*
X651498Y2223133D01*
X653031Y2219786D01*
X654482Y2216403D01*
X655849Y2212984D01*
X657132Y2209533D01*
X658329Y2206052D01*
X659441Y2202543D01*
X660466Y2199007D01*
X661405Y2195447D01*
X662255Y2191865D01*
X663018Y2188264D01*
X663692Y2184644D01*
X664276Y2181010D01*
X664772Y2177362D01*
X665178Y2173703D01*
X665494Y2170035D01*
X665719Y2166360D01*
X665855Y2162681D01*
X665900Y2159000D01*
X665855Y2155319D01*
X665719Y2151640D01*
X665494Y2147965D01*
X665178Y2144297D01*
X664772Y2140638D01*
X664276Y2136990D01*
X663692Y2133356D01*
X663018Y2129736D01*
X662255Y2126135D01*
X661405Y2122553D01*
X660466Y2118993D01*
X659441Y2115457D01*
X658329Y2111948D01*
X657132Y2108467D01*
X655849Y2105016D01*
X654482Y2101597D01*
X653031Y2098214D01*
X651498Y2094867D01*
X649884Y2091558D01*
X648188Y2088290D01*
X646413Y2085065D01*
X644559Y2081885D01*
X642628Y2078750D01*
X640620Y2075664D01*
X638538Y2072629D01*
X636381Y2069645D01*
X634152Y2066715D01*
X631852Y2063841D01*
X629481Y2061024D01*
X627043Y2058266D01*
X624537Y2055569D01*
X621966Y2052934D01*
X619331Y2050363D01*
X616634Y2047857D01*
X613876Y2045419D01*
X611059Y2043048D01*
X608185Y2040748D01*
X605255Y2038519D01*
X602271Y2036362D01*
X599236Y2034280D01*
X596150Y2032272D01*
X593015Y2030341D01*
X589835Y2028487D01*
X586610Y2026712D01*
X583342Y2025016D01*
X580033Y2023402D01*
X576686Y2021869D01*
X573303Y2020418D01*
X569884Y2019051D01*
X566433Y2017768D01*
X562952Y2016571D01*
X559443Y2015459D01*
X555907Y2014434D01*
X552347Y2013495D01*
X548765Y2012645D01*
X545164Y2011882D01*
X541544Y2011208D01*
X537910Y2010624D01*
X534262Y2010128D01*
X530603Y2009722D01*
X526935Y2009406D01*
X523260Y2009181D01*
X519581Y2009045D01*
X515900Y2009000D01*
X512219Y2009045D01*
X508540Y2009181D01*
X504865Y2009406D01*
X501197Y2009722D01*
X497538Y2010128D01*
X493890Y2010624D01*
X490256Y2011208D01*
X486636Y2011882D01*
X483035Y2012645D01*
X479453Y2013495D01*
X475893Y2014434D01*
X472357Y2015459D01*
X468848Y2016571D01*
X465367Y2017768D01*
X461916Y2019051D01*
X458497Y2020418D01*
X455114Y2021869D01*
X451767Y2023402D01*
X448458Y2025016D01*
X445190Y2026712D01*
X441965Y2028487D01*
X438785Y2030341D01*
X435650Y2032272D01*
X432564Y2034280D01*
X429529Y2036362D01*
X426545Y2038519D01*
X423615Y2040748D01*
X420741Y2043048D01*
X417924Y2045419D01*
X415166Y2047857D01*
X412469Y2050363D01*
X409834Y2052934D01*
X407263Y2055569D01*
X404757Y2058266D01*
X402319Y2061024D01*
X399948Y2063841D01*
X397648Y2066715D01*
X395419Y2069645D01*
X393262Y2072629D01*
X391180Y2075664D01*
X389172Y2078750D01*
X387241Y2081885D01*
X385387Y2085065D01*
X383612Y2088290D01*
X381916Y2091558D01*
X380302Y2094867D01*
X378769Y2098214D01*
X377318Y2101597D01*
X375951Y2105016D01*
X374668Y2108467D01*
X373471Y2111948D01*
X372359Y2115457D01*
X371334Y2118993D01*
X370395Y2122553D01*
X369545Y2126135D01*
X368782Y2129736D01*
X368108Y2133356D01*
X367524Y2136990D01*
X367028Y2140638D01*
X366622Y2144297D01*
X366306Y2147965D01*
X366081Y2151640D01*
X365945Y2155319D01*
X365900Y2159000D01*
X2102700Y2146300D02*
X2102745Y2149981D01*
X2102881Y2153660D01*
X2103106Y2157335D01*
X2103422Y2161003D01*
X2103828Y2164662D01*
X2104324Y2168310D01*
X2104908Y2171944D01*
X2105582Y2175564D01*
X2106345Y2179165D01*
X2107195Y2182747D01*
X2108134Y2186307D01*
X2109159Y2189843D01*
X2110271Y2193352D01*
X2111468Y2196833D01*
X2112751Y2200284D01*
X2114118Y2203703D01*
X2115569Y2207086D01*
X2117102Y2210433D01*
X2118716Y2213742D01*
X2120412Y2217010D01*
X2122187Y2220235D01*
X2124041Y2223415D01*
X2125972Y2226550D01*
X2127980Y2229636D01*
X2130062Y2232671D01*
X2132219Y2235655D01*
X2134448Y2238585D01*
X2136748Y2241459D01*
X2139119Y2244276D01*
X2141557Y2247034D01*
X2144063Y2249731D01*
X2146634Y2252366D01*
X2149269Y2254937D01*
X2151966Y2257443D01*
X2154724Y2259881D01*
X2157541Y2262252D01*
X2160415Y2264552D01*
X2163345Y2266781D01*
X2166329Y2268938D01*
X2169364Y2271020D01*
X2172450Y2273028D01*
X2175585Y2274959D01*
X2178765Y2276813D01*
X2181990Y2278588D01*
X2185258Y2280284D01*
X2188567Y2281898D01*
X2191914Y2283431D01*
X2195297Y2284882D01*
X2198716Y2286249D01*
X2202167Y2287532D01*
X2205648Y2288729D01*
X2209157Y2289841D01*
X2212693Y2290866D01*
X2216253Y2291805D01*
X2219835Y2292655D01*
X2223436Y2293418D01*
X2227056Y2294092D01*
X2230690Y2294676D01*
X2234338Y2295172D01*
X2237997Y2295578D01*
X2241665Y2295894D01*
X2245340Y2296119D01*
X2249019Y2296255D01*
X2252700Y2296300D01*
X2256381Y2296255D01*
X2260060Y2296119D01*
X2263735Y2295894D01*
X2267403Y2295578D01*
X2271062Y2295172D01*
X2274710Y2294676D01*
X2278344Y2294092D01*
X2281964Y2293418D01*
X2285565Y2292655D01*
X2289147Y2291805D01*
X2292707Y2290866D01*
X2296243Y2289841D01*
X2299752Y2288729D01*
X2303233Y2287532D01*
X2306684Y2286249D01*
X2310103Y2284882D01*
X2313486Y2283431D01*
X2316833Y2281898D01*
X2320142Y2280284D01*
X2323410Y2278588D01*
X2326635Y2276813D01*
X2329815Y2274959D01*
X2332950Y2273028D01*
X2336036Y2271020D01*
X2339071Y2268938D01*
X2342055Y2266781D01*
X2344985Y2264552D01*
X2347859Y2262252D01*
X2350676Y2259881D01*
X2353434Y2257443D01*
X2356131Y2254937D01*
X2358766Y2252366D01*
X2361337Y2249731D01*
X2363843Y2247034D01*
X2366281Y2244276D01*
X2368652Y2241459D01*
X2370952Y2238585D01*
X2373181Y2235655D01*
X2375338Y2232671D01*
X2377420Y2229636D01*
X2379428Y2226550D01*
X2381359Y2223415D01*
X2383213Y2220235D01*
X2384988Y2217010D01*
X2386684Y2213742D01*
X2388298Y2210433D01*
X2389831Y2207086D01*
X2391282Y2203703D01*
X2392649Y2200284D01*
X2393932Y2196833D01*
X2395129Y2193352D01*
X2396241Y2189843D01*
X2397266Y2186307D01*
X2398205Y2182747D01*
X2399055Y2179165D01*
X2399818Y2175564D01*
X2400492Y2171944D01*
X2401076Y2168310D01*
X2401572Y2164662D01*
X2401978Y2161003D01*
X2402294Y2157335D01*
X2402519Y2153660D01*
X2402655Y2149981D01*
X2402700Y2146300D01*
X2402655Y2142619D01*
X2402519Y2138940D01*
X2402294Y2135265D01*
X2401978Y2131597D01*
X2401572Y2127938D01*
X2401076Y2124290D01*
X2400492Y2120656D01*
X2399818Y2117036D01*
X2399055Y2113435D01*
X2398205Y2109853D01*
X2397266Y2106293D01*
X2396241Y2102757D01*
X2395129Y2099248D01*
X2393932Y2095767D01*
X2392649Y2092316D01*
X2391282Y2088897D01*
X2389831Y2085514D01*
X2388298Y2082167D01*
X2386684Y2078858D01*
X2384988Y2075590D01*
X2383213Y2072365D01*
X2381359Y2069185D01*
X2379428Y2066050D01*
X2377420Y2062964D01*
X2375338Y2059929D01*
X2373181Y2056945D01*
X2370952Y2054015D01*
X2368652Y2051141D01*
X2366281Y2048324D01*
X2363843Y2045566D01*
X2361337Y2042869D01*
X2358766Y2040234D01*
X2356131Y2037663D01*
X2353434Y2035157D01*
X2350676Y2032719D01*
X2347859Y2030348D01*
X2344985Y2028048D01*
X2342055Y2025819D01*
X2339071Y2023662D01*
X2336036Y2021580D01*
X2332950Y2019572D01*
X2329815Y2017641D01*
X2326635Y2015787D01*
X2323410Y2014012D01*
X2320142Y2012316D01*
X2316833Y2010702D01*
X2313486Y2009169D01*
X2310103Y2007718D01*
X2306684Y2006351D01*
X2303233Y2005068D01*
X2299752Y2003871D01*
X2296243Y2002759D01*
X2292707Y2001734D01*
X2289147Y2000795D01*
X2285565Y1999945D01*
X2281964Y1999182D01*
X2278344Y1998508D01*
X2274710Y1997924D01*
X2271062Y1997428D01*
X2267403Y1997022D01*
X2263735Y1996706D01*
X2260060Y1996481D01*
X2256381Y1996345D01*
X2252700Y1996300D01*
X2249019Y1996345D01*
X2245340Y1996481D01*
X2241665Y1996706D01*
X2237997Y1997022D01*
X2234338Y1997428D01*
X2230690Y1997924D01*
X2227056Y1998508D01*
X2223436Y1999182D01*
X2219835Y1999945D01*
X2216253Y2000795D01*
X2212693Y2001734D01*
X2209157Y2002759D01*
X2205648Y2003871D01*
X2202167Y2005068D01*
X2198716Y2006351D01*
X2195297Y2007718D01*
X2191914Y2009169D01*
X2188567Y2010702D01*
X2185258Y2012316D01*
X2181990Y2014012D01*
X2178765Y2015787D01*
X2175585Y2017641D01*
X2172450Y2019572D01*
X2169364Y2021580D01*
X2166329Y2023662D01*
X2163345Y2025819D01*
X2160415Y2028048D01*
X2157541Y2030348D01*
X2154724Y2032719D01*
X2151966Y2035157D01*
X2149269Y2037663D01*
X2146634Y2040234D01*
X2144063Y2042869D01*
X2141557Y2045566D01*
X2139119Y2048324D01*
X2136748Y2051141D01*
X2134448Y2054015D01*
X2132219Y2056945D01*
X2130062Y2059929D01*
X2127980Y2062964D01*
X2125972Y2066050D01*
X2124041Y2069185D01*
X2122187Y2072365D01*
X2120412Y2075590D01*
X2118716Y2078858D01*
X2117102Y2082167D01*
X2115569Y2085514D01*
X2114118Y2088897D01*
X2112751Y2092316D01*
X2111468Y2095767D01*
X2110271Y2099248D01*
X2109159Y2102757D01*
X2108134Y2106293D01*
X2107195Y2109853D01*
X2106345Y2113435D01*
X2105582Y2117036D01*
X2104908Y2120656D01*
X2104324Y2124290D01*
X2103828Y2127938D01*
X2103422Y2131597D01*
X2103106Y2135265D01*
X2102881Y2138940D01*
X2102745Y2142619D01*
X2102700Y2146300D01*
X2090000Y444500D02*
X2090045Y448181D01*
X2090181Y451860D01*
X2090406Y455535D01*
X2090722Y459203D01*
X2091128Y462862D01*
X2091624Y466510D01*
X2092208Y470144D01*
X2092882Y473764D01*
X2093645Y477365D01*
X2094495Y480947D01*
X2095434Y484507D01*
X2096459Y488043D01*
X2097571Y491552D01*
X2098768Y495033D01*
X2100051Y498484D01*
X2101418Y501903D01*
X2102869Y505286D01*
X2104402Y508633D01*
X2106016Y511942D01*
X2107712Y515210D01*
X2109487Y518435D01*
X2111341Y521615D01*
X2113272Y524750D01*
X2115280Y527836D01*
X2117362Y530871D01*
X2119519Y533855D01*
X2121748Y536785D01*
X2124048Y539659D01*
X2126419Y542476D01*
X2128857Y545234D01*
X2131363Y547931D01*
X2133934Y550566D01*
X2136569Y553137D01*
X2139266Y555643D01*
X2142024Y558081D01*
X2144841Y560452D01*
X2147715Y562752D01*
X2150645Y564981D01*
X2153629Y567138D01*
X2156664Y569220D01*
X2159750Y571228D01*
X2162885Y573159D01*
X2166065Y575013D01*
X2169290Y576788D01*
X2172558Y578484D01*
X2175867Y580098D01*
X2179214Y581631D01*
X2182597Y583082D01*
X2186016Y584449D01*
X2189467Y585732D01*
X2192948Y586929D01*
X2196457Y588041D01*
X2199993Y589066D01*
X2203553Y590005D01*
X2207135Y590855D01*
X2210736Y591618D01*
X2214356Y592292D01*
X2217990Y592876D01*
X2221638Y593372D01*
X2225297Y593778D01*
X2228965Y594094D01*
X2232640Y594319D01*
X2236319Y594455D01*
X2240000Y594500D01*
X2243681Y594455D01*
X2247360Y594319D01*
X2251035Y594094D01*
X2254703Y593778D01*
X2258362Y593372D01*
X2262010Y592876D01*
X2265644Y592292D01*
X2269264Y591618D01*
X2272865Y590855D01*
X2276447Y590005D01*
X2280007Y589066D01*
X2283543Y588041D01*
X2287052Y586929D01*
X2290533Y585732D01*
X2293984Y584449D01*
X2297403Y583082D01*
X2300786Y581631D01*
X2304133Y580098D01*
X2307442Y578484D01*
X2310710Y576788D01*
X2313935Y575013D01*
X2317115Y573159D01*
X2320250Y571228D01*
X2323336Y569220D01*
X2326371Y567138D01*
X2329355Y564981D01*
X2332285Y562752D01*
X2335159Y560452D01*
X2337976Y558081D01*
X2340734Y555643D01*
X2343431Y553137D01*
X2346066Y550566D01*
X2348637Y547931D01*
X2351143Y545234D01*
X2353581Y542476D01*
X2355952Y539659D01*
X2358252Y536785D01*
X2360481Y533855D01*
X2362638Y530871D01*
X2364720Y527836D01*
X2366728Y524750D01*
X2368659Y521615D01*
X2370513Y518435D01*
X2372288Y515210D01*
X2373984Y511942D01*
X2375598Y508633D01*
X2377131Y505286D01*
X2378582Y501903D01*
X2379949Y498484D01*
X2381232Y495033D01*
X2382429Y491552D01*
X2383541Y488043D01*
X2384566Y484507D01*
X2385505Y480947D01*
X2386355Y477365D01*
X2387118Y473764D01*
X2387792Y470144D01*
X2388376Y466510D01*
X2388872Y462862D01*
X2389278Y459203D01*
X2389594Y455535D01*
X2389819Y451860D01*
X2389955Y448181D01*
X2390000Y444500D01*
X2389955Y440819D01*
X2389819Y437140D01*
X2389594Y433465D01*
X2389278Y429797D01*
X2388872Y426138D01*
X2388376Y422490D01*
X2387792Y418856D01*
X2387118Y415236D01*
X2386355Y411635D01*
X2385505Y408053D01*
X2384566Y404493D01*
X2383541Y400957D01*
X2382429Y397448D01*
X2381232Y393967D01*
X2379949Y390516D01*
X2378582Y387097D01*
X2377131Y383714D01*
X2375598Y380367D01*
X2373984Y377058D01*
X2372288Y373790D01*
X2370513Y370565D01*
X2368659Y367385D01*
X2366728Y364250D01*
X2364720Y361164D01*
X2362638Y358129D01*
X2360481Y355145D01*
X2358252Y352215D01*
X2355952Y349341D01*
X2353581Y346524D01*
X2351143Y343766D01*
X2348637Y341069D01*
X2346066Y338434D01*
X2343431Y335863D01*
X2340734Y333357D01*
X2337976Y330919D01*
X2335159Y328548D01*
X2332285Y326248D01*
X2329355Y324019D01*
X2326371Y321862D01*
X2323336Y319780D01*
X2320250Y317772D01*
X2317115Y315841D01*
X2313935Y313987D01*
X2310710Y312212D01*
X2307442Y310516D01*
X2304133Y308902D01*
X2300786Y307369D01*
X2297403Y305918D01*
X2293984Y304551D01*
X2290533Y303268D01*
X2287052Y302071D01*
X2283543Y300959D01*
X2280007Y299934D01*
X2276447Y298995D01*
X2272865Y298145D01*
X2269264Y297382D01*
X2265644Y296708D01*
X2262010Y296124D01*
X2258362Y295628D01*
X2254703Y295222D01*
X2251035Y294906D01*
X2247360Y294681D01*
X2243681Y294545D01*
X2240000Y294500D01*
X2236319Y294545D01*
X2232640Y294681D01*
X2228965Y294906D01*
X2225297Y295222D01*
X2221638Y295628D01*
X2217990Y296124D01*
X2214356Y296708D01*
X2210736Y297382D01*
X2207135Y298145D01*
X2203553Y298995D01*
X2199993Y299934D01*
X2196457Y300959D01*
X2192948Y302071D01*
X2189467Y303268D01*
X2186016Y304551D01*
X2182597Y305918D01*
X2179214Y307369D01*
X2175867Y308902D01*
X2172558Y310516D01*
X2169290Y312212D01*
X2166065Y313987D01*
X2162885Y315841D01*
X2159750Y317772D01*
X2156664Y319780D01*
X2153629Y321862D01*
X2150645Y324019D01*
X2147715Y326248D01*
X2144841Y328548D01*
X2142024Y330919D01*
X2139266Y333357D01*
X2136569Y335863D01*
X2133934Y338434D01*
X2131363Y341069D01*
X2128857Y343766D01*
X2126419Y346524D01*
X2124048Y349341D01*
X2121748Y352215D01*
X2119519Y355145D01*
X2117362Y358129D01*
X2115280Y361164D01*
X2113272Y364250D01*
X2111341Y367385D01*
X2109487Y370565D01*
X2107712Y373790D01*
X2106016Y377058D01*
X2104402Y380367D01*
X2102869Y383714D01*
X2101418Y387097D01*
X2100051Y390516D01*
X2098768Y393967D01*
X2097571Y397448D01*
X2096459Y400957D01*
X2095434Y404493D01*
X2094495Y408053D01*
X2093645Y411635D01*
X2092882Y415236D01*
X2092208Y418856D01*
X2091624Y422490D01*
X2091128Y426138D01*
X2090722Y429797D01*
X2090406Y433465D01*
X2090181Y437140D01*
X2090045Y440819D01*
X2090000Y444500D01*
X353200Y444500D02*
X353245Y448181D01*
X353381Y451860D01*
X353606Y455535D01*
X353922Y459203D01*
X354328Y462862D01*
X354824Y466510D01*
X355408Y470144D01*
X356082Y473764D01*
X356845Y477365D01*
X357695Y480947D01*
X358634Y484507D01*
X359659Y488043D01*
X360771Y491552D01*
X361968Y495033D01*
X363251Y498484D01*
X364618Y501903D01*
X366069Y505286D01*
X367602Y508633D01*
X369216Y511942D01*
X370912Y515210D01*
X372687Y518435D01*
X374541Y521615D01*
X376472Y524750D01*
X378480Y527836D01*
X380562Y530871D01*
X382719Y533855D01*
X384948Y536785D01*
X387248Y539659D01*
X389619Y542476D01*
X392057Y545234D01*
X394563Y547931D01*
X397134Y550566D01*
X399769Y553137D01*
X402466Y555643D01*
X405224Y558081D01*
X408041Y560452D01*
X410915Y562752D01*
X413845Y564981D01*
X416829Y567138D01*
X419864Y569220D01*
X422950Y571228D01*
X426085Y573159D01*
X429265Y575013D01*
X432490Y576788D01*
X435758Y578484D01*
X439067Y580098D01*
X442414Y581631D01*
X445797Y583082D01*
X449216Y584449D01*
X452667Y585732D01*
X456148Y586929D01*
X459657Y588041D01*
X463193Y589066D01*
X466753Y590005D01*
X470335Y590855D01*
X473936Y591618D01*
X477556Y592292D01*
X481190Y592876D01*
X484838Y593372D01*
X488497Y593778D01*
X492165Y594094D01*
X495840Y594319D01*
X499519Y594455D01*
X503200Y594500D01*
X506881Y594455D01*
X510560Y594319D01*
X514235Y594094D01*
X517903Y593778D01*
X521562Y593372D01*
X525210Y592876D01*
X528844Y592292D01*
X532464Y591618D01*
X536065Y590855D01*
X539647Y590005D01*
X543207Y589066D01*
X546743Y588041D01*
X550252Y586929D01*
X553733Y585732D01*
X557184Y584449D01*
X560603Y583082D01*
X563986Y581631D01*
X567333Y580098D01*
X570642Y578484D01*
X573910Y576788D01*
X577135Y575013D01*
X580315Y573159D01*
X583450Y571228D01*
X586536Y569220D01*
X589571Y567138D01*
X592555Y564981D01*
X595485Y562752D01*
X598359Y560452D01*
X601176Y558081D01*
X603934Y555643D01*
X606631Y553137D01*
X609266Y550566D01*
X611837Y547931D01*
X614343Y545234D01*
X616781Y542476D01*
X619152Y539659D01*
X621452Y536785D01*
X623681Y533855D01*
X625838Y530871D01*
X627920Y527836D01*
X629928Y524750D01*
X631859Y521615D01*
X633713Y518435D01*
X635488Y515210D01*
X637184Y511942D01*
X638798Y508633D01*
X640331Y505286D01*
X641782Y501903D01*
X643149Y498484D01*
X644432Y495033D01*
X645629Y491552D01*
X646741Y488043D01*
X647766Y484507D01*
X648705Y480947D01*
X649555Y477365D01*
X650318Y473764D01*
X650992Y470144D01*
X651576Y466510D01*
X652072Y462862D01*
X652478Y459203D01*
X652794Y455535D01*
X653019Y451860D01*
X653155Y448181D01*
X653200Y444500D01*
X653155Y440819D01*
X653019Y437140D01*
X652794Y433465D01*
X652478Y429797D01*
X652072Y426138D01*
X651576Y422490D01*
X650992Y418856D01*
X650318Y415236D01*
X649555Y411635D01*
X648705Y408053D01*
X647766Y404493D01*
X646741Y400957D01*
X645629Y397448D01*
X644432Y393967D01*
X643149Y390516D01*
X641782Y387097D01*
X640331Y383714D01*
X638798Y380367D01*
X637184Y377058D01*
X635488Y373790D01*
X633713Y370565D01*
X631859Y367385D01*
X629928Y364250D01*
X627920Y361164D01*
X625838Y358129D01*
X623681Y355145D01*
X621452Y352215D01*
X619152Y349341D01*
X616781Y346524D01*
X614343Y343766D01*
X611837Y341069D01*
X609266Y338434D01*
X606631Y335863D01*
X603934Y333357D01*
X601176Y330919D01*
X598359Y328548D01*
X595485Y326248D01*
X592555Y324019D01*
X589571Y321862D01*
X586536Y319780D01*
X583450Y317772D01*
X580315Y315841D01*
X577135Y313987D01*
X573910Y312212D01*
X570642Y310516D01*
X567333Y308902D01*
X563986Y307369D01*
X560603Y305918D01*
X557184Y304551D01*
X553733Y303268D01*
X550252Y302071D01*
X546743Y300959D01*
X543207Y299934D01*
X539647Y298995D01*
X536065Y298145D01*
X532464Y297382D01*
X528844Y296708D01*
X525210Y296124D01*
X521562Y295628D01*
X517903Y295222D01*
X514235Y294906D01*
X510560Y294681D01*
X506881Y294545D01*
X503200Y294500D01*
X499519Y294545D01*
X495840Y294681D01*
X492165Y294906D01*
X488497Y295222D01*
X484838Y295628D01*
X481190Y296124D01*
X477556Y296708D01*
X473936Y297382D01*
X470335Y298145D01*
X466753Y298995D01*
X463193Y299934D01*
X459657Y300959D01*
X456148Y302071D01*
X452667Y303268D01*
X449216Y304551D01*
X445797Y305918D01*
X442414Y307369D01*
X439067Y308902D01*
X435758Y310516D01*
X432490Y312212D01*
X429265Y313987D01*
X426085Y315841D01*
X422950Y317772D01*
X419864Y319780D01*
X416829Y321862D01*
X413845Y324019D01*
X410915Y326248D01*
X408041Y328548D01*
X405224Y330919D01*
X402466Y333357D01*
X399769Y335863D01*
X397134Y338434D01*
X394563Y341069D01*
X392057Y343766D01*
X389619Y346524D01*
X387248Y349341D01*
X384948Y352215D01*
X382719Y355145D01*
X380562Y358129D01*
X378480Y361164D01*
X376472Y364250D01*
X374541Y367385D01*
X372687Y370565D01*
X370912Y373790D01*
X369216Y377058D01*
X367602Y380367D01*
X366069Y383714D01*
X364618Y387097D01*
X363251Y390516D01*
X361968Y393967D01*
X360771Y397448D01*
X359659Y400957D01*
X358634Y404493D01*
X357695Y408053D01*
X356845Y411635D01*
X356082Y415236D01*
X355408Y418856D01*
X354824Y422490D01*
X354328Y426138D01*
X353922Y429797D01*
X353606Y433465D01*
X353381Y437140D01*
X353245Y440819D01*
X353200Y444500D01*
D11*
X203200Y76200D02*
X2538000Y76200D01*
X2538000Y2481600D01*
X203200Y2481600D01*
X203200Y76200D01*
M02*
