G04 EAGLE Gerber RS-274X export*
G75*
%MOMM*%
%FSLAX25Y25*%
%LPD*%
%INBottom_layer*%
%IPPOS*%
%AMOC8*
5,1,8,0,0,1.08239X$1,22.5*%
G01*
%ADD10C,1.879600*%

G36*
X2893677Y350582D02*
X2893677Y350582D01*
X2894436Y350558D01*
X2896130Y350781D01*
X2897838Y350920D01*
X2898576Y351103D01*
X2899328Y351202D01*
X2900964Y351695D01*
X2902627Y352108D01*
X2903325Y352407D01*
X2904051Y352626D01*
X2905588Y353378D01*
X2907161Y354052D01*
X2907801Y354460D01*
X2908483Y354794D01*
X2909879Y355784D01*
X2911323Y356703D01*
X2911888Y357209D01*
X2912508Y357648D01*
X2913726Y358851D01*
X2915002Y359991D01*
X2915478Y360581D01*
X2916019Y361115D01*
X2917028Y362498D01*
X2918102Y363828D01*
X2918477Y364488D01*
X2918925Y365102D01*
X2919697Y366632D01*
X2920543Y368117D01*
X2920806Y368827D01*
X2921149Y369506D01*
X2921664Y371139D01*
X2922259Y372742D01*
X2922405Y373487D01*
X2922634Y374211D01*
X2922752Y375255D01*
X2923208Y377584D01*
X2923282Y379956D01*
X2923399Y381000D01*
X2923399Y414124D01*
X2940546Y478114D01*
X2973669Y535486D01*
X3020513Y582330D01*
X3077885Y615454D01*
X3141876Y632600D01*
X3208124Y632600D01*
X3272114Y615454D01*
X3286760Y606998D01*
X3287963Y606428D01*
X3289117Y605772D01*
X3290187Y605374D01*
X3291219Y604885D01*
X3292496Y604517D01*
X3293742Y604055D01*
X3294862Y603835D01*
X3295960Y603519D01*
X3297280Y603362D01*
X3298584Y603107D01*
X3299725Y603071D01*
X3300859Y602936D01*
X3302189Y602994D01*
X3303516Y602953D01*
X3304645Y603101D01*
X3305788Y603151D01*
X3307092Y603423D01*
X3308408Y603596D01*
X3309499Y603925D01*
X3310618Y604158D01*
X3311858Y604636D01*
X3313131Y605020D01*
X3314158Y605522D01*
X3315222Y605932D01*
X3316368Y606603D01*
X3317563Y607188D01*
X3318495Y607849D01*
X3319480Y608425D01*
X3320503Y609273D01*
X3321588Y610042D01*
X3322401Y610844D01*
X3323280Y611573D01*
X3324153Y612575D01*
X3325099Y613509D01*
X3325771Y614431D01*
X3326522Y615292D01*
X3327222Y616422D01*
X3328005Y617496D01*
X3328520Y618516D01*
X3329121Y619486D01*
X3329629Y620713D01*
X3330229Y621900D01*
X3330573Y622989D01*
X3331010Y624044D01*
X3331313Y625337D01*
X3331714Y626605D01*
X3331808Y627443D01*
X3332138Y628847D01*
X3332408Y632756D01*
X3332479Y633394D01*
X3332479Y2922606D01*
X3332372Y2923932D01*
X3332363Y2925260D01*
X3332173Y2926384D01*
X3332080Y2927523D01*
X3331760Y2928814D01*
X3331538Y2930124D01*
X3331168Y2931204D01*
X3330893Y2932312D01*
X3330368Y2933534D01*
X3329938Y2934791D01*
X3329398Y2935798D01*
X3328948Y2936847D01*
X3328234Y2937967D01*
X3327605Y2939139D01*
X3326909Y2940046D01*
X3326297Y2941008D01*
X3325412Y2941998D01*
X3324602Y2943054D01*
X3323769Y2943837D01*
X3323009Y2944687D01*
X3321977Y2945522D01*
X3321007Y2946433D01*
X3320059Y2947071D01*
X3319172Y2947788D01*
X3318017Y2948445D01*
X3316913Y2949187D01*
X3315875Y2949664D01*
X3314883Y2950228D01*
X3313639Y2950690D01*
X3312429Y2951245D01*
X3311327Y2951548D01*
X3310258Y2951945D01*
X3308955Y2952200D01*
X3307672Y2952553D01*
X3306537Y2952674D01*
X3305416Y2952893D01*
X3304086Y2952935D01*
X3302765Y2953075D01*
X3301626Y2953012D01*
X3300484Y2953047D01*
X3299168Y2952874D01*
X3297839Y2952800D01*
X3296723Y2952553D01*
X3295593Y2952404D01*
X3294321Y2952021D01*
X3293022Y2951733D01*
X3292251Y2951396D01*
X3290869Y2950980D01*
X3287355Y2949261D01*
X3286760Y2949002D01*
X3272114Y2940545D01*
X3208124Y2923399D01*
X3141876Y2923399D01*
X3077885Y2940546D01*
X3020513Y2973669D01*
X2973669Y3020513D01*
X2940546Y3077885D01*
X2923399Y3141876D01*
X2923399Y3175000D01*
X2923338Y3175757D01*
X2923362Y3176516D01*
X2923139Y3178210D01*
X2923000Y3179918D01*
X2922817Y3180656D01*
X2922718Y3181408D01*
X2922225Y3183044D01*
X2921813Y3184707D01*
X2921513Y3185405D01*
X2921294Y3186131D01*
X2920542Y3187668D01*
X2919868Y3189241D01*
X2919460Y3189881D01*
X2919126Y3190563D01*
X2918136Y3191959D01*
X2917217Y3193403D01*
X2916711Y3193968D01*
X2916272Y3194588D01*
X2915069Y3195806D01*
X2913929Y3197082D01*
X2913339Y3197558D01*
X2912805Y3198099D01*
X2911422Y3199108D01*
X2910092Y3200182D01*
X2909433Y3200557D01*
X2908818Y3201005D01*
X2907288Y3201777D01*
X2905803Y3202623D01*
X2905093Y3202886D01*
X2904414Y3203229D01*
X2902781Y3203744D01*
X2901178Y3204339D01*
X2900433Y3204485D01*
X2899709Y3204714D01*
X2898665Y3204832D01*
X2896336Y3205288D01*
X2893964Y3205362D01*
X2892920Y3205479D01*
X2751934Y3205479D01*
X2751555Y3205449D01*
X2751176Y3205470D01*
X2749096Y3205249D01*
X2747016Y3205080D01*
X2746648Y3204989D01*
X2746269Y3204948D01*
X2744253Y3204395D01*
X2742227Y3203893D01*
X2741878Y3203743D01*
X2741512Y3203642D01*
X2739610Y3202770D01*
X2737693Y3201948D01*
X2737373Y3201744D01*
X2737027Y3201585D01*
X2735291Y3200418D01*
X2733531Y3199297D01*
X2733248Y3199044D01*
X2732933Y3198832D01*
X2731409Y3197401D01*
X2729852Y3196009D01*
X2729613Y3195714D01*
X2729337Y3195454D01*
X2728066Y3193798D01*
X2726752Y3192172D01*
X2726564Y3191841D01*
X2726333Y3191540D01*
X2725345Y3189699D01*
X2724311Y3187883D01*
X2724179Y3187527D01*
X2723999Y3187193D01*
X2723322Y3185217D01*
X2722594Y3183258D01*
X2722521Y3182885D01*
X2722398Y3182526D01*
X2722049Y3180473D01*
X2721646Y3178416D01*
X2721634Y3178034D01*
X2721571Y3177662D01*
X2721558Y3175573D01*
X2721492Y3173484D01*
X2721542Y3173109D01*
X2721539Y3172728D01*
X2721864Y3170657D01*
X2722136Y3168593D01*
X2722245Y3168230D01*
X2722304Y3167853D01*
X2722957Y3165868D01*
X2723560Y3163869D01*
X2723727Y3163527D01*
X2723845Y3163167D01*
X2724812Y3161309D01*
X2725728Y3159437D01*
X2725946Y3159128D01*
X2726123Y3158789D01*
X2726702Y3158062D01*
X2728582Y3155412D01*
X2729795Y3154183D01*
X2730382Y3153448D01*
X2768206Y3115624D01*
X2786380Y3071746D01*
X2786380Y3024254D01*
X2768206Y2980376D01*
X2734624Y2946794D01*
X2690746Y2928619D01*
X2643254Y2928619D01*
X2599376Y2946794D01*
X2561552Y2984618D01*
X2560973Y2985110D01*
X2560453Y2985663D01*
X2559098Y2986703D01*
X2557792Y2987813D01*
X2557140Y2988206D01*
X2556539Y2988667D01*
X2555034Y2989475D01*
X2553566Y2990360D01*
X2552861Y2990642D01*
X2552192Y2991001D01*
X2550573Y2991556D01*
X2548985Y2992191D01*
X2548243Y2992356D01*
X2547525Y2992602D01*
X2545842Y2992888D01*
X2544168Y2993259D01*
X2543408Y2993302D01*
X2542661Y2993429D01*
X2540952Y2993440D01*
X2539242Y2993536D01*
X2538487Y2993456D01*
X2537727Y2993461D01*
X2536036Y2993195D01*
X2534335Y2993014D01*
X2533603Y2992813D01*
X2532853Y2992696D01*
X2531228Y2992161D01*
X2529578Y2991708D01*
X2528888Y2991392D01*
X2528166Y2991154D01*
X2526648Y2990365D01*
X2525093Y2989651D01*
X2524462Y2989227D01*
X2523789Y2988877D01*
X2522968Y2988222D01*
X2520999Y2986898D01*
X2519270Y2985274D01*
X2518448Y2984618D01*
X2480624Y2946794D01*
X2436746Y2928619D01*
X2389254Y2928619D01*
X2345376Y2946794D01*
X2307552Y2984618D01*
X2306973Y2985110D01*
X2306453Y2985663D01*
X2305098Y2986703D01*
X2303792Y2987813D01*
X2303140Y2988206D01*
X2302539Y2988667D01*
X2301034Y2989475D01*
X2299566Y2990360D01*
X2298861Y2990642D01*
X2298192Y2991001D01*
X2296573Y2991556D01*
X2294985Y2992191D01*
X2294243Y2992356D01*
X2293525Y2992602D01*
X2291842Y2992888D01*
X2290168Y2993259D01*
X2289408Y2993302D01*
X2288661Y2993429D01*
X2286952Y2993440D01*
X2285242Y2993536D01*
X2284487Y2993456D01*
X2283727Y2993461D01*
X2282036Y2993195D01*
X2280335Y2993014D01*
X2279603Y2992813D01*
X2278853Y2992696D01*
X2277228Y2992161D01*
X2275578Y2991708D01*
X2274888Y2991392D01*
X2274166Y2991154D01*
X2272648Y2990365D01*
X2271093Y2989651D01*
X2270462Y2989227D01*
X2269789Y2988877D01*
X2268968Y2988222D01*
X2266999Y2986898D01*
X2265270Y2985274D01*
X2264448Y2984618D01*
X2226624Y2946794D01*
X2182746Y2928619D01*
X2135254Y2928619D01*
X2091376Y2946794D01*
X2053552Y2984618D01*
X2052973Y2985110D01*
X2052453Y2985663D01*
X2051098Y2986703D01*
X2049792Y2987813D01*
X2049140Y2988206D01*
X2048539Y2988667D01*
X2047034Y2989475D01*
X2045566Y2990360D01*
X2044861Y2990642D01*
X2044192Y2991001D01*
X2042573Y2991556D01*
X2040985Y2992191D01*
X2040243Y2992356D01*
X2039525Y2992602D01*
X2037842Y2992888D01*
X2036168Y2993259D01*
X2035408Y2993302D01*
X2034661Y2993429D01*
X2032952Y2993440D01*
X2031242Y2993536D01*
X2030487Y2993456D01*
X2029727Y2993461D01*
X2028036Y2993195D01*
X2026335Y2993014D01*
X2025603Y2992813D01*
X2024853Y2992696D01*
X2023228Y2992161D01*
X2021578Y2991708D01*
X2020888Y2991392D01*
X2020166Y2991154D01*
X2018648Y2990365D01*
X2017093Y2989651D01*
X2016462Y2989227D01*
X2015789Y2988877D01*
X2014968Y2988222D01*
X2012999Y2986898D01*
X2011270Y2985274D01*
X2010448Y2984618D01*
X1972624Y2946794D01*
X1928746Y2928619D01*
X1881254Y2928619D01*
X1837376Y2946794D01*
X1799552Y2984618D01*
X1798973Y2985110D01*
X1798453Y2985663D01*
X1797098Y2986703D01*
X1795792Y2987813D01*
X1795140Y2988206D01*
X1794539Y2988667D01*
X1793034Y2989475D01*
X1791566Y2990360D01*
X1790861Y2990642D01*
X1790192Y2991001D01*
X1788573Y2991556D01*
X1786985Y2992191D01*
X1786243Y2992356D01*
X1785525Y2992602D01*
X1783842Y2992888D01*
X1782168Y2993259D01*
X1781408Y2993302D01*
X1780661Y2993429D01*
X1778952Y2993440D01*
X1777242Y2993536D01*
X1776487Y2993456D01*
X1775727Y2993461D01*
X1774036Y2993195D01*
X1772335Y2993014D01*
X1771603Y2992813D01*
X1770853Y2992696D01*
X1769228Y2992161D01*
X1767578Y2991708D01*
X1766888Y2991392D01*
X1766166Y2991154D01*
X1764648Y2990365D01*
X1763093Y2989651D01*
X1762462Y2989227D01*
X1761789Y2988877D01*
X1760968Y2988222D01*
X1758999Y2986898D01*
X1757270Y2985274D01*
X1756448Y2984618D01*
X1718624Y2946794D01*
X1674746Y2928619D01*
X1627254Y2928619D01*
X1583376Y2946794D01*
X1545552Y2984618D01*
X1544973Y2985110D01*
X1544453Y2985663D01*
X1543098Y2986703D01*
X1541792Y2987813D01*
X1541140Y2988206D01*
X1540539Y2988667D01*
X1539034Y2989475D01*
X1537566Y2990360D01*
X1536861Y2990642D01*
X1536192Y2991001D01*
X1534573Y2991556D01*
X1532985Y2992191D01*
X1532243Y2992356D01*
X1531525Y2992602D01*
X1529842Y2992888D01*
X1528168Y2993259D01*
X1527408Y2993302D01*
X1526661Y2993429D01*
X1524952Y2993440D01*
X1523242Y2993536D01*
X1522487Y2993456D01*
X1521727Y2993461D01*
X1520036Y2993195D01*
X1518335Y2993014D01*
X1517603Y2992813D01*
X1516853Y2992696D01*
X1515228Y2992161D01*
X1513578Y2991708D01*
X1512888Y2991392D01*
X1512166Y2991154D01*
X1510648Y2990365D01*
X1509093Y2989651D01*
X1508462Y2989227D01*
X1507789Y2988877D01*
X1506968Y2988222D01*
X1504999Y2986898D01*
X1503270Y2985274D01*
X1502448Y2984618D01*
X1464624Y2946794D01*
X1420746Y2928619D01*
X1373254Y2928619D01*
X1329376Y2946794D01*
X1291552Y2984618D01*
X1290973Y2985110D01*
X1290453Y2985663D01*
X1289098Y2986703D01*
X1287792Y2987813D01*
X1287140Y2988206D01*
X1286539Y2988667D01*
X1285034Y2989475D01*
X1283566Y2990360D01*
X1282861Y2990642D01*
X1282192Y2991001D01*
X1280573Y2991556D01*
X1278985Y2992191D01*
X1278243Y2992356D01*
X1277525Y2992602D01*
X1275842Y2992888D01*
X1274168Y2993259D01*
X1273408Y2993302D01*
X1272661Y2993429D01*
X1270952Y2993440D01*
X1269242Y2993536D01*
X1268487Y2993456D01*
X1267727Y2993461D01*
X1266036Y2993195D01*
X1264335Y2993014D01*
X1263603Y2992813D01*
X1262853Y2992696D01*
X1261228Y2992161D01*
X1259578Y2991708D01*
X1258888Y2991392D01*
X1258166Y2991154D01*
X1256648Y2990365D01*
X1255093Y2989651D01*
X1254462Y2989227D01*
X1253789Y2988877D01*
X1252968Y2988222D01*
X1250999Y2986898D01*
X1249270Y2985274D01*
X1248448Y2984618D01*
X1210624Y2946794D01*
X1166746Y2928619D01*
X1119254Y2928619D01*
X1075376Y2946794D01*
X1037552Y2984618D01*
X1036973Y2985110D01*
X1036453Y2985663D01*
X1035098Y2986703D01*
X1033792Y2987813D01*
X1033140Y2988206D01*
X1032539Y2988667D01*
X1031034Y2989475D01*
X1029566Y2990360D01*
X1028861Y2990642D01*
X1028192Y2991001D01*
X1026573Y2991556D01*
X1024985Y2992191D01*
X1024243Y2992356D01*
X1023525Y2992602D01*
X1021842Y2992888D01*
X1020168Y2993259D01*
X1019408Y2993302D01*
X1018661Y2993429D01*
X1016952Y2993440D01*
X1015242Y2993536D01*
X1014487Y2993456D01*
X1013727Y2993461D01*
X1012036Y2993195D01*
X1010335Y2993014D01*
X1009603Y2992813D01*
X1008853Y2992696D01*
X1007228Y2992161D01*
X1005578Y2991708D01*
X1004888Y2991392D01*
X1004166Y2991154D01*
X1002648Y2990365D01*
X1001093Y2989651D01*
X1000462Y2989227D01*
X999789Y2988877D01*
X998968Y2988222D01*
X996999Y2986898D01*
X995270Y2985274D01*
X994448Y2984618D01*
X956624Y2946794D01*
X912746Y2928619D01*
X865254Y2928619D01*
X821376Y2946794D01*
X783552Y2984618D01*
X782973Y2985110D01*
X782453Y2985663D01*
X781098Y2986703D01*
X779792Y2987813D01*
X779140Y2988206D01*
X778539Y2988667D01*
X777034Y2989475D01*
X775566Y2990360D01*
X774861Y2990642D01*
X774192Y2991001D01*
X772573Y2991556D01*
X770985Y2992191D01*
X770243Y2992356D01*
X769525Y2992602D01*
X767842Y2992888D01*
X766168Y2993259D01*
X765408Y2993302D01*
X764661Y2993429D01*
X762952Y2993440D01*
X761242Y2993536D01*
X760487Y2993456D01*
X759727Y2993461D01*
X758036Y2993195D01*
X756335Y2993014D01*
X755603Y2992813D01*
X754853Y2992696D01*
X753228Y2992161D01*
X751578Y2991708D01*
X750888Y2991392D01*
X750166Y2991154D01*
X748648Y2990365D01*
X747093Y2989651D01*
X746462Y2989227D01*
X745789Y2988877D01*
X744968Y2988222D01*
X742999Y2986898D01*
X741270Y2985274D01*
X740448Y2984618D01*
X702624Y2946794D01*
X658746Y2928619D01*
X611254Y2928619D01*
X567376Y2946794D01*
X533794Y2980376D01*
X515619Y3024254D01*
X515619Y3071746D01*
X533794Y3115624D01*
X571618Y3153448D01*
X571865Y3153738D01*
X572148Y3153991D01*
X573458Y3155613D01*
X574813Y3157208D01*
X575010Y3157534D01*
X575248Y3157828D01*
X576278Y3159638D01*
X577360Y3161433D01*
X577501Y3161788D01*
X577688Y3162117D01*
X578412Y3164066D01*
X579191Y3166015D01*
X579273Y3166387D01*
X579405Y3166742D01*
X579807Y3168791D01*
X580259Y3170832D01*
X580280Y3171211D01*
X580353Y3171584D01*
X580419Y3173671D01*
X580536Y3175758D01*
X580496Y3176137D01*
X580508Y3176516D01*
X580236Y3178581D01*
X580014Y3180664D01*
X579913Y3181032D01*
X579864Y3181408D01*
X579263Y3183403D01*
X578708Y3185422D01*
X578549Y3185768D01*
X578440Y3186131D01*
X577523Y3188005D01*
X576651Y3189907D01*
X576439Y3190223D01*
X576272Y3190563D01*
X575065Y3192265D01*
X573898Y3194001D01*
X573638Y3194278D01*
X573418Y3194588D01*
X571949Y3196075D01*
X570520Y3197597D01*
X570218Y3197828D01*
X569951Y3198099D01*
X568259Y3199332D01*
X566606Y3200601D01*
X566272Y3200780D01*
X565964Y3201005D01*
X564095Y3201949D01*
X562258Y3202934D01*
X561900Y3203058D01*
X561560Y3203229D01*
X559564Y3203859D01*
X557592Y3204536D01*
X557218Y3204599D01*
X556855Y3204714D01*
X555933Y3204818D01*
X552728Y3205363D01*
X551001Y3205374D01*
X550066Y3205479D01*
X409080Y3205479D01*
X408323Y3205418D01*
X407564Y3205442D01*
X405870Y3205219D01*
X404162Y3205080D01*
X403424Y3204897D01*
X402672Y3204798D01*
X401036Y3204305D01*
X399373Y3203893D01*
X398675Y3203593D01*
X397948Y3203374D01*
X396411Y3202622D01*
X394839Y3201948D01*
X394198Y3201540D01*
X393516Y3201206D01*
X392120Y3200216D01*
X390677Y3199297D01*
X390111Y3198791D01*
X389492Y3198352D01*
X388273Y3197149D01*
X386998Y3196009D01*
X386521Y3195419D01*
X385981Y3194885D01*
X384972Y3193502D01*
X383898Y3192172D01*
X383523Y3191513D01*
X383075Y3190898D01*
X382303Y3189368D01*
X381457Y3187883D01*
X381193Y3187173D01*
X380851Y3186494D01*
X380335Y3184861D01*
X379740Y3183258D01*
X379594Y3182513D01*
X379366Y3181789D01*
X379248Y3180745D01*
X378792Y3178416D01*
X378718Y3176044D01*
X378600Y3175000D01*
X378600Y3141876D01*
X361454Y3077885D01*
X328330Y3020513D01*
X281486Y2973669D01*
X224114Y2940546D01*
X160124Y2923399D01*
X127000Y2923399D01*
X126243Y2923338D01*
X125484Y2923362D01*
X123790Y2923139D01*
X122082Y2923000D01*
X121344Y2922817D01*
X120593Y2922718D01*
X118956Y2922225D01*
X117293Y2921813D01*
X116595Y2921513D01*
X115869Y2921294D01*
X114332Y2920542D01*
X112759Y2919868D01*
X112119Y2919460D01*
X111437Y2919126D01*
X110041Y2918136D01*
X108598Y2917217D01*
X108032Y2916711D01*
X107412Y2916272D01*
X106194Y2915069D01*
X104918Y2913929D01*
X104442Y2913339D01*
X103901Y2912805D01*
X102893Y2911422D01*
X101818Y2910092D01*
X101443Y2909433D01*
X100995Y2908818D01*
X100223Y2907288D01*
X99378Y2905803D01*
X99114Y2905093D01*
X98771Y2904414D01*
X98256Y2902781D01*
X97661Y2901178D01*
X97515Y2900433D01*
X97286Y2899709D01*
X97168Y2898665D01*
X96713Y2896336D01*
X96638Y2893964D01*
X96521Y2892920D01*
X96521Y663080D01*
X96582Y662323D01*
X96558Y661564D01*
X96781Y659870D01*
X96920Y658162D01*
X97103Y657424D01*
X97202Y656672D01*
X97695Y655036D01*
X98108Y653373D01*
X98407Y652675D01*
X98626Y651948D01*
X99378Y650411D01*
X100052Y648839D01*
X100460Y648198D01*
X100794Y647516D01*
X101784Y646120D01*
X102703Y644677D01*
X103209Y644111D01*
X103648Y643492D01*
X104851Y642273D01*
X105991Y640998D01*
X106581Y640521D01*
X107115Y639981D01*
X108498Y638972D01*
X109828Y637898D01*
X110488Y637523D01*
X111102Y637075D01*
X112632Y636303D01*
X114117Y635457D01*
X114827Y635193D01*
X115506Y634851D01*
X117139Y634335D01*
X118742Y633740D01*
X119487Y633594D01*
X120211Y633366D01*
X121255Y633248D01*
X123584Y632792D01*
X125956Y632718D01*
X127000Y632600D01*
X160124Y632600D01*
X224114Y615454D01*
X281486Y582330D01*
X328330Y535486D01*
X361454Y478114D01*
X378600Y414124D01*
X378600Y381000D01*
X378662Y380243D01*
X378638Y379484D01*
X378861Y377790D01*
X379000Y376082D01*
X379183Y375344D01*
X379282Y374593D01*
X379775Y372956D01*
X380187Y371293D01*
X380487Y370595D01*
X380706Y369869D01*
X381458Y368332D01*
X382132Y366759D01*
X382540Y366119D01*
X382873Y365437D01*
X383863Y364041D01*
X384783Y362598D01*
X385288Y362032D01*
X385728Y361412D01*
X386931Y360194D01*
X388070Y358918D01*
X388661Y358442D01*
X389194Y357901D01*
X390578Y356893D01*
X391908Y355818D01*
X392567Y355443D01*
X393182Y354995D01*
X394711Y354223D01*
X396196Y353378D01*
X396907Y353114D01*
X397586Y352771D01*
X399219Y352256D01*
X400822Y351661D01*
X401567Y351515D01*
X402291Y351286D01*
X403335Y351168D01*
X405664Y350713D01*
X408035Y350638D01*
X409080Y350521D01*
X2892920Y350521D01*
X2893677Y350582D01*
G37*
G36*
X1017512Y3102544D02*
X1017512Y3102544D01*
X1018272Y3102539D01*
X1019963Y3102804D01*
X1021664Y3102985D01*
X1022397Y3103186D01*
X1023146Y3103304D01*
X1024770Y3103838D01*
X1026422Y3104292D01*
X1027113Y3104608D01*
X1027833Y3104845D01*
X1029351Y3105635D01*
X1030907Y3106348D01*
X1031536Y3106772D01*
X1032210Y3107123D01*
X1033034Y3107779D01*
X1035001Y3109102D01*
X1036729Y3110726D01*
X1037552Y3111382D01*
X1079618Y3153448D01*
X1079865Y3153738D01*
X1080148Y3153991D01*
X1081458Y3155613D01*
X1082813Y3157208D01*
X1083010Y3157534D01*
X1083248Y3157828D01*
X1084278Y3159638D01*
X1085360Y3161433D01*
X1085501Y3161788D01*
X1085688Y3162117D01*
X1086412Y3164066D01*
X1087191Y3166015D01*
X1087273Y3166387D01*
X1087405Y3166742D01*
X1087807Y3168791D01*
X1088259Y3170832D01*
X1088280Y3171211D01*
X1088353Y3171584D01*
X1088419Y3173671D01*
X1088536Y3175758D01*
X1088496Y3176137D01*
X1088508Y3176516D01*
X1088236Y3178581D01*
X1088014Y3180664D01*
X1087913Y3181032D01*
X1087864Y3181408D01*
X1087263Y3183403D01*
X1086708Y3185422D01*
X1086549Y3185768D01*
X1086440Y3186131D01*
X1085523Y3188005D01*
X1084651Y3189907D01*
X1084439Y3190223D01*
X1084272Y3190563D01*
X1083065Y3192265D01*
X1081898Y3194001D01*
X1081638Y3194278D01*
X1081418Y3194588D01*
X1079949Y3196075D01*
X1078520Y3197597D01*
X1078218Y3197828D01*
X1077951Y3198099D01*
X1076259Y3199332D01*
X1074606Y3200601D01*
X1074272Y3200780D01*
X1073964Y3201005D01*
X1072095Y3201949D01*
X1070258Y3202934D01*
X1069900Y3203058D01*
X1069560Y3203229D01*
X1067564Y3203859D01*
X1065592Y3204536D01*
X1065218Y3204599D01*
X1064855Y3204714D01*
X1063933Y3204818D01*
X1060728Y3205363D01*
X1059001Y3205374D01*
X1058066Y3205479D01*
X973934Y3205479D01*
X973556Y3205449D01*
X973176Y3205470D01*
X971097Y3205249D01*
X969016Y3205080D01*
X968648Y3204989D01*
X968269Y3204948D01*
X966253Y3204395D01*
X964227Y3203893D01*
X963878Y3203743D01*
X963512Y3203642D01*
X961610Y3202770D01*
X959693Y3201948D01*
X959373Y3201744D01*
X959027Y3201585D01*
X957291Y3200418D01*
X955531Y3199297D01*
X955248Y3199044D01*
X954933Y3198832D01*
X953409Y3197401D01*
X951852Y3196009D01*
X951613Y3195714D01*
X951337Y3195454D01*
X950064Y3193796D01*
X948752Y3192172D01*
X948564Y3191842D01*
X948333Y3191540D01*
X947343Y3189697D01*
X946311Y3187883D01*
X946179Y3187528D01*
X945999Y3187193D01*
X945322Y3185217D01*
X944594Y3183258D01*
X944521Y3182885D01*
X944398Y3182526D01*
X944049Y3180473D01*
X943646Y3178416D01*
X943634Y3178034D01*
X943571Y3177662D01*
X943558Y3175573D01*
X943492Y3173484D01*
X943542Y3173109D01*
X943539Y3172728D01*
X943864Y3170657D01*
X944136Y3168593D01*
X944245Y3168230D01*
X944304Y3167853D01*
X944957Y3165868D01*
X945560Y3163869D01*
X945727Y3163527D01*
X945845Y3163167D01*
X946810Y3161312D01*
X947728Y3159437D01*
X947947Y3159127D01*
X948123Y3158790D01*
X948700Y3158065D01*
X950582Y3155412D01*
X951795Y3154183D01*
X952382Y3153448D01*
X994448Y3111382D01*
X995027Y3110889D01*
X995546Y3110337D01*
X996901Y3109296D01*
X998207Y3108187D01*
X998859Y3107794D01*
X999460Y3107333D01*
X1000964Y3106525D01*
X1002433Y3105640D01*
X1003140Y3105358D01*
X1003807Y3104999D01*
X1005423Y3104445D01*
X1007015Y3103809D01*
X1007757Y3103644D01*
X1008474Y3103398D01*
X1010158Y3103112D01*
X1011832Y3102741D01*
X1012592Y3102698D01*
X1013338Y3102571D01*
X1015047Y3102560D01*
X1016758Y3102464D01*
X1017512Y3102544D01*
G37*
G36*
X2541512Y3102544D02*
X2541512Y3102544D01*
X2542272Y3102539D01*
X2543963Y3102804D01*
X2545664Y3102985D01*
X2546397Y3103186D01*
X2547146Y3103304D01*
X2548770Y3103838D01*
X2550422Y3104292D01*
X2551113Y3104608D01*
X2551833Y3104845D01*
X2553351Y3105635D01*
X2554907Y3106348D01*
X2555536Y3106772D01*
X2556210Y3107123D01*
X2557034Y3107779D01*
X2559001Y3109102D01*
X2560729Y3110726D01*
X2561552Y3111382D01*
X2603618Y3153448D01*
X2603865Y3153738D01*
X2604148Y3153991D01*
X2605458Y3155613D01*
X2606813Y3157208D01*
X2607010Y3157534D01*
X2607248Y3157828D01*
X2608278Y3159638D01*
X2609360Y3161433D01*
X2609501Y3161788D01*
X2609688Y3162117D01*
X2610412Y3164066D01*
X2611191Y3166015D01*
X2611273Y3166387D01*
X2611405Y3166742D01*
X2611807Y3168791D01*
X2612259Y3170832D01*
X2612280Y3171211D01*
X2612353Y3171584D01*
X2612419Y3173671D01*
X2612536Y3175758D01*
X2612496Y3176137D01*
X2612508Y3176516D01*
X2612236Y3178581D01*
X2612014Y3180664D01*
X2611913Y3181032D01*
X2611864Y3181408D01*
X2611263Y3183403D01*
X2610708Y3185422D01*
X2610549Y3185768D01*
X2610440Y3186131D01*
X2609523Y3188005D01*
X2608651Y3189907D01*
X2608439Y3190223D01*
X2608272Y3190563D01*
X2607065Y3192265D01*
X2605898Y3194001D01*
X2605638Y3194278D01*
X2605418Y3194588D01*
X2603949Y3196075D01*
X2602520Y3197597D01*
X2602218Y3197828D01*
X2601951Y3198099D01*
X2600259Y3199332D01*
X2598606Y3200601D01*
X2598272Y3200780D01*
X2597964Y3201005D01*
X2596095Y3201949D01*
X2594258Y3202934D01*
X2593900Y3203058D01*
X2593560Y3203229D01*
X2591564Y3203859D01*
X2589592Y3204536D01*
X2589218Y3204599D01*
X2588855Y3204714D01*
X2587933Y3204818D01*
X2584728Y3205363D01*
X2583001Y3205374D01*
X2582066Y3205479D01*
X2497934Y3205479D01*
X2497556Y3205449D01*
X2497176Y3205470D01*
X2495097Y3205249D01*
X2493016Y3205080D01*
X2492648Y3204989D01*
X2492269Y3204948D01*
X2490253Y3204395D01*
X2488227Y3203893D01*
X2487878Y3203743D01*
X2487512Y3203642D01*
X2485610Y3202770D01*
X2483693Y3201948D01*
X2483373Y3201744D01*
X2483027Y3201585D01*
X2481291Y3200418D01*
X2479531Y3199297D01*
X2479248Y3199044D01*
X2478933Y3198832D01*
X2477409Y3197401D01*
X2475852Y3196009D01*
X2475613Y3195714D01*
X2475337Y3195454D01*
X2474064Y3193796D01*
X2472752Y3192172D01*
X2472564Y3191842D01*
X2472333Y3191540D01*
X2471343Y3189697D01*
X2470311Y3187883D01*
X2470179Y3187528D01*
X2469999Y3187193D01*
X2469322Y3185217D01*
X2468594Y3183258D01*
X2468521Y3182885D01*
X2468398Y3182526D01*
X2468049Y3180473D01*
X2467646Y3178416D01*
X2467634Y3178034D01*
X2467571Y3177662D01*
X2467558Y3175573D01*
X2467492Y3173484D01*
X2467542Y3173109D01*
X2467539Y3172728D01*
X2467864Y3170657D01*
X2468136Y3168593D01*
X2468245Y3168230D01*
X2468304Y3167853D01*
X2468957Y3165868D01*
X2469560Y3163869D01*
X2469727Y3163527D01*
X2469845Y3163167D01*
X2470810Y3161312D01*
X2471728Y3159437D01*
X2471947Y3159127D01*
X2472123Y3158790D01*
X2472700Y3158065D01*
X2474582Y3155412D01*
X2475795Y3154183D01*
X2476382Y3153448D01*
X2518448Y3111382D01*
X2519027Y3110889D01*
X2519546Y3110337D01*
X2520901Y3109296D01*
X2522207Y3108187D01*
X2522859Y3107794D01*
X2523460Y3107333D01*
X2524964Y3106525D01*
X2526433Y3105640D01*
X2527140Y3105358D01*
X2527807Y3104999D01*
X2529423Y3104445D01*
X2531015Y3103809D01*
X2531757Y3103644D01*
X2532474Y3103398D01*
X2534158Y3103112D01*
X2535832Y3102741D01*
X2536592Y3102698D01*
X2537338Y3102571D01*
X2539047Y3102560D01*
X2540758Y3102464D01*
X2541512Y3102544D01*
G37*
G36*
X763512Y3102544D02*
X763512Y3102544D01*
X764272Y3102539D01*
X765963Y3102804D01*
X767664Y3102985D01*
X768397Y3103186D01*
X769146Y3103304D01*
X770770Y3103838D01*
X772422Y3104292D01*
X773113Y3104608D01*
X773833Y3104845D01*
X775351Y3105635D01*
X776907Y3106348D01*
X777536Y3106772D01*
X778210Y3107123D01*
X779034Y3107779D01*
X781001Y3109102D01*
X782729Y3110726D01*
X783552Y3111382D01*
X825618Y3153448D01*
X825865Y3153738D01*
X826148Y3153991D01*
X827458Y3155613D01*
X828813Y3157208D01*
X829010Y3157534D01*
X829248Y3157828D01*
X830278Y3159638D01*
X831360Y3161433D01*
X831501Y3161788D01*
X831688Y3162117D01*
X832412Y3164066D01*
X833191Y3166015D01*
X833273Y3166387D01*
X833405Y3166742D01*
X833807Y3168791D01*
X834259Y3170832D01*
X834280Y3171211D01*
X834353Y3171584D01*
X834419Y3173671D01*
X834536Y3175758D01*
X834496Y3176137D01*
X834508Y3176516D01*
X834236Y3178581D01*
X834014Y3180664D01*
X833913Y3181032D01*
X833864Y3181408D01*
X833263Y3183403D01*
X832708Y3185422D01*
X832549Y3185768D01*
X832440Y3186131D01*
X831523Y3188005D01*
X830651Y3189907D01*
X830439Y3190223D01*
X830272Y3190563D01*
X829065Y3192265D01*
X827898Y3194001D01*
X827638Y3194278D01*
X827418Y3194588D01*
X825949Y3196075D01*
X824520Y3197597D01*
X824218Y3197828D01*
X823951Y3198099D01*
X822259Y3199332D01*
X820606Y3200601D01*
X820272Y3200780D01*
X819964Y3201005D01*
X818095Y3201949D01*
X816258Y3202934D01*
X815900Y3203058D01*
X815560Y3203229D01*
X813564Y3203859D01*
X811592Y3204536D01*
X811218Y3204599D01*
X810855Y3204714D01*
X809933Y3204818D01*
X806728Y3205363D01*
X805001Y3205374D01*
X804066Y3205479D01*
X719934Y3205479D01*
X719556Y3205449D01*
X719176Y3205470D01*
X717097Y3205249D01*
X715016Y3205080D01*
X714648Y3204989D01*
X714269Y3204948D01*
X712253Y3204395D01*
X710227Y3203893D01*
X709878Y3203743D01*
X709512Y3203642D01*
X707610Y3202770D01*
X705693Y3201948D01*
X705373Y3201744D01*
X705027Y3201585D01*
X703291Y3200418D01*
X701531Y3199297D01*
X701248Y3199044D01*
X700933Y3198832D01*
X699409Y3197401D01*
X697852Y3196009D01*
X697613Y3195714D01*
X697337Y3195454D01*
X696064Y3193796D01*
X694752Y3192172D01*
X694564Y3191842D01*
X694333Y3191540D01*
X693343Y3189697D01*
X692311Y3187883D01*
X692179Y3187528D01*
X691999Y3187193D01*
X691322Y3185217D01*
X690594Y3183258D01*
X690521Y3182885D01*
X690398Y3182526D01*
X690049Y3180473D01*
X689646Y3178416D01*
X689634Y3178034D01*
X689571Y3177662D01*
X689558Y3175573D01*
X689492Y3173484D01*
X689542Y3173109D01*
X689539Y3172728D01*
X689864Y3170657D01*
X690136Y3168593D01*
X690245Y3168230D01*
X690304Y3167853D01*
X690957Y3165868D01*
X691560Y3163869D01*
X691727Y3163527D01*
X691845Y3163167D01*
X692810Y3161312D01*
X693728Y3159437D01*
X693947Y3159127D01*
X694123Y3158790D01*
X694700Y3158065D01*
X696582Y3155412D01*
X697795Y3154183D01*
X698382Y3153448D01*
X740448Y3111382D01*
X741027Y3110889D01*
X741546Y3110337D01*
X742901Y3109296D01*
X744207Y3108187D01*
X744859Y3107794D01*
X745460Y3107333D01*
X746964Y3106525D01*
X748433Y3105640D01*
X749140Y3105358D01*
X749807Y3104999D01*
X751423Y3104445D01*
X753015Y3103809D01*
X753757Y3103644D01*
X754474Y3103398D01*
X756158Y3103112D01*
X757832Y3102741D01*
X758592Y3102698D01*
X759338Y3102571D01*
X761047Y3102560D01*
X762758Y3102464D01*
X763512Y3102544D01*
G37*
G36*
X1779512Y3102544D02*
X1779512Y3102544D01*
X1780272Y3102539D01*
X1781963Y3102804D01*
X1783664Y3102985D01*
X1784397Y3103186D01*
X1785146Y3103304D01*
X1786770Y3103838D01*
X1788422Y3104292D01*
X1789113Y3104608D01*
X1789833Y3104845D01*
X1791351Y3105635D01*
X1792907Y3106348D01*
X1793536Y3106772D01*
X1794210Y3107123D01*
X1795034Y3107779D01*
X1797001Y3109102D01*
X1798729Y3110726D01*
X1799552Y3111382D01*
X1841618Y3153448D01*
X1841865Y3153738D01*
X1842148Y3153991D01*
X1843458Y3155613D01*
X1844813Y3157208D01*
X1845010Y3157534D01*
X1845248Y3157828D01*
X1846278Y3159638D01*
X1847360Y3161433D01*
X1847501Y3161788D01*
X1847688Y3162117D01*
X1848412Y3164066D01*
X1849191Y3166015D01*
X1849273Y3166387D01*
X1849405Y3166742D01*
X1849807Y3168791D01*
X1850259Y3170832D01*
X1850280Y3171211D01*
X1850353Y3171584D01*
X1850419Y3173671D01*
X1850536Y3175758D01*
X1850496Y3176137D01*
X1850508Y3176516D01*
X1850236Y3178581D01*
X1850014Y3180664D01*
X1849913Y3181032D01*
X1849864Y3181408D01*
X1849263Y3183403D01*
X1848708Y3185422D01*
X1848549Y3185768D01*
X1848440Y3186131D01*
X1847523Y3188005D01*
X1846651Y3189907D01*
X1846439Y3190223D01*
X1846272Y3190563D01*
X1845065Y3192265D01*
X1843898Y3194001D01*
X1843638Y3194278D01*
X1843418Y3194588D01*
X1841949Y3196075D01*
X1840520Y3197597D01*
X1840218Y3197828D01*
X1839951Y3198099D01*
X1838259Y3199332D01*
X1836606Y3200601D01*
X1836272Y3200780D01*
X1835964Y3201005D01*
X1834095Y3201949D01*
X1832258Y3202934D01*
X1831900Y3203058D01*
X1831560Y3203229D01*
X1829564Y3203859D01*
X1827592Y3204536D01*
X1827218Y3204599D01*
X1826855Y3204714D01*
X1825933Y3204818D01*
X1822728Y3205363D01*
X1821001Y3205374D01*
X1820066Y3205479D01*
X1735934Y3205479D01*
X1735556Y3205449D01*
X1735176Y3205470D01*
X1733097Y3205249D01*
X1731016Y3205080D01*
X1730648Y3204989D01*
X1730269Y3204948D01*
X1728253Y3204395D01*
X1726227Y3203893D01*
X1725878Y3203743D01*
X1725512Y3203642D01*
X1723610Y3202770D01*
X1721693Y3201948D01*
X1721373Y3201744D01*
X1721027Y3201585D01*
X1719291Y3200418D01*
X1717531Y3199297D01*
X1717248Y3199044D01*
X1716933Y3198832D01*
X1715409Y3197401D01*
X1713852Y3196009D01*
X1713613Y3195714D01*
X1713337Y3195454D01*
X1712064Y3193796D01*
X1710752Y3192172D01*
X1710564Y3191842D01*
X1710333Y3191540D01*
X1709343Y3189697D01*
X1708311Y3187883D01*
X1708179Y3187528D01*
X1707999Y3187193D01*
X1707322Y3185217D01*
X1706594Y3183258D01*
X1706521Y3182885D01*
X1706398Y3182526D01*
X1706049Y3180473D01*
X1705646Y3178416D01*
X1705634Y3178034D01*
X1705571Y3177662D01*
X1705558Y3175573D01*
X1705492Y3173484D01*
X1705542Y3173109D01*
X1705539Y3172728D01*
X1705864Y3170657D01*
X1706136Y3168593D01*
X1706245Y3168230D01*
X1706304Y3167853D01*
X1706957Y3165868D01*
X1707560Y3163869D01*
X1707727Y3163527D01*
X1707845Y3163167D01*
X1708810Y3161312D01*
X1709728Y3159437D01*
X1709947Y3159127D01*
X1710123Y3158790D01*
X1710700Y3158065D01*
X1712582Y3155412D01*
X1713795Y3154183D01*
X1714382Y3153448D01*
X1756448Y3111382D01*
X1757027Y3110889D01*
X1757546Y3110337D01*
X1758901Y3109296D01*
X1760207Y3108187D01*
X1760859Y3107794D01*
X1761460Y3107333D01*
X1762964Y3106525D01*
X1764433Y3105640D01*
X1765140Y3105358D01*
X1765807Y3104999D01*
X1767423Y3104445D01*
X1769015Y3103809D01*
X1769757Y3103644D01*
X1770474Y3103398D01*
X1772158Y3103112D01*
X1773832Y3102741D01*
X1774592Y3102698D01*
X1775338Y3102571D01*
X1777047Y3102560D01*
X1778758Y3102464D01*
X1779512Y3102544D01*
G37*
G36*
X1525512Y3102544D02*
X1525512Y3102544D01*
X1526272Y3102539D01*
X1527963Y3102804D01*
X1529664Y3102985D01*
X1530397Y3103186D01*
X1531146Y3103304D01*
X1532770Y3103838D01*
X1534422Y3104292D01*
X1535113Y3104608D01*
X1535833Y3104845D01*
X1537351Y3105635D01*
X1538907Y3106348D01*
X1539536Y3106772D01*
X1540210Y3107123D01*
X1541034Y3107779D01*
X1543001Y3109102D01*
X1544729Y3110726D01*
X1545552Y3111382D01*
X1587618Y3153448D01*
X1587865Y3153738D01*
X1588148Y3153991D01*
X1589458Y3155613D01*
X1590813Y3157208D01*
X1591010Y3157534D01*
X1591248Y3157828D01*
X1592278Y3159638D01*
X1593360Y3161433D01*
X1593501Y3161788D01*
X1593688Y3162117D01*
X1594412Y3164066D01*
X1595191Y3166015D01*
X1595273Y3166387D01*
X1595405Y3166742D01*
X1595807Y3168791D01*
X1596259Y3170832D01*
X1596280Y3171211D01*
X1596353Y3171584D01*
X1596419Y3173671D01*
X1596536Y3175758D01*
X1596496Y3176137D01*
X1596508Y3176516D01*
X1596236Y3178581D01*
X1596014Y3180664D01*
X1595913Y3181032D01*
X1595864Y3181408D01*
X1595263Y3183403D01*
X1594708Y3185422D01*
X1594549Y3185768D01*
X1594440Y3186131D01*
X1593523Y3188005D01*
X1592651Y3189907D01*
X1592439Y3190223D01*
X1592272Y3190563D01*
X1591065Y3192265D01*
X1589898Y3194001D01*
X1589638Y3194278D01*
X1589418Y3194588D01*
X1587949Y3196075D01*
X1586520Y3197597D01*
X1586218Y3197828D01*
X1585951Y3198099D01*
X1584259Y3199332D01*
X1582606Y3200601D01*
X1582272Y3200780D01*
X1581964Y3201005D01*
X1580095Y3201949D01*
X1578258Y3202934D01*
X1577900Y3203058D01*
X1577560Y3203229D01*
X1575564Y3203859D01*
X1573592Y3204536D01*
X1573218Y3204599D01*
X1572855Y3204714D01*
X1571933Y3204818D01*
X1568728Y3205363D01*
X1567001Y3205374D01*
X1566066Y3205479D01*
X1481934Y3205479D01*
X1481556Y3205449D01*
X1481176Y3205470D01*
X1479097Y3205249D01*
X1477016Y3205080D01*
X1476648Y3204989D01*
X1476269Y3204948D01*
X1474253Y3204395D01*
X1472227Y3203893D01*
X1471878Y3203743D01*
X1471512Y3203642D01*
X1469610Y3202770D01*
X1467693Y3201948D01*
X1467373Y3201744D01*
X1467027Y3201585D01*
X1465291Y3200418D01*
X1463531Y3199297D01*
X1463248Y3199044D01*
X1462933Y3198832D01*
X1461409Y3197401D01*
X1459852Y3196009D01*
X1459613Y3195714D01*
X1459337Y3195454D01*
X1458064Y3193796D01*
X1456752Y3192172D01*
X1456564Y3191842D01*
X1456333Y3191540D01*
X1455343Y3189697D01*
X1454311Y3187883D01*
X1454179Y3187528D01*
X1453999Y3187193D01*
X1453322Y3185217D01*
X1452594Y3183258D01*
X1452521Y3182885D01*
X1452398Y3182526D01*
X1452049Y3180473D01*
X1451646Y3178416D01*
X1451634Y3178034D01*
X1451571Y3177662D01*
X1451558Y3175573D01*
X1451492Y3173484D01*
X1451542Y3173109D01*
X1451539Y3172728D01*
X1451864Y3170657D01*
X1452136Y3168593D01*
X1452245Y3168230D01*
X1452304Y3167853D01*
X1452957Y3165868D01*
X1453560Y3163869D01*
X1453727Y3163527D01*
X1453845Y3163167D01*
X1454810Y3161312D01*
X1455728Y3159437D01*
X1455947Y3159127D01*
X1456123Y3158790D01*
X1456700Y3158065D01*
X1458582Y3155412D01*
X1459795Y3154183D01*
X1460382Y3153448D01*
X1502448Y3111382D01*
X1503027Y3110889D01*
X1503546Y3110337D01*
X1504901Y3109296D01*
X1506207Y3108187D01*
X1506859Y3107794D01*
X1507460Y3107333D01*
X1508964Y3106525D01*
X1510433Y3105640D01*
X1511140Y3105358D01*
X1511807Y3104999D01*
X1513423Y3104445D01*
X1515015Y3103809D01*
X1515757Y3103644D01*
X1516474Y3103398D01*
X1518158Y3103112D01*
X1519832Y3102741D01*
X1520592Y3102698D01*
X1521338Y3102571D01*
X1523047Y3102560D01*
X1524758Y3102464D01*
X1525512Y3102544D01*
G37*
G36*
X2287512Y3102544D02*
X2287512Y3102544D01*
X2288272Y3102539D01*
X2289963Y3102804D01*
X2291664Y3102985D01*
X2292397Y3103186D01*
X2293146Y3103304D01*
X2294770Y3103838D01*
X2296422Y3104292D01*
X2297113Y3104608D01*
X2297833Y3104845D01*
X2299351Y3105635D01*
X2300907Y3106348D01*
X2301536Y3106772D01*
X2302210Y3107123D01*
X2303034Y3107779D01*
X2305001Y3109102D01*
X2306729Y3110726D01*
X2307552Y3111382D01*
X2349618Y3153448D01*
X2349865Y3153738D01*
X2350148Y3153991D01*
X2351458Y3155613D01*
X2352813Y3157208D01*
X2353010Y3157534D01*
X2353248Y3157828D01*
X2354278Y3159638D01*
X2355360Y3161433D01*
X2355501Y3161788D01*
X2355688Y3162117D01*
X2356412Y3164066D01*
X2357191Y3166015D01*
X2357273Y3166387D01*
X2357405Y3166742D01*
X2357807Y3168791D01*
X2358259Y3170832D01*
X2358280Y3171211D01*
X2358353Y3171584D01*
X2358419Y3173671D01*
X2358536Y3175758D01*
X2358496Y3176137D01*
X2358508Y3176516D01*
X2358236Y3178581D01*
X2358014Y3180664D01*
X2357913Y3181032D01*
X2357864Y3181408D01*
X2357263Y3183403D01*
X2356708Y3185422D01*
X2356549Y3185768D01*
X2356440Y3186131D01*
X2355523Y3188005D01*
X2354651Y3189907D01*
X2354439Y3190223D01*
X2354272Y3190563D01*
X2353065Y3192265D01*
X2351898Y3194001D01*
X2351638Y3194278D01*
X2351418Y3194588D01*
X2349949Y3196075D01*
X2348520Y3197597D01*
X2348218Y3197828D01*
X2347951Y3198099D01*
X2346259Y3199332D01*
X2344606Y3200601D01*
X2344272Y3200780D01*
X2343964Y3201005D01*
X2342095Y3201949D01*
X2340258Y3202934D01*
X2339900Y3203058D01*
X2339560Y3203229D01*
X2337564Y3203859D01*
X2335592Y3204536D01*
X2335218Y3204599D01*
X2334855Y3204714D01*
X2333933Y3204818D01*
X2330728Y3205363D01*
X2329001Y3205374D01*
X2328066Y3205479D01*
X2243934Y3205479D01*
X2243556Y3205449D01*
X2243176Y3205470D01*
X2241097Y3205249D01*
X2239016Y3205080D01*
X2238648Y3204989D01*
X2238269Y3204948D01*
X2236253Y3204395D01*
X2234227Y3203893D01*
X2233878Y3203743D01*
X2233512Y3203642D01*
X2231610Y3202770D01*
X2229693Y3201948D01*
X2229373Y3201744D01*
X2229027Y3201585D01*
X2227291Y3200418D01*
X2225531Y3199297D01*
X2225248Y3199044D01*
X2224933Y3198832D01*
X2223409Y3197401D01*
X2221852Y3196009D01*
X2221613Y3195714D01*
X2221337Y3195454D01*
X2220064Y3193796D01*
X2218752Y3192172D01*
X2218564Y3191842D01*
X2218333Y3191540D01*
X2217343Y3189697D01*
X2216311Y3187883D01*
X2216179Y3187528D01*
X2215999Y3187193D01*
X2215322Y3185217D01*
X2214594Y3183258D01*
X2214521Y3182885D01*
X2214398Y3182526D01*
X2214049Y3180473D01*
X2213646Y3178416D01*
X2213634Y3178034D01*
X2213571Y3177662D01*
X2213558Y3175573D01*
X2213492Y3173484D01*
X2213542Y3173109D01*
X2213539Y3172728D01*
X2213864Y3170657D01*
X2214136Y3168593D01*
X2214245Y3168230D01*
X2214304Y3167853D01*
X2214957Y3165868D01*
X2215560Y3163869D01*
X2215727Y3163527D01*
X2215845Y3163167D01*
X2216810Y3161312D01*
X2217728Y3159437D01*
X2217947Y3159127D01*
X2218123Y3158790D01*
X2218700Y3158065D01*
X2220582Y3155412D01*
X2221795Y3154183D01*
X2222382Y3153448D01*
X2264448Y3111382D01*
X2265027Y3110889D01*
X2265546Y3110337D01*
X2266901Y3109296D01*
X2268207Y3108187D01*
X2268859Y3107794D01*
X2269460Y3107333D01*
X2270964Y3106525D01*
X2272433Y3105640D01*
X2273140Y3105358D01*
X2273807Y3104999D01*
X2275423Y3104445D01*
X2277015Y3103809D01*
X2277757Y3103644D01*
X2278474Y3103398D01*
X2280158Y3103112D01*
X2281832Y3102741D01*
X2282592Y3102698D01*
X2283338Y3102571D01*
X2285047Y3102560D01*
X2286758Y3102464D01*
X2287512Y3102544D01*
G37*
G36*
X1271512Y3102544D02*
X1271512Y3102544D01*
X1272272Y3102539D01*
X1273963Y3102804D01*
X1275664Y3102985D01*
X1276397Y3103186D01*
X1277146Y3103304D01*
X1278770Y3103838D01*
X1280422Y3104292D01*
X1281113Y3104608D01*
X1281833Y3104845D01*
X1283351Y3105635D01*
X1284907Y3106348D01*
X1285536Y3106772D01*
X1286210Y3107123D01*
X1287034Y3107779D01*
X1289001Y3109102D01*
X1290729Y3110726D01*
X1291552Y3111382D01*
X1333618Y3153448D01*
X1333865Y3153738D01*
X1334148Y3153991D01*
X1335458Y3155613D01*
X1336813Y3157208D01*
X1337010Y3157534D01*
X1337248Y3157828D01*
X1338278Y3159638D01*
X1339360Y3161433D01*
X1339501Y3161788D01*
X1339688Y3162117D01*
X1340412Y3164066D01*
X1341191Y3166015D01*
X1341273Y3166387D01*
X1341405Y3166742D01*
X1341807Y3168791D01*
X1342259Y3170832D01*
X1342280Y3171211D01*
X1342353Y3171584D01*
X1342419Y3173671D01*
X1342536Y3175758D01*
X1342496Y3176137D01*
X1342508Y3176516D01*
X1342236Y3178581D01*
X1342014Y3180664D01*
X1341913Y3181032D01*
X1341864Y3181408D01*
X1341263Y3183403D01*
X1340708Y3185422D01*
X1340549Y3185768D01*
X1340440Y3186131D01*
X1339523Y3188005D01*
X1338651Y3189907D01*
X1338439Y3190223D01*
X1338272Y3190563D01*
X1337065Y3192265D01*
X1335898Y3194001D01*
X1335638Y3194278D01*
X1335418Y3194588D01*
X1333949Y3196075D01*
X1332520Y3197597D01*
X1332218Y3197828D01*
X1331951Y3198099D01*
X1330259Y3199332D01*
X1328606Y3200601D01*
X1328272Y3200780D01*
X1327964Y3201005D01*
X1326095Y3201949D01*
X1324258Y3202934D01*
X1323900Y3203058D01*
X1323560Y3203229D01*
X1321564Y3203859D01*
X1319592Y3204536D01*
X1319218Y3204599D01*
X1318855Y3204714D01*
X1317933Y3204818D01*
X1314728Y3205363D01*
X1313001Y3205374D01*
X1312066Y3205479D01*
X1227934Y3205479D01*
X1227556Y3205449D01*
X1227176Y3205470D01*
X1225097Y3205249D01*
X1223016Y3205080D01*
X1222648Y3204989D01*
X1222269Y3204948D01*
X1220253Y3204395D01*
X1218227Y3203893D01*
X1217878Y3203743D01*
X1217512Y3203642D01*
X1215610Y3202770D01*
X1213693Y3201948D01*
X1213373Y3201744D01*
X1213027Y3201585D01*
X1211291Y3200418D01*
X1209531Y3199297D01*
X1209248Y3199044D01*
X1208933Y3198832D01*
X1207409Y3197401D01*
X1205852Y3196009D01*
X1205613Y3195714D01*
X1205337Y3195454D01*
X1204064Y3193796D01*
X1202752Y3192172D01*
X1202564Y3191842D01*
X1202333Y3191540D01*
X1201343Y3189697D01*
X1200311Y3187883D01*
X1200179Y3187528D01*
X1199999Y3187193D01*
X1199322Y3185217D01*
X1198594Y3183258D01*
X1198521Y3182885D01*
X1198398Y3182526D01*
X1198049Y3180473D01*
X1197646Y3178416D01*
X1197634Y3178034D01*
X1197571Y3177662D01*
X1197558Y3175573D01*
X1197492Y3173484D01*
X1197542Y3173109D01*
X1197539Y3172728D01*
X1197864Y3170657D01*
X1198136Y3168593D01*
X1198245Y3168230D01*
X1198304Y3167853D01*
X1198957Y3165868D01*
X1199560Y3163869D01*
X1199727Y3163527D01*
X1199845Y3163167D01*
X1200810Y3161312D01*
X1201728Y3159437D01*
X1201947Y3159127D01*
X1202123Y3158790D01*
X1202700Y3158065D01*
X1204582Y3155412D01*
X1205795Y3154183D01*
X1206382Y3153448D01*
X1248448Y3111382D01*
X1249027Y3110889D01*
X1249546Y3110337D01*
X1250901Y3109296D01*
X1252207Y3108187D01*
X1252859Y3107794D01*
X1253460Y3107333D01*
X1254964Y3106525D01*
X1256433Y3105640D01*
X1257140Y3105358D01*
X1257807Y3104999D01*
X1259423Y3104445D01*
X1261015Y3103809D01*
X1261757Y3103644D01*
X1262474Y3103398D01*
X1264158Y3103112D01*
X1265832Y3102741D01*
X1266592Y3102698D01*
X1267338Y3102571D01*
X1269047Y3102560D01*
X1270758Y3102464D01*
X1271512Y3102544D01*
G37*
G36*
X2033512Y3102544D02*
X2033512Y3102544D01*
X2034272Y3102539D01*
X2035963Y3102804D01*
X2037664Y3102985D01*
X2038397Y3103186D01*
X2039146Y3103304D01*
X2040770Y3103838D01*
X2042422Y3104292D01*
X2043113Y3104608D01*
X2043833Y3104845D01*
X2045351Y3105635D01*
X2046907Y3106348D01*
X2047536Y3106772D01*
X2048210Y3107123D01*
X2049034Y3107779D01*
X2051001Y3109102D01*
X2052729Y3110726D01*
X2053552Y3111382D01*
X2095618Y3153448D01*
X2095865Y3153738D01*
X2096148Y3153991D01*
X2097458Y3155613D01*
X2098813Y3157208D01*
X2099010Y3157534D01*
X2099248Y3157828D01*
X2100278Y3159638D01*
X2101360Y3161433D01*
X2101501Y3161788D01*
X2101688Y3162117D01*
X2102412Y3164066D01*
X2103191Y3166015D01*
X2103273Y3166387D01*
X2103405Y3166742D01*
X2103807Y3168791D01*
X2104259Y3170832D01*
X2104280Y3171211D01*
X2104353Y3171584D01*
X2104419Y3173671D01*
X2104536Y3175758D01*
X2104496Y3176137D01*
X2104508Y3176516D01*
X2104236Y3178581D01*
X2104014Y3180664D01*
X2103913Y3181032D01*
X2103864Y3181408D01*
X2103263Y3183403D01*
X2102708Y3185422D01*
X2102549Y3185768D01*
X2102440Y3186131D01*
X2101523Y3188005D01*
X2100651Y3189907D01*
X2100439Y3190223D01*
X2100272Y3190563D01*
X2099065Y3192265D01*
X2097898Y3194001D01*
X2097638Y3194278D01*
X2097418Y3194588D01*
X2095949Y3196075D01*
X2094520Y3197597D01*
X2094218Y3197828D01*
X2093951Y3198099D01*
X2092259Y3199332D01*
X2090606Y3200601D01*
X2090272Y3200780D01*
X2089964Y3201005D01*
X2088095Y3201949D01*
X2086258Y3202934D01*
X2085900Y3203058D01*
X2085560Y3203229D01*
X2083564Y3203859D01*
X2081592Y3204536D01*
X2081218Y3204599D01*
X2080855Y3204714D01*
X2079933Y3204818D01*
X2076728Y3205363D01*
X2075001Y3205374D01*
X2074066Y3205479D01*
X1989934Y3205479D01*
X1989556Y3205449D01*
X1989176Y3205470D01*
X1987097Y3205249D01*
X1985016Y3205080D01*
X1984648Y3204989D01*
X1984269Y3204948D01*
X1982253Y3204395D01*
X1980227Y3203893D01*
X1979878Y3203743D01*
X1979512Y3203642D01*
X1977610Y3202770D01*
X1975693Y3201948D01*
X1975373Y3201744D01*
X1975027Y3201585D01*
X1973291Y3200418D01*
X1971531Y3199297D01*
X1971248Y3199044D01*
X1970933Y3198832D01*
X1969409Y3197401D01*
X1967852Y3196009D01*
X1967613Y3195714D01*
X1967337Y3195454D01*
X1966064Y3193796D01*
X1964752Y3192172D01*
X1964564Y3191842D01*
X1964333Y3191540D01*
X1963343Y3189697D01*
X1962311Y3187883D01*
X1962179Y3187528D01*
X1961999Y3187193D01*
X1961322Y3185217D01*
X1960594Y3183258D01*
X1960521Y3182885D01*
X1960398Y3182526D01*
X1960049Y3180473D01*
X1959646Y3178416D01*
X1959634Y3178034D01*
X1959571Y3177662D01*
X1959558Y3175573D01*
X1959492Y3173484D01*
X1959542Y3173109D01*
X1959539Y3172728D01*
X1959864Y3170657D01*
X1960136Y3168593D01*
X1960245Y3168230D01*
X1960304Y3167853D01*
X1960957Y3165868D01*
X1961560Y3163869D01*
X1961727Y3163527D01*
X1961845Y3163167D01*
X1962810Y3161312D01*
X1963728Y3159437D01*
X1963947Y3159127D01*
X1964123Y3158790D01*
X1964700Y3158065D01*
X1966582Y3155412D01*
X1967795Y3154183D01*
X1968382Y3153448D01*
X2010448Y3111382D01*
X2011027Y3110889D01*
X2011546Y3110337D01*
X2012901Y3109296D01*
X2014207Y3108187D01*
X2014859Y3107794D01*
X2015460Y3107333D01*
X2016964Y3106525D01*
X2018433Y3105640D01*
X2019140Y3105358D01*
X2019807Y3104999D01*
X2021423Y3104445D01*
X2023015Y3103809D01*
X2023757Y3103644D01*
X2024474Y3103398D01*
X2026158Y3103112D01*
X2027832Y3102741D01*
X2028592Y3102698D01*
X2029338Y3102571D01*
X2031047Y3102560D01*
X2032758Y3102464D01*
X2033512Y3102544D01*
G37*
D10*
X635000Y3048000D03*
X889000Y3048000D03*
X1143000Y3048000D03*
X1397000Y3048000D03*
X1651000Y3048000D03*
X1905000Y3048000D03*
X2159000Y3048000D03*
X2413000Y3048000D03*
X2667000Y3048000D03*
M02*
